<svg xmlns="http://www.w3.org/2000/svg" viewBox="0 0 241.35 308.05"><defs><style>.cls-1{fill:#3d3d3d;}</style></defs><title>focus-wearable-black</title><g id="Layer_2" data-name="Layer 2"><g id="Layer_1-2" data-name="Layer 1"><path class="cls-1" d="M105.05,107.62a9.74,9.74,0,1,1,9.74-9.74A9.74,9.74,0,0,1,105.05,107.62Zm0-13.47a3.74,3.74,0,1,0,3.74,3.73A3.73,3.73,0,0,0,105.05,94.15Z"/><path class="cls-1" d="M130.7,143.07a9.74,9.74,0,1,1,9.74-9.73A9.75,9.75,0,0,1,130.7,143.07Zm0-13.47a3.74,3.74,0,1,0,3.74,3.73A3.74,3.74,0,0,0,130.7,129.6Z"/><path class="cls-1" d="M9.74,123.13a9.74,9.74,0,1,1,9.73-9.73A9.75,9.75,0,0,1,9.74,123.13Zm0-13.47a3.74,3.74,0,1,0,3.73,3.74A3.74,3.74,0,0,0,9.74,109.66Z"/><path class="cls-1" d="M102.56,182.4a9.74,9.74,0,1,1,9.74-9.73A9.74,9.74,0,0,1,102.56,182.4Zm0-13.47a3.74,3.74,0,1,0,3.74,3.74A3.73,3.73,0,0,0,102.56,168.93Z"/><path class="cls-1" d="M179.67,115a9.74,9.74,0,1,1,9.73-9.74A9.75,9.75,0,0,1,179.67,115Zm0-13.48a3.74,3.74,0,1,0,3.73,3.74A3.75,3.75,0,0,0,179.67,101.55Z"/><path class="cls-1" d="M193.14,160.12a9.74,9.74,0,1,1,9.74-9.74A9.74,9.74,0,0,1,193.14,160.12Zm0-13.48a3.74,3.74,0,1,0,3.74,3.74A3.74,3.74,0,0,0,193.14,146.64Z"/><path class="cls-1" d="M170.6,35.79a9.74,9.74,0,1,1,9.74-9.74A9.74,9.74,0,0,1,170.6,35.79Zm0-13.47a3.74,3.74,0,1,0,3.74,3.73A3.74,3.74,0,0,0,170.6,22.32Z"/><path class="cls-1" d="M163.87,175.67a9.74,9.74,0,1,1,9.73-9.74A9.75,9.75,0,0,1,163.87,175.67Zm0-13.48a3.74,3.74,0,1,0,3.73,3.74A3.74,3.74,0,0,0,163.87,162.19Z"/><path class="cls-1" d="M137.44,210.34a9.74,9.74,0,1,1,9.74-9.73A9.73,9.73,0,0,1,137.44,210.34Zm0-13.47a3.74,3.74,0,1,0,3.74,3.74A3.74,3.74,0,0,0,137.44,196.87Z"/><path class="cls-1" d="M183.24,214.17a9.74,9.74,0,1,1,9.74-9.74A9.74,9.74,0,0,1,183.24,214.17Zm0-13.47a3.74,3.74,0,1,0,3.74,3.73A3.73,3.73,0,0,0,183.24,200.7Z"/><path class="cls-1" d="M137.44,292.76a9.73,9.73,0,1,1,9.74-9.73A9.73,9.73,0,0,1,137.44,292.76Zm0-13.46a3.73,3.73,0,1,0,3.74,3.73A3.73,3.73,0,0,0,137.44,279.3Z"/><polygon class="cls-1" points="39.36 116.39 13.98 116.39 13.98 110.39 35.59 110.39 43.09 94.88 98.32 94.88 98.32 100.88 46.85 100.88 39.36 116.39"/><path class="cls-1" d="M207.93,250.05h-123a23,23,0,0,1-23-23V79.65a23,23,0,0,1,23-23h123a23,23,0,0,1,23,23v147.4A23,23,0,0,1,207.93,250.05Zm-123-187.4a17,17,0,0,0-17,17v147.4a17,17,0,0,0,17,17h123a17,17,0,0,0,17-17V79.65a17,17,0,0,0-17-17Z"/><path class="cls-1" d="M203.93,238.05h-115a15,15,0,0,1-15-15V83.65a15,15,0,0,1,15-15h115a15,15,0,0,1,15,15v139.4A15,15,0,0,1,203.93,238.05Zm-115-163.4a9,9,0,0,0-9,9v139.4a9,9,0,0,0,9,9h115a9,9,0,0,0,9-9V83.65a9,9,0,0,0-9-9Z"/><path class="cls-1" d="M200.7,62.73a45.35,45.35,0,0,1-7-24.23V19.75a8.89,8.89,0,0,0-5.23-8C182.28,9,164.46,6,146.41,6s-35.87,3-42,5.74a8.85,8.85,0,0,0-5.23,7.93V38.5a45.25,45.25,0,0,1-7,24.23L87.2,59.28a39.84,39.84,0,0,0,6-20.78V19.75a14.83,14.83,0,0,1,8.77-13.49C109.77,2.75,129.3,0,146.41,0s36.64,2.75,44.48,6.26a14.86,14.86,0,0,1,8.77,13.59V38.5a39.5,39.5,0,0,0,6,20.78Z"/><path class="cls-1" d="M146.41,308.05c-17.11,0-36.64-2.75-44.48-6.26a14.86,14.86,0,0,1-8.77-13.59V269.55a39.36,39.36,0,0,0-6-20.77l4.91-3.45a45.2,45.2,0,0,1,7,24.22V288.3a8.88,8.88,0,0,0,5.23,8c6.15,2.75,24,5.73,42,5.73s35.87-3,42-5.73a8.88,8.88,0,0,0,5.23-7.94V269.55a45.34,45.34,0,0,1,7-24.22l4.91,3.45-2.45-1.73,2.46,1.72a39.88,39.88,0,0,0-6,20.78V288.3a14.83,14.83,0,0,1-8.77,13.49C183.05,305.3,163.52,308.05,146.41,308.05Z"/><path class="cls-1" d="M241.35,134.34H224.93V98.67h16.42Zm-10.42-6h4.42V104.67h-4.42Z"/><path class="cls-1" d="M241.35,175.67H224.93V140h16.42Zm-10.42-6h4.42V146h-4.42Z"/><rect class="cls-1" x="134.44" y="207.34" width="6" height="71.68"/><polygon class="cls-1" points="182.67 98.55 176.67 98.55 176.67 72.66 167.6 60.66 167.6 32 173.6 32 173.6 58.65 182.67 70.65 182.67 98.55"/></g></g></svg>