<svg xmlns="http://www.w3.org/2000/svg" viewBox="0 0 231.93 304.05"><defs><style>.cls-1{fill:#231f20;}</style></defs><title>focus-agritech-black</title><g id="Layer_2" data-name="Layer 2"><g id="Layer_1-2" data-name="Layer 1"><path class="cls-1" d="M104.2,105.58a10.13,10.13,0,1,1,10.13-10.13A10.15,10.15,0,0,1,104.2,105.58Zm0-14.42a4.29,4.29,0,1,0,4.29,4.29A4.3,4.3,0,0,0,104.2,91.16Z"/><path class="cls-1" d="M173.41,113.12A10.13,10.13,0,1,1,183.54,103,10.14,10.14,0,0,1,173.41,113.12Zm0-14.42A4.29,4.29,0,1,0,177.7,103,4.3,4.3,0,0,0,173.41,98.7Z"/><path class="cls-1" d="M150.63,71.93A10.13,10.13,0,1,1,160.75,61.8,10.14,10.14,0,0,1,150.63,71.93Zm0-14.42a4.29,4.29,0,1,0,4.29,4.29A4.3,4.3,0,0,0,150.63,57.51Z"/><path class="cls-1" d="M189.61,62.27a10.13,10.13,0,1,1,10.13-10.13A10.14,10.14,0,0,1,189.61,62.27Zm0-14.42a4.29,4.29,0,1,0,4.29,4.29A4.29,4.29,0,0,0,189.61,47.85Z"/><path class="cls-1" d="M36.31,271.71l-.89-2c-.51-1.15-12.5-28.61-15.15-65.52C17.81,169.93,23.4,121.06,64,82.62c18.72-17.72,60.42-41.18,97-54.57,13.81-5.05,25-8.71,34-11.65,15.4-5,24.7-8.08,31.73-12.87L231.93,0l-.64,6.24c-.06.67-6.95,67.56-15.16,106.8-13.76,65.76-39.36,107.26-78.28,126.87C89.3,264.38,60.3,268.38,41.1,271ZM224.87,11.42c-7,3.64-15.89,6.55-28,10.52-9,2.93-20.1,6.58-33.81,11.59-36,13.16-76.8,36.08-95,53.33C-1,152.18,33.89,250.05,39.93,265.31l.37-.05c18.82-2.6,47.24-6.53,94.92-30.56,37.23-18.76,61.83-58.95,75.2-122.85C217.16,79.63,223,28.51,224.87,11.42Z"/><path class="cls-1" d="M17.52,292.11l-3.41-4.73c.12-.09,12-8.79,26.4-30.54,3.1-4.66,7-13.39,11.86-24.45C70.72,190.9,104.88,113.68,183.52,53.94l3.53,4.65C109.61,117.42,75.84,193.74,57.71,234.75c-5.21,11.75-9,20.25-12.33,25.32C30.27,282.81,18,291.74,17.52,292.11Z"/><rect class="cls-1" x="151.55" y="68.77" width="5.84" height="12.41" transform="translate(-14.97 47.17) rotate(-16.57)"/><rect class="cls-1" x="147.7" y="87.24" width="5.84" height="31.15" transform="translate(46.18 252.31) rotate(-89.38)"/><path class="cls-1" d="M132,169a10.13,10.13,0,1,1,10.12-10.12A10.13,10.13,0,0,1,132,169Zm0-14.41a4.29,4.29,0,1,0,4.29,4.29A4.3,4.3,0,0,0,132,154.58Z"/><rect class="cls-1" x="106.29" y="143.11" width="5.84" height="31.15" transform="translate(-50.64 266.18) rotate(-89.38)"/><path class="cls-1" d="M99.69,233.48a10.13,10.13,0,1,1,10.13-10.12A10.13,10.13,0,0,1,99.69,233.48Zm0-14.41a4.29,4.29,0,1,0,4.29,4.29A4.29,4.29,0,0,0,99.69,219.07Z"/><path class="cls-1" d="M10.13,304.05a10.13,10.13,0,1,1,10.13-10.12A10.13,10.13,0,0,1,10.13,304.05Zm0-14.41a4.29,4.29,0,1,0,4.29,4.29A4.29,4.29,0,0,0,10.13,289.64Z"/><rect class="cls-1" x="73.96" y="207.6" width="5.84" height="31.15" transform="translate(-147.12 297.63) rotate(-89.38)"/><rect class="cls-1" x="108.1" y="98.95" width="5.84" height="27.3" transform="translate(-35.67 53.55) rotate(-23.48)"/><path class="cls-1" d="M61.33,175a10.13,10.13,0,1,1,10.13-10.13A10.14,10.14,0,0,1,61.33,175Zm0-14.42a4.29,4.29,0,1,0,4.29,4.29A4.3,4.3,0,0,0,61.33,160.53Z"/><rect class="cls-1" x="65.2" y="168.34" width="5.84" height="27.3" transform="translate(-66.85 42.19) rotate(-23.47)"/></g></g></svg>