<svg xmlns="http://www.w3.org/2000/svg" viewBox="0 0 303.04 302.72"><defs><style>.cls-1{fill:none;stroke:#fff;stroke-miterlimit:10;stroke-width:6.12px;}</style></defs><title>focus-blockchain-white</title><g id="Layer_2" data-name="Layer 2"><g id="Layer_1-2" data-name="Layer 1"><polyline class="cls-1" points="143.15 119.94 123.3 119.94 123.3 139.79"/><polyline class="cls-1" points="162.84 179.46 182.69 179.46 182.69 159.61"/><rect class="cls-1" x="107.6" y="104.55" width="90.01" height="90.01"/><path class="cls-1" d="M144.35,28.53a8.25,8.25,0,1,1,8.25,8.24A8.25,8.25,0,0,1,144.35,28.53Z"/><path class="cls-1" d="M144.35,149.55a8.25,8.25,0,1,1,8.25,8.25A8.26,8.26,0,0,1,144.35,149.55Z"/><rect class="cls-1" x="127.14" y="3.06" width="50.94" height="50.93"/><path class="cls-1" d="M144.35,274.19a8.25,8.25,0,1,1,8.25,8.25A8.25,8.25,0,0,1,144.35,274.19Z"/><rect class="cls-1" x="127.14" y="248.72" width="50.94" height="50.93"/><path class="cls-1" d="M274.51,143.11a8.25,8.25,0,1,1-8.25,8.25A8.25,8.25,0,0,1,274.51,143.11Z"/><path class="cls-1" d="M259.71,250a8.25,8.25,0,1,1-8.24,8.25A8.25,8.25,0,0,1,259.71,250Z"/><path class="cls-1" d="M235.09,51.08a8.25,8.25,0,1,1-8.25,8.24A8.24,8.24,0,0,1,235.09,51.08Z"/><rect class="cls-1" x="249.04" y="125.89" width="50.93" height="50.94"/><path class="cls-1" d="M28.85,143.11a8.25,8.25,0,1,1-8.25,8.25A8.26,8.26,0,0,1,28.85,143.11Z"/><path class="cls-1" d="M11.31,42.83a8.25,8.25,0,1,1-8.25,8.25A8.25,8.25,0,0,1,11.31,42.83Z"/><rect class="cls-1" x="3.38" y="125.89" width="50.93" height="50.94"/><line class="cls-1" x1="152.6" y1="104.55" x2="152.6" y2="53.99"/><line class="cls-1" x1="196.68" y1="151.36" x2="249.04" y2="151.36"/><line class="cls-1" x1="54.31" y1="151.36" x2="106.67" y2="151.36"/><line class="cls-1" x1="152.6" y1="194.56" x2="152.6" y2="248.72"/><polyline class="cls-1" points="28.85 143.11 28.85 104.55 11.31 87.01 11.31 59.33"/><polyline class="cls-1" points="160.85 274.19 211.06 274.19 227.04 258.21 251.47 258.21"/><polyline class="cls-1" points="274.51 143.11 274.51 101.22 251.47 101.22 251.47 75.86 240.83 65.22"/></g></g></svg>