<?xml version="1.0" encoding="utf-8"?>
<!-- Generator: Adobe Illustrator 22.1.0, SVG Export Plug-In . SVG Version: 6.00 Build 0)  -->
<svg version="1.1" id="Layer_1" xmlns="http://www.w3.org/2000/svg" xmlns:xlink="http://www.w3.org/1999/xlink" x="0px" y="0px"
	 viewBox="0 0 319.8 295.4" style="enable-background:new 0 0 319.8 295.4;" xml:space="preserve">
<style type="text/css">
	.st0{fill:#231f20;}
</style>
<title>fund-blueventure-black</title>
<g id="Layer_2_1_">
	<g id="Layer_1-2">
		<g id="Layer_2-2">
			<g id="Layer_1-2-2">
				<path class="st0" d="M282,96.8v37.8h37.8V96.8H305V76.3h-51.1V37.8h15.6V0h-37.8v37.8h16.2v38.5h-58.5v62.2h-19v-15.9h-17.5
					V76.3h-36.5v-21h15.9V17.5H94.5v37.8h15.9v27h36.5v40.3h-14.3v15.9h-29.7V105h-77V37.8h15.9V0H4v37.8h15.9V111h77v27.5H72.4
					v38.8H15.9v80.4H0v37.8h37.8v-37.8H21.9v-22.4h64.5v12.5h37.8V210H86.4v19.3H21.9v-46h56.5v-38.8h54.2v15.9h15.9v51.6h28.9v51.7
					h81v15.9h37.8v-37.8h-37.8v15.9h-75v-45.7h70.2V196h15.9v-37.7h-37.8V196h15.9v9.9h-93.1v-45.5h15.9v-15.9h25V82.3H299v14.5H282
					z M263.5,6v9.9h-25.8V6H263.5z M237.7,21.9h25.8v9.9h-25.8V21.9z M126.3,49.3h-9.7V23.5h9.7V49.3z M100.5,23.5h10.1v25.8h-10.1
					V23.5z M35.8,27.5L14.2,6h21.5L35.8,27.5z M10,10.2l21.5,21.5H10V10.2z M6,289.4v-9.9h25.8v9.9H6z M31.8,273.5H6v-9.9h25.8
					V273.5z M92.4,220.2l21.5,21.5H92.4V220.2z M118.2,237.5L96.6,216h21.5L118.2,237.5z M264.4,252l21.5,21.5h-21.5V252z
					 M290.2,269.3l-21.5-21.5h21.5V269.3z M263.5,190h-9.6v-25.7h9.6V190z M237.7,164.2h10.1V190h-10.1L237.7,164.2z M160.1,128.6
					l-21.5,21.5v-21.5H160.1z M142.9,154.4l21.5-21.5v21.5H142.9z M288,107l21.5,21.5H288V107z M313.8,124.3l-21.5-21.5h21.5V124.3z
					"/>
			</g>
		</g>
	</g>
</g>
</svg>
