<?xml version="1.0" encoding="utf-8"?>
<!-- Generator: Adobe Illustrator 22.1.0, SVG Export Plug-In . SVG Version: 6.00 Build 0)  -->
<svg version="1.1" id="Layer_1" xmlns="http://www.w3.org/2000/svg" xmlns:xlink="http://www.w3.org/1999/xlink" x="0px" y="0px"
	 viewBox="0 0 304.5 336" style="enable-background:new 0 0 304.5 336;" xml:space="preserve">
<style type="text/css">
	.st0{fill:#231f20;}
</style>
<title>fund-greenseed-black</title>
<g id="Layer_2_1_">
	<g id="Layer_1-2">
		<path class="st0" d="M151.4,234.7l-9.7-8.7c-2.7-2.4-66.6-60-66.6-119.2c0-24.7,13-50.9,37.5-75.7C123.9,19.8,136.4,9.7,149.9,1
			l1.5-1l1.6,1c13.5,8.7,26,18.8,37.2,30.2c24.6,24.8,37.5,51,37.5,75.7c0,59.3-63.9,116.8-66.6,119.2L151.4,234.7z M151.4,7
			C141,13.9,81,55.3,81,106.8c0,56.6,62,112.4,64.6,114.8l5.8,5.2l5.8-5.2c2.6-2.4,64.6-58.1,64.6-114.8
			C221.8,55.3,161.9,13.9,151.4,7z"/>
		<path class="st0" d="M151.4,219l-2-1.8c-2.5-2.2-62.6-56.4-62.6-110.4c0-22.6,11-45.6,31.7-66.4c9.5-9.5,20-17.8,31.5-24.8
			l1.5-0.8l1.5,0.8c11.4,7,22,15.3,31.4,24.8c20.8,20.8,31.7,43.8,31.7,66.4c0,54.1-60.1,108.2-62.7,110.5L151.4,219z M151.4,21.6
			c-9.2,5.7-58.7,38.7-58.7,85.2c0,46,48.3,94.3,58.7,104.2c10.4-9.9,58.7-58.2,58.7-104.2C210.1,60.3,160.7,27.4,151.4,21.6
			L151.4,21.6z"/>
		<rect x="148.5" y="177.4" class="st0" width="5.9" height="158.7"/>
		<rect x="148.5" y="53.7" class="st0" width="5.9" height="140.3"/>
		
			<rect x="147.5" y="147.1" transform="matrix(0.7071 -0.7071 0.7071 0.7071 -59.053 157.606)" class="st0" width="26.4" height="5.9"/>
		
			<rect x="137.8" y="151.7" transform="matrix(0.7071 -0.7071 0.7071 0.7071 -76.6995 148.4122)" class="st0" width="5.9" height="30.2"/>
		
			<rect x="147.1" y="101.4" transform="matrix(0.7146 -0.6995 0.6995 0.7146 -26.6075 143.4101)" class="st0" width="30.7" height="5.9"/>
		
			<rect x="139.5" y="111.3" transform="matrix(0.707 -0.7072 0.7072 0.707 -45.9764 137.0764)" class="st0" width="5.9" height="25.4"/>
		
			<rect x="137.8" y="65.5" transform="matrix(0.7071 -0.7071 0.7071 0.7071 -15.7828 123.1281)" class="st0" width="5.9" height="30.2"/>
		<path class="st0" d="M86,335.3H48.7V298H86V335.3z M54.6,329.4h25.5V304H54.6V329.4z"/>
		
			<rect x="45.2" y="313.7" transform="matrix(0.7071 -0.7071 0.7071 0.7071 -204.164 140.3746)" class="st0" width="44.4" height="5.9"/>
		<path class="st0" d="M255.9,335.3h-37.3V298h37.3V335.3z M224.5,329.4H250V304h-25.5V329.4z"/>
		
			<rect x="215" y="313.7" transform="matrix(0.7074 -0.7069 0.7069 0.7074 -154.4092 260.3082)" class="st0" width="44.4" height="5.9"/>
		<path class="st0" d="M304.5,335.3h-37.3V298h37.3V335.3L304.5,335.3z M273.1,329.4h25.5V304h-25.5V329.4z"/>
		
			<rect x="263.6" y="313.7" transform="matrix(0.7072 -0.707 0.707 0.7072 -140.2135 294.7604)" class="st0" width="44.4" height="5.9"/>
		<path class="st0" d="M86,285.2H48.7v-37.3H86V285.2z M54.6,279.3h25.5v-25.5H54.6V279.3z"/>
		
			<rect x="45.2" y="263.6" transform="matrix(0.7071 -0.7071 0.7071 0.7071 -168.7338 125.7134)" class="st0" width="44.4" height="5.9"/>
		<path class="st0" d="M205.5,285.2h-37.3v-37.3h37.3V285.2z M174.1,279.3h25.5v-25.5h-25.5V279.3z"/>
		
			<rect x="164.7" y="263.6" transform="matrix(0.7072 -0.707 0.707 0.7072 -133.7146 210.1622)" class="st0" width="44.4" height="5.9"/>
		<path class="st0" d="M134.7,285.2H97.4v-37.3h37.3V285.2z M103.3,279.3h25.5v-25.5h-25.5V279.3z"/>
		
			<rect x="113.1" y="244.4" transform="matrix(0.7071 -0.7071 0.7071 0.7071 -154.5183 160.1639)" class="st0" width="5.9" height="44.4"/>
		<path class="st0" d="M86,235.9H48.7v-37.3H86V235.9z M54.6,230h25.5v-25.5H54.6V230z"/>
		
			<rect x="64.4" y="195.1" transform="matrix(0.7071 -0.7071 0.7071 0.7071 -133.9128 111.2878)" class="st0" width="5.9" height="44.4"/>
		<path class="st0" d="M255.9,285.2h-37.3v-37.3h37.3V285.2z M224.5,279.3H250v-25.5h-25.5V279.3z"/>
		
			<rect x="235.3" y="244.4" transform="matrix(0.7071 -0.7071 0.7071 0.7071 -118.721 246.5573)" class="st0" width="5.9" height="44.4"/>
		<path class="st0" d="M205.5,335.3h-37.3V298h37.3V335.3z M174.1,329.4h25.5V304h-25.5V329.4z"/>
		
			<rect x="183.9" y="294.5" transform="matrix(0.7071 -0.7071 0.7071 0.7071 -169.2263 224.9024)" class="st0" width="5.9" height="44.4"/>
		<path class="st0" d="M255.9,235.9h-37.3v-37.3h37.3V235.9z M224.4,230h25.5v-25.5h-25.5V230z"/>
		
			<rect x="234.2" y="195.1" transform="matrix(0.7071 -0.7071 0.7071 0.7071 -84.1989 231.3647)" class="st0" width="5.9" height="44.4"/>
		<path class="st0" d="M134.7,335.3H97.4V298h37.3V335.3z M103.3,329.4h25.5V304h-25.5V329.4z"/>
		
			<rect x="113.1" y="294.5" transform="matrix(0.7071 -0.7071 0.7071 0.7071 -189.9658 174.8386)" class="st0" width="5.9" height="44.4"/>
		<path class="st0" d="M37.3,335.3H0V298h37.3V335.3z M5.9,329.4h25.5V304H5.9V329.4z"/>
		
			<rect x="15.7" y="294.5" transform="matrix(0.7071 -0.7071 0.7071 0.7071 -218.4746 105.9596)" class="st0" width="5.9" height="44.4"/>
		<rect x="148.5" y="3.5" class="st0" width="5.9" height="18.4"/>
	</g>
</g>
</svg>
