<?xml version="1.0" encoding="utf-8"?>
<!-- Generator: Adobe Illustrator 22.1.0, SVG Export Plug-In . SVG Version: 6.00 Build 0)  -->
<svg version="1.1" id="Layer_1" xmlns="http://www.w3.org/2000/svg" xmlns:xlink="http://www.w3.org/1999/xlink" x="0px" y="0px"
	 viewBox="0 0 309.5 334.3" style="enable-background:new 0 0 309.5 334.3;" xml:space="preserve">
<style type="text/css">
	.st0{fill:#313131;}
</style>
<title>fund-blueventure-black</title>
<g id="Layer_2_1_">
	<g id="Layer_1-2">
		<path class="st0" d="M93.1,182.3H55.8V145h37.3V182.3z M61.7,176.3h25.5v-25.5H61.7V176.3z"/>
		
			<rect x="71.5" y="141.4" transform="matrix(0.7071 -0.7071 0.7071 0.7071 -93.8654 100.543)" class="st0" width="5.9" height="44.4"/>
		<path class="st0" d="M93.1,334.3H55.8V297h37.3V334.3z M61.7,328.4h25.5v-25.5H61.7V328.4z"/>
		
			<rect x="71.5" y="293.4" transform="matrix(0.707 -0.7072 0.7072 0.707 -201.3829 145.1027)" class="st0" width="5.9" height="44.4"/>
		<path class="st0" d="M93.1,334.3H55.8V297h37.3V334.3z M61.7,328.4h25.5v-25.5H61.7V328.4z"/>
		<path class="st0" d="M201.9,284.4h-37.3V247h37.3V284.4L201.9,284.4z M170.5,278.4H196V253h-25.5V278.4z"/>
		
			<rect x="180.3" y="243.5" transform="matrix(0.7071 -0.7071 0.7071 0.7071 -134.2053 207.4133)" class="st0" width="5.9" height="44.4"/>
		<path class="st0" d="M201.9,284.4h-37.3V247h37.3V284.4L201.9,284.4z M170.5,278.4H196V253h-25.5V278.4z"/>
		<path class="st0" d="M201.9,132.1h-37.3V94.8h37.3V132.1z M170.5,126.2H196v-25.5h-25.5V126.2z"/>
		
			<rect x="180.3" y="91.3" transform="matrix(0.7071 -0.7071 0.7071 0.7071 -26.5886 162.8301)" class="st0" width="5.9" height="44.4"/>
		<path class="st0" d="M201.9,132.1h-37.3V94.8h37.3V132.1z M170.5,126.2H196v-25.5h-25.5V126.2z"/>
		<path class="st0" d="M88.5,109.3v15.3h-18L88.5,109.3 M94.4,96.4l-40,34.1h40V96.4z"/>
		<path class="st0" d="M144.9,109.3v15.3h-18L144.9,109.3 M150.8,96.4l-40,34.1h40V96.4z"/>
		<path class="st0" d="M197.3,61.4v15.3h-18L197.3,61.4 M203.2,48.5l-40,34.1h40V48.5z"/>
		<path class="st0" d="M251.8,109.3v15.3h-17.9L251.8,109.3 M257.7,96.4l-40,34.1h40V96.4z"/>
		<path class="st0" d="M303.6,12.9v15.3h-18L303.6,12.9 M309.5,0l-40,34.1h40V0z"/>
		<path class="st0" d="M34,209.3V227H15L34,209.3 M40,195.7L0,233h40V195.7z"/>
		<path class="st0" d="M93.1,233.2H55.8v-37.3h37.3V233.2z M61.7,227.3h25.5v-25.5H61.7V227.3z"/>
		
			<rect x="52.2" y="211.6" transform="matrix(0.7071 -0.7071 0.7071 0.7071 -129.9236 115.4521)" class="st0" width="44.4" height="5.9"/>
		<path class="st0" d="M149,284.4h-37.3V247H149V284.4z M117.6,278.4h25.5V253h-25.5L117.6,278.4z"/>
		
			<rect x="108.4" y="262.7" transform="matrix(0.7072 -0.707 0.707 0.7072 -149.5675 170.0833)" class="st0" width="44.4" height="5.9"/>
		<path class="st0" d="M202.1,181.6h-37.3v-37.3h37.3V181.6z M170.7,175.6h25.5v-25.5h-25.5V175.6z"/>
		
			<rect x="161.4" y="159.9" transform="matrix(0.7072 -0.707 0.707 0.7072 -61.3908 177.4625)" class="st0" width="44.4" height="5.9"/>
		
			<rect x="108.1" y="211.6" transform="matrix(0.7072 -0.707 0.707 0.7072 -113.5515 154.9496)" class="st0" width="44.4" height="5.9"/>
		<path class="st0" d="M38.7,284.4H1.3V247h37.3v37.4H38.7z M7.3,278.4h25.5V253H7.2L7.3,278.4z"/>
		
			<rect x="-2" y="262.7" transform="matrix(0.7072 -0.707 0.707 0.7072 -181.9099 92.0481)" class="st0" width="44.4" height="5.9"/>
		<path class="st0" d="M201.9,334.3h-37.3V297h37.3V334.3L201.9,334.3z M170.5,328.4H196v-25.5h-25.5V328.4z"/>
		
			<rect x="161.1" y="312.7" transform="matrix(0.7071 -0.7071 0.7071 0.7071 -169.4811 222.06)" class="st0" width="44.4" height="5.9"/>
		<path class="st0" d="M256.4,284.4H219V247h37.3L256.4,284.4z M225,278.4h25.5V253H225V278.4z"/>
		
			<rect x="215.5" y="262.8" transform="matrix(0.7074 -0.7069 0.7069 0.7074 -118.2688 245.8114)" class="st0" width="44.4" height="5.9"/>
		<path class="st0" d="M93.1,284.4H55.8V247h37.3V284.4z M61.7,278.4h25.5V253H61.7V278.4L61.7,278.4z"/>
		<rect x="58.7" y="262.7" class="st0" width="31.4" height="5.9"/>
		<path class="st0" d="M308.2,182.3h-37.3V145h37.3V182.3z M276.8,176.3h25.5v-25.5h-25.5V176.3z"/>
		
			<rect x="286.6" y="141.4" transform="matrix(0.7071 -0.7071 0.7071 0.7071 -30.8638 252.6499)" class="st0" width="5.9" height="44.4"/>
		<path class="st0" d="M308.2,334.3h-37.3V297h37.3V334.3z M276.8,328.4h25.5v-25.5h-25.5V328.4z"/>
		
			<rect x="286.6" y="293.4" transform="matrix(0.707 -0.7072 0.7072 0.707 -138.3582 297.2262)" class="st0" width="5.9" height="44.4"/>
		<path class="st0" d="M308.2,334.3h-37.3V297h37.3V334.3z M276.8,328.4h25.5v-25.5h-25.5V328.4z"/>
		<path class="st0" d="M308.2,233.2h-37.3v-37.3h37.3V233.2z M276.8,227.3h25.5v-25.5h-25.5V227.3z"/>
		
			<rect x="267.3" y="211.6" transform="matrix(0.7072 -0.707 0.707 0.7072 -66.9215 267.4811)" class="st0" width="44.4" height="5.9"/>
		<path class="st0" d="M308.2,132.1h-37.3V94.8h37.3V132.1z M276.8,126.2h25.5v-25.5h-25.5V126.2z"/>
		<path class="st0" d="M308.2,284.4h-37.3V247h37.3V284.4z M276.8,278.4h25.5V253h-25.5V278.4z"/>
		<rect x="273.8" y="262.7" class="st0" width="31.4" height="5.9"/>
		<path class="st0" d="M308.2,84.2h-37.3V46.9h37.3V84.2z M276.8,78.3h25.5V52.8h-25.5V78.3z"/>
		<rect x="273.8" y="62.6" class="st0" width="31.4" height="5.9"/>
		<path class="st0" d="M38.7,334.3H1.3V297h37.3v37.3H38.7z M7.3,328.4h25.5v-25.5H7.2L7.3,328.4z"/>
		<rect x="4.3" y="312.6" class="st0" width="31.4" height="5.9"/>
		<path class="st0" d="M256.4,334.3H219V297h37.3L256.4,334.3z M225,328.4h25.5v-25.5H225V328.4z"/>
		<path class="st0" d="M148.7,233.2h-37.3v-37.3h37.3V233.2z M117.3,227.3h25.5v-25.5h-25.5V227.3z"/>
		<path class="st0" d="M256.4,233.2H219v-37.3h37.3L256.4,233.2z M225,227.3h25.5v-25.5H225V227.3z"/>
		<rect x="220.1" y="211.6" class="st0" width="31.4" height="5.9"/>
		<rect x="220.1" y="312.6" class="st0" width="31.4" height="5.9"/>
		<path class="st0" d="M149.2,182.3h-37.3V145h37.3V182.3z M117.8,176.3h25.5v-25.5h-25.5V176.3z"/>
		<rect x="127.8" y="147.9" class="st0" width="5.9" height="31.4"/>
		<path class="st0" d="M201.9,233h-37.3v-37.3h37.3V233z M170.5,227.1H196v-25.5h-25.5V227.1z"/>
		<rect x="180.5" y="198.6" class="st0" width="5.9" height="31.4"/>
		<path class="st0" d="M254.5,181.6h-37.3v-37.3h37.3V181.6z M223.1,175.6h25.5v-25.5h-25.5V175.6z"/>
		<rect x="233.1" y="147.2" class="st0" width="5.9" height="31.4"/>
		<rect x="286.5" y="99.1" class="st0" width="5.9" height="31.4"/>
		<path class="st0" d="M147.5,334.3h-37.3V297h37.3V334.3z M116.1,328.4h25.5v-25.5h-25.5C116.1,302.9,116.1,328.4,116.1,328.4z"/>
		<rect x="126.1" y="299.9" class="st0" width="5.9" height="31.4"/>
	</g>
</g>
</svg>
