<svg xmlns="http://www.w3.org/2000/svg" viewBox="0 0 319.77 295.43"><defs><style>.cls-1{fill:#fff;}</style></defs><title>fund-blueventure-white</title><g id="Layer_2" data-name="Layer 2"><g id="Layer_1-2" data-name="Layer 1"><path class="cls-1" d="M282,96.77v37.77h37.78V96.77H305V76.27H253.88V37.77h15.61V0H231.72V37.77h16.16v38.5h-58.5v62.21h-19V122.6h-17.5V76.27h-36.5v-21h15.88V17.5H94.5V55.27h15.89v27h36.5V122.6H132.63v15.88H102.89V105h-77V37.77H41.77V0H4V37.77H19.89V111h77v27.47H72.39v38.79H15.89v80.4H0v37.76H37.77V257.67H21.89v-22.4h64.5v12.51h37.77V210H86.39v19.26H21.89v-46h56.5V144.48h54.24v15.88h15.88v51.57h28.88v51.74h81v15.88h37.76V241.79H258.39v15.88h-75V211.93h70.22V196H269.5V158.27H231.72V196h15.89v9.89H154.52V160.36h15.87V144.48h25V82.27H299.05v14.5ZM263.49,6v9.88H237.72V6ZM237.72,21.88h25.77v9.89H237.72ZM126.27,49.27h-9.65V23.5h9.65ZM100.5,23.5h10.12V49.27H100.5Zm-64.73,4L14.24,6H35.77ZM10,10.24,31.53,31.77H10ZM6,289.43v-9.88H31.77v9.88Zm25.77-15.88H6v-9.88H31.77Zm60.62-53.3,21.53,21.53H92.39Zm25.77,17.29L96.63,216h21.53ZM264.39,252l21.52,21.52H264.39Zm25.76,17.28-21.52-21.52h21.52ZM263.49,190h-9.65V164.27h9.65Zm-25.77-25.77h10.12V190H237.72ZM160.15,128.6l-21.52,21.52V128.6Zm-17.28,25.76,21.52-21.52v21.52ZM288,107l21.53,21.53H288Zm25.78,17.28-21.53-21.52h21.53Z"/></g></g></svg>