<svg xmlns="http://www.w3.org/2000/svg" viewBox="0 0 30.06 39.84"><defs><style>.cls-1{fill:#fff;}</style></defs><title>location-pin-white</title><g id="Layer_2" data-name="Layer 2"><g id="Layer_1-2" data-name="Layer 1"><path class="cls-1" d="M15,39.84l-.79-.77C13.66,38.5,0,25,0,16.28,0,7.3,6.74,0,15,0s15,7.3,15,16.28C30.06,25,16.4,38.5,15.81,39.07ZM15,2.25c-7,0-12.78,6.29-12.78,14C2.25,23,12.13,33.67,15,36.67c2.89-3,12.78-13.7,12.78-20.39C27.81,8.54,22.08,2.25,15,2.25Zm0,20.66A7.87,7.87,0,1,1,22.9,15,7.89,7.89,0,0,1,15,22.91ZM15,9.42A5.62,5.62,0,1,0,20.65,15,5.63,5.63,0,0,0,15,9.42Z"/></g></g></svg>