<svg xmlns="http://www.w3.org/2000/svg" viewBox="0 0 24.02 40.84"><defs><style>.cls-1{fill:#221f1f;}</style></defs><title>phone-black</title><g id="Layer_2" data-name="Layer 2"><g id="Layer_1-2" data-name="Layer 1"><path class="cls-1" d="M22.14,40.84H1.88A1.88,1.88,0,0,1,0,39V1.88A1.88,1.88,0,0,1,1.88,0H22.14A1.88,1.88,0,0,1,24,1.88V39A1.88,1.88,0,0,1,22.14,40.84ZM2.25,38.59H21.77V2.25H2.25Z"/><path class="cls-1" d="M18.38,30.51H5.64a1.88,1.88,0,0,1-1.88-1.88V5.81A1.88,1.88,0,0,1,5.64,3.93H18.38a1.88,1.88,0,0,1,1.88,1.88V28.63A1.88,1.88,0,0,1,18.38,30.51ZM6,28.26H18V6.18H6Z"/><path class="cls-1" d="M12,37.4a2.95,2.95,0,1,1,3-2.95A2.95,2.95,0,0,1,12,37.4Zm0-3.65a.7.7,0,1,0,.7.7A.7.7,0,0,0,12,33.75Z"/></g></g></svg>