<svg xmlns="http://www.w3.org/2000/svg" viewBox="0 0 186.83 186.83"><defs><style>.cls-1{fill:#3d5a98;}.cls-2{fill:#fff;}</style></defs><title>social-share-facebook</title><g id="Layer_2" data-name="Layer 2"><g id="Layer_1-2" data-name="Layer 1"><path id="Blue" class="cls-1" d="M176.52,186.83a10.32,10.32,0,0,0,10.31-10.32V10.31A10.32,10.32,0,0,0,176.52,0H10.31A10.32,10.32,0,0,0,0,10.31v166.2a10.31,10.31,0,0,0,10.31,10.32Z"/><path id="f" class="cls-2" d="M128.91,186.83V114.48h24.28l3.64-28.2H128.91v-18c0-8.16,2.26-13.73,14-13.73h14.93V29.33a200.52,200.52,0,0,0-21.75-1.11c-21.53,0-36.27,13.14-36.27,37.27V86.28H75.44v28.2H99.79v72.35Z"/></g></g></svg>