<svg xmlns="http://www.w3.org/2000/svg" viewBox="0 0 36.65 36.64"><defs><style>.cls-1{fill:#c92568;}</style></defs><title>social-share-link</title><g id="Layer_2" data-name="Layer 2"><g id="Layer_1-2" data-name="Layer 1"><path class="cls-1" d="M21.73,20.61,25,17.35a6.7,6.7,0,1,0-5.7-5.69L16,14.92a10.74,10.74,0,1,1,5.7,5.69Zm-10,.56,9.49-9.49a2.69,2.69,0,0,1,3.8,3.8L15.48,25a2.68,2.68,0,0,1-3.8-3.79ZM14.92,16l-3.26,3.26A6.72,6.72,0,1,0,17.35,25l3.26-3.26A10.73,10.73,0,1,1,14.92,16Z"/></g></g></svg>