<svg xmlns="http://www.w3.org/2000/svg" viewBox="0 0 187.5 152.38"><defs><style>.cls-1{fill:#1da1f2;}</style></defs><title>social-share-twitter</title><g id="Layer_2" data-name="Layer 2"><g id="Layer_1-2" data-name="Layer 1"><path class="cls-1" d="M59,152.38c70.75,0,109.45-58.62,109.45-109.45,0-1.67,0-3.32-.11-5A78.33,78.33,0,0,0,187.5,18a76.81,76.81,0,0,1-22.09,6.06A38.67,38.67,0,0,0,182.33,2.82a77.19,77.19,0,0,1-24.43,9.33A38.5,38.5,0,0,0,92.34,47.24,109.24,109.24,0,0,1,13.05,7.05,38.49,38.49,0,0,0,25,58.4,38.15,38.15,0,0,1,7.54,53.59c0,.16,0,.32,0,.49A38.48,38.48,0,0,0,38.39,91.79,38.15,38.15,0,0,1,21,92.45,38.51,38.51,0,0,0,57,119.17,77.15,77.15,0,0,1,9.18,135.64,77.24,77.24,0,0,1,0,135.1a108.93,108.93,0,0,0,59,17.28"/></g></g></svg>