<svg xmlns="http://www.w3.org/2000/svg" viewBox="0 0 280.63 275.77"><defs><style>.cls-1{fill:#3d3d3d;}</style></defs><title>focus-fintech-black</title><g id="Layer_2" data-name="Layer 2"><g id="Layer_1-2" data-name="Layer 1"><path class="cls-1" d="M280.63,199.44H0V77.25H280.63V199.44ZM6,193.44H274.63V83.25H6Z"/><polygon class="cls-1" points="20.86 110.6 14.86 110.6 14.86 91.39 34.07 91.39 34.07 97.39 20.86 97.39 20.86 110.6"/><polygon class="cls-1" points="34.07 185.3 14.86 185.3 14.86 166.09 20.86 166.09 20.86 179.3 34.07 179.3 34.07 185.3"/><polygon class="cls-1" points="265.74 110.6 259.74 110.6 259.74 97.39 246.53 97.39 246.53 91.39 265.74 91.39 265.74 110.6"/><polygon class="cls-1" points="265.74 185.3 246.53 185.3 246.53 179.3 259.74 179.3 259.74 166.09 265.74 166.09 265.74 185.3"/><path class="cls-1" d="M71.21,154.39a16,16,0,1,1,16.05-16A16.07,16.07,0,0,1,71.21,154.39Zm0-26.1a10,10,0,1,0,10.05,10.05A10.07,10.07,0,0,0,71.21,128.29Z"/><path class="cls-1" d="M209.42,154.39a16,16,0,1,1,16.05-16A16.07,16.07,0,0,1,209.42,154.39Zm0-26.1a10,10,0,1,0,10.05,10.05A10.06,10.06,0,0,0,209.42,128.29Z"/><path class="cls-1" d="M140.31,183.25a44.91,44.91,0,1,1,44.91-44.91A45,45,0,0,1,140.31,183.25Zm0-83.81a38.91,38.91,0,1,0,38.91,38.9A38.94,38.94,0,0,0,140.31,99.44Z"/><polygon class="cls-1" points="118.06 106.11 112.06 106.11 112.06 66.19 98.87 53 98.87 29.06 104.87 29.06 104.87 50.51 118.06 63.7 118.06 106.11"/><path class="cls-1" d="M101.87,30a9.73,9.73,0,1,1,9.74-9.73A9.74,9.74,0,0,1,101.87,30Zm0-13.46a3.73,3.73,0,1,0,3.74,3.73A3.73,3.73,0,0,0,101.87,16.49Z"/><polygon class="cls-1" points="168.84 106.11 162.84 106.11 162.84 63.7 176.03 50.52 176.03 29.06 182.03 29.06 182.03 53 168.84 66.19 168.84 106.11"/><path class="cls-1" d="M179,30a9.73,9.73,0,1,1,9.74-9.73A9.74,9.74,0,0,1,179,30Zm0-13.46a3.73,3.73,0,1,0,3.74,3.73A3.74,3.74,0,0,0,179,16.49Z"/><polygon class="cls-1" points="104.87 246.99 98.87 246.99 98.87 223.06 112.06 209.86 112.06 169.94 118.06 169.94 118.06 212.35 104.87 225.54 104.87 246.99"/><path class="cls-1" d="M101.87,265.57a9.74,9.74,0,1,1,9.74-9.74A9.75,9.75,0,0,1,101.87,265.57Zm0-13.47a3.74,3.74,0,1,0,3.74,3.73A3.73,3.73,0,0,0,101.87,252.1Z"/><polygon class="cls-1" points="182.03 246.99 176.03 246.99 176.03 225.54 162.84 212.35 162.84 169.94 168.84 169.94 168.84 209.86 182.03 223.06 182.03 246.99"/><path class="cls-1" d="M179,265.57a9.74,9.74,0,1,1,9.74-9.74A9.75,9.75,0,0,1,179,265.57Zm0-13.47a3.74,3.74,0,1,0,3.74,3.73A3.74,3.74,0,0,0,179,252.1Z"/><path class="cls-1" d="M140.31,225.42a9.74,9.74,0,1,1,9.74-9.74A9.75,9.75,0,0,1,140.31,225.42Zm0-13.47a3.74,3.74,0,1,0,3.74,3.73A3.73,3.73,0,0,0,140.31,212Z"/><rect class="cls-1" x="137.31" y="222.42" width="6" height="53.35"/><path class="cls-1" d="M140.31,69.82a9.74,9.74,0,1,1,9.74-9.74A9.75,9.75,0,0,1,140.31,69.82Zm0-13.48a3.74,3.74,0,1,0,3.74,3.74A3.74,3.74,0,0,0,140.31,56.34Z"/><rect class="cls-1" x="137.31" width="6" height="53.34"/><path class="cls-1" d="M153.25,151.3a10.26,10.26,0,0,1-3.87,3.72,13.7,13.7,0,0,1-5.83,1.66,1.33,1.33,0,0,0-.61.18.7.7,0,0,0-.15.53v2.18a.89.89,0,0,1-1,1H139.3c-.6,0-.91-.28-.91-.85v-2.38a.82.82,0,0,0-.12-.5.59.59,0,0,0-.48-.16,17.49,17.49,0,0,1-6.52-1.36,16.42,16.42,0,0,1-5.05-3.58,1.56,1.56,0,0,1-.61-1,.74.74,0,0,1,.26-.5l2.57-2.68a1,1,0,0,1,.66-.35.91.91,0,0,1,.65.3,12.86,12.86,0,0,0,3.54,2.93,11.52,11.52,0,0,0,4.5,1.32h.2a.47.47,0,0,0,.35-.11.46.46,0,0,0,.1-.35l.06-10a.89.89,0,0,0-.21-.63,1.7,1.7,0,0,0-.65-.43q-5.87-1.57-8.36-4.22a9.29,9.29,0,0,1-2.5-6.64,9.2,9.2,0,0,1,2.9-6.87,14.3,14.3,0,0,1,8-3.64,1.31,1.31,0,0,0,.55-.25.64.64,0,0,0,.26-.51v-2.12a.57.57,0,0,1,.17-.46.59.59,0,0,1,.38-.15h3c.54,0,.81.29.81.86v2.17a.29.29,0,0,0,.13.28,2.22,2.22,0,0,0,.48.18,19.16,19.16,0,0,1,8.89,4,.72.72,0,0,1,.4.61,1.05,1.05,0,0,1-.25.55L150.06,127a.85.85,0,0,1-.55.31,1.13,1.13,0,0,1-.71-.41,8.66,8.66,0,0,0-2.35-1.79,11.62,11.62,0,0,0-3.1-1.14l-.21,0c-.27,0-.4.15-.4.46v9.94a.55.55,0,0,0,.13.43,1.06,1.06,0,0,0,.48.23l2.52.71a14.06,14.06,0,0,1,6.42,4.07,9.47,9.47,0,0,1,2.32,6.39A9.91,9.91,0,0,1,153.25,151.3Zm-14.81-27c0-.47-.2-.65-.6-.55a6.91,6.91,0,0,0-4,1.74,4.45,4.45,0,0,0-1.44,3.31,3.91,3.91,0,0,0,1.17,2.85,10.45,10.45,0,0,0,3.84,2.2.73.73,0,0,0,.35.05c.44,0,.66-.3.66-.91V124.3Zm4.91,27.49a6.76,6.76,0,0,0,4-1.52,4.12,4.12,0,0,0,1.49-3.23,4.57,4.57,0,0,0-1.26-3.29,9.54,9.54,0,0,0-4.14-2.17,1.36,1.36,0,0,0-.36-.05.33.33,0,0,0-.28.1.76.76,0,0,0-.07.41v9.44C142.74,151.79,142.94,151.89,143.35,151.79Z"/></g></g></svg>