<svg xmlns="http://www.w3.org/2000/svg" viewBox="0 0 292.77 292.77"><defs><style>.cls-1{fill:#231f20;}</style></defs><title>focus-medical-black</title><g id="Layer_2" data-name="Layer 2"><g id="Layer_1-2" data-name="Layer 1"><path class="cls-1" d="M199.38,292.77h-106V199.38H0v-106H93.38V0h106V93.38h93.39v106H199.38Zm-100-6h94V193.38h93.39v-94H193.38V6h-94V99.38H6v94H99.38Z"/><polygon class="cls-1" points="164.38 125.38 158.38 125.38 158.38 46.32 134.38 46.32 134.38 125.38 128.38 125.38 128.38 40.32 164.38 40.32 164.38 125.38"/><polygon class="cls-1" points="248.44 164.38 167.39 164.38 167.39 158.38 242.44 158.38 242.44 134.38 167.39 134.38 167.39 128.38 248.44 128.38 248.44 164.38"/><polygon class="cls-1" points="164.38 248.44 128.38 248.44 128.38 167.39 134.38 167.39 134.38 242.44 158.38 242.44 158.38 167.39 164.38 167.39 164.38 248.44"/><polygon class="cls-1" points="125.38 164.38 40.32 164.38 40.32 128.38 125.38 128.38 125.38 134.38 46.32 134.38 46.32 158.38 125.38 158.38 125.38 164.38"/><polygon class="cls-1" points="22.69 128.08 16.69 128.08 16.69 108.87 35.9 108.87 35.9 114.87 22.69 114.87 22.69 128.08"/><polygon class="cls-1" points="183.57 32.03 177.57 32.03 177.57 18.82 164.36 18.82 164.36 12.82 183.57 12.82 183.57 32.03"/><polygon class="cls-1" points="278.37 183.59 259.16 183.59 259.16 177.59 272.37 177.59 272.37 164.38 278.37 164.38 278.37 183.59"/><polygon class="cls-1" points="129.63 278.28 110.42 278.28 110.42 259.07 116.42 259.07 116.42 272.28 129.63 272.28 129.63 278.28"/><path class="cls-1" d="M130.58,141.54a9.74,9.74,0,1,1,9.74-9.73A9.73,9.73,0,0,1,130.58,141.54Zm0-13.47a3.74,3.74,0,1,0,3.74,3.74A3.74,3.74,0,0,0,130.58,128.07Z"/><path class="cls-1" d="M161.38,141.54a9.74,9.74,0,1,1,9.74-9.73A9.73,9.73,0,0,1,161.38,141.54Zm0-13.47a3.74,3.74,0,1,0,3.74,3.74A3.74,3.74,0,0,0,161.38,128.07Z"/><path class="cls-1" d="M130.58,171.12a9.74,9.74,0,1,1,9.74-9.74A9.74,9.74,0,0,1,130.58,171.12Zm0-13.47a3.74,3.74,0,1,0,3.74,3.73A3.73,3.73,0,0,0,130.58,157.65Z"/><path class="cls-1" d="M161.38,171.12a9.74,9.74,0,1,1,9.74-9.74A9.74,9.74,0,0,1,161.38,171.12Zm0-13.47a3.74,3.74,0,1,0,3.74,3.73A3.73,3.73,0,0,0,161.38,157.65Z"/></g></g></svg>