<svg xmlns="http://www.w3.org/2000/svg" viewBox="0 0 281.15 280.83"><defs><style>.cls-1{fill:#3d3d3d;}</style></defs><title>focus-automotive-white</title><g id="Layer_2" data-name="Layer 2"><g id="Layer_1-2" data-name="Layer 1"><path class="cls-1" d="M140.91,18.42a9.21,9.21,0,1,1,9.21-9.21A9.22,9.22,0,0,1,140.91,18.42Zm0-12.42a3.21,3.21,0,1,0,3.21,3.21A3.21,3.21,0,0,0,140.91,6Z"/><path class="cls-1" d="M23.57,155.08A119.94,119.94,0,0,1,22.74,141c0-1.72,0-3.44.11-5.15l6,.26c-.07,1.62-.11,3.26-.11,4.89a114.34,114.34,0,0,0,.79,13.36Z"/><path class="cls-1" d="M116.24,256.6a118.43,118.43,0,0,1-90.5-89l5.85-1.34a112.4,112.4,0,0,0,85.9,84.48Z"/><path class="cls-1" d="M140.91,259.18c-3.17,0-6.37-.13-9.54-.38l.47-6a114.5,114.5,0,0,0,19.95-.16l.58,6C148.6,259,144.75,259.18,140.91,259.18Z"/><path class="cls-1" d="M164.91,256.74l-1.21-5.88a112.59,112.59,0,0,0,86-82.56l5.82,1.45A118.64,118.64,0,0,1,164.91,256.74Z"/><path class="cls-1" d="M258.21,155.37l-6-.73a112.45,112.45,0,0,0,.83-13.63c0-2.4-.08-4.85-.24-7.28l6-.38c.16,2.56.25,5.14.25,7.66A118.41,118.41,0,0,1,258.21,155.37Z"/><path class="cls-1" d="M30.3,122.25l-5.91-1a118.19,118.19,0,0,1,232.89-.89l-5.91,1a112.19,112.19,0,0,0-221.07.84Z"/><path class="cls-1" d="M121,247.76c-5.27-63.2-68.77-79.51-88.11-83L34,158.85c20.4,3.69,87.39,21,93,88.41Z"/><path class="cls-1" d="M160.86,247.18l-6-.53c5.94-66.37,71.93-83.84,92-87.62l1.11,5.89C229,168.5,166.43,185,160.86,247.18Z"/><path class="cls-1" d="M33.89,129.65l-1-5.91c16.42-2.87,59.82-9.55,108.06-9.55,47.73,0,90.84,6.57,107.16,9.39l-1,5.92c-16.17-2.8-58.87-9.31-106.14-9.31C93.14,120.19,50.15,126.81,33.89,129.65Z"/><path class="cls-1" d="M140.91,180.26a19.42,19.42,0,1,1,19.42-19.42A19.44,19.44,0,0,1,140.91,180.26Zm0-32.84a13.42,13.42,0,1,0,13.42,13.42A13.43,13.43,0,0,0,140.91,147.42Z"/><path class="cls-1" d="M9.21,152.23A9.21,9.21,0,1,1,18.42,143,9.22,9.22,0,0,1,9.21,152.23Zm0-12.42A3.21,3.21,0,1,0,12.42,143,3.21,3.21,0,0,0,9.21,139.81Z"/><path class="cls-1" d="M141,169.75a9.21,9.21,0,1,1,9.21-9.21A9.22,9.22,0,0,1,141,169.75Zm0-12.42a3.21,3.21,0,1,0,3.21,3.21A3.21,3.21,0,0,0,141,157.33Z"/><path class="cls-1" d="M27.29,137.17A9.21,9.21,0,1,1,36.5,128,9.22,9.22,0,0,1,27.29,137.17Zm0-12.42A3.21,3.21,0,1,0,30.5,128,3.21,3.21,0,0,0,27.29,124.75Z"/><path class="cls-1" d="M124.36,263.52a9.21,9.21,0,1,1,9.21-9.21A9.22,9.22,0,0,1,124.36,263.52Zm0-12.42a3.21,3.21,0,1,0,3.21,3.21A3.21,3.21,0,0,0,124.36,251.1Z"/><path class="cls-1" d="M157.46,263.52a9.21,9.21,0,1,1,9.21-9.21A9.22,9.22,0,0,1,157.46,263.52Zm0-12.42a3.21,3.21,0,1,0,3.21,3.21A3.21,3.21,0,0,0,157.46,251.1Z"/><path class="cls-1" d="M254.52,171a9.22,9.22,0,1,1,9.22-9.21A9.23,9.23,0,0,1,254.52,171Zm0-12.43a3.22,3.22,0,1,0,3.22,3.22A3.22,3.22,0,0,0,254.52,158.59Z"/><path class="cls-1" d="M254.52,136.28a9.21,9.21,0,1,1,9.22-9.21A9.22,9.22,0,0,1,254.52,136.28Zm0-12.42a3.21,3.21,0,1,0,3.22,3.21A3.21,3.21,0,0,0,254.52,123.86Z"/><path class="cls-1" d="M27.29,170.09a9.21,9.21,0,1,1,9.21-9.21A9.22,9.22,0,0,1,27.29,170.09Zm0-12.42a3.21,3.21,0,1,0,3.21,3.21A3.21,3.21,0,0,0,27.29,157.67Z"/><path class="cls-1" d="M271.94,152.23a9.21,9.21,0,1,1,9.21-9.22A9.22,9.22,0,0,1,271.94,152.23Zm0-12.42a3.21,3.21,0,1,0,3.21,3.21A3.21,3.21,0,0,0,271.94,139.81Z"/><path class="cls-1" d="M140.91,280.83a9.21,9.21,0,1,1,9.21-9.21A9.22,9.22,0,0,1,140.91,280.83Zm0-12.42a3.21,3.21,0,1,0,3.21,3.21A3.21,3.21,0,0,0,140.91,268.41Z"/><path class="cls-1" d="M12.56,135.43l-6-.26C9.54,65.42,66.55,9,136.34,6.62l.2,6C69.87,14.84,15.41,68.79,12.56,135.43Z"/><path class="cls-1" d="M134.61,275.34a133.91,133.91,0,0,1-128-127.09l6-.32A128,128,0,0,0,134.89,269.35Z"/><path class="cls-1" d="M148.75,275.26l-.34-6a128.14,128.14,0,0,0,120.8-121.65l6,.3A134.15,134.15,0,0,1,148.75,275.26Z"/><path class="cls-1" d="M269.26,135.36A128.49,128.49,0,0,0,147.93,12.73l.32-6a134.5,134.5,0,0,1,127,128.36Z"/><polygon class="cls-1" points="143.28 144.72 137.28 144.72 137.28 118.11 124.1 102.11 124.09 68.23 130.09 68.23 130.1 99.96 143.28 115.96 143.28 144.72"/><path class="cls-1" d="M127.09,72.5A9.73,9.73,0,1,1,134,69.65,9.67,9.67,0,0,1,127.09,72.5Zm0-13.47a3.73,3.73,0,0,0-2.64,6.37,3.82,3.82,0,0,0,5.28,0A3.73,3.73,0,0,0,127.1,59Z"/><polygon class="cls-1" points="137.65 144.72 137.65 115.96 150.84 99.96 150.84 83.03 156.84 83.03 156.84 102.11 143.65 118.11 143.65 144.72 137.65 144.72"/><path class="cls-1" d="M153.84,86a9.73,9.73,0,1,1,6.89-2.86A9.68,9.68,0,0,1,153.84,86Zm0-13.47a3.73,3.73,0,0,0-2.64,6.37,3.82,3.82,0,0,0,5.28,0,3.73,3.73,0,0,0-2.64-6.37Z"/></g></g></svg>