<svg xmlns="http://www.w3.org/2000/svg" viewBox="0 0 309.49 334.28"><defs><style>.cls-1{fill:#231f20;}</style></defs><title>fund-blueventure-black</title><g id="Layer_2" data-name="Layer 2"><g id="Layer_1-2" data-name="Layer 1"><path class="cls-1" d="M93.08,182.26H55.76V145H93.08Zm-31.39-5.92H87.15V150.87H61.69Z"/><rect class="cls-1" x="71.45" y="141.41" width="5.93" height="44.39" transform="translate(-93.89 100.54) rotate(-45)"/><path class="cls-1" d="M93.08,334.28H55.75V297H93.08Zm-31.4-5.93H87.15V302.89H61.68v25.46Z"/><rect class="cls-1" x="71.45" y="293.42" width="5.93" height="44.4" transform="translate(-201.4 145.1) rotate(-45.01)"/><path class="cls-1" d="M93.08,334.28H55.75V297H93.08Zm-31.4-5.93H87.15V302.89H61.68v25.46Z"/><path class="cls-1" d="M201.93,284.35H164.61V247h37.32v37.32Zm-31.39-5.93H196V253H170.54Z"/><rect class="cls-1" x="180.31" y="243.48" width="5.93" height="44.4" transform="translate(-134.19 207.41) rotate(-45)"/><path class="cls-1" d="M201.93,284.35H164.61V247h37.32v37.32Zm-31.39-5.93H196V253H170.54Z"/><path class="cls-1" d="M201.93,132.15H164.61V94.83h37.32v37.32Zm-31.39-5.93H196V100.76H170.54Z"/><rect class="cls-1" x="180.3" y="91.29" width="5.93" height="44.4" transform="translate(-26.57 162.83) rotate(-45)"/><path class="cls-1" d="M201.93,132.15H164.61V94.83h37.32v37.32Zm-31.39-5.93H196V100.76H170.54Z"/><path class="cls-1" d="M88.48,109.29V124.6h-18l18-15.31M94.4,96.44l-40,34.09h40V96.44Z"/><path class="cls-1" d="M144.86,109.29V124.6h-18l18-15.31m5.93-12.85-40,34.09h40V96.44Z"/><path class="cls-1" d="M197.32,61.37V76.68H179.37l17.95-15.31m5.93-12.85-40,34.09h40V48.52Z"/><path class="cls-1" d="M251.75,109.29V124.6H233.8l17.95-15.31m5.93-12.85-40,34.09h40V96.44Z"/><path class="cls-1" d="M303.56,12.85V28.16H285.61l17.95-15.31M309.49,0l-40,34.09h40V0Z"/><path class="cls-1" d="M34,209.32V227h-19l19-17.7M40,195.69,0,233H40V195.69Z"/><path class="cls-1" d="M93.08,233.22H55.76V195.89H93.08Zm-31.39-5.93H87.15V201.82H61.69Z"/><rect class="cls-1" x="52.21" y="211.58" width="44.4" height="5.93" transform="translate(-129.91 115.46) rotate(-45)"/><path class="cls-1" d="M149,284.35H111.69V247H149Zm-31.39-5.93h25.46V253H117.62Z"/><rect class="cls-1" x="108.37" y="262.71" width="44.4" height="5.93" transform="translate(-149.61 170.1) rotate(-44.99)"/><path class="cls-1" d="M202.05,181.55H164.72V144.23h37.33Zm-31.4-5.93h25.47V150.16H170.65Z"/><rect class="cls-1" x="161.4" y="159.92" width="44.4" height="5.93" transform="translate(-61.41 177.5) rotate(-44.99)"/><rect class="cls-1" x="108.14" y="211.59" width="44.4" height="5.93" transform="translate(-113.53 154.97) rotate(-44.99)"/><path class="cls-1" d="M38.65,284.35H1.32V247H38.65Zm-31.4-5.93H32.72V253H7.25Z"/><rect class="cls-1" x="-1.99" y="262.71" width="44.4" height="5.93" transform="translate(-181.92 92.08) rotate(-44.99)"/><path class="cls-1" d="M201.93,334.28H164.61V297h37.32v37.32Zm-31.39-5.93H196V302.89H170.54Z"/><rect class="cls-1" x="161.07" y="312.65" width="44.39" height="5.93" transform="translate(-169.5 222.03) rotate(-45)"/><path class="cls-1" d="M256.36,284.35H219V247h37.33ZM225,278.42h25.47V253H225Z"/><rect class="cls-1" x="215.49" y="262.76" width="44.4" height="5.93" transform="translate(-118.27 245.78) rotate(-44.98)"/><path class="cls-1" d="M93.08,284.35H55.75V247H93.08Zm-31.4-5.93H87.15V253H61.68v25.47Z"/><rect class="cls-1" x="58.71" y="262.72" width="31.4" height="5.93"/><path class="cls-1" d="M308.16,182.26H270.85V145h37.31Zm-31.39-5.92h25.46V150.87H276.77Z"/><rect class="cls-1" x="286.56" y="141.4" width="5.93" height="44.39" transform="translate(-30.88 252.64) rotate(-45)"/><path class="cls-1" d="M308.16,334.28H270.84V297h37.32Zm-31.39-5.93h25.46V302.89H276.77Z"/><rect class="cls-1" x="286.55" y="293.42" width="5.93" height="44.4" transform="translate(-138.38 297.22) rotate(-45.01)"/><path class="cls-1" d="M308.16,334.28H270.84V297h37.32Zm-31.39-5.93h25.46V302.89H276.77Z"/><path class="cls-1" d="M308.16,233.22H270.85V195.89h37.31Zm-31.39-5.93h25.46V201.82H276.77Z"/><rect class="cls-1" x="267.29" y="211.59" width="44.4" height="5.93" transform="translate(-66.93 267.49) rotate(-44.99)"/><path class="cls-1" d="M308.16,132.15H270.85V94.83h37.31Zm-31.39-5.93h25.46V100.76H276.77Z"/><path class="cls-1" d="M308.16,284.35H270.84V247h37.32Zm-31.39-5.93h25.46V253H276.77Z"/><rect class="cls-1" x="273.8" y="262.72" width="31.4" height="5.93"/><path class="cls-1" d="M308.16,84.23H270.84V46.91h37.32ZM276.77,78.3h25.46V52.84H276.77Z"/><rect class="cls-1" x="273.8" y="62.6" width="31.4" height="5.93"/><path class="cls-1" d="M38.65,334.28H1.32V297H38.65Zm-31.4-5.93H32.72V302.89H7.25Z"/><rect class="cls-1" x="4.29" y="312.65" width="31.4" height="5.93"/><path class="cls-1" d="M256.36,334.28H219V297h37.33ZM225,328.35h25.47V302.89H225Z"/><path class="cls-1" d="M148.67,233.22H111.34V195.89h37.33Zm-31.4-5.93h25.47V201.82H117.27Z"/><path class="cls-1" d="M256.36,233.22H219V195.89h37.33ZM225,227.29h25.47V201.82H225Z"/><rect class="cls-1" x="220.12" y="211.59" width="31.4" height="5.93"/><rect class="cls-1" x="220.12" y="312.65" width="31.4" height="5.93"/><path class="cls-1" d="M149.25,182.26H111.92V145h37.33Zm-31.4-5.92h25.47V150.87H117.85Z"/><rect class="cls-1" x="127.85" y="147.91" width="5.93" height="31.39"/><path class="cls-1" d="M201.93,233H164.61V195.66h37.32V233Zm-31.39-5.93H196V201.59H170.54Z"/><rect class="cls-1" x="180.53" y="198.63" width="5.93" height="31.39"/><path class="cls-1" d="M254.48,181.55H217.16V144.23h37.32Zm-31.39-5.93h25.46V150.16H223.09Z"/><rect class="cls-1" x="233.08" y="147.2" width="5.93" height="31.39"/><rect class="cls-1" x="286.54" y="99.14" width="5.93" height="31.39"/><path class="cls-1" d="M147.5,334.28H110.18V297H147.5Zm-31.39-5.93h25.47V302.89H116.11Z"/><rect class="cls-1" x="126.11" y="299.93" width="5.93" height="31.39"/></g></g></svg>