<?xml version="1.0" encoding="utf-8"?>
<!-- Generator: Adobe Illustrator 22.1.0, SVG Export Plug-In . SVG Version: 6.00 Build 0)  -->
<svg version="1.1" id="Layer_1" xmlns="http://www.w3.org/2000/svg" xmlns:xlink="http://www.w3.org/1999/xlink" x="0px" y="0px"
	 viewBox="0 0 330.8 351.1" style="enable-background:new 0 0 330.8 351.1;" xml:space="preserve">
<style type="text/css">
	.st0{fill:#808080;}
</style>
<title>fund-venture248-black</title>
<g id="Layer_2_1_">
	<g id="Layer_1-2">
		<path class="st0" d="M290.3,351.1H144.1l22.5-70.7L151,229.2l2.8-28.5l13-17.9v-21l15.7-17.3l10.6,9.3l5,0.6l6.4-23.6l13.1-26.1
			h29.7l35.8,17.9l10.1,31.7l-6.1,34L271,204.8l-2.6,13.9l6.4,3.2l13.9-19.3l18.3-7.9l15.6,11.9l8.2,65.9L290.3,351.1z M152.2,345.2
			h134.5l38-73.8l-7.7-61.6l-10.9-8.3l-13.6,5.9l-15.9,22.1l-14.9-7.4l3.8-20.1l15.9-16.5l5.6-30.8l-9-27.9l-32.3-16.1h-24.5
			l-11.3,22.5l-7.5,27.7l-12-1.5l-7.5-6.6L172.6,164v20.6l-13.2,18.2l-2.5,25.7l15.8,51.9L152.2,345.2z"/>
		<path class="st0" d="M118.8,126h-17.2v-21L90,96.7l-9-11.5L12.3,62.3L0,45.2L38.8,29L82.3,0h30.1L89.2,32.3l14.3-3.3l19.1,12.4
			L150,54.3L168.7,42l28.8-1.1l22.6-7.5v17.3l32.3,2l12.5,22.2l23.2,7.7l-7.3,11.8l-43.7-8l-5.9,6.9l-15.1-7.8L199,81.1l-42.9,25.8
			l-16.8-9.1L118.8,126z M107.5,120.1h8.3L137.6,90l18.4,10l42.1-25.3l20.4,5.3l11.2,5.8l5-5.9l43.1,7.9l1.2-2l-18.3-6.1l-12-21.4
			l-34.6-2.2V41.6L198,46.8l-27.5,1L150.3,61l-30.7-14.5l-17.4-11.2L75,41.6l25.7-35.7H84.1L41.3,34.4L9.2,47.8l6.8,9.5l68.5,22.8
			l9.8,12.6l13.1,9.1L107.5,120.1L107.5,120.1z"/>
		
			<rect x="214" y="161" transform="matrix(0.6273 -0.7788 0.7788 0.6273 -91.809 251.5958)" class="st0" width="5.9" height="121.4"/>
		
			<rect x="249.5" y="316.8" transform="matrix(6.958067e-02 -0.9976 0.9976 6.958067e-02 -60.2779 574.8565)" class="st0" width="57" height="5.9"/>
		
			<rect x="275" y="225.6" transform="matrix(0.993 -0.1177 0.1177 0.993 -26.5991 34.3997)" class="st0" width="5.9" height="33.6"/>
		
			<rect x="295.7" y="269.6" transform="matrix(0.9991 -4.152845e-02 4.152845e-02 0.9991 -11.0491 13.1811)" class="st0" width="32.1" height="5.9"/>
		
			<rect x="248.7" y="96.1" transform="matrix(0.7737 -0.6335 0.6335 0.7737 -36.3704 192.7545)" class="st0" width="5.9" height="102.3"/>
		
			<rect x="279.1" y="231" transform="matrix(0.4221 -0.9065 0.9065 0.4221 -34.2469 414.1026)" class="st0" width="57.1" height="5.9"/>
		
			<rect x="171.4" y="41.6" transform="matrix(0.3853 -0.9228 0.9228 0.3853 44.5917 202.6246)" class="st0" width="5.9" height="52.4"/>
		
			<rect x="107.4" y="25.4" transform="matrix(0.7104 -0.7038 0.7038 0.7104 -14.1007 96.6432)" class="st0" width="5.9" height="80.1"/>
		
			<rect x="206.1" y="191.6" transform="matrix(0.3733 -0.9277 0.9277 0.3733 -101.8896 351.2762)" class="st0" width="5.9" height="118.9"/>
		<polygon class="st0" points="261.7,222 198.1,159.7 202.2,155.5 265.8,217.8 		"/>
		<polygon class="st0" points="15.1,62.6 13.2,57 81.2,34.2 83.1,39.8 		"/>
		<path class="st0" d="M298.6,294.2h-37.3v-37.3h37.3V294.2z M267.2,288.3h25.5v-25.5h-25.5V288.3z"/>
		
			<rect x="141.6" y="316.7" transform="matrix(0.8979 -0.4403 0.4403 0.8979 -119.6616 123.4544)" class="st0" width="129.3" height="5.9"/>
		<polygon class="st0" points="264.2,283.7 169.7,283.4 169.7,277.4 264.3,277.7 		"/>
	</g>
</g>
</svg>
