<svg xmlns="http://www.w3.org/2000/svg" viewBox="0 0 330.78 351.11"><defs><style>.cls-1{fill:#fff;}</style></defs><title>fund-venture248-black</title><g id="Layer_2" data-name="Layer 2"><g id="Layer_1-2" data-name="Layer 1"><path class="cls-1" d="M290.29,351.11H144.09l22.48-70.73-15.65-51.23,2.8-28.5,13-17.94v-21l15.68-17.32,10.55,9.3,5,.63,6.44-23.58,13.05-26.08H247.1l35.76,17.88L293,154.24l-6.13,34L271,204.76l-2.61,13.93,6.36,3.19,13.89-19.34,18.29-7.93,15.65,11.9,8.25,65.93ZM152.2,345.19H286.67l38-73.84L317,209.72l-10.91-8.29-13.6,5.89-15.88,22.12L261.68,222l3.77-20.08,15.93-16.47,5.56-30.8-9-27.87-32.27-16.13H221.14l-11.28,22.54-7.5,27.71-12-1.5-7.53-6.64L172.64,164v20.59l-13.18,18.2-2.52,25.72,15.84,51.86Z"/><path class="cls-1" d="M118.77,126H101.54V105L90,96.74l-9-11.53L12.31,62.34,0,45.25,38.79,29,82.35,0h30.06L89.18,32.32,103.47,29,122.59,41.4,150,54.32,168.74,42l28.77-1.08,22.63-7.54V50.67l32.32,2,12.45,22.2,23.18,7.73-7.27,11.82-43.73-8-5.91,6.87-15.07-7.84L199,81.08l-42.91,25.75-16.75-9.14Zm-11.3-5.93h8.28L137.65,90,156,100l42.13-25.28,20.43,5.33,11.21,5.83L234.81,80l43.08,7.92,1.23-2-18.27-6.09-12-21.38-34.65-2.2V41.62l-16.06,5.23-27.54,1L150.44,61.1,119.71,46.57l-17.36-11.2L75.18,41.64,100.85,5.93H84.14L41.34,34.4,9.17,47.84,16,57.33,84.49,80.16l9.85,12.57,13.13,9.14v18.24Z"/><rect class="cls-1" x="214" y="161.01" width="5.93" height="121.45" transform="translate(-91.82 251.59) rotate(-51.15)"/><rect class="cls-1" x="249.48" y="316.74" width="57.03" height="5.93" transform="translate(-60.26 574.81) rotate(-86.01)"/><rect class="cls-1" x="275.01" y="225.57" width="5.93" height="33.63" transform="translate(-26.6 34.4) rotate(-6.76)"/><rect class="cls-1" x="295.65" y="269.58" width="32.09" height="5.93" transform="translate(-11.04 13.17) rotate(-2.38)"/><rect class="cls-1" x="248.75" y="96.08" width="5.93" height="102.34" transform="translate(-36.33 192.79) rotate(-39.31)"/><rect class="cls-1" x="279.16" y="231" width="57.08" height="5.93" transform="translate(-34.29 414.14) rotate(-65.03)"/><rect class="cls-1" x="171.44" y="41.59" width="5.93" height="52.41" transform="translate(44.64 202.62) rotate(-67.34)"/><rect class="cls-1" x="107.41" y="25.39" width="5.93" height="80.05" transform="translate(-14.07 96.62) rotate(-44.73)"/><rect class="cls-1" x="206.1" y="191.58" width="5.93" height="118.92" transform="translate(-101.88 351.28) rotate(-68.08)"/><polygon class="cls-1" points="261.66 222.03 198.09 159.74 202.24 155.51 265.81 217.8 261.66 222.03"/><polygon class="cls-1" points="15.1 62.64 13.21 57.02 81.24 34.17 83.13 39.79 15.1 62.64"/><path class="cls-1" d="M298.62,294.22H261.3V256.9h37.32Zm-31.39-5.93h25.46V262.83H267.23Z"/><rect class="cls-1" x="141.54" y="316.74" width="129.3" height="5.93" transform="translate(-119.68 123.41) rotate(-26.12)"/><polygon class="cls-1" points="264.25 283.66 169.67 283.36 169.69 277.43 264.27 277.73 264.25 283.66"/></g></g></svg>