<svg xmlns="http://www.w3.org/2000/svg" viewBox="0 0 304.5 336.01"><defs><style>.cls-1{fill:#231f20;}</style></defs><title>fund-greenseed-black</title><g id="Layer_2" data-name="Layer 2"><g id="Layer_1-2" data-name="Layer 1"><path class="cls-1" d="M151.43,234.7,141.69,226C139,223.6,75.1,166,75.1,106.8c0-24.7,13-50.86,37.54-75.67A219.33,219.33,0,0,1,149.89,1L151.43,0,153,1a219,219,0,0,1,37.24,30.18c24.56,24.81,37.54,51,37.54,75.67,0,59.29-63.87,116.8-66.58,119.22Zm0-227.7C141,13.85,81,55.35,81,106.8c0,56.61,62,112.44,64.6,114.79l5.8,5.17,5.8-5.17c2.64-2.35,64.61-58.13,64.61-114.79C221.83,55.31,161.91,13.85,151.43,7Z"/><path class="cls-1" d="M151.43,219l-2-1.75C146.9,215,86.79,160.85,86.79,106.8c0-22.61,11-45.57,31.71-66.4A165.09,165.09,0,0,1,150,15.61l1.47-.84,1.48.84A165.09,165.09,0,0,1,184.37,40.4c20.75,20.83,31.71,43.79,31.71,66.4,0,54.05-60.11,108.21-62.67,110.49Zm0-197.39c-9.24,5.74-58.72,38.7-58.72,85.15,0,46.05,48.27,94.33,58.71,104.23,10.45-9.9,58.72-58.18,58.72-104.23C210.15,60.3,160.68,27.39,151.44,21.65Z"/><rect class="cls-1" x="148.47" y="177.35" width="5.93" height="158.66"/><rect class="cls-1" x="148.47" y="53.66" width="5.93" height="140.34"/><rect class="cls-1" x="147.54" y="147.08" width="26.42" height="5.93" transform="translate(-59.01 157.61) rotate(-45)"/><rect class="cls-1" x="137.8" y="151.64" width="5.93" height="30.16" transform="translate(-76.66 148.38) rotate(-45)"/><rect class="cls-1" x="147.05" y="101.35" width="30.7" height="5.93" transform="translate(-26.62 143.38) rotate(-44.39)"/><rect class="cls-1" x="139.5" y="111.31" width="5.93" height="25.42" transform="translate(-45.96 137.09) rotate(-45.01)"/><rect class="cls-1" x="137.8" y="65.54" width="5.93" height="30.16" transform="translate(-15.78 123.15) rotate(-45)"/><path class="cls-1" d="M86,335.34H48.7V298H86Zm-31.4-5.93H80.1V304H54.63Z"/><rect class="cls-1" x="45.17" y="313.72" width="44.4" height="5.93" transform="translate(-204.2 140.39) rotate(-45)"/><path class="cls-1" d="M255.85,335.34H218.52V298h37.33Zm-31.4-5.93h25.47V304H224.45Z"/><rect class="cls-1" x="214.96" y="313.71" width="44.4" height="5.93" transform="translate(-154.45 260.34) rotate(-44.98)"/><path class="cls-1" d="M304.5,335.34H267.18V298H304.5v37.32Zm-31.39-5.93h25.46V304H273.11Z"/><rect class="cls-1" x="263.63" y="313.72" width="44.39" height="5.93" transform="translate(-140.21 294.8) rotate(-44.99)"/><path class="cls-1" d="M86,285.22H48.7V247.9H86Zm-31.4-5.93H80.1V253.83H54.63Z"/><rect class="cls-1" x="45.17" y="263.6" width="44.4" height="5.93" transform="translate(-168.75 125.71) rotate(-45)"/><path class="cls-1" d="M205.54,285.22H168.22V247.9h37.32Zm-31.39-5.93h25.46V253.83H174.15Z"/><rect class="cls-1" x="164.67" y="263.59" width="44.4" height="5.93" transform="translate(-133.74 210.16) rotate(-44.99)"/><path class="cls-1" d="M134.73,285.22H97.41V247.9h37.32Zm-31.39-5.93H128.8V253.83H103.34Z"/><rect class="cls-1" x="113.1" y="244.39" width="5.93" height="44.4" transform="translate(-154.51 160.13) rotate(-45)"/><path class="cls-1" d="M86,235.88H48.7V198.56H86ZM54.63,230H80.1V204.48H54.63Z"/><rect class="cls-1" x="64.4" y="195.04" width="5.93" height="44.4" transform="translate(-133.89 111.28) rotate(-45)"/><path class="cls-1" d="M255.85,285.22H218.52V247.9h37.33Zm-31.4-5.93h25.47V253.83H224.45Z"/><rect class="cls-1" x="235.27" y="244.4" width="5.93" height="44.4" transform="translate(-118.73 246.52) rotate(-45)"/><path class="cls-1" d="M205.54,335.34H168.22V298h37.32Zm-31.39-5.93h25.46V304H174.15Z"/><rect class="cls-1" x="183.92" y="294.52" width="5.93" height="44.4" transform="translate(-169.21 224.88) rotate(-45)"/><path class="cls-1" d="M255.85,235.88H218.52V198.56h37.33ZM224.45,230h25.47V204.48H224.45Z"/><rect class="cls-1" x="234.23" y="195.05" width="5.93" height="44.4" transform="translate(-84.15 231.37) rotate(-45)"/><path class="cls-1" d="M134.73,335.34H97.41V298h37.32Zm-31.39-5.93H128.8V304H103.34Z"/><rect class="cls-1" x="113.13" y="294.49" width="5.93" height="44.4" transform="translate(-189.93 174.85) rotate(-45)"/><path class="cls-1" d="M37.33,335.34H0V298H37.33Zm-31.4-5.93H31.4V304H5.93Z"/><rect class="cls-1" x="15.7" y="294.48" width="5.93" height="44.4" transform="translate(-218.46 105.95) rotate(-45)"/><rect class="cls-1" x="148.47" y="3.47" width="5.93" height="18.38"/></g></g></svg>