<?xml version="1.0" encoding="utf-8"?>
<!-- Generator: Adobe Illustrator 22.1.0, SVG Export Plug-In . SVG Version: 6.00 Build 0)  -->
<svg version="1.1" id="Layer_1" xmlns="http://www.w3.org/2000/svg" xmlns:xlink="http://www.w3.org/1999/xlink" x="0px" y="0px"
	 viewBox="0 0 24 40.8" style="enable-background:new 0 0 24 40.8;" xml:space="preserve">
<style type="text/css">
	.st0{fill:#FFFFFF;}
</style>
<title>phone-black</title>
<g id="Layer_2_1_">
	<g id="Layer_1-2">
		<path class="st0" d="M22.1,40.8H1.9C0.9,40.8,0,40,0,39V1.9C0,0.8,0.8,0,1.9,0h20.3c1,0,1.9,0.8,1.9,1.9V39
			C24,40,23.2,40.8,22.1,40.8z M2.2,38.6h19.5V2.2H2.2V38.6z"/>
		<path class="st0" d="M18.4,30.5H5.6c-1,0-1.9-0.8-1.9-1.9V5.8c0-1,0.8-1.9,1.9-1.9h12.7c1,0,1.9,0.8,1.9,1.9v22.8
			C20.3,29.7,19.4,30.5,18.4,30.5L18.4,30.5z M6,28.3h12V6.2H6V28.3z"/>
		<path class="st0" d="M12,37.4c-1.6,0-2.9-1.4-2.9-3c0-1.6,1.4-2.9,3-2.9c1.6,0,2.9,1.3,2.9,2.9C15,36.1,13.7,37.4,12,37.4
			C12,37.4,12,37.4,12,37.4z M12,33.8c-0.4,0-0.7,0.3-0.7,0.7c0,0.4,0.3,0.7,0.7,0.7c0.4,0,0.7-0.3,0.7-0.7S12.4,33.8,12,33.8
			C12,33.8,12,33.8,12,33.8z"/>
	</g>
</g>
</svg>
