<svg xmlns="http://www.w3.org/2000/svg" viewBox="0 0 221.57 169.59"><defs><style>.cls-1{fill:#414042;}.cls-2{fill:#808285;}</style></defs><title>chart-active-investments-bw</title><g id="Layer_2" data-name="Layer 2"><g id="Layer_1-2" data-name="Layer 1"><path class="cls-1" d="M92.71,31.91l5,6.45,16.18,21.08L95.9,57.08,79.43,54.92a39.59,39.59,0,0,1,13.28-23m.19-1.8A41,41,0,0,0,78,56l17.76,2.33,21,2.76-18-23.48L92.9,30.11Z"/><path class="cls-1" d="M78.71,60.37l16.47,2.17,17.95,2.36-9.07,7L85.6,86a39.68,39.68,0,0,1-6.89-25.67M77.58,59a41.06,41.06,0,0,0,7.74,28.86l19.5-15,11.47-8.81-21-2.75L77.58,59Z"/><polygon class="cls-1" points="95.34 61.3 116.29 64.05 104.82 72.86 116.29 64.05 95.34 61.3"/><path class="cls-1" d="M116.48,69.26,112,103.68a39.7,39.7,0,0,1-23-13.28l27.54-21.14m1.64-2.83-31,23.77A41,41,0,0,0,113,105.14l5.09-38.71Z"/><path class="cls-1" d="M122.27,67.44l32.45,18.34a40.83,40.83,0,0,1-34.39,18.71c-1,0-1.93,0-2.91-.1l4.85-36.95m-1-2L116,105.53c1.45.14,2.9.21,4.33.21a41.94,41.94,0,0,0,36.14-20.4l-35.2-19.9Z"/><rect class="cls-1" x="98.42" y="85.48" width="40.44" transform="translate(18.43 191.98) rotate(-82.51)"/><path class="cls-1" d="M120.05,21.6a41.14,41.14,0,0,1,32.89,16.2c9.85,12.82,11.49,28.88,4.49,43.2l-6.18-3.49L123.4,61.76l-1.09-.62-.4-.22,0-.05-.54-.7L97.08,28.56a41.05,41.05,0,0,1,23-7m0-1.25a42.21,42.21,0,0,0-24.76,7.93l25.06,32.65.54.7.19.25h0l.61.35,1.1.62L150.64,78.6,158,82.73c7.91-15.08,6.45-32.05-4-45.69a42.42,42.42,0,0,0-33.89-16.69Z"/><path class="cls-1" d="M33.62,6.46A18.84,18.84,0,0,0,35.09,5.1a4.19,4.19,0,0,0,.67-.89A1.81,1.81,0,0,0,36,3.38a1.36,1.36,0,0,0-.47-1.08,1.84,1.84,0,0,0-1.2-.39,2,2,0,0,0-1.16.36,3.89,3.89,0,0,0-1,1.21.18.18,0,0,1-.19.12.42.42,0,0,1-.21-.06l-1.34-.69a.33.33,0,0,1-.18-.27.42.42,0,0,1,.08-.22A4.68,4.68,0,0,1,34.43,0a5.47,5.47,0,0,1,2.13.4A3.4,3.4,0,0,1,38,1.57a3.2,3.2,0,0,1,.51,1.81A3,3,0,0,1,38,5.06a7.47,7.47,0,0,1-1.67,1.71L33.57,8.94c-.06,0-.09.08-.09.1s.06.08.18.08h4.66c.19,0,.28.08.28.24V11q0,.27-.3.27H30.49a.38.38,0,0,1-.27-.07.31.31,0,0,1-.08-.25V9.81a.48.48,0,0,1,.12-.29A4.71,4.71,0,0,1,30.83,9Z"/><path class="cls-2" d="M.05,30.23a.17.17,0,0,1,0-.12v-10c0-.13.06-.2.18-.2H3.42a5,5,0,0,1,2.87.7A2.47,2.47,0,0,1,6.86,24a3,3,0,0,1-1.39.91s0,0,0,0a.06.06,0,0,0,0,.06,2.4,2.4,0,0,1,2.09,2.48,2.34,2.34,0,0,1-1,2.08,5.43,5.43,0,0,1-3,.69H.17A.17.17,0,0,1,.05,30.23Zm3.55-5.7a3.1,3.1,0,0,0,1.66-.42A1.49,1.49,0,0,0,6,22.73a1.58,1.58,0,0,0-.67-1.39,3.24,3.24,0,0,0-1.86-.47H1.52c-.12,0-.18.06-.18.17v3.3c0,.12,0,.19.13.19ZM3.44,29.3a3.73,3.73,0,0,0,2.05-.45,1.54,1.54,0,0,0,.67-1.38A1.63,1.63,0,0,0,5.46,26a3.25,3.25,0,0,0-1.86-.48H1.54a.22.22,0,0,0-.15,0,.16.16,0,0,0,0,.13v3.4a.3.3,0,0,0,0,.16.11.11,0,0,0,.1,0Z"/><path class="cls-2" d="M10.69,30c0,.1,0,.16,0,.19a.32.32,0,0,1-.2.05H9.72c-.09,0-.14,0-.17,0a.22.22,0,0,1,0-.16v-10c0-.13.06-.2.17-.2h.84c.11,0,.16.06.16.19Z"/><path class="cls-2" d="M14.1,29.94a3.33,3.33,0,0,1-1.24-1.36,4.17,4.17,0,0,1-.44-2,4.41,4.41,0,0,1,.45-2,3.55,3.55,0,0,1,1.26-1.37,3.45,3.45,0,0,1,1.84-.5,3.49,3.49,0,0,1,1.85.5,3.36,3.36,0,0,1,1.24,1.37,4.5,4.5,0,0,1,.44,2,4.23,4.23,0,0,1-.45,2,3.29,3.29,0,0,1-1.25,1.36,3.45,3.45,0,0,1-1.84.49A3.58,3.58,0,0,1,14.1,29.94Zm3.59-1.19a3.55,3.55,0,0,0,.61-2.18,3.47,3.47,0,0,0-.63-2.18,2,2,0,0,0-1.7-.8,2.08,2.08,0,0,0-1.72.8,3.47,3.47,0,0,0-.63,2.18,3.42,3.42,0,0,0,.63,2.17,2.1,2.1,0,0,0,1.74.8A2,2,0,0,0,17.69,28.75Z"/><path class="cls-2" d="M26.06,23.2a3.41,3.41,0,0,1,1.15,1.26l0,.11c0,.05,0,.09-.1.1l-.77.18h0s-.09,0-.14-.11a4,4,0,0,0-.86-.88,1.63,1.63,0,0,0-.95-.28,2.12,2.12,0,0,0-1.73.8A3.41,3.41,0,0,0,22,26.57a3.35,3.35,0,0,0,.66,2.19,2.15,2.15,0,0,0,1.75.8,2,2,0,0,0,1.16-.33,2.92,2.92,0,0,0,.9-1,.19.19,0,0,1,.08-.08.18.18,0,0,1,.1,0l.6.23c.07,0,.09.09.06.18a3.69,3.69,0,0,1-1.19,1.32,3.12,3.12,0,0,1-1.8.51,3.43,3.43,0,0,1-1.82-.48,3.26,3.26,0,0,1-1.25-1.35,4.26,4.26,0,0,1-.45-2,4.43,4.43,0,0,1,.45-2,3.41,3.41,0,0,1,1.25-1.38,3.49,3.49,0,0,1,1.82-.49A3.06,3.06,0,0,1,26.06,23.2Z"/><path class="cls-2" d="M35.26,30.15c0,.09,0,.13-.15.13h-1a.23.23,0,0,1-.14,0,.3.3,0,0,1-.11-.13l-2.11-3.62s-.05-.08-.07-.08a.1.1,0,0,0-.1.05L30.11,28a.38.38,0,0,0-.09.28V30c0,.1,0,.16-.06.19a.32.32,0,0,1-.2.05h-.71a.32.32,0,0,1-.17,0,.22.22,0,0,1,0-.16v-10c0-.13.05-.2.15-.2h.86c.11,0,.17.06.17.18v6.5c0,.1,0,.14,0,.14s.06,0,.1-.08L33.61,23a.45.45,0,0,1,.3-.17h.85c.11,0,.17,0,.17.1s0,.08-.1.17l-2.21,2.25a.28.28,0,0,0-.06.13.51.51,0,0,0,0,.11l2.64,4.44S35.26,30.11,35.26,30.15Z"/><path class="cls-2" d="M41.14,23.2a3.41,3.41,0,0,1,1.15,1.26l0,.11c0,.05,0,.09-.1.1l-.77.18h0s-.09,0-.14-.11a4,4,0,0,0-.86-.88,1.63,1.63,0,0,0-.95-.28,2.12,2.12,0,0,0-1.73.8,3.41,3.41,0,0,0-.65,2.18,3.4,3.4,0,0,0,.65,2.19,2.17,2.17,0,0,0,1.76.8,2,2,0,0,0,1.16-.33,2.92,2.92,0,0,0,.9-1,.19.19,0,0,1,.08-.08.2.2,0,0,1,.1,0l.6.23c.07,0,.09.09.06.18a3.69,3.69,0,0,1-1.19,1.32,3.16,3.16,0,0,1-1.81.51,3.48,3.48,0,0,1-1.82-.48,3.31,3.31,0,0,1-1.24-1.35,4.26,4.26,0,0,1-.45-2,4.43,4.43,0,0,1,.45-2,3.34,3.34,0,0,1,1.25-1.38,3.48,3.48,0,0,1,1.81-.49A3.08,3.08,0,0,1,41.14,23.2Z"/><path class="cls-2" d="M43.92,30.1v-10q0-.18.15-.18h.83c.1,0,.15.06.15.17V23.8c0,.1,0,.11.13,0A7.38,7.38,0,0,1,46.53,23a3,3,0,0,1,1.24-.25,2.25,2.25,0,0,1,1.65.57A2.09,2.09,0,0,1,50,24.85v5.21c0,.14-.06.22-.21.22H49a.16.16,0,0,1-.18-.18v-5A1.5,1.5,0,0,0,48.47,24a1.44,1.44,0,0,0-1.1-.38,2.26,2.26,0,0,0-1.07.26,8.53,8.53,0,0,0-1.21.88v5.29c0,.14-.07.21-.22.21H44.1A.16.16,0,0,1,43.92,30.1Z"/><path class="cls-2" d="M53.9,30.42a2.5,2.5,0,0,1-1.72-.55,1.89,1.89,0,0,1-.62-1.48,2,2,0,0,1,.94-1.76,5.45,5.45,0,0,1,2.74-.76l1.09-.09q.24,0,.24-.21V25.2A1.53,1.53,0,0,0,56.1,24a1.78,1.78,0,0,0-1.27-.44,2.35,2.35,0,0,0-2,1.12.24.24,0,0,1-.08.09s-.07,0-.12,0l-.75-.25a.1.1,0,0,1-.07-.1.27.27,0,0,1,0-.12A2.92,2.92,0,0,1,53,23.13a3.9,3.9,0,0,1,1.84-.41,3.08,3.08,0,0,1,2.1.64,2.22,2.22,0,0,1,.73,1.75v5a.25.25,0,0,1-.05.17s-.08,0-.15,0h-.7c-.11,0-.18-.07-.19-.22l0-.65c0-.06,0-.1-.07-.1a.24.24,0,0,0-.13.07A3.5,3.5,0,0,1,53.9,30.42Zm2.46-3.92-.91.08a4.59,4.59,0,0,0-2,.51,1.29,1.29,0,0,0-.7,1.16,1.17,1.17,0,0,0,.42.95,1.73,1.73,0,0,0,1.14.35,2.55,2.55,0,0,0,.86-.15A2.34,2.34,0,0,0,55.9,29a2.28,2.28,0,0,0,.5-.54,1.13,1.13,0,0,0,.17-.55V26.72C56.57,26.57,56.5,26.5,56.36,26.5Z"/><path class="cls-2" d="M61,21.26a.36.36,0,0,1,0,.21.28.28,0,0,1-.2.06h-.81q-.21,0-.21-.24V20.12c0-.15.06-.23.19-.23h.89a.2.2,0,0,1,.14.06.25.25,0,0,1,0,.15Zm0,8.78c0,.1,0,.16-.06.19a.32.32,0,0,1-.2.05H60a.25.25,0,0,1-.17,0,.22.22,0,0,1,0-.16v-7c0-.13.06-.2.17-.2h.85c.11,0,.16.06.16.18Z"/><path class="cls-2" d="M63.1,30.1V23q0-.18.15-.18h.84a.13.13,0,0,1,.15.15v.81c0,.11.05.12.13.05A7.29,7.29,0,0,1,65.71,23,2.93,2.93,0,0,1,67,22.72a2.28,2.28,0,0,1,1.65.57,2,2,0,0,1,.6,1.54v5.22c0,.15-.07.23-.21.23h-.78a.17.17,0,0,1-.19-.19v-5A1.54,1.54,0,0,0,67.67,24a1.47,1.47,0,0,0-1.1-.38,2.37,2.37,0,0,0-1.09.26,6.45,6.45,0,0,0-1.21.88v5.29a.23.23,0,0,1,0,.16.22.22,0,0,1-.16.05h-.77C63.16,30.28,63.1,30.22,63.1,30.1Z"/><path class="cls-1" d="M39.62,69.47c.66-.57,1.15-1,1.47-1.37a3.87,3.87,0,0,0,.67-.89,1.81,1.81,0,0,0,.19-.83,1.36,1.36,0,0,0-.47-1.08,1.84,1.84,0,0,0-1.2-.39,2,2,0,0,0-1.16.36,3.89,3.89,0,0,0-1,1.21.18.18,0,0,1-.19.12.42.42,0,0,1-.21-.06l-1.34-.69a.33.33,0,0,1-.18-.27.46.46,0,0,1,.08-.23A4.67,4.67,0,0,1,40.43,63a5.29,5.29,0,0,1,2.13.4A3.32,3.32,0,0,1,44,64.57a3.19,3.19,0,0,1,.51,1.8A3,3,0,0,1,44,68.05a7.48,7.48,0,0,1-1.67,1.72l-2.77,2.17c-.06,0-.09.08-.09.1s.06.08.18.08h4.66c.19,0,.29.08.29.24V74q0,.27-.3.27H36.49a.38.38,0,0,1-.27-.07.31.31,0,0,1-.08-.25V72.81a.48.48,0,0,1,.12-.29,5.68,5.68,0,0,1,.57-.53Z"/><path class="cls-2" d="M14.43,82.89h6.16c.09,0,.14,0,.14.16v.71c0,.11-.06.17-.19.17H15.78a.22.22,0,0,0-.14,0s0,.07,0,.13v3.45c0,.1.05.15.16.15h3.73c.11,0,.16,0,.16.14v.75a.1.1,0,0,1,0,.09.17.17,0,0,1-.12,0H15.76a.14.14,0,0,0-.16.16V93.1c0,.12-.06.18-.19.18h-1a.21.21,0,0,1-.15,0,.22.22,0,0,1,0-.16v-10C14.26,83,14.31,82.89,14.43,82.89Z"/><path class="cls-2" d="M23.62,84.26a.31.31,0,0,1-.05.21.27.27,0,0,1-.2.06h-.81q-.21,0-.21-.24V83.11c0-.14.07-.22.2-.22h.88a.18.18,0,0,1,.14.06.18.18,0,0,1,.05.15ZM23.57,93c0,.1,0,.16-.06.19a.29.29,0,0,1-.19,0H22.6c-.08,0-.14,0-.16,0a.22.22,0,0,1-.05-.16v-7c0-.13.06-.2.17-.2h.86q.15,0,.15.18Z"/><path class="cls-2" d="M25.74,93.1V86q0-.18.15-.18h.84c.11,0,.16,0,.16.15v.81c0,.11,0,.12.12.05A7.85,7.85,0,0,1,28.35,86a2.93,2.93,0,0,1,1.24-.26,2.31,2.31,0,0,1,1.66.57,2.06,2.06,0,0,1,.59,1.54v5.22c0,.15-.07.23-.21.23h-.78a.16.16,0,0,1-.18-.18v-5A1.5,1.5,0,0,0,30.31,87a1.45,1.45,0,0,0-1.1-.38,2.33,2.33,0,0,0-1.08.26,6.6,6.6,0,0,0-1.22.88v5.29a.24.24,0,0,1,0,.16.26.26,0,0,1-.17,0h-.77C25.8,93.28,25.74,93.22,25.74,93.1Z"/><path class="cls-2" d="M37.3,89.85c0,.13-.08.2-.24.2H33.89a.23.23,0,0,1-.14,0,.16.16,0,0,1,0-.13v-.62c0-.1,0-.15.13-.15l3.33,0a.12.12,0,0,1,.14.14Z"/><path class="cls-2" d="M37.08,83.05c0-.11.06-.16.17-.16h7.53c.11,0,.17,0,.17.16v.72a.14.14,0,0,1-.05.12s-.07,0-.12,0H41.94a.17.17,0,0,0-.12,0,.12.12,0,0,0,0,.11v9c0,.12-.05.18-.17.18h-1c-.12,0-.17-.06-.17-.18v-9a.19.19,0,0,0,0-.13.16.16,0,0,0-.11,0h-3l-.13,0s0-.06,0-.12v-.72Z"/><path class="cls-2" d="M46.23,91.28a2.5,2.5,0,0,0,.89.91,2.36,2.36,0,0,0,1.23.33,2.47,2.47,0,0,0,2.18-1.16s.07-.06.1-.06a.13.13,0,0,1,.1,0l.59.29a.13.13,0,0,1,0,.2A3.28,3.28,0,0,1,50,93a3.86,3.86,0,0,1-1.8.39,3.53,3.53,0,0,1-1.84-.48,3.32,3.32,0,0,1-1.27-1.33,4.21,4.21,0,0,1-.45-2,4.43,4.43,0,0,1,.46-2.08,3.28,3.28,0,0,1,1.27-1.36,3.47,3.47,0,0,1,1.81-.48,3.43,3.43,0,0,1,1.77.45,3,3,0,0,1,1.19,1.31,4.57,4.57,0,0,1,.42,2v.06a.33.33,0,0,1-.05.19s-.08.06-.16.06H46q-.12,0-.12.21A2.49,2.49,0,0,0,46.23,91.28Zm4-2.23a.4.4,0,0,0,.2,0s0-.08,0-.16a2.58,2.58,0,0,0-.26-1.14,1.88,1.88,0,0,0-.76-.84,2.09,2.09,0,0,0-1.15-.32,2.19,2.19,0,0,0-1.25.36,2.4,2.4,0,0,0-.81.92,2.52,2.52,0,0,0-.26,1.21Z"/><path class="cls-2" d="M58.07,86.2a3.44,3.44,0,0,1,1.16,1.26l0,.11a.1.1,0,0,1-.09.1l-.78.18h0s-.09,0-.14-.11a3.8,3.8,0,0,0-.86-.88,1.6,1.6,0,0,0-.94-.28,2.13,2.13,0,0,0-1.74.8,4,4,0,0,0,0,4.37,2.15,2.15,0,0,0,1.75.8,2,2,0,0,0,1.16-.33,2.92,2.92,0,0,0,.9-1,.16.16,0,0,1,.09-.08l.09,0,.61.23c.06,0,.08.09,0,.18a3.6,3.6,0,0,1-1.19,1.32,3.12,3.12,0,0,1-1.8.51,3.46,3.46,0,0,1-1.82-.48,3.33,3.33,0,0,1-1.25-1.35,4.26,4.26,0,0,1-.45-2,4.4,4.4,0,0,1,.45-2,3.41,3.41,0,0,1,1.25-1.38,3.52,3.52,0,0,1,1.82-.49A3.06,3.06,0,0,1,58.07,86.2Z"/><path class="cls-2" d="M60.85,93.1v-10q0-.18.15-.18h.83c.1,0,.15.06.15.17V86.8c0,.1,0,.11.13,0A7.08,7.08,0,0,1,63.47,86a2.91,2.91,0,0,1,1.23-.25,2.28,2.28,0,0,1,1.66.57,2.13,2.13,0,0,1,.58,1.56v5.21a.19.19,0,0,1-.21.22h-.79a.16.16,0,0,1-.18-.18v-5A1.54,1.54,0,0,0,65.41,87a1.47,1.47,0,0,0-1.1-.38,2.23,2.23,0,0,0-1.07.26,8,8,0,0,0-1.22.88v5.29c0,.14-.07.21-.22.21H61A.16.16,0,0,1,60.85,93.1Z"/><path class="cls-1" d="M97,126.63c.66-.57,1.15-1,1.47-1.36a3.61,3.61,0,0,0,.66-.9,1.78,1.78,0,0,0,.19-.83,1.33,1.33,0,0,0-.47-1.07,1.77,1.77,0,0,0-1.19-.4,2.08,2.08,0,0,0-1.17.37,3.77,3.77,0,0,0-1,1.21.19.19,0,0,1-.2.12.42.42,0,0,1-.21-.06L93.69,123a.33.33,0,0,1-.18-.27.43.43,0,0,1,.07-.23,4.69,4.69,0,0,1,4.19-2.35,5.24,5.24,0,0,1,2.12.4,3.26,3.26,0,0,1,1.43,1.17,3.17,3.17,0,0,1,.51,1.8,3.1,3.1,0,0,1-.48,1.68,7.77,7.77,0,0,1-1.68,1.71l-2.77,2.18c-.06,0-.09.07-.09.1s.06.08.18.08h4.66c.19,0,.29.08.29.24v1.65q0,.27-.3.27H93.82a.44.44,0,0,1-.27-.07.34.34,0,0,1-.07-.25V130a.53.53,0,0,1,.12-.3,4.74,4.74,0,0,1,.57-.53Z"/><path class="cls-2" d="M80.55,140.13a.22.22,0,0,1,0,.18l-2.88,9.93a.26.26,0,0,1-.1.16.41.41,0,0,1-.21,0h-.85a.3.3,0,0,1-.33-.2L74,142.31c0-.1-.06-.1-.09,0l-2.27,7.91a.26.26,0,0,1-.1.16.41.41,0,0,1-.21,0h-.87a.29.29,0,0,1-.32-.2l-2.84-9.94a.14.14,0,0,1,0-.07q0-.18.21-.18h.9a.22.22,0,0,1,.24.17l2.28,8.15c0,.1.06.15.08.15s.07-.05.09-.14l2.32-8.18a.24.24,0,0,1,.25-.15h.8a.37.37,0,0,1,.17,0,.2.2,0,0,1,.08.14l2.3,8.19c0,.08.06.12.08.12s.06,0,.09-.12l2.31-8.21q0-.15.24-.15h.7A.18.18,0,0,1,80.55,140.13Z"/><path class="cls-2" d="M82.44,148.44a2.53,2.53,0,0,0,.89.92,2.36,2.36,0,0,0,1.23.33,2.51,2.51,0,0,0,2.19-1.16.14.14,0,0,1,.1-.06.11.11,0,0,1,.09,0l.59.29c.08.05.09.11,0,.2a3.42,3.42,0,0,1-1.3,1.22,3.93,3.93,0,0,1-1.81.39,3.52,3.52,0,0,1-1.83-.48,3.22,3.22,0,0,1-1.27-1.34,4.17,4.17,0,0,1-.46-2,4.4,4.4,0,0,1,.47-2.08,3.35,3.35,0,0,1,1.26-1.37,3.58,3.58,0,0,1,1.82-.47,3.52,3.52,0,0,1,1.77.44,3,3,0,0,1,1.18,1.31,4.64,4.64,0,0,1,.42,2v.06a.36.36,0,0,1,0,.19.21.21,0,0,1-.17.06H82.24c-.09,0-.13.07-.13.21A2.42,2.42,0,0,0,82.44,148.44Zm4-2.22c.1,0,.16,0,.19,0s0-.07,0-.16a2.45,2.45,0,0,0-.26-1.14,2,2,0,0,0-.75-.84,2.12,2.12,0,0,0-1.16-.31,2.22,2.22,0,0,0-1.24.35,2.27,2.27,0,0,0-.81.93,2.52,2.52,0,0,0-.27,1.21Z"/><path class="cls-2" d="M91.28,150.59a2.46,2.46,0,0,1-1.71-.56,1.85,1.85,0,0,1-.63-1.47,2,2,0,0,1,1-1.77,5.42,5.42,0,0,1,2.74-.75l1.09-.09q.24,0,.24-.21v-.38a1.56,1.56,0,0,0-.47-1.19,1.77,1.77,0,0,0-1.27-.44,2.38,2.38,0,0,0-2,1.12.36.36,0,0,1-.08.09.14.14,0,0,1-.11,0l-.76-.25a.1.1,0,0,1-.07-.1.3.3,0,0,1,0-.13,2.89,2.89,0,0,1,1.2-1.15,3.82,3.82,0,0,1,1.84-.41,3.1,3.1,0,0,1,2.1.63,2.21,2.21,0,0,1,.73,1.76v5c0,.08,0,.14,0,.16a.22.22,0,0,1-.16,0h-.7c-.11,0-.17-.08-.19-.23l0-.64c0-.07,0-.1-.07-.1a.15.15,0,0,0-.12.07A3.52,3.52,0,0,1,91.28,150.59Zm2.47-3.92-.91.08a4.75,4.75,0,0,0-2,.5,1.31,1.31,0,0,0-.71,1.17,1.15,1.15,0,0,0,.43,1,1.74,1.74,0,0,0,1.14.35,2.5,2.5,0,0,0,.85-.15,2.8,2.8,0,0,0,.74-.42,2.09,2.09,0,0,0,.5-.54,1.05,1.05,0,0,0,.18-.56v-1.16C94,146.74,93.89,146.67,93.75,146.67Z"/><path class="cls-2" d="M97.13,150.26v-7c0-.12.06-.18.16-.18h.81a.13.13,0,0,1,.15.15v.91c0,.06,0,.09,0,.1s.07,0,.11-.06a2.93,2.93,0,0,1,2.17-1.24c.32,0,.49.06.49.18v.84c0,.09,0,.13-.13.11a3.77,3.77,0,0,0-.63,0,2.1,2.1,0,0,0-.88.23,2.6,2.6,0,0,0-.8.62,1.2,1.2,0,0,0-.32.77v4.64a.19.19,0,0,1-.21.21h-.77C97.2,150.45,97.13,150.39,97.13,150.26Z"/><path class="cls-2" d="M104.28,150.59a2.49,2.49,0,0,1-1.72-.56,1.84,1.84,0,0,1-.62-1.47,2,2,0,0,1,.94-1.77,5.42,5.42,0,0,1,2.74-.75l1.09-.09q.24,0,.24-.21v-.38a1.56,1.56,0,0,0-.47-1.19,1.75,1.75,0,0,0-1.27-.44,2.38,2.38,0,0,0-2,1.12.24.24,0,0,1-.08.09.15.15,0,0,1-.11,0l-.76-.25a.11.11,0,0,1-.07-.1.36.36,0,0,1,0-.13,2.87,2.87,0,0,1,1.19-1.15,3.82,3.82,0,0,1,1.84-.41,3.1,3.1,0,0,1,2.1.63,2.21,2.21,0,0,1,.73,1.76v5c0,.08,0,.14,0,.16a.21.21,0,0,1-.15,0h-.7c-.11,0-.18-.08-.2-.23l0-.64c0-.07,0-.1-.07-.1a.17.17,0,0,0-.12.07A3.5,3.5,0,0,1,104.28,150.59Zm2.46-3.92-.91.08a4.75,4.75,0,0,0-2,.5,1.31,1.31,0,0,0-.71,1.17,1.15,1.15,0,0,0,.43,1,1.74,1.74,0,0,0,1.14.35,2.55,2.55,0,0,0,.86-.15,3,3,0,0,0,.74-.42,2,2,0,0,0,.49-.54,1.05,1.05,0,0,0,.18-.56v-1.16C107,146.74,106.88,146.67,106.74,146.67Z"/><path class="cls-2" d="M110.35,150.45a.3.3,0,0,1-.18,0,.28.28,0,0,1,0-.18v-10c0-.13.05-.19.16-.19h.87c.09,0,.14.06.14.19v3.44c0,.1,0,.15.07.15a.25.25,0,0,0,.14-.07,3.15,3.15,0,0,1,2.24-.88,2.57,2.57,0,0,1,2.23,1.05,4.62,4.62,0,0,1,.77,2.76,4.33,4.33,0,0,1-.85,2.84,2.84,2.84,0,0,1-2.34,1.05,2.67,2.67,0,0,1-1.42-.35,3,3,0,0,1-.87-.76.09.09,0,0,0-.08-.06s-.06,0-.07.1l-.07.7a.34.34,0,0,1-.08.18.25.25,0,0,1-.17,0Zm1-2.51a1.53,1.53,0,0,0,.29.9,2,2,0,0,0,.75.66,2,2,0,0,0,1,.25,2,2,0,0,0,1.62-.76,3.54,3.54,0,0,0,.61-2.27,3.72,3.72,0,0,0-.55-2.2,1.8,1.8,0,0,0-1.58-.78,2.46,2.46,0,0,0-1.17.28,3,3,0,0,0-.93.76v3.16Z"/><path class="cls-2" d="M119.7,150.21a.31.31,0,0,1,0,.19.34.34,0,0,1-.2,0h-.73a.25.25,0,0,1-.17,0,.22.22,0,0,1,0-.15l0-10c0-.13,0-.19.16-.19h.84c.12,0,.17.06.17.18Z"/><path class="cls-2" d="M123,148.44a2.53,2.53,0,0,0,.89.92,2.36,2.36,0,0,0,1.23.33,2.51,2.51,0,0,0,2.19-1.16.14.14,0,0,1,.09-.06.12.12,0,0,1,.1,0l.59.29c.08.05.09.11,0,.2a3.49,3.49,0,0,1-1.3,1.22,3.93,3.93,0,0,1-1.81.39,3.52,3.52,0,0,1-1.83-.48,3.22,3.22,0,0,1-1.27-1.34,4.17,4.17,0,0,1-.46-2,4.4,4.4,0,0,1,.47-2.08,3.28,3.28,0,0,1,1.26-1.37,3.77,3.77,0,0,1,3.59,0,3.07,3.07,0,0,1,1.18,1.31,4.64,4.64,0,0,1,.42,2v.06a.49.49,0,0,1,0,.19.21.21,0,0,1-.17.06h-5.36c-.09,0-.13.07-.13.21A2.42,2.42,0,0,0,123,148.44Zm4-2.22c.1,0,.16,0,.19,0s0-.07,0-.16a2.45,2.45,0,0,0-.26-1.14,2,2,0,0,0-.75-.84,2.12,2.12,0,0,0-1.16-.31,2.22,2.22,0,0,0-1.24.35,2.27,2.27,0,0,0-.81.93,2.52,2.52,0,0,0-.27,1.21Z"/><path class="cls-2" d="M82.62,159.21c0-.1,0-.15.16-.15h7.54c.11,0,.16.05.16.15v.73c0,.06,0,.1,0,.11a.21.21,0,0,1-.12,0H87.47a.16.16,0,0,0-.11,0s0,0,0,.11v9c0,.13-.06.19-.17.19h-1c-.11,0-.16-.06-.16-.19v-9a.17.17,0,0,0,0-.12.16.16,0,0,0-.11,0H82.78a.21.21,0,0,1-.12,0s0-.05,0-.11v-.73Z"/><path class="cls-2" d="M91.77,167.44a2.51,2.51,0,0,0,.88.92,2.42,2.42,0,0,0,1.24.33,2.49,2.49,0,0,0,2.18-1.16s.07-.06.1-.06a.13.13,0,0,1,.1,0l.59.29c.07.05.08.11,0,.2a3.42,3.42,0,0,1-1.3,1.22,3.87,3.87,0,0,1-1.81.39,3.52,3.52,0,0,1-1.83-.48,3.35,3.35,0,0,1-1.27-1.34,4.16,4.16,0,0,1-.45-2,4.4,4.4,0,0,1,.46-2.08A3.37,3.37,0,0,1,92,162.36a3.75,3.75,0,0,1,3.58,0,3,3,0,0,1,1.18,1.31,4.64,4.64,0,0,1,.42,2v.06a.36.36,0,0,1,0,.19.19.19,0,0,1-.17.06H91.56q-.12,0-.12.21A2.42,2.42,0,0,0,91.77,167.44Zm4-2.22a.31.31,0,0,0,.2,0,.24.24,0,0,0,0-.16,2.58,2.58,0,0,0-.26-1.14,2.05,2.05,0,0,0-.76-.84,2.08,2.08,0,0,0-1.15-.31,2.26,2.26,0,0,0-1.25.35,2.42,2.42,0,0,0-.81.93,2.65,2.65,0,0,0-.27,1.21Z"/><path class="cls-2" d="M103.61,162.36a3.58,3.58,0,0,1,1.15,1.26l0,.11c0,.06,0,.09-.1.1l-.77.19h0s-.09,0-.14-.11a3.79,3.79,0,0,0-.86-.88,1.61,1.61,0,0,0-.95-.28,2.12,2.12,0,0,0-1.73.8,3.39,3.39,0,0,0-.65,2.18,3.32,3.32,0,0,0,.66,2.18,2.12,2.12,0,0,0,1.75.8,2,2,0,0,0,1.16-.32,3.12,3.12,0,0,0,.9-1s.06-.08.08-.08a.12.12,0,0,1,.1,0l.61.22c.06,0,.08.09,0,.19a3.6,3.6,0,0,1-1.19,1.32,3.12,3.12,0,0,1-1.8.51,3.43,3.43,0,0,1-1.82-.48,3.26,3.26,0,0,1-1.25-1.35,4.26,4.26,0,0,1-.45-2,4.37,4.37,0,0,1,.45-2,3.32,3.32,0,0,1,3.07-1.87A3.14,3.14,0,0,1,103.61,162.36Z"/><path class="cls-2" d="M106.39,169.26v-10q0-.18.15-.18h.83c.1,0,.15.05.15.17V163c0,.11,0,.12.13,0a7.08,7.08,0,0,1,1.36-.87,2.91,2.91,0,0,1,1.23-.25,2.28,2.28,0,0,1,1.66.57,2.11,2.11,0,0,1,.58,1.55v5.21c0,.15-.07.23-.21.23h-.79c-.12,0-.18-.06-.18-.19v-5a1.5,1.5,0,0,0-.36-1.08,1.44,1.44,0,0,0-1.1-.38,2.26,2.26,0,0,0-1.07.26,7.61,7.61,0,0,0-1.21.87v5.3c0,.14-.07.21-.22.21h-.77C106.45,169.45,106.39,169.39,106.39,169.26Z"/><path class="cls-1" d="M186.33,103.44a.38.38,0,0,1,.06-.18,4.05,4.05,0,0,1,1.65-1.14,6,6,0,0,1,2.24-.42,6.38,6.38,0,0,1,2.24.36,3.26,3.26,0,0,1,1.45,1,2.42,2.42,0,0,1,.5,1.52A2.27,2.27,0,0,1,194,106a2.41,2.41,0,0,1-1.3.9q-.18.06-.18.15s.05.09.16.12a3.4,3.4,0,0,1,1.55,1,2.38,2.38,0,0,1,.58,1.59,2.93,2.93,0,0,1-1.19,2.51,6,6,0,0,1-3.53.87,5.72,5.72,0,0,1-2.41-.51,4.23,4.23,0,0,1-1.75-1.35.35.35,0,0,1-.07-.2.31.31,0,0,1,.16-.24l1.17-.82a.45.45,0,0,1,.2-.09.14.14,0,0,1,.13.07,4.84,4.84,0,0,0,1.3,1,3.24,3.24,0,0,0,1.42.28,2.37,2.37,0,0,0,1.46-.4,1.29,1.29,0,0,0,.53-1.07,1.39,1.39,0,0,0-.59-1.17,2.56,2.56,0,0,0-1.49-.45l-1.29,0c-.17,0-.26-.06-.26-.21v-1.4c0-.11.09-.19.26-.22l1,0a2.45,2.45,0,0,0,1.45-.44,1.33,1.33,0,0,0,.56-1.08,1.1,1.1,0,0,0-.47-.9,1.88,1.88,0,0,0-1.19-.37,3,3,0,0,0-1.26.26,4.12,4.12,0,0,0-1.17.85.31.31,0,0,1-.17.11.6.6,0,0,1-.16-.11l-1.1-1A.2.2,0,0,1,186.33,103.44Z"/><path class="cls-2" d="M159.63,131.77v-10a.3.3,0,0,1,0-.16.2.2,0,0,1,.13,0h1.35a.24.24,0,0,1,.16,0,.24.24,0,0,1,.08.11l3.1,8c0,.08.06.12.1.12s.09,0,.13-.14l3.1-8a.2.2,0,0,1,.21-.18h1.42q.15,0,.15.18v10a.19.19,0,0,1-.21.21h-.92q-.21,0-.21-.18v-8c0-.05,0-.07,0-.06s0,0,0,.06l-3.08,8a.29.29,0,0,1-.27.18h-.67a.28.28,0,0,1-.28-.17l-3-7.94s0-.07,0-.07,0,0,0,.07v7.93a.2.2,0,0,1,0,.14.21.21,0,0,1-.15,0h-.76C159.69,132,159.63,131.91,159.63,131.77Z"/><path class="cls-2" d="M173.14,130a2.59,2.59,0,0,0,.89.91,2.39,2.39,0,0,0,1.23.33,2.51,2.51,0,0,0,2.19-1.16.14.14,0,0,1,.1-.06.11.11,0,0,1,.09,0l.59.29c.08.05.09.11,0,.2a3.35,3.35,0,0,1-1.3,1.22,3.93,3.93,0,0,1-1.81.39,3.52,3.52,0,0,1-1.83-.48,3.28,3.28,0,0,1-1.27-1.34,4.14,4.14,0,0,1-.46-2,4.4,4.4,0,0,1,.47-2.08,3.35,3.35,0,0,1,1.26-1.37,3.6,3.6,0,0,1,1.82-.47,3.52,3.52,0,0,1,1.77.44,3,3,0,0,1,1.18,1.31,4.64,4.64,0,0,1,.42,2v.06a.36.36,0,0,1,0,.19.21.21,0,0,1-.17.06h-5.36c-.09,0-.13.07-.13.21A2.49,2.49,0,0,0,173.14,130Zm4-2.23a.38.38,0,0,0,.19,0,.22.22,0,0,0,0-.16,2.58,2.58,0,0,0-.25-1.15,2.06,2.06,0,0,0-1.92-1.15,2.15,2.15,0,0,0-1.24.36,2.18,2.18,0,0,0-.81.92,2.52,2.52,0,0,0-.27,1.21Z"/><path class="cls-2" d="M185.25,131.78v-.6c0-.08,0-.13-.08-.13a.3.3,0,0,0-.11.07,4.38,4.38,0,0,1-.91.71,2.58,2.58,0,0,1-1.28.29,3.06,3.06,0,0,1-1.6-.42,2.89,2.89,0,0,1-1.11-1.27,5.38,5.38,0,0,1,0-4.12,3.29,3.29,0,0,1,1.16-1.4,3,3,0,0,1,1.69-.49,2.85,2.85,0,0,1,1.1.19,3.21,3.21,0,0,1,.86.55.32.32,0,0,0,.16.08s.07-.06.07-.18v-3.29q0-.18.15-.18h.85c.11,0,.16.06.16.18v10a.37.37,0,0,1,0,.18.27.27,0,0,1-.19,0h-.71C185.31,132,185.25,131.91,185.25,131.78Zm-.95-6.26a2.23,2.23,0,0,0-2.69.56,3.54,3.54,0,0,0-.65,2.26,3.25,3.25,0,0,0,.64,2.2,2.07,2.07,0,0,0,1.63.72,2,2,0,0,0,1-.25,2.06,2.06,0,0,0,.71-.66,1.35,1.35,0,0,0,.26-.78V126.2A3.55,3.55,0,0,0,184.3,125.52Z"/><path class="cls-2" d="M191.94,128.55c0,.13-.08.19-.24.19h-3.18a.26.26,0,0,1-.14,0s0-.07,0-.13V128c0-.1,0-.15.13-.15l3.33,0a.13.13,0,0,1,.14.14Z"/><path class="cls-2" d="M191.71,121.74c0-.1.06-.15.17-.15h7.53c.12,0,.17,0,.17.15v.73c0,.06,0,.1,0,.11a.23.23,0,0,1-.13,0h-2.84a.17.17,0,0,0-.12,0,.16.16,0,0,0,0,.11v9.05c0,.12-.06.18-.17.18h-1c-.11,0-.17-.06-.17-.18v-9a.19.19,0,0,0,0-.13s0,0-.11,0h-3.05a.23.23,0,0,1-.13,0s0,0,0-.11v-.73Z"/><path class="cls-2" d="M200.86,130a2.59,2.59,0,0,0,.89.91,2.41,2.41,0,0,0,1.23.33,2.5,2.5,0,0,0,2.19-1.16s.07-.06.1-.06a.14.14,0,0,1,.1,0l.58.29c.08.05.09.11,0,.2a3.35,3.35,0,0,1-1.3,1.22,3.93,3.93,0,0,1-1.81.39,3.52,3.52,0,0,1-1.83-.48,3.28,3.28,0,0,1-1.27-1.34,4.14,4.14,0,0,1-.46-2,4.4,4.4,0,0,1,.47-2.08,3.41,3.41,0,0,1,1.26-1.37,3.6,3.6,0,0,1,1.82-.47,3.52,3.52,0,0,1,1.77.44,3,3,0,0,1,1.18,1.31,4.64,4.64,0,0,1,.42,2v.06a.36.36,0,0,1,0,.19.21.21,0,0,1-.17.06h-5.36c-.08,0-.13.07-.13.21A2.49,2.49,0,0,0,200.86,130Zm4-2.23a.36.36,0,0,0,.19,0,.22.22,0,0,0,.05-.16,2.59,2.59,0,0,0-.26-1.15,2.06,2.06,0,0,0-1.91-1.15,2.16,2.16,0,0,0-1.25.36,2.25,2.25,0,0,0-.81.92,2.52,2.52,0,0,0-.27,1.21Z"/><path class="cls-2" d="M212.71,124.89a3.58,3.58,0,0,1,1.15,1.26l0,.12s0,.08-.1.09l-.77.19h0s-.1,0-.14-.11a3.79,3.79,0,0,0-.86-.88,1.63,1.63,0,0,0-.95-.28,2.1,2.1,0,0,0-1.73.8,4,4,0,0,0,0,4.36,2.14,2.14,0,0,0,1.76.8,2,2,0,0,0,1.15-.32,2.93,2.93,0,0,0,.91-1c0-.05,0-.08.08-.08a.13.13,0,0,1,.1,0l.6.22c.07,0,.09.09.06.19a3.69,3.69,0,0,1-1.19,1.32,3.16,3.16,0,0,1-1.81.51,3.48,3.48,0,0,1-1.82-.48,3.31,3.31,0,0,1-1.24-1.35,4.26,4.26,0,0,1-.45-2,4.37,4.37,0,0,1,.45-2,3.34,3.34,0,0,1,1.25-1.38,3.39,3.39,0,0,1,1.81-.49A3.2,3.2,0,0,1,212.71,124.89Z"/><path class="cls-2" d="M215.48,131.8v-10c0-.12.06-.18.16-.18h.83c.1,0,.15.06.15.17v3.73c0,.11,0,.12.12.05a7.75,7.75,0,0,1,1.36-.87,3,3,0,0,1,1.23-.25A2.26,2.26,0,0,1,221,125a2.07,2.07,0,0,1,.58,1.56v5.2c0,.15-.07.23-.21.23h-.78a.16.16,0,0,1-.18-.18v-5a1.5,1.5,0,0,0-.36-1.08,1.45,1.45,0,0,0-1.1-.38,2.26,2.26,0,0,0-1.07.26,7.34,7.34,0,0,0-1.21.88v5.29c0,.14-.08.21-.23.21h-.77A.16.16,0,0,1,215.48,131.8Z"/><path class="cls-1" d="M206.64,16.15a.48.48,0,0,1,.33.1.29.29,0,0,1,.1.23l0,.81a2,2,0,0,1-.13.4,3.49,3.49,0,0,1-.24.44A19.91,19.91,0,0,0,205,21.08a28.45,28.45,0,0,0-1.21,3.21,13.45,13.45,0,0,0-.56,2.57c0,.28-.11.42-.31.42h-2.37q-.27,0-.27-.24a.41.41,0,0,1,0-.12,26.86,26.86,0,0,1,1.4-3.84,39.32,39.32,0,0,1,2.53-4.58.46.46,0,0,0,.06-.16q0-.09-.18-.09h-5.07q-.33,0-.3-.3l.17-1.59c0-.14.14-.21.35-.21Z"/><path class="cls-2" d="M190.35,46.23a.13.13,0,0,1,0-.12v-10c0-.13.06-.2.18-.2h3.23a5,5,0,0,1,2.88.7,2.47,2.47,0,0,1,.57,3.42,3,3,0,0,1-1.39.91s-.05,0-.05,0,0,.05.05.06a2.4,2.4,0,0,1,2.09,2.48,2.34,2.34,0,0,1-1,2.08,5.43,5.43,0,0,1-3,.69h-3.34A.17.17,0,0,1,190.35,46.23Zm3.54-5.7a3.14,3.14,0,0,0,1.67-.42,1.49,1.49,0,0,0,.69-1.38,1.6,1.6,0,0,0-.67-1.39,3.25,3.25,0,0,0-1.87-.47h-1.89c-.12,0-.18.06-.18.17v3.3c0,.12,0,.19.13.19Zm-.15,4.77a3.73,3.73,0,0,0,2-.45,1.56,1.56,0,0,0,.67-1.38,1.66,1.66,0,0,0-.7-1.46,3.25,3.25,0,0,0-1.86-.48h-2.06a.28.28,0,0,0-.16,0,.2.2,0,0,0,0,.13v3.4a.3.3,0,0,0,0,.16.11.11,0,0,0,.1,0Z"/><path class="cls-2" d="M202.77,41.93a12,12,0,0,0,1.67-1.84,2.65,2.65,0,0,0,.46-1.47,1.59,1.59,0,0,0-.62-1.33,2.23,2.23,0,0,0-1.45-.49,2.71,2.71,0,0,0-1.3.34,2.82,2.82,0,0,0-1.1,1c0,.05-.07.07-.14.07l-.14,0-.61-.37a.19.19,0,0,1-.06-.3A4,4,0,0,1,201,36.2a4.29,4.29,0,0,1,1.94-.45,4,4,0,0,1,1.64.33,2.72,2.72,0,0,1,1.18,1,2.75,2.75,0,0,1,.44,1.59,3,3,0,0,1-.5,1.7,11.23,11.23,0,0,1-1.75,2L201.13,45s-.07.06-.07.1.06.07.16.07h4.91a.24.24,0,0,1,.14,0s0,.06,0,.12v.81c0,.11-.06.17-.18.17h-6.49a.26.26,0,0,1-.18-.05.25.25,0,0,1-.05-.17v-.58a.44.44,0,0,1,.07-.26,1.69,1.69,0,0,1,.31-.33Z"/><path class="cls-2" d="M208.52,46.23a.13.13,0,0,1-.05-.12v-10c0-.13.06-.2.18-.2h3.24a5,5,0,0,1,2.87.7,2.47,2.47,0,0,1,.57,3.42,3,3,0,0,1-1.39.91s-.05,0-.05,0a.06.06,0,0,0,.05.06A2.4,2.4,0,0,1,216,43.51a2.34,2.34,0,0,1-1,2.08,5.43,5.43,0,0,1-3,.69h-3.34A.17.17,0,0,1,208.52,46.23Zm3.55-5.7a3.1,3.1,0,0,0,1.66-.42,1.49,1.49,0,0,0,.69-1.38,1.6,1.6,0,0,0-.67-1.39,3.24,3.24,0,0,0-1.86-.47H210c-.13,0-.19.06-.19.17v3.3c0,.12.05.19.13.19Zm-.16,4.77a3.73,3.73,0,0,0,2.05-.45,1.54,1.54,0,0,0,.67-1.38,1.63,1.63,0,0,0-.7-1.46,3.25,3.25,0,0,0-1.86-.48H210a.25.25,0,0,0-.15,0,.16.16,0,0,0-.05.13v3.4a.3.3,0,0,0,0,.16.11.11,0,0,0,.1,0Z"/></g></g></svg>