<svg xmlns="http://www.w3.org/2000/svg" viewBox="0 0 222.55 175.45"><defs><style>.cls-1{fill:#4c85c5;}.cls-1,.cls-2,.cls-3,.cls-4,.cls-5{stroke:#fff;stroke-miterlimit:10;stroke-width:3px;}.cls-2{fill:#c92568;}.cls-3{fill:#eeb820;}.cls-17,.cls-4{fill:#757777;}.cls-5{fill:#902450;}.cls-10,.cls-14,.cls-17,.cls-6,.cls-7,.cls-8{isolation:isolate;}.cls-10,.cls-14,.cls-17,.cls-7{font-size:16px;font-family:LibreFranklin-Bold, Libre Franklin;font-weight:700;}.cls-7{fill:#4a86c6;}.cls-8{font-size:14px;fill:#959595;font-family:LibreFranklin-Regular, Libre Franklin;}.cls-9{letter-spacing:-0.03em;}.cls-10{fill:#ce2c71;}.cls-11{letter-spacing:-0.12em;}.cls-12{letter-spacing:-0.11em;}.cls-13{letter-spacing:0em;}.cls-14{fill:#f1b91f;}.cls-15{letter-spacing:-0.07em;}.cls-16{letter-spacing:0em;}.cls-18{letter-spacing:-0.12em;}</style></defs><title>chart-active-investments</title><g id="Layer_2" data-name="Layer 2"><g id="Layer_1-2" data-name="Layer 1"><path class="cls-1" d="M121.64,65.69,77.83,59.93a42.58,42.58,0,0,1,16.9-29.29Z"/><path class="cls-2" d="M121.64,65.69l-35,26.91a42.59,42.59,0,0,1-8.76-32.67Z"/><path class="cls-3" d="M121.64,65.69l-5.76,43.81A42.56,42.56,0,0,1,86.59,92.6Z"/><path class="cls-4" d="M121.64,65.69,160.1,87.44a43.6,43.6,0,0,1-44.22,22.06Z"/><path class="cls-5" d="M121.64,65.69l-26.91-35a44.2,44.2,0,0,1,62,8.14c11.14,14.52,12.42,32.73,3.41,48.66Z"/><g class="cls-6"><text class="cls-7" transform="translate(30.83 13.94)">2</text><text class="cls-8" transform="translate(0 32.94)">Bloc<tspan class="cls-9" x="29.11" y="0">k</tspan><tspan x="36.6" y="0">chain</tspan></text></g><g class="cls-6"><text class="cls-10" transform="translate(36.83 76.94)">2</text><text class="cls-8" transform="translate(12.88 95.94)">Fin<tspan class="cls-11" x="19.94" y="0">-</tspan><tspan class="cls-12" x="23.59" y="0">T</tspan><tspan class="cls-13" x="31.14" y="0">ech</tspan></text></g><g class="cls-6"><text class="cls-14" transform="translate(94.16 134.1)">2</text><text class="cls-8" transform="translate(67.64 153.1)"><tspan class="cls-15">W</tspan><tspan x="13.66" y="0">ea</tspan><tspan class="cls-16" x="29.47" y="0">r</tspan><tspan x="34.79" y="0">able</tspan></text><text class="cls-8" transform="translate(82.85 172.1)"><tspan class="cls-12">T</tspan><tspan x="7.55" y="0">ech</tspan></text></g><g class="cls-6"><text class="cls-17" transform="translate(186.64 115.63)">3</text><text class="cls-8" transform="translate(158.25 134.63)">Med<tspan class="cls-18" x="29.2" y="0">-</tspan><tspan class="cls-12" x="32.86" y="0">T</tspan><tspan x="40.4" y="0">ech</tspan></text></g><g class="cls-6"><text class="cls-10" transform="translate(199.53 29.94)">7</text><text class="cls-8" transform="translate(190.5 48.94)">B2B</text></g></g></g></svg>