<svg xmlns="http://www.w3.org/2000/svg" viewBox="0 0 225.96 185.23"><defs><style>.cls-1{fill:#c92568;}.cls-1,.cls-2,.cls-3,.cls-4,.cls-5{stroke:#fff;stroke-miterlimit:10;stroke-width:3px;}.cls-11,.cls-2{fill:#757777;}.cls-3{fill:#eeb820;}.cls-4{fill:#902450;}.cls-5{fill:#4c85c5;}.cls-11,.cls-13,.cls-6,.cls-7,.cls-8,.cls-9{isolation:isolate;}.cls-11,.cls-13,.cls-7,.cls-9{font-size:16px;font-family:LibreFranklin-Bold, Libre Franklin;font-weight:700;}.cls-7{fill:#4a86c6;}.cls-8{font-size:14px;fill:#959595;font-family:LibreFranklin-Regular, Libre Franklin;}.cls-9{fill:#ca2569;}.cls-10{letter-spacing:-0.01em;}.cls-12{letter-spacing:-0.11em;}.cls-13{fill:#f1b91f;}.cls-14{letter-spacing:-0.06em;}.cls-15{letter-spacing:-0.01em;}</style></defs><title>chart-venture-partners</title><g id="Layer_2" data-name="Layer 2"><g id="Layer_1-2" data-name="Layer 1"><path class="cls-1" d="M115,92.58,70.9,90.75a41.79,41.79,0,0,1,2-11.36Z"/><path class="cls-2" d="M115,92.58,75.9,113.07a42.3,42.3,0,0,1-5-22.32Z"/><path class="cls-3" d="M115,92.58l9.67,43.11A43.61,43.61,0,0,1,75.9,113.07Z"/><path class="cls-4" d="M115,92.58l43.12-9.67a44.18,44.18,0,0,1-33.45,52.78h0Z"/><path class="cls-5" d="M115,92.58,72.87,79.39a44.19,44.19,0,0,1,55.36-29,43.1,43.1,0,0,1,29.93,32.51Z"/><g class="cls-6"><text class="cls-7" transform="translate(121.59 13.94)">10</text><text class="cls-8" transform="translate(101.61 32.96)">Michigan</text></g><g class="cls-6"><text class="cls-9" transform="translate(27.92 58.15)">1</text><text class="cls-8" transform="translate(8.42 77.18)">Eu<tspan class="cls-10" x="16.9" y="0">r</tspan><tspan x="22.08" y="0">ope</tspan></text></g><g class="cls-6"><text class="cls-11" transform="translate(26.84 120.86)">2</text><text class="cls-8" transform="translate(0 139.88)">New <tspan class="cls-12" x="32.89" y="0">Y</tspan><tspan x="40.85" y="0">ork</tspan></text></g><g class="cls-6"><text class="cls-13" transform="translate(95.25 162.86)">5</text><text class="cls-8" transform="translate(57.66 181.88)">Silicon <tspan class="cls-14" x="46.17" y="0">V</tspan><tspan x="55.3" y="0">alley</tspan></text></g><g class="cls-6"><text class="cls-9" transform="translate(193.84 120.86)">6</text><text class="cls-8" transform="translate(172.57 139.88)">Chica<tspan class="cls-15" x="36.68" y="0">g</tspan><tspan x="45" y="0">o</tspan></text></g></g></g></svg>