<svg xmlns="http://www.w3.org/2000/svg" viewBox="0 0 223.25 181.55"><defs><style>.cls-1{fill:#414042;}.cls-2{fill:#808285;}</style></defs><title>chart-venture-partners-bw</title><g id="Layer_2" data-name="Layer 2"><g id="Layer_1-2" data-name="Layer 1"><path class="cls-1" d="M72.66,80.19l22.71,6.62L71.73,85.5a38.31,38.31,0,0,1,.93-5.31m-.88-1.56a39.35,39.35,0,0,0-1.4,8.05l35.81,2-34.41-10Z"/><path class="cls-1" d="M71.51,91l33,.73L75,106.7A38.58,38.58,0,0,1,71.51,91m-1.26-1.28a40,40,0,0,0,4.2,18.73l35.09-17.86-39.29-.87Z"/><path class="cls-1" d="M111,94l8.26,36.85a43.32,43.32,0,0,1-6.7.53,40.56,40.56,0,0,1-35-19.87L84.41,108,111,94m.87-1.87-28.08,14.7-8,4.18a41.7,41.7,0,0,0,36.76,21.62,43.89,43.89,0,0,0,8.21-.78l-8.9-39.72Z"/><polygon class="cls-1" points="111.91 92.17 83.83 106.87 111.91 92.17 111.91 92.17"/><path class="cls-1" d="M153.89,83.58a41.55,41.55,0,0,1-29.22,46.1l-3.41-15.2-5-22.46L119,91.4l34.88-7.82m1-1.51-36.16,8.11-4,.89.1.44,5.2,23.24,3.7,16.48A42.73,42.73,0,0,0,154.9,82.07Z"/><polygon class="cls-1" points="114.84 91.52 114.83 91.52 120.04 114.75 114.84 91.52"/><rect class="cls-1" x="114.79" y="91.07" height="0.45" transform="translate(-16.95 26.83) rotate(-12.42)"/><path class="cls-1" d="M112.93,48.49a41.47,41.47,0,0,1,12.38,1.9A40.5,40.5,0,0,1,152.7,78.21l-30.64,6.86-9,2L74.3,75a41.47,41.47,0,0,1,38.63-26.48m0-1.25A42.48,42.48,0,0,0,72.68,75.77L113,88.38l9.32-2.09,31.92-7.15a41.68,41.68,0,0,0-28.56-29.95,43,43,0,0,0-12.76-1.95Z"/><path class="cls-1" d="M127.22,9.58V11a.24.24,0,0,1-.07.18.32.32,0,0,1-.23.07H121c-.19,0-.29-.08-.29-.25V9.58c0-.15.08-.22.25-.22h1.57c.1,0,.16,0,.16-.11V3c0-.08,0-.13,0-.15s-.09,0-.17,0L121,3.23h-.11c-.15,0-.22-.1-.22-.3V2a.43.43,0,0,1,0-.22.59.59,0,0,1,.18-.14L123.43.34a3.13,3.13,0,0,1,.33-.14,1.36,1.36,0,0,1,.3,0h1a.21.21,0,0,1,.17.08.29.29,0,0,1,.06.19V9.21c0,.1,0,.15.13.15H127C127.13,9.36,127.22,9.43,127.22,9.58Z"/><path class="cls-1" d="M135.44.72a4.82,4.82,0,0,1,1.65,2,7.17,7.17,0,0,1,.6,3,7.12,7.12,0,0,1-.59,3,4.57,4.57,0,0,1-1.65,2,4.46,4.46,0,0,1-4.8,0,4.5,4.5,0,0,1-1.65-2,6.92,6.92,0,0,1-.59-3,7.2,7.2,0,0,1,.6-3,4.85,4.85,0,0,1,1.65-2,4.19,4.19,0,0,1,2.4-.72A4.1,4.1,0,0,1,135.44.72Zm-.9,8A6.48,6.48,0,0,0,135,5.77a6.76,6.76,0,0,0-.49-3,1.64,1.64,0,0,0-3,0,6.79,6.79,0,0,0-.5,3,6.27,6.27,0,0,0,.5,2.9,1.61,1.61,0,0,0,1.5.9A1.58,1.58,0,0,0,134.54,8.68Z"/><path class="cls-2" d="M100.87,30.11v-10a.22.22,0,0,1,0-.16.2.2,0,0,1,.13,0h1.35a.25.25,0,0,1,.16,0,.18.18,0,0,1,.07.12l3.11,8c0,.08.06.13.1.13s.09,0,.13-.15l3.1-8a.2.2,0,0,1,.21-.18h1.42q.15,0,.15.18v10a.19.19,0,0,1-.21.21h-.92q-.21,0-.21-.18v-8c0-.05,0-.07,0-.06s0,0,0,.06l-3.08,8a.29.29,0,0,1-.27.18h-.67a.27.27,0,0,1-.28-.17l-3-7.94s0-.06,0-.06,0,0,0,.06v7.93a.2.2,0,0,1,0,.14.22.22,0,0,1-.16,0h-.75A.18.18,0,0,1,100.87,30.11Z"/><path class="cls-2" d="M114.51,21.31a.28.28,0,0,1-.06.2.25.25,0,0,1-.19.06h-.82q-.21,0-.21-.24V20.16c0-.15.07-.23.2-.23h.88a.18.18,0,0,1,.14.06.2.2,0,0,1,.06.15v1.17Zm-.06,8.77a.27.27,0,0,1,0,.19.34.34,0,0,1-.2.05h-.71c-.09,0-.14,0-.17,0a.21.21,0,0,1,0-.15v-7c0-.13,0-.2.16-.2h.86q.15,0,.15.18v7Z"/><path class="cls-2" d="M121.45,23.24a3.41,3.41,0,0,1,1.15,1.26l0,.11c0,.06,0,.09-.1.1l-.77.18h0s-.09,0-.14-.11a4,4,0,0,0-.86-.88,1.63,1.63,0,0,0-1-.28,2.1,2.1,0,0,0-1.73.8,3.41,3.41,0,0,0-.65,2.18A3.4,3.4,0,0,0,118,28.8a2.16,2.16,0,0,0,1.76.79,2,2,0,0,0,1.15-.32,2.84,2.84,0,0,0,.91-1c0-.05,0-.07.08-.08a.2.2,0,0,1,.1,0l.6.23q.1,0,.06.18A3.69,3.69,0,0,1,121.51,30a3.16,3.16,0,0,1-1.81.51,3.48,3.48,0,0,1-1.82-.48,3.31,3.31,0,0,1-1.24-1.35,4.26,4.26,0,0,1-.45-2,4.43,4.43,0,0,1,.45-2,3.41,3.41,0,0,1,1.25-1.38,3.48,3.48,0,0,1,1.81-.49A3.12,3.12,0,0,1,121.45,23.24Z"/><path class="cls-2" d="M124.23,30.14v-10q0-.18.15-.18h.83c.1,0,.15.06.15.17v3.74c0,.1,0,.11.12,0a7.75,7.75,0,0,1,1.36-.87,2.94,2.94,0,0,1,1.23-.25,2.28,2.28,0,0,1,1.66.57,2.09,2.09,0,0,1,.58,1.56V30.1c0,.15-.07.22-.21.22h-.78a.16.16,0,0,1-.18-.18v-5a1.52,1.52,0,0,0-.36-1.08,1.45,1.45,0,0,0-1.1-.38,2.26,2.26,0,0,0-1.07.26,8,8,0,0,0-1.21.88v5.29c0,.14-.08.21-.23.21h-.77C124.29,30.32,124.23,30.26,124.23,30.14Z"/><path class="cls-2" d="M133.62,21.31a.28.28,0,0,1-.06.2.24.24,0,0,1-.19.06h-.82q-.21,0-.21-.24V20.16c0-.15.07-.23.2-.23h.88a.17.17,0,0,1,.14.06.2.2,0,0,1,.06.15Zm-.06,8.77a.27.27,0,0,1-.05.19.34.34,0,0,1-.2.05h-.71c-.09,0-.14,0-.17,0a.21.21,0,0,1,0-.15v-7c0-.13.05-.2.16-.2h.86q.15,0,.15.18Z"/><path class="cls-2" d="M142.7,23v.49a.28.28,0,0,1-.06.2.25.25,0,0,1-.21,0,1.62,1.62,0,0,0-.73.13c-.23.09-.32.2-.28.32a1.73,1.73,0,0,0,.08.21,1.23,1.23,0,0,1,.11.34,1.75,1.75,0,0,1,0,.4,2,2,0,0,1-.77,1.62,3.52,3.52,0,0,1-2.26.63,4.36,4.36,0,0,0-1.43.17c-.29.11-.44.26-.44.44s.1.24.3.31a3.93,3.93,0,0,0,1,.15l1.8.1a2.94,2.94,0,0,1,1.8.57,1.71,1.71,0,0,1,.58,1.37,1.89,1.89,0,0,1-.93,1.67,4.88,4.88,0,0,1-2.65.6,5.77,5.77,0,0,1-2.71-.51A1.6,1.6,0,0,1,135,30.8q0-.94,1.32-1.59c.1,0,.1-.1,0-.15a.9.9,0,0,1-.65-.82.82.82,0,0,1,.29-.59,2.19,2.19,0,0,1,.82-.47.07.07,0,0,0,.07-.07.11.11,0,0,0-.07-.09,2.37,2.37,0,0,1-.91-.78,2,2,0,0,1-.3-1.1,2,2,0,0,1,.83-1.72,3.79,3.79,0,0,1,2.34-.63,3.25,3.25,0,0,1,2.1.63.25.25,0,0,0,.14.07.25.25,0,0,0,.15-.07,2.85,2.85,0,0,1,.62-.46,1.57,1.57,0,0,1,.7-.19C142.62,22.77,142.7,22.85,142.7,23Zm-5.31,6.41a1.14,1.14,0,0,0-.58.15,1.58,1.58,0,0,0-.55.45,1.11,1.11,0,0,0-.22.65,1.13,1.13,0,0,0,.69,1,4.62,4.62,0,0,0,2,.35c1.57,0,2.36-.47,2.36-1.4a1,1,0,0,0-.33-.77,1.79,1.79,0,0,0-1.07-.32Zm2.67-3.15a1.35,1.35,0,0,0,.49-1.13,1.49,1.49,0,0,0-.49-1.18,2.17,2.17,0,0,0-1.44-.42,2.2,2.2,0,0,0-1.45.43,1.43,1.43,0,0,0-.51,1.17,1.33,1.33,0,0,0,.51,1.12,2.28,2.28,0,0,0,1.45.4A2.25,2.25,0,0,0,140.06,26.26Z"/><path class="cls-2" d="M146,30.46a2.5,2.5,0,0,1-1.72-.55,1.89,1.89,0,0,1-.62-1.48,2,2,0,0,1,1-1.76,5.41,5.41,0,0,1,2.73-.76l1.1-.08c.15,0,.23-.09.23-.21v-.38a1.56,1.56,0,0,0-.47-1.2,1.77,1.77,0,0,0-1.26-.44,2.37,2.37,0,0,0-2,1.12.24.24,0,0,1-.08.09s-.07,0-.12,0l-.75-.26a.1.1,0,0,1-.07-.1.31.31,0,0,1,0-.12,2.92,2.92,0,0,1,1.2-1.16,3.93,3.93,0,0,1,1.84-.41,3.08,3.08,0,0,1,2.1.64,2.23,2.23,0,0,1,.73,1.76v4.95a.3.3,0,0,1,0,.17.22.22,0,0,1-.16,0h-.7c-.11,0-.17-.07-.19-.22l0-.65c0-.06,0-.1-.07-.1a.24.24,0,0,0-.13.07A3.46,3.46,0,0,1,146,30.46Zm2.46-3.92-.91.08a4.58,4.58,0,0,0-2,.51,1.28,1.28,0,0,0-.71,1.16,1.17,1.17,0,0,0,.42.95,1.74,1.74,0,0,0,1.15.35,2.54,2.54,0,0,0,.85-.15A2.34,2.34,0,0,0,148,29a2.09,2.09,0,0,0,.5-.54,1,1,0,0,0,.17-.55V26.76A.19.19,0,0,0,148.44,26.54Z"/><path class="cls-2" d="M151.83,30.14V23.08c0-.12,0-.18.16-.18h.84a.13.13,0,0,1,.15.15v.81c0,.11,0,.12.13.05a7.83,7.83,0,0,1,1.33-.89,3,3,0,0,1,1.24-.26,2.31,2.31,0,0,1,1.66.57,2,2,0,0,1,.6,1.54v5.22c0,.15-.07.23-.21.23h-.79a.16.16,0,0,1-.18-.18v-5a1.5,1.5,0,0,0-.36-1.08,1.44,1.44,0,0,0-1.1-.38,2.33,2.33,0,0,0-1.08.26,6.59,6.59,0,0,0-1.21.88v5.29a.18.18,0,0,1-.21.21H152C151.9,30.32,151.83,30.26,151.83,30.14Z"/><path class="cls-1" d="M33.2,53.8v1.46a.25.25,0,0,1-.08.18.29.29,0,0,1-.22.07H27c-.19,0-.28-.08-.28-.25V53.8c0-.15.08-.22.25-.22H28.5c.11,0,.17,0,.17-.11v-6.3a.22.22,0,0,0-.05-.16.21.21,0,0,0-.16,0L27,47.44l-.1,0c-.15,0-.23-.1-.23-.3v-1a.4.4,0,0,1,0-.22.47.47,0,0,1,.18-.14l2.5-1.25a1.89,1.89,0,0,1,.34-.14.88.88,0,0,1,.29,0h1a.19.19,0,0,1,.16.08.29.29,0,0,1,.06.19v8.78a.12.12,0,0,0,.14.14h1.5C33.11,53.58,33.2,53.65,33.2,53.8Z"/><path class="cls-2" d="M7.81,64.19s.06,0,.13,0h6.28c.1,0,.14,0,.14.15V65c0,.11-.06.16-.18.16H9.29a.21.21,0,0,0-.14,0,.2.2,0,0,0,0,.13v3.28c0,.1.05.15.16.15h3.62c.11,0,.16,0,.16.15v.75c0,.08-.05.12-.16.12H9.27a.14.14,0,0,0-.16.16v3.4a.11.11,0,0,0,.14.14h5.14a.17.17,0,0,1,.12,0s0,0,0,.11v.74a.13.13,0,0,1-.15.15H8a.15.15,0,0,1-.19-.19v-10A.21.21,0,0,1,7.81,64.19Z"/><path class="cls-2" d="M19.93,73.44a5.14,5.14,0,0,0,1.12-.9V67.31c0-.13.08-.19.23-.19h.77c.13,0,.2.06.2.19l0,7c0,.13,0,.19-.15.19h-.82c-.1,0-.15-.05-.15-.16v-.82c0-.11,0-.13-.13,0a6,6,0,0,1-1.34.91,3,3,0,0,1-1.21.26,2.3,2.3,0,0,1-1.61-.59,2.06,2.06,0,0,1-.63-1.55V67.33a.19.19,0,0,1,.21-.21h.79c.12,0,.18.06.18.19v4.92a1.59,1.59,0,0,0,.38,1.11,1.36,1.36,0,0,0,1.06.41A2.27,2.27,0,0,0,19.93,73.44Z"/><path class="cls-2" d="M24.39,74.35v-7q0-.18.15-.18h.81a.14.14,0,0,1,.16.15v.91c0,.06,0,.09,0,.1s.06,0,.1-.06A2.93,2.93,0,0,1,27.83,67c.33,0,.49.06.49.18V68c0,.09,0,.13-.13.11a3.62,3.62,0,0,0-.63,0,2,2,0,0,0-.88.24,2.43,2.43,0,0,0-.8.61,1.2,1.2,0,0,0-.32.77v4.64a.19.19,0,0,1-.21.21h-.77A.17.17,0,0,1,24.39,74.35Z"/><path class="cls-2" d="M30.82,74.19a3.18,3.18,0,0,1-1.24-1.35,4.21,4.21,0,0,1-.45-2,4.39,4.39,0,0,1,.46-2,3.37,3.37,0,0,1,1.26-1.38,3.7,3.7,0,0,1,3.68,0,3.34,3.34,0,0,1,1.25,1.38,4.49,4.49,0,0,1,.44,2,4.25,4.25,0,0,1-.45,2,3.33,3.33,0,0,1-1.25,1.35,3.45,3.45,0,0,1-1.84.5A3.49,3.49,0,0,1,30.82,74.19ZM34.41,73a3.5,3.5,0,0,0,.6-2.17,3.44,3.44,0,0,0-.62-2.18,2,2,0,0,0-1.7-.81,2.06,2.06,0,0,0-1.72.81A4.07,4.07,0,0,0,31,73a2.09,2.09,0,0,0,1.73.79A2,2,0,0,0,34.41,73Z"/><path class="cls-2" d="M39.12,67.33v.58c0,.09,0,.13.07.13A.2.2,0,0,0,39.3,68a6.83,6.83,0,0,1,.52-.48,2.71,2.71,0,0,1,.65-.35,2.9,2.9,0,0,1,1-.16,3,3,0,0,1,1.57.42,2.83,2.83,0,0,1,1.09,1.26,4.7,4.7,0,0,1,.4,2.06,5.08,5.08,0,0,1-.4,2.12A3,3,0,0,1,43,74.21a3,3,0,0,1-1.69.47,3,3,0,0,1-2-.7c-.06-.07-.11-.1-.15-.1s-.07.06-.07.18v2.61q0,.18-.15.18h-.87q-.15,0-.15-.18V67.34a.29.29,0,0,1,0-.17.3.3,0,0,1,.18,0h.74A.18.18,0,0,1,39.12,67.33ZM40,73.59a2.13,2.13,0,0,0,1,.23,2,2,0,0,0,1.69-.8,3.55,3.55,0,0,0,.64-2.29,3.24,3.24,0,0,0-.63-2.18,2.05,2.05,0,0,0-1.62-.72,2,2,0,0,0-1,.25,2,2,0,0,0-.71.62,1.33,1.33,0,0,0-.26.74V72.9A3.39,3.39,0,0,0,40,73.59Z"/><path class="cls-2" d="M47.42,72.54a2.59,2.59,0,0,0,.89.91,2.42,2.42,0,0,0,1.24.33,2.49,2.49,0,0,0,2.18-1.16s.07-.06.1-.06a.13.13,0,0,1,.1,0l.58.29c.08,0,.09.11,0,.2a3.35,3.35,0,0,1-1.3,1.22,3.93,3.93,0,0,1-1.81.39,3.52,3.52,0,0,1-1.83-.48,3.28,3.28,0,0,1-1.27-1.34,4.16,4.16,0,0,1-.45-2,4.4,4.4,0,0,1,.46-2.08,3.31,3.31,0,0,1,1.27-1.37,3.75,3.75,0,0,1,3.58,0,3,3,0,0,1,1.18,1.31,4.64,4.64,0,0,1,.42,2v.06a.36.36,0,0,1,0,.19.19.19,0,0,1-.17.06H47.22q-.12,0-.12.21A2.58,2.58,0,0,0,47.42,72.54Zm4-2.23c.1,0,.17,0,.19,0s0-.07,0-.16A2.58,2.58,0,0,0,51.36,69a2.05,2.05,0,0,0-.76-.84,2.11,2.11,0,0,0-1.15-.31,2.23,2.23,0,0,0-1.25.35,2.42,2.42,0,0,0-.81.93,2.5,2.5,0,0,0-.27,1.21Z"/><path class="cls-1" d="M29.09,113.4c.66-.57,1.15-1,1.47-1.36a3.44,3.44,0,0,0,.67-.9,1.78,1.78,0,0,0,.19-.83,1.33,1.33,0,0,0-.47-1.07,1.77,1.77,0,0,0-1.19-.4,2,2,0,0,0-1.17.37,3.77,3.77,0,0,0-1,1.21.2.2,0,0,1-.2.12.42.42,0,0,1-.21-.06l-1.33-.69a.31.31,0,0,1-.18-.27.43.43,0,0,1,.07-.23,4.68,4.68,0,0,1,4.19-2.35,5.27,5.27,0,0,1,2.12.4,3.26,3.26,0,0,1,1.43,1.17,3.17,3.17,0,0,1,.51,1.8,3,3,0,0,1-.49,1.68,7.47,7.47,0,0,1-1.67,1.71L29,115.88c-.06,0-.09.07-.09.1s.06.08.18.08h4.66c.19,0,.29.08.29.24V118q0,.27-.3.27H26a.44.44,0,0,1-.27-.07.34.34,0,0,1-.07-.25v-1.15a.53.53,0,0,1,.12-.3,4.74,4.74,0,0,1,.57-.53Z"/><path class="cls-2" d="M7.73,126.85a.21.21,0,0,1,.12,0,.21.21,0,0,1,0,.13v10c0,.12-.06.17-.18.17H7a.42.42,0,0,1-.17,0,.24.24,0,0,1-.12-.09l-5.41-7.85c0-.07-.07-.1-.1-.09a.1.1,0,0,0-.05.1v7.77c0,.12-.06.18-.2.18H.18a.16.16,0,0,1-.18-.18v-10a.26.26,0,0,1,0-.15s.07,0,.15,0H1a.42.42,0,0,1,.17,0,.57.57,0,0,1,.12.11l5.25,7.69c.05.06.09.09.13.09s.08-.05.08-.13V127c0-.11.06-.16.17-.16h.83Z"/><path class="cls-2" d="M11.43,135.24a2.51,2.51,0,0,0,.89.91,2.28,2.28,0,0,0,1.23.34,2.48,2.48,0,0,0,2.18-1.17l.1-.06a.2.2,0,0,1,.1,0l.59.3c.07,0,.08.11,0,.19A3.47,3.47,0,0,1,15.24,137a3.86,3.86,0,0,1-1.8.38,3.61,3.61,0,0,1-1.83-.47,3.28,3.28,0,0,1-1.27-1.34,4.06,4.06,0,0,1-.46-2,4.46,4.46,0,0,1,.47-2.08,3.25,3.25,0,0,1,1.26-1.36,3.47,3.47,0,0,1,1.81-.48,3.38,3.38,0,0,1,1.77.45,3,3,0,0,1,1.19,1.31,4.58,4.58,0,0,1,.42,2v.05a.41.41,0,0,1,0,.19.21.21,0,0,1-.17.06H11.23c-.09,0-.13.07-.13.21A2.46,2.46,0,0,0,11.43,135.24Zm4-2.23a.4.4,0,0,0,.2,0s0-.08,0-.16a2.45,2.45,0,0,0-.26-1.14,2,2,0,0,0-.75-.84,2.29,2.29,0,0,0-2.4,0,2.31,2.31,0,0,0-.81.92,2.56,2.56,0,0,0-.27,1.22h4.25Z"/><path class="cls-2" d="M28.07,129.89a.12.12,0,0,1,0,.13l-2.14,7a.25.25,0,0,1-.27.18H25a.26.26,0,0,1-.29-.18L23,131.83c0-.09-.06-.13-.09-.13s-.05,0-.07.13l-1.59,5.23a.24.24,0,0,1-.26.18h-.72a.26.26,0,0,1-.29-.18l-2.2-7s0,0,0-.07.05-.14.16-.14h.83A.26.26,0,0,1,19,130l1.66,5.44c0,.1.06.14.1.14s.06-.05.11-.15L22.55,130a.2.2,0,0,1,.2-.14h.66a.21.21,0,0,1,.21.16l1.72,5.44c0,.1.06.14.1.14s.07-.05.09-.15L27.14,130a.26.26,0,0,1,.24-.16h.56A.14.14,0,0,1,28.07,129.89Z"/><path class="cls-2" d="M40.4,126.91s0,.08,0,.14L37,132.62a.67.67,0,0,0-.07.18,2.11,2.11,0,0,0,0,.29V137a.24.24,0,0,1-.06.18.31.31,0,0,1-.21.05h-.84c-.15,0-.22-.07-.22-.21v-3.89a.84.84,0,0,0,0-.19,1,1,0,0,0-.09-.19l-3.38-5.68a.51.51,0,0,1,0-.11c0-.08.07-.11.2-.11h1a.34.34,0,0,1,.17,0,.81.81,0,0,1,.12.13l2.61,4.48c0,.12.1.17.15.17s.09,0,.15-.14L39.1,127a.52.52,0,0,1,.11-.13.44.44,0,0,1,.19,0h.87A.12.12,0,0,1,40.4,126.91Z"/><path class="cls-2" d="M41.83,136.9a3.2,3.2,0,0,1-1.25-1.35,4.24,4.24,0,0,1-.44-2,4.37,4.37,0,0,1,.45-2,3.51,3.51,0,0,1,1.26-1.38,3.46,3.46,0,0,1,1.85-.5,3.42,3.42,0,0,1,1.83.5,3.28,3.28,0,0,1,1.25,1.38,4.7,4.7,0,0,1,0,4,3.38,3.38,0,0,1-1.26,1.36,3.45,3.45,0,0,1-1.84.49A3.52,3.52,0,0,1,41.83,136.9Zm3.58-1.19a3.53,3.53,0,0,0,.61-2.18,3.48,3.48,0,0,0-.62-2.17,2.22,2.22,0,0,0-3.43,0,4.05,4.05,0,0,0,0,4.34,2.1,2.1,0,0,0,1.74.8A2,2,0,0,0,45.41,135.71Z"/><path class="cls-2" d="M49,137.06V130q0-.18.15-.18h.81a.14.14,0,0,1,.16.16v.9c0,.06,0,.09.05.1s.06,0,.1,0a3,3,0,0,1,2.17-1.25c.33,0,.49.06.49.18v.84c0,.1,0,.13-.13.12a3.48,3.48,0,0,0-.63,0,2,2,0,0,0-.88.24,2.57,2.57,0,0,0-.8.62,1.2,1.2,0,0,0-.32.77V137a.19.19,0,0,1-.21.21h-.77C49,137.24,49,137.18,49,137.06Z"/><path class="cls-2" d="M60.76,137.12q0,.12-.15.12h-1a.33.33,0,0,1-.15,0,.61.61,0,0,1-.11-.14l-2.11-3.62s0-.07-.07-.08a.14.14,0,0,0-.1,0l-1.48,1.5a.36.36,0,0,0-.1.28V137c0,.1,0,.16-.06.19s-.1.05-.19.05h-.72c-.08,0-.14,0-.16,0a.21.21,0,0,1-.05-.15v-10c0-.13.06-.19.16-.19h.85c.11,0,.17.06.17.18v6.49c0,.1,0,.14,0,.14s.06,0,.1-.08l3.46-3.6a.43.43,0,0,1,.29-.17h.86c.11,0,.16,0,.16.1a.39.39,0,0,1-.09.17l-2.22,2.25a.36.36,0,0,0,0,.13.21.21,0,0,0,0,.11L60.73,137A.13.13,0,0,1,60.76,137.12Z"/><path class="cls-1" d="M101.92,149.09a.47.47,0,0,1,.3.06s0,.13,0,.28l-.07,1.49a.29.29,0,0,1-.09.21.35.35,0,0,1-.24.06H97.13c-.17,0-.26.07-.27.22l-.18,1.91v0a.16.16,0,0,0,.07.15.18.18,0,0,0,.16,0q.72-.25,1.14-.36a4.28,4.28,0,0,1,1-.1,4.92,4.92,0,0,1,2,.4,3.22,3.22,0,0,1,1.42,1.21,3.44,3.44,0,0,1,.53,1.93,3.55,3.55,0,0,1-.57,2,3.62,3.62,0,0,1-1.59,1.31,5.83,5.83,0,0,1-2.37.45,6.8,6.8,0,0,1-2.6-.49,4.28,4.28,0,0,1-1.8-1.31.45.45,0,0,1-.12-.27.27.27,0,0,1,.15-.24l1.23-.87a.27.27,0,0,1,.17-.06.26.26,0,0,1,.22.12,5.59,5.59,0,0,0,1.15,1,2.49,2.49,0,0,0,1.31.31,2.42,2.42,0,0,0,1.65-.52,1.7,1.7,0,0,0,.59-1.34,1.59,1.59,0,0,0-.55-1.27,2.14,2.14,0,0,0-1.48-.48,2.86,2.86,0,0,0-.89.14,11.18,11.18,0,0,0-1,.44.45.45,0,0,1-.19.06.47.47,0,0,1-.2-.07l-1.36-.75a.29.29,0,0,1-.17-.26,1.27,1.27,0,0,1,0-.22l.42-4.8a.38.38,0,0,1,.12-.29.81.81,0,0,1,.42-.07Z"/><path class="cls-2" d="M60.54,169.74a2.63,2.63,0,0,0-1.65.46,1.54,1.54,0,0,0-.6,1.29c0,.72.5,1.26,1.49,1.59l2,.67a3.89,3.89,0,0,1,1.79,1.09,2.76,2.76,0,0,1-.44,3.77,4.31,4.31,0,0,1-2.72.77,5.18,5.18,0,0,1-2.22-.44,3.78,3.78,0,0,1-1.54-1.31.42.42,0,0,1-.06-.14.26.26,0,0,1,.14-.19l.5-.35a.41.41,0,0,1,.2-.09.18.18,0,0,1,.15.09A4.19,4.19,0,0,0,58.8,178a3.37,3.37,0,0,0,1.59.32,3.33,3.33,0,0,0,1.82-.42,1.42,1.42,0,0,0,.65-1.3,1.32,1.32,0,0,0-.34-.93,3.08,3.08,0,0,0-1.24-.72l-2.13-.73a3.33,3.33,0,0,1-1.63-1.09,2.55,2.55,0,0,1-.52-1.56,2.64,2.64,0,0,1,.44-1.53,2.91,2.91,0,0,1,1.24-1,4.54,4.54,0,0,1,1.86-.36,4.43,4.43,0,0,1,1.85.37,3.94,3.94,0,0,1,1.42,1,.19.19,0,0,1,.07.14.13.13,0,0,1-.07.12l-.64.51a.12.12,0,0,1-.08,0s-.09,0-.17-.13A3,3,0,0,0,60.54,169.74Z"/><path class="cls-2" d="M67.23,170.23a.34.34,0,0,1,0,.2.28.28,0,0,1-.2.06h-.81q-.21,0-.21-.24v-1.17c0-.15.06-.23.19-.23H67a.2.2,0,0,1,.15.06.25.25,0,0,1,0,.15Zm0,8.77c0,.1,0,.16-.06.19a.27.27,0,0,1-.2.05h-.71a.25.25,0,0,1-.17,0,.21.21,0,0,1,0-.15v-7c0-.13.06-.2.17-.2H67c.1,0,.16.06.16.19Z"/><path class="cls-2" d="M70.54,179c0,.1,0,.16-.06.19a.27.27,0,0,1-.2.05h-.72c-.09,0-.14,0-.17,0a.21.21,0,0,1,0-.15v-10c0-.13.06-.19.17-.19h.84c.11,0,.17.06.17.18Z"/><path class="cls-2" d="M73.92,170.23a.34.34,0,0,1,0,.2.27.27,0,0,1-.2.06h-.81q-.21,0-.21-.24v-1.17c0-.15.07-.23.2-.23h.88a.2.2,0,0,1,.14.06.2.2,0,0,1,.06.15v1.17Zm0,8.77c0,.1,0,.16-.06.19a.26.26,0,0,1-.19.05H72.9c-.08,0-.14,0-.16,0a.21.21,0,0,1,0-.15v-7c0-.13.06-.2.17-.2h.85c.11,0,.16.06.16.19Z"/><path class="cls-2" d="M80.86,172.16A3.6,3.6,0,0,1,82,173.42l0,.11c0,.06,0,.09-.1.1l-.77.18,0,0s-.09,0-.14-.12a3.8,3.8,0,0,0-.86-.88,1.68,1.68,0,0,0-.94-.28,2.11,2.11,0,0,0-1.74.81,3.37,3.37,0,0,0-.64,2.18,3.32,3.32,0,0,0,.65,2.18,2.15,2.15,0,0,0,1.75.8,2.12,2.12,0,0,0,1.16-.32,3.06,3.06,0,0,0,.9-1,.16.16,0,0,1,.09-.08.19.19,0,0,1,.09,0l.61.22c.06,0,.08.09,0,.18a3.71,3.71,0,0,1-1.19,1.33,3.12,3.12,0,0,1-1.8.51,3.38,3.38,0,0,1-1.82-.49,3.33,3.33,0,0,1-1.25-1.35,4.25,4.25,0,0,1-.45-2,4.37,4.37,0,0,1,.45-2,3.25,3.25,0,0,1,1.26-1.38,3.37,3.37,0,0,1,1.81-.49A3,3,0,0,1,80.86,172.16Z"/><path class="cls-2" d="M84.88,178.9a3.26,3.26,0,0,1-1.25-1.35,4.37,4.37,0,0,1-.44-2,4.25,4.25,0,0,1,.46-2,3.37,3.37,0,0,1,1.26-1.38,3.64,3.64,0,0,1,3.68,0,3.26,3.26,0,0,1,1.24,1.38,4.33,4.33,0,0,1,.45,2,4.18,4.18,0,0,1-.45,2,3.38,3.38,0,0,1-1.26,1.36,3.42,3.42,0,0,1-1.84.49A3.54,3.54,0,0,1,84.88,178.9Zm3.58-1.19a4.15,4.15,0,0,0,0-4.35,2,2,0,0,0-1.7-.81,2.08,2.08,0,0,0-1.73.81,4.05,4.05,0,0,0,0,4.34,2.1,2.1,0,0,0,1.74.8A2,2,0,0,0,88.46,177.71Z"/><path class="cls-2" d="M92,179.06V172c0-.12,0-.18.16-.18H93c.1,0,.15.05.15.16v.81c0,.1,0,.11.12,0a8.1,8.1,0,0,1,1.34-.88,2.79,2.79,0,0,1,1.24-.27,2.31,2.31,0,0,1,1.66.57,2,2,0,0,1,.6,1.54V179a.2.2,0,0,1-.22.22h-.78a.16.16,0,0,1-.18-.18v-5a1.52,1.52,0,0,0-.36-1.08,1.45,1.45,0,0,0-1.1-.37,2.32,2.32,0,0,0-1.08.25,7.11,7.11,0,0,0-1.21.88V179a.22.22,0,0,1,0,.16.25.25,0,0,1-.16.05h-.77C92.08,179.24,92,179.18,92,179.06Z"/><path class="cls-2" d="M111.37,168.92a.15.15,0,0,1,0,.13l-3.54,10a.29.29,0,0,1-.11.16.3.3,0,0,1-.2.05h-1c-.18,0-.3-.06-.33-.19l-3.48-10a.17.17,0,0,1,0-.07c0-.1.06-.14.17-.14h1a.24.24,0,0,1,.24.16l2.91,8.49c0,.08.06.12.1.12s.08,0,.11-.14l3-8.48a.2.2,0,0,1,.21-.15h.82A.14.14,0,0,1,111.37,168.92Z"/><path class="cls-2" d="M114.15,179.38a2.5,2.5,0,0,1-1.72-.55,1.89,1.89,0,0,1-.62-1.48,2,2,0,0,1,.94-1.76,5.55,5.55,0,0,1,2.74-.76l1.09-.08q.24,0,.24-.21v-.38a1.6,1.6,0,0,0-.47-1.2,1.78,1.78,0,0,0-1.27-.44,2.37,2.37,0,0,0-2,1.12.19.19,0,0,1-.09.09.11.11,0,0,1-.11,0l-.76-.26a.1.1,0,0,1-.07-.09.36.36,0,0,1,0-.13,3,3,0,0,1,1.19-1.16,4,4,0,0,1,1.84-.41,3.05,3.05,0,0,1,2.1.64,2.19,2.19,0,0,1,.73,1.76V179c0,.09,0,.14,0,.17a.21.21,0,0,1-.15,0h-.7c-.11,0-.18-.07-.2-.22l0-.65c0-.06,0-.09-.08-.09a.19.19,0,0,0-.12.06A3.46,3.46,0,0,1,114.15,179.38Zm2.46-3.92-.91.09a4.47,4.47,0,0,0-2,.5,1.3,1.3,0,0,0-.71,1.16,1.17,1.17,0,0,0,.43.95,1.73,1.73,0,0,0,1.14.36,2.57,2.57,0,0,0,.86-.16,2.45,2.45,0,0,0,.74-.42,2.28,2.28,0,0,0,.5-.54,1.1,1.1,0,0,0,.17-.55v-1.16C116.82,175.54,116.75,175.46,116.61,175.46Z"/><path class="cls-2" d="M121.19,179c0,.1,0,.16-.06.19a.26.26,0,0,1-.19.05h-.73c-.09,0-.14,0-.17,0a.21.21,0,0,1,0-.15v-10c0-.13.06-.19.17-.19H121c.11,0,.17.06.17.18v10Z"/><path class="cls-2" d="M124.53,179a.27.27,0,0,1,0,.19.28.28,0,0,1-.2.05h-.73a.25.25,0,0,1-.17,0,.27.27,0,0,1,0-.15l0-10c0-.13,0-.19.17-.19h.84c.11,0,.16.06.16.18v10Z"/><path class="cls-2" d="M127.8,177.24a2.51,2.51,0,0,0,.89.91,2.33,2.33,0,0,0,1.23.34,2.5,2.5,0,0,0,2.19-1.17l.1-.06a.16.16,0,0,1,.09,0l.59.3c.08,0,.09.11,0,.19a3.45,3.45,0,0,1-1.3,1.23,3.93,3.93,0,0,1-1.81.38,3.61,3.61,0,0,1-1.83-.47,3.35,3.35,0,0,1-1.27-1.34,4.18,4.18,0,0,1-.46-2,4.46,4.46,0,0,1,.47-2.08,3.34,3.34,0,0,1,1.27-1.36,3.68,3.68,0,0,1,3.58,0,3,3,0,0,1,1.18,1.31,4.58,4.58,0,0,1,.42,2v.05a.32.32,0,0,1,0,.19.19.19,0,0,1-.17.06H127.6c-.08,0-.13.07-.13.21A2.46,2.46,0,0,0,127.8,177.24Zm4-2.23a.36.36,0,0,0,.19,0s0-.08,0-.16a2.57,2.57,0,0,0-.25-1.14,2.09,2.09,0,0,0-1.92-1.16,2.15,2.15,0,0,0-1.24.36,2.31,2.31,0,0,0-.81.92,2.56,2.56,0,0,0-.27,1.22h4.26Z"/><path class="cls-2" d="M134.56,181.52c-.12,0-.19-.07-.19-.15v-.55a.16.16,0,0,1,.08-.14,1,1,0,0,1,.32,0h.88a.91.91,0,0,0,.61-.24,1.68,1.68,0,0,0,.44-.61,1.71,1.71,0,0,0,.17-.7.83.83,0,0,0-.06-.34l-2.68-6.69a.19.19,0,0,1,0-.08.15.15,0,0,1,.17-.16h.87a.24.24,0,0,1,.22.16l2.09,5.43c0,.08.06.13.11.13s.1-.06.14-.17l2.06-5.39a.22.22,0,0,1,.19-.16h.66a.16.16,0,0,1,.13.07.12.12,0,0,1,0,.13l-3.08,7.88a2.51,2.51,0,0,1-.94,1.3,2.78,2.78,0,0,1-1.52.35A4.83,4.83,0,0,1,134.56,181.52Z"/><path class="cls-1" d="M199.34,107.27a3.93,3.93,0,0,1,1.23.78,2.62,2.62,0,0,1,.65.94.41.41,0,0,1,0,.12.22.22,0,0,1-.14.21l-1.64.53h-.07q-.13,0-.21-.18a2.8,2.8,0,0,0-.66-.67,1.35,1.35,0,0,0-.84-.23,2,2,0,0,0-1.71.8,3.36,3.36,0,0,0-.6,2.08,1.07,1.07,0,0,0,0,.29s.05.07.11.07l.19-.06a11.64,11.64,0,0,1,1.15-.42,4.15,4.15,0,0,1,1.12-.13,4.65,4.65,0,0,1,2,.42,3.16,3.16,0,0,1,1.35,1.17,3.1,3.1,0,0,1,.48,1.71,3.26,3.26,0,0,1-.57,1.88,3.94,3.94,0,0,1-1.57,1.3,5.14,5.14,0,0,1-2.21.46,4.5,4.5,0,0,1-2.49-.67,4.26,4.26,0,0,1-1.63-1.89,6.85,6.85,0,0,1-.57-2.9,7.53,7.53,0,0,1,.61-3.17,4.6,4.6,0,0,1,1.71-2.06,4.71,4.71,0,0,1,2.58-.71A4.37,4.37,0,0,1,199.34,107.27Zm-2.91,6a2.89,2.89,0,0,0-.84.36.43.43,0,0,0-.17.19,1.17,1.17,0,0,0,0,.32,2.86,2.86,0,0,0,.53,1.75,1.74,1.74,0,0,0,1.46.73,1.76,1.76,0,0,0,1.3-.53,1.73,1.73,0,0,0,.53-1.3,1.56,1.56,0,0,0-.51-1.21,1.84,1.84,0,0,0-1.29-.46A3.6,3.6,0,0,0,196.43,113.28Z"/><path class="cls-2" d="M177.58,127.11a3.84,3.84,0,0,1,1.38,1,2.85,2.85,0,0,1,.66,1.42v.1a.12.12,0,0,1,0,.09.11.11,0,0,1-.08,0l-1.05.09h0a.09.09,0,0,1-.07,0,.19.19,0,0,1,0-.1,2.6,2.6,0,0,0-.87-1.46,2.43,2.43,0,0,0-1.59-.54,2.6,2.6,0,0,0-2.25,1.08,5.57,5.57,0,0,0-.78,3.24,5.42,5.42,0,0,0,.78,3.19,2.69,2.69,0,0,0,2.32,1.07,2.78,2.78,0,0,0,1.66-.48,3.32,3.32,0,0,0,1.07-1.52c0-.07.07-.09.17-.06l.82.2c.07,0,.09.08.07.19A3.72,3.72,0,0,1,179,136a3.93,3.93,0,0,1-1.31,1,4.08,4.08,0,0,1-1.81.39,4.28,4.28,0,0,1-2.38-.64,4.11,4.11,0,0,1-1.52-1.85,6.92,6.92,0,0,1-.54-2.86,7,7,0,0,1,.53-2.84,4.07,4.07,0,0,1,1.51-1.84,4.27,4.27,0,0,1,2.34-.64A4.09,4.09,0,0,1,177.58,127.11Z"/><path class="cls-2" d="M181.52,137.06V127c0-.12,0-.19.16-.19h.82c.1,0,.15.06.15.17v3.74c0,.1,0,.12.13,0a7.08,7.08,0,0,1,1.36-.87,3.07,3.07,0,0,1,1.23-.25,2.24,2.24,0,0,1,1.66.58,2.07,2.07,0,0,1,.58,1.55V137c0,.15-.07.22-.21.22h-.78c-.13,0-.19-.06-.19-.18v-5a1.58,1.58,0,0,0-.35-1.08,1.46,1.46,0,0,0-1.1-.37,2.15,2.15,0,0,0-1.07.26,6.8,6.8,0,0,0-1.21.87V137c0,.14-.08.21-.23.21h-.77A.16.16,0,0,1,181.52,137.06Z"/><path class="cls-2" d="M190.92,128.23a.28.28,0,0,1-.06.2.27.27,0,0,1-.2.06h-.81q-.21,0-.21-.24v-1.17c0-.15.07-.23.2-.23h.88a.18.18,0,0,1,.14.06.2.2,0,0,1,.06.15v1.17Zm-.06,8.77a.27.27,0,0,1-.05.19.28.28,0,0,1-.2.05h-.71c-.09,0-.15,0-.17,0a.21.21,0,0,1,0-.15v-7c0-.13.06-.2.17-.2h.86c.1,0,.15.06.15.19v7Z"/><path class="cls-2" d="M197.85,130.16a3.6,3.6,0,0,1,1.16,1.26l0,.11a.09.09,0,0,1-.09.1l-.77.18,0,0s-.09,0-.14-.12a3.61,3.61,0,0,0-.86-.88,1.68,1.68,0,0,0-.94-.28,2.11,2.11,0,0,0-1.74.81,4,4,0,0,0,0,4.36,2.15,2.15,0,0,0,1.76.8,2.11,2.11,0,0,0,1.15-.32,3.06,3.06,0,0,0,.9-1,.16.16,0,0,1,.09-.08l.1,0,.6.22c.06,0,.08.09,0,.18a3.68,3.68,0,0,1-1.18,1.33,3.18,3.18,0,0,1-1.81.51,3.38,3.38,0,0,1-1.82-.49,3.33,3.33,0,0,1-1.25-1.35,4.24,4.24,0,0,1-.44-2,4.37,4.37,0,0,1,.44-2,3.25,3.25,0,0,1,1.26-1.38,3.37,3.37,0,0,1,1.81-.49A3,3,0,0,1,197.85,130.16Z"/><path class="cls-2" d="M202.44,137.38a2.5,2.5,0,0,1-1.72-.55,1.89,1.89,0,0,1-.62-1.48,2,2,0,0,1,1-1.76,5.48,5.48,0,0,1,2.73-.76l1.09-.08q.24,0,.24-.21v-.38a1.6,1.6,0,0,0-.47-1.2,1.78,1.78,0,0,0-1.27-.44,2.37,2.37,0,0,0-2,1.12.19.19,0,0,1-.09.09s-.06,0-.11,0l-.75-.26a.09.09,0,0,1-.07-.09.3.3,0,0,1,0-.13,3,3,0,0,1,1.2-1.16,3.9,3.9,0,0,1,1.84-.41,3.08,3.08,0,0,1,2.1.64,2.23,2.23,0,0,1,.73,1.76V137a.23.23,0,0,1-.05.17s-.07,0-.15,0h-.7c-.11,0-.18-.07-.2-.22l0-.65c0-.06,0-.09-.07-.09a.22.22,0,0,0-.13.06A3.46,3.46,0,0,1,202.44,137.38Zm2.46-3.92-.91.09a4.47,4.47,0,0,0-2,.5,1.29,1.29,0,0,0-.7,1.16,1.17,1.17,0,0,0,.42.95,1.73,1.73,0,0,0,1.14.36,2.57,2.57,0,0,0,.86-.16,2.34,2.34,0,0,0,.74-.42,2.09,2.09,0,0,0,.5-.54,1.1,1.1,0,0,0,.17-.55v-1.16C205.11,133.54,205,133.46,204.9,133.46Z"/><path class="cls-2" d="M215.26,129.92v.49a.28.28,0,0,1-.06.2s-.12.06-.22,0a1.8,1.8,0,0,0-.73.13c-.22.09-.31.2-.28.32a1.26,1.26,0,0,0,.09.21,2.72,2.72,0,0,1,.11.34,1.75,1.75,0,0,1,0,.4,2,2,0,0,1-.78,1.63,3.5,3.5,0,0,1-2.26.63,4,4,0,0,0-1.42.17c-.3.11-.44.25-.44.43s.1.24.29.31a4.11,4.11,0,0,0,1,.15l1.81.1a3,3,0,0,1,1.79.57,1.7,1.7,0,0,1,.59,1.37,1.89,1.89,0,0,1-.93,1.67,4.91,4.91,0,0,1-2.65.6,5.75,5.75,0,0,1-2.71-.51,1.6,1.6,0,0,1-.93-1.46c0-.63.43-1.15,1.31-1.58.11,0,.11-.1,0-.16a.88.88,0,0,1-.64-.82.82.82,0,0,1,.28-.59,2.13,2.13,0,0,1,.82-.46c.05,0,.07,0,.07-.07a.1.1,0,0,0-.07-.1,2.45,2.45,0,0,1-.91-.78,2.22,2.22,0,0,1,.53-2.82,3.81,3.81,0,0,1,2.34-.63,3.21,3.21,0,0,1,2.1.63.33.33,0,0,0,.14.07.3.3,0,0,0,.16-.07,2.63,2.63,0,0,1,.62-.46,1.54,1.54,0,0,1,.69-.18C215.17,129.7,215.26,129.77,215.26,129.92Zm-5.32,6.41a1.11,1.11,0,0,0-.57.15,1.6,1.6,0,0,0-.55.45,1.06,1.06,0,0,0-.22.65,1.12,1.12,0,0,0,.68,1,4.54,4.54,0,0,0,2,.35c1.58,0,2.37-.46,2.37-1.39a1,1,0,0,0-.33-.78,1.88,1.88,0,0,0-1.07-.32Zm2.68-3.15a1.35,1.35,0,0,0,.49-1.13,1.49,1.49,0,0,0-.49-1.18,2.18,2.18,0,0,0-1.45-.42,2.25,2.25,0,0,0-1.44.43,1.44,1.44,0,0,0-.52,1.17,1.35,1.35,0,0,0,.52,1.13,2.33,2.33,0,0,0,1.44.39A2.26,2.26,0,0,0,212.62,133.18Z"/><path class="cls-2" d="M217.86,136.9a3.26,3.26,0,0,1-1.25-1.35,4.37,4.37,0,0,1-.44-2,4.25,4.25,0,0,1,.46-2,3.37,3.37,0,0,1,1.26-1.38,3.45,3.45,0,0,1,4.93,1.38,4.45,4.45,0,0,1,.43,2,4.17,4.17,0,0,1-.44,2,3.35,3.35,0,0,1-3.1,1.85A3.52,3.52,0,0,1,217.86,136.9Zm3.58-1.19a4.15,4.15,0,0,0,0-4.35,2,2,0,0,0-1.7-.81,2.09,2.09,0,0,0-1.73.81,4.11,4.11,0,0,0,0,4.34,2.11,2.11,0,0,0,1.74.8A2,2,0,0,0,221.44,135.71Z"/></g></g></svg>