<svg xmlns="http://www.w3.org/2000/svg" viewBox="0 0 183.01 164.21"><defs><style>.cls-1{fill:#f1b91f;}.cls-2{fill:#959595;}.cls-3{fill:#4c85c5;}.cls-4,.cls-5{fill:none;stroke-miterlimit:10;stroke-width:2px;}.cls-4{stroke:#eeb820;}.cls-5{stroke:#4c85c5;}</style></defs><title>chart-returns</title><g id="Layer_2" data-name="Layer 2"><g id="Layer_1-2" data-name="Layer 1"><path class="cls-1" d="M19.78,72.86c.7-.6,1.23-1.09,1.57-1.45a4.06,4.06,0,0,0,.71-1,2.07,2.07,0,0,0,.2-.89,1.46,1.46,0,0,0-.5-1.15A2,2,0,0,0,20.48,68a2.17,2.17,0,0,0-1.24.39,4,4,0,0,0-1.09,1.29.21.21,0,0,1-.21.13.43.43,0,0,1-.23-.07L16.29,69a.35.35,0,0,1-.19-.29.43.43,0,0,1,.08-.24A5,5,0,0,1,20.64,66a5.57,5.57,0,0,1,2.27.43,3.51,3.51,0,0,1,1.53,1.25A3.38,3.38,0,0,1,25,69.57a3.31,3.31,0,0,1-.52,1.79,8.24,8.24,0,0,1-1.78,1.82l-3,2.32c-.06,0-.09.08-.09.12s.06.08.19.08h5c.2,0,.3.08.3.25v1.76c0,.19-.11.29-.32.29H16.44a.42.42,0,0,1-.29-.07.34.34,0,0,1-.08-.27V76.43a.51.51,0,0,1,.13-.31,4.33,4.33,0,0,1,.6-.57Z"/><path class="cls-1" d="M31.87,66.18a1.09,1.09,0,0,1,.37-.05h2c.17,0,.26.09.26.29v6.7a.19.19,0,0,0,0,.13.16.16,0,0,0,.11,0H36c.2,0,.31.08.31.24v1.37c0,.19-.11.29-.32.29H34.68c-.12,0-.18.06-.18.19v2.24a.34.34,0,0,1-.1.28.45.45,0,0,1-.32.09H32a.29.29,0,0,1-.33-.32V75.34c0-.09-.07-.14-.19-.14h-4.8c-.23,0-.34-.1-.34-.29V73.58a.64.64,0,0,1,.09-.3,5.55,5.55,0,0,1,.32-.48l4.84-6.37A.86.86,0,0,1,31.87,66.18Zm-.33,7.12a.12.12,0,0,0,.1,0,.08.08,0,0,0,0-.08v-4c0-.15,0-.22,0-.22s-.11,0-.18.16l-2.86,4a.23.23,0,0,0-.07.13s.06.08.18.08Z"/><path class="cls-1" d="M46,77.84c0,.11-.1.16-.3.16H43.62a.58.58,0,0,1-.54-.26l-1.65-2.32c-.09-.13-.15-.2-.19-.2s-.11.06-.2.19l-1.68,2.33a.56.56,0,0,1-.52.26H37.52c-.25,0-.38-.07-.38-.22a.7.7,0,0,1,.19-.42L40,74a.46.46,0,0,0,.09-.22.5.5,0,0,0-.11-.27L37.35,70a.34.34,0,0,1-.07-.19.25.25,0,0,1,.08-.18.34.34,0,0,1,.23-.08h1.95a.63.63,0,0,1,.31.06.48.48,0,0,1,.2.2l1.49,2.09c.05.09.1.13.14.13s.08,0,.13-.13l1.41-2.09a.48.48,0,0,1,.2-.2.69.69,0,0,1,.33-.06h1.44c.18,0,.27,0,.27.16a.38.38,0,0,1-.1.21L43,73.12a.36.36,0,0,0-.1.22.62.62,0,0,0,.11.26l2.79,3.86A.76.76,0,0,1,46,77.84Z"/><path class="cls-2" d="M7.43,98.83a.15.15,0,0,1-.17.17h-1A.24.24,0,0,1,6,98.83L4.21,94.42a.26.26,0,0,0-.11-.12.42.42,0,0,0-.22,0H1.51a.15.15,0,0,0-.17.16v4.37a.25.25,0,0,1-.05.17.27.27,0,0,1-.19,0H.19A.21.21,0,0,1,0,99a.2.2,0,0,1,0-.14v-10a.3.3,0,0,1,0-.16.23.23,0,0,1,.14,0h3.9a4.21,4.21,0,0,1,2.58.69,2.37,2.37,0,0,1,.91,2A2.62,2.62,0,0,1,7,93.09,3,3,0,0,1,5.51,94s-.06,0-.07,0a.15.15,0,0,0,0,.09l2,4.57A.25.25,0,0,1,7.43,98.83Zm-1.89-6a1.63,1.63,0,0,0,.62-1.41,1.73,1.73,0,0,0-.55-1.38A2.47,2.47,0,0,0,4,89.59H1.54c-.13,0-.2,0-.2.16v3.36c0,.12,0,.18.13.18H3.68A3.15,3.15,0,0,0,5.54,92.84Z"/><path class="cls-2" d="M10.57,97a2.59,2.59,0,0,0,.89.91,2.42,2.42,0,0,0,1.24.33,2.47,2.47,0,0,0,2.18-1.16S15,97,15,97a.2.2,0,0,1,.1,0l.59.29a.13.13,0,0,1,0,.2,3.45,3.45,0,0,1-1.3,1.23,4,4,0,0,1-1.81.38,3.52,3.52,0,0,1-1.83-.48,3.32,3.32,0,0,1-1.27-1.33,4.21,4.21,0,0,1-.45-2,4.43,4.43,0,0,1,.46-2.08,3.28,3.28,0,0,1,1.27-1.36,3.68,3.68,0,0,1,3.58,0,3,3,0,0,1,1.18,1.31,4.57,4.57,0,0,1,.42,2v.06a.34.34,0,0,1,0,.19.19.19,0,0,1-.17.06H10.37q-.12,0-.12.21A2.58,2.58,0,0,0,10.57,97Zm4-2.23a.36.36,0,0,0,.19,0,.22.22,0,0,0,0-.16,2.62,2.62,0,0,0-.26-1.15,2.05,2.05,0,0,0-.76-.84,2.11,2.11,0,0,0-1.15-.31,2.19,2.19,0,0,0-1.25.36,2.33,2.33,0,0,0-.81.92,2.52,2.52,0,0,0-.27,1.21Z"/><path class="cls-2" d="M19.5,92.45c-.07,0-.11,0-.11.12V97a1.35,1.35,0,0,0,.21.87.86.86,0,0,0,.68.24h1a.14.14,0,0,1,.16.15l0,.48c0,.09-.06.15-.17.18a7.73,7.73,0,0,1-1.31.07,1.77,1.77,0,0,1-1.29-.41,1.84,1.84,0,0,1-.41-1.31V92.6c0-.1,0-.15-.14-.15H17c-.1,0-.15,0-.15-.14v-.59a.13.13,0,0,1,.14-.14h1.19a.1.1,0,0,0,.1-.11l.15-2.23q0-.18.15-.18h.71c.11,0,.16.06.16.19v2.22a.1.1,0,0,0,.11.11h1.77q.15,0,.15.12v.61c0,.09-.05.14-.15.14Z"/><path class="cls-2" d="M26.6,97.9a5.17,5.17,0,0,0,1.13-.9V91.78c0-.13.08-.2.23-.2h.77c.13,0,.19.07.19.2l0,7q0,.18-.15.18h-.81a.13.13,0,0,1-.15-.15V98c0-.11-.05-.13-.13,0a5.58,5.58,0,0,1-1.34.9,3.06,3.06,0,0,1-1.21.26,2.24,2.24,0,0,1-1.61-.59A2,2,0,0,1,22.86,97V91.79a.19.19,0,0,1,.21-.21h.79c.12,0,.18.07.18.2v4.91a1.57,1.57,0,0,0,.38,1.11,1.37,1.37,0,0,0,1.06.42A2.22,2.22,0,0,0,26.6,97.9Z"/><path class="cls-2" d="M31.06,98.82V91.76c0-.12.05-.18.16-.18H32a.13.13,0,0,1,.15.15v.91c0,.06,0,.09,0,.1s.07,0,.11-.06a2.93,2.93,0,0,1,2.17-1.24c.32,0,.49.06.49.18v.84c0,.1,0,.13-.13.11a5.27,5.27,0,0,0-.63,0,2,2,0,0,0-.88.24,2.58,2.58,0,0,0-.8.61,1.23,1.23,0,0,0-.32.77v4.64A.19.19,0,0,1,32,99h-.77C31.13,99,31.06,98.94,31.06,98.82Z"/><path class="cls-2" d="M36.43,98.82V91.76q0-.18.15-.18h.84a.13.13,0,0,1,.15.15v.81c0,.11,0,.12.13,0A7.85,7.85,0,0,1,39,91.7a2.89,2.89,0,0,1,1.24-.26,2.28,2.28,0,0,1,1.65.57,2,2,0,0,1,.6,1.54v5.22c0,.15-.07.23-.21.23h-.78c-.13,0-.19-.06-.19-.18v-5A1.54,1.54,0,0,0,41,92.74a1.47,1.47,0,0,0-1.1-.38,2.37,2.37,0,0,0-1.09.26,7,7,0,0,0-1.21.88v5.29a.18.18,0,0,1-.21.21h-.77C36.49,99,36.43,98.94,36.43,98.82Z"/><path class="cls-2" d="M48.86,98.66a3.3,3.3,0,0,1-1.24-1.35,4.24,4.24,0,0,1-.44-2,4.39,4.39,0,0,1,.45-2,3.55,3.55,0,0,1,1.26-1.37,3.45,3.45,0,0,1,4.93,1.37,4.5,4.5,0,0,1,.44,2,4.23,4.23,0,0,1-.45,2,3.29,3.29,0,0,1-1.25,1.36,3.51,3.51,0,0,1-1.84.49A3.58,3.58,0,0,1,48.86,98.66Zm3.59-1.19a3.55,3.55,0,0,0,.61-2.18,3.45,3.45,0,0,0-.63-2.18,2,2,0,0,0-1.7-.8,2.08,2.08,0,0,0-1.72.8,4.07,4.07,0,0,0,0,4.35,2.1,2.1,0,0,0,1.74.8A2,2,0,0,0,52.45,97.47Z"/><path class="cls-2" d="M56,98.82V91.76q0-.18.15-.18H57a.13.13,0,0,1,.15.15v.81c0,.11,0,.12.13,0a7.85,7.85,0,0,1,1.34-.89,2.93,2.93,0,0,1,1.24-.26,2.32,2.32,0,0,1,1.66.57,2.06,2.06,0,0,1,.59,1.54v5.22c0,.15-.07.23-.21.23h-.78c-.13,0-.19-.06-.19-.18v-5a1.54,1.54,0,0,0-.35-1.08,1.47,1.47,0,0,0-1.1-.38,2.37,2.37,0,0,0-1.09.26,7,7,0,0,0-1.21.88v5.29a.19.19,0,0,1-.05.16A.22.22,0,0,1,57,99h-.77C56.06,99,56,98.94,56,98.82Z"/><path class="cls-2" d="M11.53,105.65a.18.18,0,0,1,.13,0H18c.09,0,.14,0,.14.15v.72c0,.11-.06.17-.19.17H13a.24.24,0,0,0-.15,0,.24.24,0,0,0,0,.14v3.27a.13.13,0,0,0,.15.15h3.63a.14.14,0,0,1,.15.16v.74c0,.08-.05.13-.15.13H13a.13.13,0,0,0-.15.15v3.4a.2.2,0,0,0,0,.11.16.16,0,0,0,.11,0h5.14a.17.17,0,0,1,.12,0,.12.12,0,0,1,0,.11v.74a.14.14,0,0,1-.16.16H11.69a.22.22,0,0,1-.16,0,.25.25,0,0,1,0-.15v-10A.21.21,0,0,1,11.53,105.65Z"/><path class="cls-2" d="M26,108.58a.18.18,0,0,1,.16.06s.05.09.05.18v9.31c0,.12-.05.18-.16.18h-.86q-.15,0-.15-.18v-2.58c0-.13,0-.19-.06-.19a.36.36,0,0,0-.15.08,3.39,3.39,0,0,1-.94.51,3.23,3.23,0,0,1-1.13.19,3,3,0,0,1-1.7-.48,3,3,0,0,1-1.1-1.35,5,5,0,0,1-.38-2,4.87,4.87,0,0,1,.38-2,3,3,0,0,1,1.11-1.33,3,3,0,0,1,1.71-.48,2.92,2.92,0,0,1,1.42.29,3.4,3.4,0,0,1,.89.7c.05,0,.08.07.09.07s.05,0,.07-.11l.1-.59a.39.39,0,0,1,.07-.17.26.26,0,0,1,.18,0Zm-1,2.51a1.71,1.71,0,0,0-.26-.9,1.79,1.79,0,0,0-.72-.67,2,2,0,0,0-1-.26,2,2,0,0,0-1.63.77,3.36,3.36,0,0,0-.65,2.22,3.54,3.54,0,0,0,.63,2.25,2.05,2.05,0,0,0,1.67.79,2.57,2.57,0,0,0,1.08-.24,2.61,2.61,0,0,0,.88-.66v-3.3Z"/><path class="cls-2" d="M32,114.9a5.39,5.39,0,0,0,1.12-.9v-5.22c0-.13.08-.2.23-.2h.77c.13,0,.19.07.19.2l0,7c0,.12-.06.18-.16.18h-.81a.13.13,0,0,1-.15-.15V115c0-.11-.05-.13-.13,0a5.58,5.58,0,0,1-1.34.9,3,3,0,0,1-1.21.26,2.24,2.24,0,0,1-1.61-.59,2,2,0,0,1-.63-1.55v-5.21a.19.19,0,0,1,.21-.21h.79c.12,0,.18.07.18.2v4.91a1.57,1.57,0,0,0,.38,1.11,1.37,1.37,0,0,0,1.06.42A2.28,2.28,0,0,0,32,114.9Z"/><path class="cls-2" d="M37.73,107a.31.31,0,0,1-.06.21.24.24,0,0,1-.19.06h-.81c-.15,0-.22-.08-.22-.24v-1.18c0-.14.07-.22.2-.22h.88a.17.17,0,0,1,.14.06.19.19,0,0,1,.06.15Zm-.06,8.78a.27.27,0,0,1-.05.19.34.34,0,0,1-.2,0h-.71c-.09,0-.14,0-.17,0a.22.22,0,0,1,0-.16v-7c0-.13,0-.2.17-.2h.85q.15,0,.15.18Z"/><path class="cls-2" d="M41.8,109.45c-.07,0-.11,0-.11.12V114a1.35,1.35,0,0,0,.21.87.87.87,0,0,0,.69.24h1c.11,0,.16,0,.16.15l0,.48c0,.09,0,.15-.17.18a7.73,7.73,0,0,1-1.31.07,1.77,1.77,0,0,1-1.29-.41,1.83,1.83,0,0,1-.4-1.31V109.6a.13.13,0,0,0-.15-.15H39.25c-.1,0-.15,0-.15-.14v-.59a.13.13,0,0,1,.14-.14h1.19c.07,0,.1,0,.1-.11l.15-2.23c0-.12,0-.18.16-.18h.7c.11,0,.16.06.16.19v2.22a.1.1,0,0,0,.11.11h1.77q.15,0,.15.12v.61c0,.09,0,.14-.15.14Z"/><path class="cls-2" d="M45,118.28q-.18,0-.18-.15v-.55a.16.16,0,0,1,.08-.14.7.7,0,0,1,.31,0h.89a.92.92,0,0,0,.61-.24,1.68,1.68,0,0,0,.44-.61,1.72,1.72,0,0,0,.16-.7,1,1,0,0,0,0-.34l-2.68-6.69a.22.22,0,0,1,0-.09c0-.1,0-.15.17-.15h.86a.24.24,0,0,1,.23.15l2.08,5.44q0,.12.12.12s.1-.05.14-.16l2.05-5.4a.23.23,0,0,1,.2-.15h.66a.13.13,0,0,1,.12.06.14.14,0,0,1,0,.14l-3.08,7.88a2.61,2.61,0,0,1-.94,1.3,2.89,2.89,0,0,1-1.53.35A5,5,0,0,1,45,118.28Z"/><path class="cls-3" d="M126.76,72.86a19.91,19.91,0,0,0,1.57-1.45,4.06,4.06,0,0,0,.71-1,1.94,1.94,0,0,0,.2-.89,1.42,1.42,0,0,0-.5-1.15,1.93,1.93,0,0,0-1.27-.42,2.14,2.14,0,0,0-1.24.39,3.94,3.94,0,0,0-1.1,1.29.2.2,0,0,1-.21.13.38.38,0,0,1-.22-.07L123.28,69a.37.37,0,0,1-.2-.29.52.52,0,0,1,.08-.24A5,5,0,0,1,127.63,66a5.52,5.52,0,0,1,2.26.43A3.3,3.3,0,0,1,132,69.57a3.23,3.23,0,0,1-.52,1.79,8,8,0,0,1-1.78,1.82l-3,2.32c-.06,0-.1.08-.1.12s.07.08.19.08h5c.2,0,.31.08.31.25v1.76c0,.19-.11.29-.32.29h-8.34a.44.44,0,0,1-.29-.07.38.38,0,0,1-.08-.27V76.43a.51.51,0,0,1,.13-.31,5.44,5.44,0,0,1,.61-.57Z"/><path class="cls-3" d="M138.85,66.18a1.16,1.16,0,0,1,.38-.05h2c.17,0,.26.09.26.29v6.7a.16.16,0,0,0,.16.18H143q.3,0,.3.24v1.37c0,.19-.1.29-.32.29h-1.28c-.12,0-.17.06-.17.19v2.24a.38.38,0,0,1-.1.28.45.45,0,0,1-.32.09H139a.3.3,0,0,1-.34-.32V75.34c0-.09-.06-.14-.19-.14h-4.8c-.22,0-.33-.1-.33-.29V73.58a.64.64,0,0,1,.09-.3,3,3,0,0,1,.32-.48l4.84-6.37A.85.85,0,0,1,138.85,66.18Zm-.32,7.12a.13.13,0,0,0,.1,0,.08.08,0,0,0,0-.08v-4c0-.15,0-.22,0-.22s-.1,0-.17.16l-2.87,4a.28.28,0,0,0-.06.13s.06.08.17.08Z"/><path class="cls-3" d="M151.53,66.32a4,4,0,0,1,1.31.84,2.58,2.58,0,0,1,.69,1,.39.39,0,0,1,0,.13.23.23,0,0,1-.16.22l-1.74.56-.08,0a.25.25,0,0,1-.23-.19,3,3,0,0,0-.7-.72,1.52,1.52,0,0,0-.9-.24,2.16,2.16,0,0,0-1.82.85,3.55,3.55,0,0,0-.64,2.22,1.7,1.7,0,0,0,0,.3.11.11,0,0,0,.12.08l.21-.06c.48-.2.89-.35,1.22-.45a4.68,4.68,0,0,1,1.19-.14,4.93,4.93,0,0,1,2.16.45,3.44,3.44,0,0,1,1.44,1.24,3.29,3.29,0,0,1,.52,1.83,3.46,3.46,0,0,1-.62,2,4.13,4.13,0,0,1-1.67,1.38,5.5,5.5,0,0,1-2.35.5,4.85,4.85,0,0,1-2.67-.72,4.52,4.52,0,0,1-1.73-2,7.19,7.19,0,0,1-.61-3.09,8,8,0,0,1,.65-3.38A4.86,4.86,0,0,1,147,66.75a4.94,4.94,0,0,1,2.75-.76A4.56,4.56,0,0,1,151.53,66.32Zm-3.11,6.42a2.76,2.76,0,0,0-.89.38.42.42,0,0,0-.18.2.94.94,0,0,0,0,.34,3.08,3.08,0,0,0,.57,1.87,1.83,1.83,0,0,0,1.56.77,1.91,1.91,0,0,0,1.95-2,1.64,1.64,0,0,0-.55-1.29,2,2,0,0,0-1.37-.49A4.24,4.24,0,0,0,148.42,72.74Z"/><path class="cls-3" d="M159.93,66.41A3.08,3.08,0,0,1,161,67.64a3.77,3.77,0,0,1,.4,1.7A3.7,3.7,0,0,1,161,71a3.14,3.14,0,0,1-1.07,1.21,2.77,2.77,0,0,1-1.53.44,2.85,2.85,0,0,1-1.54-.44A3,3,0,0,1,155.78,71a3.7,3.7,0,0,1-.39-1.7,3.64,3.64,0,0,1,.4-1.7,3.1,3.1,0,0,1,1.09-1.23,2.76,2.76,0,0,1,3.05,0Zm-.63,4.49a3.26,3.26,0,0,0,.3-1.54,3.45,3.45,0,0,0-.3-1.6,1,1,0,0,0-1.8,0,3.46,3.46,0,0,0-.3,1.59,3.33,3.33,0,0,0,.29,1.53,1,1,0,0,0,1.81,0Zm-.17,7a.43.43,0,0,1-.4.17h-.67c-.17,0-.26-.08-.26-.23a.46.46,0,0,1,.08-.22l7.6-11.43a.48.48,0,0,1,.16-.14.66.66,0,0,1,.21,0h.85c.13,0,.19,0,.19.13a.71.71,0,0,1-.06.14Zm8.61-6a3.15,3.15,0,0,1,1.08,1.23,3.77,3.77,0,0,1,.39,1.71,3.69,3.69,0,0,1-.39,1.69,3.07,3.07,0,0,1-1.07,1.21,2.9,2.9,0,0,1-3.07,0,3,3,0,0,1-1.09-1.21,3.69,3.69,0,0,1-.39-1.69,3.77,3.77,0,0,1,.39-1.71,3.2,3.2,0,0,1,1.1-1.23,2.8,2.8,0,0,1,1.53-.46A2.74,2.74,0,0,1,167.74,71.88Zm-.63,4.49a3.24,3.24,0,0,0,.3-1.54,3.45,3.45,0,0,0-.31-1.59,1,1,0,0,0-.9-.57.94.94,0,0,0-.88.57,3.46,3.46,0,0,0-.3,1.59,3.25,3.25,0,0,0,.3,1.53.93.93,0,0,0,.88.55A1,1,0,0,0,167.11,76.37Z"/><path class="cls-2" d="M122.72,98.83a.15.15,0,0,1-.17.17h-1a.23.23,0,0,1-.22-.17l-1.81-4.41a.32.32,0,0,0-.11-.12.44.44,0,0,0-.23,0H116.8a.15.15,0,0,0-.17.16v4.37a.25.25,0,0,1,0,.17.27.27,0,0,1-.19,0h-.91a.21.21,0,0,1-.15,0,.2.2,0,0,1,0-.14v-10a.3.3,0,0,1,0-.16.22.22,0,0,1,.13,0h3.91a4.21,4.21,0,0,1,2.58.69,2.37,2.37,0,0,1,.91,2,2.62,2.62,0,0,1-.6,1.79,3.08,3.08,0,0,1-1.45.93s-.06,0-.07,0a.1.1,0,0,0,0,.09l2,4.57A.25.25,0,0,1,122.72,98.83Zm-1.89-6a1.63,1.63,0,0,0,.62-1.41,1.73,1.73,0,0,0-.55-1.38,2.47,2.47,0,0,0-1.61-.46h-2.46c-.14,0-.2,0-.2.16v3.36c0,.12,0,.18.13.18H119A3.15,3.15,0,0,0,120.83,92.84Z"/><path class="cls-2" d="M125.86,97a2.59,2.59,0,0,0,.89.91,2.41,2.41,0,0,0,1.23.33,2.49,2.49,0,0,0,2.19-1.16s.07-.06.1-.06a.22.22,0,0,1,.1,0l.58.29a.12.12,0,0,1,0,.2,3.45,3.45,0,0,1-1.3,1.23,4,4,0,0,1-1.81.38,3.52,3.52,0,0,1-1.83-.48,3.32,3.32,0,0,1-1.27-1.33,4.21,4.21,0,0,1-.45-2,4.43,4.43,0,0,1,.46-2.08,3.28,3.28,0,0,1,1.27-1.36,3.68,3.68,0,0,1,3.58,0,3,3,0,0,1,1.18,1.31,4.57,4.57,0,0,1,.42,2v.06a.34.34,0,0,1,0,.19.19.19,0,0,1-.17.06h-5.36c-.08,0-.13.07-.13.21A2.49,2.49,0,0,0,125.86,97Zm4-2.23a.36.36,0,0,0,.19,0,.22.22,0,0,0,.05-.16,2.62,2.62,0,0,0-.26-1.15,2.06,2.06,0,0,0-1.91-1.15,2.25,2.25,0,0,0-2.06,1.28,2.52,2.52,0,0,0-.27,1.21Z"/><path class="cls-2" d="M134.79,92.45c-.08,0-.11,0-.11.12V97a1.35,1.35,0,0,0,.21.87.86.86,0,0,0,.68.24h1a.13.13,0,0,1,.15.15v.48c0,.09-.06.15-.17.18a7.79,7.79,0,0,1-1.32.07,1.76,1.76,0,0,1-1.28-.41,1.84,1.84,0,0,1-.41-1.31V92.6c0-.1-.05-.15-.14-.15h-1.12c-.1,0-.15,0-.15-.14v-.59a.12.12,0,0,1,.14-.14h1.19a.1.1,0,0,0,.1-.11l.15-2.23q0-.18.15-.18h.7c.11,0,.17.06.17.19v2.22a.1.1,0,0,0,.11.11h1.77q.15,0,.15.12v.61c0,.09-.05.14-.15.14Z"/><path class="cls-2" d="M141.89,97.9A5.17,5.17,0,0,0,143,97V91.78c0-.13.08-.2.23-.2H144c.13,0,.19.07.19.2l0,7q0,.18-.15.18h-.81a.14.14,0,0,1-.16-.15V98c0-.11,0-.13-.12,0a5.43,5.43,0,0,1-1.35.9,3,3,0,0,1-1.2.26,2.24,2.24,0,0,1-1.61-.59,2,2,0,0,1-.63-1.55V91.79a.19.19,0,0,1,.21-.21h.78c.13,0,.19.07.19.2v4.91a1.57,1.57,0,0,0,.38,1.11,1.37,1.37,0,0,0,1.06.42A2.22,2.22,0,0,0,141.89,97.9Z"/><path class="cls-2" d="M146.35,98.82V91.76c0-.12.05-.18.16-.18h.81a.13.13,0,0,1,.15.15v.91c0,.06,0,.09.05.1s.07,0,.11-.06a2.93,2.93,0,0,1,2.17-1.24c.32,0,.49.06.49.18v.84c0,.1,0,.13-.13.11a5.27,5.27,0,0,0-.63,0,2,2,0,0,0-.88.24,2.46,2.46,0,0,0-.8.61,1.17,1.17,0,0,0-.32.77v4.64a.19.19,0,0,1-.21.21h-.77C146.42,99,146.35,98.94,146.35,98.82Z"/><path class="cls-2" d="M151.71,98.82V91.76c0-.12,0-.18.16-.18h.84a.13.13,0,0,1,.15.15v.81c0,.11,0,.12.13,0a7.85,7.85,0,0,1,1.34-.89,2.88,2.88,0,0,1,1.23-.26,2.29,2.29,0,0,1,1.66.57,2,2,0,0,1,.6,1.54v5.22c0,.15-.07.23-.21.23h-.79a.16.16,0,0,1-.18-.18v-5a1.5,1.5,0,0,0-.36-1.08,1.44,1.44,0,0,0-1.1-.38,2.33,2.33,0,0,0-1.08.26,7,7,0,0,0-1.21.88v5.29a.18.18,0,0,1-.21.21h-.77C151.78,99,151.71,98.94,151.71,98.82Z"/><path class="cls-2" d="M164.15,98.66a3.3,3.3,0,0,1-1.24-1.35,4.24,4.24,0,0,1-.44-2,4.39,4.39,0,0,1,.45-2,3.4,3.4,0,0,1,1.26-1.37,3.64,3.64,0,0,1,3.68,0,3.31,3.31,0,0,1,1.25,1.37,4.5,4.5,0,0,1,.44,2,4.23,4.23,0,0,1-.45,2,3.35,3.35,0,0,1-1.25,1.36,3.54,3.54,0,0,1-1.84.49A3.58,3.58,0,0,1,164.15,98.66Zm3.59-1.19a3.55,3.55,0,0,0,.61-2.18,3.45,3.45,0,0,0-.63-2.18,2,2,0,0,0-1.7-.8,2.08,2.08,0,0,0-1.72.8,4.07,4.07,0,0,0,0,4.35,2.1,2.1,0,0,0,1.73.8A2.06,2.06,0,0,0,167.74,97.47Z"/><path class="cls-2" d="M171.29,98.82V91.76q0-.18.15-.18h.84a.13.13,0,0,1,.15.15v.81c0,.11,0,.12.13,0a7.85,7.85,0,0,1,1.34-.89,2.93,2.93,0,0,1,1.24-.26,2.28,2.28,0,0,1,1.65.57,2,2,0,0,1,.6,1.54v5.22c0,.15-.07.23-.21.23h-.78c-.13,0-.19-.06-.19-.18v-5a1.54,1.54,0,0,0-.35-1.08,1.47,1.47,0,0,0-1.1-.38,2.34,2.34,0,0,0-1.09.26,7,7,0,0,0-1.21.88v5.29a.18.18,0,0,1-.21.21h-.77C171.35,99,171.29,98.94,171.29,98.82Z"/><path class="cls-2" d="M111.39,105.61c.11,0,.17.06.17.18v10c0,.1,0,.16-.06.19a.32.32,0,0,1-.2,0h-.88a.25.25,0,0,1-.17,0,.28.28,0,0,1,0-.16v-10c0-.13.06-.2.17-.2Z"/><path class="cls-2" d="M114,115.82v-7.06q0-.18.15-.18H115c.11,0,.16,0,.16.15v.81c0,.11,0,.12.13,0a7.83,7.83,0,0,1,1.33-.89,2.93,2.93,0,0,1,1.24-.26,2.31,2.31,0,0,1,1.66.57,2,2,0,0,1,.6,1.54v5.22c0,.15-.07.23-.21.23h-.79a.16.16,0,0,1-.18-.18v-5a1.5,1.5,0,0,0-.36-1.08,1.44,1.44,0,0,0-1.1-.38,2.33,2.33,0,0,0-1.08.26,6.59,6.59,0,0,0-1.21.88v5.29a.18.18,0,0,1-.21.21h-.77C114.06,116,114,115.94,114,115.82Z"/><path class="cls-2" d="M128.33,108.64a.14.14,0,0,1,0,.14l-2.84,7a.31.31,0,0,1-.32.21h-.51a.35.35,0,0,1-.35-.19l-2.83-7a.15.15,0,0,1,0-.07c0-.09.06-.14.17-.14h.87a.23.23,0,0,1,.22.15l2.2,5.51c0,.09.06.14.1.14s.08,0,.12-.16l2.19-5.48a.2.2,0,0,1,.21-.16h.64C128.27,108.58,128.31,108.6,128.33,108.64Z"/><path class="cls-2" d="M130.52,114a2.59,2.59,0,0,0,.89.91,2.36,2.36,0,0,0,1.23.33,2.47,2.47,0,0,0,2.18-1.16s.07-.06.1-.06a.2.2,0,0,1,.1,0l.59.29a.13.13,0,0,1,0,.2,3.47,3.47,0,0,1-1.31,1.23,4,4,0,0,1-1.8.38,3.58,3.58,0,0,1-1.84-.48,3.24,3.24,0,0,1-1.26-1.33,4.09,4.09,0,0,1-.46-2,4.55,4.55,0,0,1,.46-2.08,3.28,3.28,0,0,1,1.27-1.36,3.47,3.47,0,0,1,1.81-.48,3.4,3.4,0,0,1,1.77.45,3,3,0,0,1,1.19,1.31,4.57,4.57,0,0,1,.42,2v.06a.45.45,0,0,1,0,.19.21.21,0,0,1-.17.06h-5.36c-.09,0-.13.07-.13.21A2.49,2.49,0,0,0,130.52,114Zm3.95-2.23a.4.4,0,0,0,.2,0,.22.22,0,0,0,0-.16,2.62,2.62,0,0,0-.26-1.15,2,2,0,0,0-.75-.84,2.32,2.32,0,0,0-2.4,0,2.28,2.28,0,0,0-.82.92,2.64,2.64,0,0,0-.26,1.21Z"/><path class="cls-2" d="M141.19,109.52a2.64,2.64,0,0,0-1.19-.26,2.31,2.31,0,0,0-1.26.33,1,1,0,0,0-.49.87.82.82,0,0,0,.25.58,2.08,2.08,0,0,0,.89.45l1.78.53a2.84,2.84,0,0,1,1.37.75A1.71,1.71,0,0,1,143,114a1.82,1.82,0,0,1-.4,1.14,2.62,2.62,0,0,1-1.07.77,4.25,4.25,0,0,1-1.56.27,4.11,4.11,0,0,1-1.92-.43,2.58,2.58,0,0,1-1.19-1.11.51.51,0,0,1,0-.11.11.11,0,0,1,.07-.11l.55-.31c.09-.06.16,0,.21,0a2.56,2.56,0,0,0,2.33,1.21,2.67,2.67,0,0,0,1.37-.35,1,1,0,0,0,.54-.86.84.84,0,0,0-.32-.66,3.26,3.26,0,0,0-1.05-.47l-1.44-.41a3,3,0,0,1-1.47-.74,1.66,1.66,0,0,1-.44-1.16,1.94,1.94,0,0,1,.36-1.15,2.23,2.23,0,0,1,1-.78,4.17,4.17,0,0,1,3.15.08,2.63,2.63,0,0,1,1.12.95c.07.1.06.16,0,.2l-.59.32-.08,0a.19.19,0,0,1-.13-.07A2.11,2.11,0,0,0,141.19,109.52Z"/><path class="cls-2" d="M146.67,109.45a.11.11,0,0,0-.12.12V114a1.28,1.28,0,0,0,.22.87.85.85,0,0,0,.68.24h1a.13.13,0,0,1,.15.15v.48c0,.09-.06.15-.17.18a7.79,7.79,0,0,1-1.32.07,1.76,1.76,0,0,1-1.28-.41,1.84,1.84,0,0,1-.41-1.31V109.6c0-.1,0-.15-.14-.15h-1.12c-.1,0-.15,0-.15-.14v-.59a.12.12,0,0,1,.14-.14h1.19c.06,0,.09,0,.09-.11l.16-2.23q0-.18.15-.18h.7c.11,0,.17.06.17.19v2.22a.1.1,0,0,0,.11.11h1.77q.15,0,.15.12v.61c0,.09,0,.14-.15.14Z"/><path class="cls-2" d="M150.12,115.82v-7.06c0-.12.06-.18.16-.18h.84c.09,0,.14,0,.14.15v.81c0,.12.05.13.14,0a7.37,7.37,0,0,1,1.29-.89,2.7,2.7,0,0,1,1.19-.26,2.18,2.18,0,0,1,1.29.35,1.73,1.73,0,0,1,.69.88.07.07,0,0,0,.06,0,.29.29,0,0,0,.14-.07,7.3,7.3,0,0,1,1.31-.91,2.78,2.78,0,0,1,1.23-.29,2,2,0,0,1,2.14,2.13v5.21a.19.19,0,0,1-.21.22h-.79a.16.16,0,0,1-.18-.18v-5a1.54,1.54,0,0,0-.34-1.08,1.27,1.27,0,0,0-1-.38,2.11,2.11,0,0,0-1.05.27,6,6,0,0,0-1,.68,1.46,1.46,0,0,0-.15.2.46.46,0,0,0,0,.21v5.06a.19.19,0,0,1-.21.22H155a.16.16,0,0,1-.18-.18v-5c0-1-.45-1.46-1.34-1.46a2.1,2.1,0,0,0-1,.26,8,8,0,0,0-1.17.88v5.29a.18.18,0,0,1-.21.21h-.77C150.19,116,150.12,115.94,150.12,115.82Z"/><path class="cls-2" d="M163.92,114a2.59,2.59,0,0,0,.89.91,2.41,2.41,0,0,0,1.23.33,2.48,2.48,0,0,0,2.19-1.16s.07-.06.1-.06a.22.22,0,0,1,.1,0l.58.29a.12.12,0,0,1,0,.2,3.45,3.45,0,0,1-1.3,1.23,4.06,4.06,0,0,1-1.81.38,3.52,3.52,0,0,1-1.83-.48,3.26,3.26,0,0,1-1.27-1.33,4.21,4.21,0,0,1-.46-2,4.43,4.43,0,0,1,.47-2.08,3.32,3.32,0,0,1,1.26-1.36,3.51,3.51,0,0,1,1.82-.48,3.43,3.43,0,0,1,1.77.45,3,3,0,0,1,1.18,1.31,4.57,4.57,0,0,1,.42,2v.06a.34.34,0,0,1,0,.19.21.21,0,0,1-.17.06h-5.36c-.08,0-.13.07-.13.21A2.49,2.49,0,0,0,163.92,114Zm4-2.23a.36.36,0,0,0,.19,0,.22.22,0,0,0,.05-.16,2.62,2.62,0,0,0-.26-1.15,2.06,2.06,0,0,0-1.91-1.15,2.16,2.16,0,0,0-1.25.36,2.25,2.25,0,0,0-.81.92,2.52,2.52,0,0,0-.27,1.21Z"/><path class="cls-2" d="M170.94,115.82v-7.06c0-.12.05-.18.16-.18h.84a.13.13,0,0,1,.15.15v.81c0,.11,0,.12.13,0a8.25,8.25,0,0,1,1.33-.89,3,3,0,0,1,1.24-.26,2.29,2.29,0,0,1,1.66.57,2,2,0,0,1,.6,1.54v5.22c0,.15-.07.23-.21.23h-.79a.16.16,0,0,1-.18-.18v-5a1.5,1.5,0,0,0-.36-1.08,1.44,1.44,0,0,0-1.1-.38,2.33,2.33,0,0,0-1.08.26,6.59,6.59,0,0,0-1.21.88v5.29a.18.18,0,0,1-.21.21h-.77C171,116,170.94,115.94,170.94,115.82Z"/><path class="cls-2" d="M181.08,109.45c-.08,0-.11,0-.11.12V114a1.35,1.35,0,0,0,.21.87.86.86,0,0,0,.68.24h1a.13.13,0,0,1,.15.15v.48c0,.09-.06.15-.17.18a7.73,7.73,0,0,1-1.31.07,1.77,1.77,0,0,1-1.29-.41,1.84,1.84,0,0,1-.41-1.31V109.6c0-.1,0-.15-.14-.15h-1.12c-.1,0-.15,0-.15-.14v-.59a.13.13,0,0,1,.14-.14h1.19a.1.1,0,0,0,.1-.11l.15-2.23q0-.18.15-.18h.7c.12,0,.17.06.17.19v2.22a.1.1,0,0,0,.11.11h1.77q.15,0,.15.12v.61c0,.09,0,.14-.15.14Z"/><polygon class="cls-4" points="30.9 130.24 19.75 137.18 18.21 163.21 43.59 163.21 42.05 137.18 30.9 130.24"/><polygon class="cls-4" points="53.37 30.26 30.87 1.62 8.37 30.26 20.88 30.26 19.75 53.32 30.9 46.39 42.05 53.32 40.91 30.26 53.37 30.26"/><polygon class="cls-5" points="135.04 53.32 146.19 46.39 157.34 53.32 156.2 30.26 168.66 30.26 146.16 1.62 123.66 30.26 136.17 30.26 135.04 53.32"/><polygon class="cls-5" points="146.19 130.24 135.04 137.18 133.5 163.21 158.88 163.21 157.34 137.18 146.19 130.24"/></g></g></svg>