<svg xmlns="http://www.w3.org/2000/svg" viewBox="0 0 241.27 188.23"><defs><style>.cls-1{fill:#ca2569;}.cls-2{fill:#959595;}.cls-3{fill:#4a86c6;}.cls-4{fill:#f1b91f;}.cls-5,.cls-6,.cls-7{fill:none;stroke-miterlimit:10;stroke-width:2px;}.cls-5{stroke:#c92568;}.cls-6{stroke:#eeb820;}.cls-7{stroke:#4c85c5;}</style></defs><title>chart-access-capital</title><g id="Layer_2" data-name="Layer 2"><g id="Layer_1-2" data-name="Layer 1"><path class="cls-1" d="M9.86,103.14a4.18,4.18,0,0,1-2.6,1.11.38.38,0,0,0-.22.06.32.32,0,0,0,0,.2v.57a.38.38,0,0,1-.09.28.4.4,0,0,1-.29.09H5.73c-.23,0-.34-.11-.34-.32v-.64a.27.27,0,0,0,0-.19.25.25,0,0,0-.17,0,6,6,0,0,1-2-.42,5.57,5.57,0,0,1-1.61-1c-.16-.13-.24-.24-.24-.34a.25.25,0,0,1,.08-.17l1-1a.4.4,0,0,1,.26-.15.31.31,0,0,1,.2.11,3.85,3.85,0,0,0,2.37,1.27h.1c.08,0,.13-.06.13-.17V99.56a.29.29,0,0,0-.24-.32,5.09,5.09,0,0,1-2.71-1.31,3.12,3.12,0,0,1-.82-2.19,3,3,0,0,1,.91-2.19,4.68,4.68,0,0,1,2.56-1.19q.3-.08.3-.27v-.61a.25.25,0,0,1,.06-.16.18.18,0,0,1,.13-.06H6.7a.26.26,0,0,1,.29.3v.64q0,.1.21.15A6.83,6.83,0,0,1,10,93.55a.24.24,0,0,1,.12.21A.32.32,0,0,1,10,94L9.17,95a.29.29,0,0,1-.2.11A.34.34,0,0,1,8.72,95a3.07,3.07,0,0,0-.68-.5,3.38,3.38,0,0,0-.86-.35l-.06,0A.13.13,0,0,0,7,94.3V97a.23.23,0,0,0,0,.14.34.34,0,0,0,.16.07l.89.24a4.26,4.26,0,0,1,2,1.26,3,3,0,0,1,.75,2.05A3.2,3.2,0,0,1,9.86,103.14ZM5.42,94.28c0-.16-.07-.22-.21-.19a2,2,0,0,0-1.1.51,1.17,1.17,0,0,0-.38.88,1.12,1.12,0,0,0,.32.83,2.43,2.43,0,0,0,1,.55l.1,0c.15,0,.22-.11.22-.31Zm1.76,8.2A2.11,2.11,0,0,0,8.32,102a1.19,1.19,0,0,0,.41-.9,1.29,1.29,0,0,0-.36-.93,2.74,2.74,0,0,0-1.19-.59l-.09,0q-.12,0-.12.18v2.59Q7,102.51,7.18,102.48Z"/><path class="cls-1" d="M15.69,99.05c.71-.61,1.23-1.09,1.57-1.45a4.29,4.29,0,0,0,.71-1,1.87,1.87,0,0,0,.2-.88,1.41,1.41,0,0,0-.5-1.15,1.93,1.93,0,0,0-1.27-.42,2.14,2.14,0,0,0-1.24.39,3.94,3.94,0,0,0-1.1,1.29.2.2,0,0,1-.21.12.46.46,0,0,1-.22-.06l-1.42-.73a.38.38,0,0,1-.2-.29.46.46,0,0,1,.08-.24,5,5,0,0,1,4.47-2.51,5.52,5.52,0,0,1,2.26.43,3.3,3.3,0,0,1,2.07,3.17,3.25,3.25,0,0,1-.52,1.79,8,8,0,0,1-1.78,1.82l-3,2.32c-.06,0-.1.08-.1.11s.07.08.2.08h5c.2,0,.31.09.31.26v1.76c0,.19-.11.29-.32.29H12.35a.49.49,0,0,1-.29-.07.38.38,0,0,1-.08-.27v-1.23a.49.49,0,0,1,.13-.31,4.63,4.63,0,0,1,.61-.57Z"/><path class="cls-1" d="M29.92,92.91a5.21,5.21,0,0,1,1.76,2.16,7.69,7.69,0,0,1,.64,3.21,7.53,7.53,0,0,1-.63,3.19,5,5,0,0,1-1.76,2.12,4.8,4.8,0,0,1-5.12,0,4.87,4.87,0,0,1-1.76-2.12,7.35,7.35,0,0,1-.64-3.17,7.82,7.82,0,0,1,.64-3.23,5.15,5.15,0,0,1,1.77-2.16,4.36,4.36,0,0,1,2.55-.77A4.43,4.43,0,0,1,29.92,92.91Zm-1,8.49a6.92,6.92,0,0,0,.51-3.1A7.33,7.33,0,0,0,29,95.09a1.69,1.69,0,0,0-1.59-1,1.71,1.71,0,0,0-1.59,1,7.31,7.31,0,0,0-.52,3.2,6.81,6.81,0,0,0,.52,3.1,1.74,1.74,0,0,0,1.6.95A1.69,1.69,0,0,0,29,101.4Z"/><path class="cls-1" d="M34.23,104.09a.37.37,0,0,1-.09-.27V92.62q0-.3.27-.3h3.32a.54.54,0,0,1,.25,0,.39.39,0,0,1,.13.2l2.42,6.7c0,.08.06.13.11.13s.08,0,.11-.13l2.3-6.58c.07-.24.18-.36.36-.36h3.44c.16,0,.24.09.24.28v11.2a.41.41,0,0,1-.1.3.43.43,0,0,1-.3.09H44.62a.4.4,0,0,1-.26-.07.34.34,0,0,1-.07-.25v-8c0-.07,0-.11,0-.11s-.07,0-.1.13l-2.8,8a.32.32,0,0,1-.33.26H39.68a.32.32,0,0,1-.35-.26L36.56,96c0-.09-.07-.13-.1-.13s-.06,0-.06.15v7.85c0,.12,0,.2-.06.23a.32.32,0,0,1-.23.06H34.48A.34.34,0,0,1,34.23,104.09Z"/><path class="cls-2" d="M4.62,125.12a.17.17,0,0,1,0-.17l3.63-10a.36.36,0,0,1,.1-.15.26.26,0,0,1,.18,0H9.62a.29.29,0,0,1,.32.21L13.53,125V125c0,.11,0,.17-.15.17h-1a.21.21,0,0,1-.22-.14l-1-2.72,0-.08a.17.17,0,0,0-.12,0H7a.18.18,0,0,0-.17.11l-1,2.73a.2.2,0,0,1-.21.13H4.75A.14.14,0,0,1,4.62,125.12Zm6.05-4c.1,0,.14-.06.11-.18l-1.68-4.6c0-.09-.06-.13-.1-.13s-.07,0-.09.13L7.2,121l0,.09s0,.06.11.06Z"/><path class="cls-2" d="M15.23,125V118c0-.12,0-.18.16-.18h.84a.13.13,0,0,1,.15.15v.81c0,.11,0,.12.13,0a8.09,8.09,0,0,1,1.33-.88,3,3,0,0,1,1.24-.26,2.29,2.29,0,0,1,1.66.57,2,2,0,0,1,.6,1.54V125c0,.15-.07.23-.21.23h-.79c-.12,0-.18-.06-.18-.19v-5a1.5,1.5,0,0,0-.36-1.08,1.43,1.43,0,0,0-1.09-.38,2.34,2.34,0,0,0-1.09.26,6.8,6.8,0,0,0-1.21.87V125a.25.25,0,0,1-.05.16.23.23,0,0,1-.16,0h-.77C15.3,125.19,15.23,125.13,15.23,125Z"/><path class="cls-2" d="M30.38,117.86v.49a.29.29,0,0,1-.06.21.28.28,0,0,1-.22,0,1.82,1.82,0,0,0-.73.12c-.22.1-.31.2-.28.32a1.26,1.26,0,0,0,.09.21,2.89,2.89,0,0,1,.11.35,1.7,1.7,0,0,1,0,.4,2,2,0,0,1-.78,1.62,3.5,3.5,0,0,1-2.26.63,4.29,4.29,0,0,0-1.42.17c-.29.11-.44.26-.44.43s.1.25.3.32a3.6,3.6,0,0,0,1,.14l1.8.1a3,3,0,0,1,1.79.58,1.68,1.68,0,0,1,.59,1.37A1.87,1.87,0,0,1,29,127a4.88,4.88,0,0,1-2.65.61,5.75,5.75,0,0,1-2.71-.51,1.61,1.61,0,0,1-.93-1.47c0-.62.44-1.15,1.31-1.58q.16-.08,0-.15a.9.9,0,0,1-.64-.83.85.85,0,0,1,.29-.59,2.18,2.18,0,0,1,.82-.46s.07,0,.07-.07a.11.11,0,0,0-.07-.1,2.21,2.21,0,0,1-.91-.77,2,2,0,0,1-.3-1.1,2.07,2.07,0,0,1,.83-1.73,3.79,3.79,0,0,1,2.34-.63,3.25,3.25,0,0,1,2.1.63.25.25,0,0,0,.14.07.31.31,0,0,0,.15-.07,2.6,2.6,0,0,1,.62-.45,1.45,1.45,0,0,1,.7-.19C30.29,117.64,30.38,117.72,30.38,117.86Zm-5.32,6.42a1.19,1.19,0,0,0-.57.14,1.53,1.53,0,0,0-.55.46,1,1,0,0,0-.22.64,1.12,1.12,0,0,0,.68,1,4.52,4.52,0,0,0,2,.36c1.58,0,2.37-.47,2.37-1.4a1,1,0,0,0-.33-.77,1.74,1.74,0,0,0-1.07-.32Zm2.68-3.15a1.36,1.36,0,0,0,.49-1.14,1.48,1.48,0,0,0-.49-1.17,2.18,2.18,0,0,0-1.45-.42,2.24,2.24,0,0,0-1.44.42,1.47,1.47,0,0,0-.52,1.17,1.33,1.33,0,0,0,.52,1.13,2.26,2.26,0,0,0,1.44.4A2.26,2.26,0,0,0,27.74,121.13Z"/><path class="cls-2" d="M32.84,123.19a2.5,2.5,0,0,0,.89.91,2.36,2.36,0,0,0,1.23.33,2.49,2.49,0,0,0,2.18-1.16s.07-.06.1-.06a.13.13,0,0,1,.1,0l.59.29c.07,0,.08.11,0,.2a3.37,3.37,0,0,1-1.31,1.22,3.86,3.86,0,0,1-1.8.39,3.56,3.56,0,0,1-1.84-.48,3.26,3.26,0,0,1-1.26-1.34,4,4,0,0,1-.46-2,4.52,4.52,0,0,1,.46-2.08A3.37,3.37,0,0,1,33,118.1a3.56,3.56,0,0,1,1.81-.47,3.47,3.47,0,0,1,1.77.44,3,3,0,0,1,1.19,1.31,4.64,4.64,0,0,1,.42,2v.06a.49.49,0,0,1,0,.19.21.21,0,0,1-.17.06H32.64c-.09,0-.13.07-.13.21A2.49,2.49,0,0,0,32.84,123.19ZM36.79,121c.11,0,.17,0,.2,0s0-.07,0-.16a2.45,2.45,0,0,0-.26-1.14,2,2,0,0,0-.75-.84,2.14,2.14,0,0,0-1.16-.31,2.22,2.22,0,0,0-1.24.35,2.37,2.37,0,0,0-.82.93,2.64,2.64,0,0,0-.26,1.21Z"/><path class="cls-2" d="M41.05,125a.25.25,0,0,1-.06.19.29.29,0,0,1-.19,0h-.73a.25.25,0,0,1-.17,0s0-.07,0-.15V115c0-.13.06-.19.17-.19h.84c.11,0,.17.06.17.18Z"/><path class="cls-2" d="M8.75,132.05a3.84,3.84,0,0,1,1.38,1,3,3,0,0,1,.66,1.43v.1a.1.1,0,0,1,0,.08.13.13,0,0,1-.08,0l-1,.08h0a.09.09,0,0,1-.07,0,.23.23,0,0,1,0-.11,2.57,2.57,0,0,0-.87-1.45A2.39,2.39,0,0,0,7,132.68a2.59,2.59,0,0,0-2.25,1.09A5.53,5.53,0,0,0,4,137a5.36,5.36,0,0,0,.78,3.18,2.67,2.67,0,0,0,2.32,1.07,2.78,2.78,0,0,0,1.66-.48,3.32,3.32,0,0,0,1.07-1.52c0-.06.07-.08.16,0l.83.19c.07,0,.09.09.07.2a3.77,3.77,0,0,1-.73,1.32,4,4,0,0,1-1.31,1,4.11,4.11,0,0,1-1.81.39,4.28,4.28,0,0,1-2.38-.65,4.17,4.17,0,0,1-1.53-1.84A7.16,7.16,0,0,1,2.61,137a7.07,7.07,0,0,1,.53-2.85,4,4,0,0,1,1.51-1.83A4.19,4.19,0,0,1,7,131.66,4.08,4.08,0,0,1,8.75,132.05Z"/><path class="cls-2" d="M14.5,142.33a2.51,2.51,0,0,1-1.72-.56,1.87,1.87,0,0,1-.62-1.47,2,2,0,0,1,.95-1.77,5.41,5.41,0,0,1,2.73-.75l1.09-.09q.24,0,.24-.21v-.38a1.52,1.52,0,0,0-.47-1.19,1.73,1.73,0,0,0-1.26-.44,2.37,2.37,0,0,0-2,1.12l-.08.09a.17.17,0,0,1-.12,0l-.75-.25a.1.1,0,0,1-.07-.1.3.3,0,0,1,0-.13,2.89,2.89,0,0,1,1.2-1.15,3.82,3.82,0,0,1,1.84-.41,3.14,3.14,0,0,1,2.1.63,2.24,2.24,0,0,1,.73,1.76v5a.2.2,0,0,1,0,.16.19.19,0,0,1-.15.05h-.7c-.11,0-.18-.08-.2-.23l0-.64c0-.07,0-.1-.07-.1a.19.19,0,0,0-.13.07A3.5,3.5,0,0,1,14.5,142.33ZM17,138.41l-.91.08a4.75,4.75,0,0,0-2,.5,1.3,1.3,0,0,0-.7,1.17,1.17,1.17,0,0,0,.42,1,1.78,1.78,0,0,0,1.14.35,2.55,2.55,0,0,0,.86-.15,2.8,2.8,0,0,0,.74-.42,2.09,2.09,0,0,0,.5-.54,1.13,1.13,0,0,0,.17-.56v-1.16C17.17,138.48,17.1,138.41,17,138.41Z"/><path class="cls-2" d="M21.51,135v.59c0,.08,0,.12.07.12a.19.19,0,0,0,.12-.07,6.54,6.54,0,0,1,.51-.47,2.22,2.22,0,0,1,.66-.35,2.66,2.66,0,0,1,1-.17,3,3,0,0,1,1.58.42,2.89,2.89,0,0,1,1.09,1.26,4.7,4.7,0,0,1,.4,2.06,5.08,5.08,0,0,1-.4,2.12,3,3,0,0,1-1.13,1.37,3.06,3.06,0,0,1-1.69.47,3,3,0,0,1-2-.7.25.25,0,0,0-.15-.1c-.05,0-.07.06-.07.18v2.61c0,.12-.05.18-.16.18h-.86c-.11,0-.16-.06-.16-.18V135a.29.29,0,0,1,0-.17.26.26,0,0,1,.18,0h.74C21.45,134.77,21.51,134.84,21.51,135Zm.92,6.26a2.1,2.1,0,0,0,1,.23,2,2,0,0,0,1.69-.8,3.61,3.61,0,0,0,.64-2.29,3.24,3.24,0,0,0-.63-2.18,2.07,2.07,0,0,0-1.63-.72,2.12,2.12,0,0,0-1,.24,2,2,0,0,0-.7.63,1.26,1.26,0,0,0-.26.74v3.46A3.39,3.39,0,0,0,22.43,141.24Z"/><path class="cls-2" d="M29.94,133.17a.28.28,0,0,1-.06.2.21.21,0,0,1-.19.07h-.81q-.21,0-.21-.24V132c0-.15.06-.22.19-.22h.88a.2.2,0,0,1,.14,0,.21.21,0,0,1,.06.16ZM29.88,142a.26.26,0,0,1-.05.19.32.32,0,0,1-.2.05h-.71a.23.23,0,0,1-.17-.05s0-.07,0-.15v-7c0-.13.05-.19.17-.19h.85q.15,0,.15.18Z"/><path class="cls-2" d="M34,135.64c-.07,0-.11,0-.11.12v4.44a1.35,1.35,0,0,0,.21.87.87.87,0,0,0,.69.24h1c.11,0,.16.05.16.15l0,.48c0,.09,0,.15-.16.18a9.16,9.16,0,0,1-1.32.07,1.73,1.73,0,0,1-1.29-.42,1.79,1.79,0,0,1-.4-1.3v-4.68c0-.1,0-.15-.14-.15H31.47c-.11,0-.16,0-.16-.15v-.58a.12.12,0,0,1,.14-.14h1.19c.07,0,.1,0,.1-.12l.15-2.22c0-.12.06-.18.16-.18h.7c.11,0,.17.06.17.19v2.21c0,.08,0,.12.11.12h1.76c.11,0,.16,0,.16.12v.6c0,.1-.06.14-.16.14H34Z"/><path class="cls-2" d="M39.29,142.33a2.46,2.46,0,0,1-1.71-.56A1.85,1.85,0,0,1,37,140.3a2,2,0,0,1,.95-1.77,5.42,5.42,0,0,1,2.74-.75l1.09-.09q.24,0,.24-.21v-.38a1.56,1.56,0,0,0-.47-1.19,1.77,1.77,0,0,0-1.27-.44,2.38,2.38,0,0,0-2,1.12.24.24,0,0,1-.08.09.15.15,0,0,1-.11,0l-.76-.25a.11.11,0,0,1-.07-.1.58.58,0,0,1,0-.13,2.89,2.89,0,0,1,1.2-1.15,3.82,3.82,0,0,1,1.84-.41,3.1,3.1,0,0,1,2.1.63A2.21,2.21,0,0,1,43.1,137v5c0,.08,0,.14,0,.16a.22.22,0,0,1-.16.05h-.7c-.11,0-.17-.08-.19-.23l0-.64c0-.07,0-.1-.07-.1a.19.19,0,0,0-.13.07A3.46,3.46,0,0,1,39.29,142.33Zm2.47-3.92-.91.08a4.75,4.75,0,0,0-2,.5,1.31,1.31,0,0,0-.71,1.17,1.15,1.15,0,0,0,.43,1,1.74,1.74,0,0,0,1.14.35,2.5,2.5,0,0,0,.85-.15,2.8,2.8,0,0,0,.74-.42,2.09,2.09,0,0,0,.5-.54,1.05,1.05,0,0,0,.18-.56v-1.16C42,138.48,41.9,138.41,41.76,138.41Z"/><path class="cls-2" d="M46.33,142a.26.26,0,0,1,0,.19.32.32,0,0,1-.2.05h-.73a.2.2,0,0,1-.16-.05s0-.07,0-.15l0-10c0-.13.05-.19.17-.19h.84c.11,0,.16.06.16.18Z"/><path class="cls-3" d="M95.84,103.14a4.18,4.18,0,0,1-2.6,1.11.38.38,0,0,0-.22.06.32.32,0,0,0,0,.2v.57a.38.38,0,0,1-.09.28.4.4,0,0,1-.29.09h-.88c-.23,0-.34-.11-.34-.32v-.64a.27.27,0,0,0-.05-.19.25.25,0,0,0-.17,0,6,6,0,0,1-2-.42,5.57,5.57,0,0,1-1.61-1c-.16-.13-.24-.24-.24-.34a.25.25,0,0,1,.08-.17l1-1a.4.4,0,0,1,.26-.15.31.31,0,0,1,.2.11,3.85,3.85,0,0,0,2.37,1.27h.1c.08,0,.13-.06.13-.17V99.56a.29.29,0,0,0-.24-.32,5.09,5.09,0,0,1-2.71-1.31,3.12,3.12,0,0,1-.82-2.19,3,3,0,0,1,.91-2.19,4.68,4.68,0,0,1,2.56-1.19q.3-.08.3-.27v-.61a.25.25,0,0,1,.06-.16.18.18,0,0,1,.13-.06h1.09a.26.26,0,0,1,.29.3v.64q0,.1.21.15A6.83,6.83,0,0,1,96,93.55a.24.24,0,0,1,.12.21A.32.32,0,0,1,96,94L95.15,95a.29.29,0,0,1-.2.11A.34.34,0,0,1,94.7,95a3.07,3.07,0,0,0-.68-.5,3.38,3.38,0,0,0-.86-.35l-.06,0a.13.13,0,0,0-.15.15V97a.23.23,0,0,0,0,.14.34.34,0,0,0,.16.07l.89.24a4.26,4.26,0,0,1,2,1.26,3,3,0,0,1,.75,2.05A3.2,3.2,0,0,1,95.84,103.14ZM91.4,94.28c0-.16-.07-.22-.21-.19a2,2,0,0,0-1.1.51,1.17,1.17,0,0,0-.38.88,1.12,1.12,0,0,0,.32.83,2.43,2.43,0,0,0,1,.55.22.22,0,0,0,.1,0c.15,0,.22-.11.22-.31Zm1.76,8.2A2.11,2.11,0,0,0,94.3,102a1.19,1.19,0,0,0,.41-.9,1.29,1.29,0,0,0-.36-.93,2.74,2.74,0,0,0-1.19-.59l-.09,0q-.12,0-.12.18v2.59Q93,102.51,93.16,102.48Z"/><path class="cls-3" d="M105,102.36v1.55a.3.3,0,0,1-.08.2.33.33,0,0,1-.24.08H98.33c-.2,0-.3-.09-.3-.28v-1.55q0-.24.27-.24H100c.12,0,.18,0,.18-.11V95.29a.15.15,0,0,0-.23-.18l-1.55.47-.11,0c-.16,0-.24-.11-.24-.32V94.22a.41.41,0,0,1,0-.23.45.45,0,0,1,.19-.15l2.67-1.33a1.54,1.54,0,0,1,.36-.15,1,1,0,0,1,.31,0h1.11a.19.19,0,0,1,.17.08.27.27,0,0,1,.07.2V102c0,.11,0,.16.14.16h1.6C104.87,102.12,105,102.2,105,102.36Z"/><path class="cls-3" d="M106.49,94a.41.41,0,0,1,.06-.19,4.43,4.43,0,0,1,1.76-1.22,6.38,6.38,0,0,1,2.39-.44,6.69,6.69,0,0,1,2.39.39,3.42,3.42,0,0,1,1.55,1.09,2.59,2.59,0,0,1,.54,1.62,2.47,2.47,0,0,1-.5,1.48,2.59,2.59,0,0,1-1.39,1c-.13,0-.19.1-.19.16s.06.1.17.13a3.47,3.47,0,0,1,1.65,1.07,2.54,2.54,0,0,1,.63,1.7,3.11,3.11,0,0,1-1.28,2.67,6.32,6.32,0,0,1-3.76.93,6.13,6.13,0,0,1-2.57-.54,4.6,4.6,0,0,1-1.87-1.45.37.37,0,0,1-.08-.2c0-.09.06-.17.18-.26l1.25-.88a.48.48,0,0,1,.21-.1.16.16,0,0,1,.14.08,5,5,0,0,0,1.38,1.07,3.38,3.38,0,0,0,1.52.31,2.58,2.58,0,0,0,1.56-.43,1.38,1.38,0,0,0,.56-1.14,1.48,1.48,0,0,0-.63-1.25,2.68,2.68,0,0,0-1.59-.48l-1.38,0c-.18,0-.27-.07-.27-.22V97.32c0-.11.09-.19.27-.22l1.11,0a2.56,2.56,0,0,0,1.54-.47,1.4,1.4,0,0,0,.6-1.15,1.19,1.19,0,0,0-.5-1,2,2,0,0,0-1.27-.4,3.29,3.29,0,0,0-1.35.28,4.74,4.74,0,0,0-1.25.91.31.31,0,0,1-.17.11.71.71,0,0,1-.18-.11l-1.17-1.09A.23.23,0,0,1,106.49,94Z"/><path class="cls-3" d="M124.41,92.91a5.13,5.13,0,0,1,1.76,2.16,8.38,8.38,0,0,1,0,6.4,5,5,0,0,1-1.75,2.12,4.82,4.82,0,0,1-5.13,0,4.94,4.94,0,0,1-1.76-2.12,7.5,7.5,0,0,1-.63-3.17,7.66,7.66,0,0,1,.64-3.23,5.06,5.06,0,0,1,1.76-2.16,4.61,4.61,0,0,1,5.1,0Zm-1,8.49a6.92,6.92,0,0,0,.51-3.1,7.33,7.33,0,0,0-.52-3.21,1.75,1.75,0,0,0-3.17,0,7.14,7.14,0,0,0-.53,3.2,6.66,6.66,0,0,0,.53,3.1,1.72,1.72,0,0,0,1.6.95A1.69,1.69,0,0,0,123.45,101.4Z"/><path class="cls-3" d="M128.72,104.09a.37.37,0,0,1-.09-.27V92.62c0-.2.09-.3.28-.3h3.31a.54.54,0,0,1,.25,0,.34.34,0,0,1,.13.2l2.42,6.7c0,.08.07.13.11.13s.08,0,.11-.13l2.3-6.58q.11-.36.36-.36h3.44c.16,0,.24.09.24.28v11.2a.34.34,0,0,1-.4.39h-2.07a.4.4,0,0,1-.26-.07.34.34,0,0,1-.07-.25v-8c0-.07,0-.11-.05-.11s-.06,0-.1.13l-2.8,8a.32.32,0,0,1-.33.26h-1.33a.32.32,0,0,1-.35-.26L131.05,96c0-.09-.07-.13-.1-.13s-.06,0-.06.15v7.85c0,.12,0,.2-.06.23a.32.32,0,0,1-.23.06H129A.34.34,0,0,1,128.72,104.09Z"/><path class="cls-2" d="M97.94,114.86a.14.14,0,0,1,0,.14l-3.54,10a.41.41,0,0,1-.11.16.37.37,0,0,1-.2,0h-.95c-.19,0-.3-.07-.34-.2l-3.47-10a.15.15,0,0,1,0-.07c0-.09,0-.14.17-.14h1a.25.25,0,0,1,.24.17l2.91,8.48c0,.09.06.13.1.13s.07,0,.11-.14l3-8.49a.18.18,0,0,1,.21-.15h.82C97.88,114.8,97.92,114.82,97.94,114.86Z"/><path class="cls-2" d="M99.93,123.19a2.59,2.59,0,0,0,.89.91,2.39,2.39,0,0,0,1.23.33,2.51,2.51,0,0,0,2.19-1.16.14.14,0,0,1,.1-.06.11.11,0,0,1,.09,0l.59.29c.08,0,.09.11,0,.2a3.35,3.35,0,0,1-1.3,1.22,3.93,3.93,0,0,1-1.81.39,3.52,3.52,0,0,1-1.83-.48,3.28,3.28,0,0,1-1.27-1.34,4.14,4.14,0,0,1-.45-2,4.4,4.4,0,0,1,.46-2.08,3.41,3.41,0,0,1,1.26-1.37,3.6,3.6,0,0,1,1.82-.47,3.52,3.52,0,0,1,1.77.44,3,3,0,0,1,1.18,1.31,4.64,4.64,0,0,1,.42,2v.06a.36.36,0,0,1,0,.19.19.19,0,0,1-.17.06H99.73c-.08,0-.13.07-.13.21A2.49,2.49,0,0,0,99.93,123.19Zm4-2.23c.1,0,.17,0,.19,0s0-.07,0-.16a2.58,2.58,0,0,0-.26-1.14,2.06,2.06,0,0,0-1.91-1.15,2.23,2.23,0,0,0-1.25.35,2.34,2.34,0,0,0-.81.93,2.52,2.52,0,0,0-.27,1.21Z"/><path class="cls-2" d="M107,125V118c0-.12,0-.18.16-.18H108a.13.13,0,0,1,.15.15v.81c0,.11,0,.12.13,0a8.09,8.09,0,0,1,1.33-.88,3,3,0,0,1,1.24-.26,2.29,2.29,0,0,1,1.66.57,2,2,0,0,1,.6,1.54V125c0,.15-.07.23-.21.23h-.79c-.12,0-.18-.06-.18-.19v-5a1.5,1.5,0,0,0-.36-1.08,1.43,1.43,0,0,0-1.09-.38,2.34,2.34,0,0,0-1.09.26,6.8,6.8,0,0,0-1.21.87V125a.25.25,0,0,1,0,.16.23.23,0,0,1-.16,0h-.77C107,125.19,107,125.13,107,125Z"/><path class="cls-2" d="M117.09,118.64c-.07,0-.11,0-.11.12v4.44a1.35,1.35,0,0,0,.21.87.86.86,0,0,0,.68.24h1a.13.13,0,0,1,.15.15v.48c0,.09-.06.15-.17.18a9,9,0,0,1-1.31.07,1.73,1.73,0,0,1-1.29-.42,1.79,1.79,0,0,1-.41-1.3v-4.68c0-.1,0-.15-.14-.15h-1.12a.13.13,0,0,1-.15-.15v-.58c0-.1,0-.14.14-.14h1.19c.06,0,.1,0,.1-.12l.15-2.22q0-.18.15-.18h.7c.12,0,.17.06.17.19v2.21c0,.08,0,.12.11.12h1.77q.15,0,.15.12v.6c0,.1,0,.14-.15.14h-1.78Z"/><path class="cls-2" d="M124.19,124.09a5.17,5.17,0,0,0,1.13-.9V118c0-.13.08-.19.23-.19h.77a.17.17,0,0,1,.19.19l0,7.05q0,.18-.15.18h-.81a.14.14,0,0,1-.16-.16v-.82c0-.11,0-.13-.12,0a5.58,5.58,0,0,1-1.34.9,3.06,3.06,0,0,1-1.21.26,2.28,2.28,0,0,1-1.61-.59,2,2,0,0,1-.63-1.55V118a.19.19,0,0,1,.21-.21h.78a.17.17,0,0,1,.19.19v4.92A1.61,1.61,0,0,0,122,124a1.4,1.4,0,0,0,1.06.41A2.2,2.2,0,0,0,124.19,124.09Z"/><path class="cls-2" d="M128.65,125V118c0-.12,0-.18.16-.18h.81a.13.13,0,0,1,.15.15v.91c0,.06,0,.09,0,.1s.07,0,.11-.06a2.93,2.93,0,0,1,2.17-1.24c.32,0,.49.06.49.18v.84c0,.09,0,.13-.13.11a3.77,3.77,0,0,0-.63,0,2,2,0,0,0-.88.24,2.43,2.43,0,0,0-.8.61,1.2,1.2,0,0,0-.32.77V125a.19.19,0,0,1-.21.21h-.77C128.72,125.19,128.65,125.13,128.65,125Z"/><path class="cls-2" d="M135,123.19a2.5,2.5,0,0,0,.89.91,2.36,2.36,0,0,0,1.23.33,2.49,2.49,0,0,0,2.18-1.16s.07-.06.1-.06a.13.13,0,0,1,.1,0l.59.29c.07,0,.08.11,0,.2a3.28,3.28,0,0,1-1.3,1.22,3.87,3.87,0,0,1-1.81.39,3.52,3.52,0,0,1-1.83-.48,3.35,3.35,0,0,1-1.27-1.34,4.14,4.14,0,0,1-.45-2,4.4,4.4,0,0,1,.46-2.08,3.37,3.37,0,0,1,1.27-1.37,3.56,3.56,0,0,1,1.81-.47,3.52,3.52,0,0,1,1.77.44,3,3,0,0,1,1.18,1.31,4.64,4.64,0,0,1,.42,2v.06a.36.36,0,0,1,0,.19s-.08.06-.17.06h-5.36q-.12,0-.12.21A2.49,2.49,0,0,0,135,123.19Zm4-2.23a.31.31,0,0,0,.2,0,.24.24,0,0,0,0-.16,2.58,2.58,0,0,0-.26-1.14,2.05,2.05,0,0,0-.76-.84,2.08,2.08,0,0,0-1.15-.31,2.26,2.26,0,0,0-1.25.35,2.42,2.42,0,0,0-.81.93,2.65,2.65,0,0,0-.27,1.21Z"/><path class="cls-2" d="M99,132.05a4,4,0,0,1,1.38,1,2.86,2.86,0,0,1,.65,1.43l0,.1a.08.08,0,0,1,0,.08.11.11,0,0,1-.07,0l-1.05.08h0a.09.09,0,0,1-.07,0,.23.23,0,0,1,0-.11,2.57,2.57,0,0,0-.87-1.45,2.39,2.39,0,0,0-1.6-.55A2.56,2.56,0,0,0,95,133.77a5.53,5.53,0,0,0-.78,3.24,5.36,5.36,0,0,0,.78,3.18,2.65,2.65,0,0,0,2.31,1.07,2.74,2.74,0,0,0,1.66-.48,3.32,3.32,0,0,0,1.07-1.52c0-.06.08-.08.17,0l.83.19c.06,0,.09.09.07.2a3.93,3.93,0,0,1-.73,1.32,4.1,4.1,0,0,1-1.32,1,4,4,0,0,1-1.8.39,4.26,4.26,0,0,1-2.38-.65,4.11,4.11,0,0,1-1.53-1.84,7.16,7.16,0,0,1-.53-2.86,7.08,7.08,0,0,1,.52-2.85,4,4,0,0,1,1.52-1.83,4.16,4.16,0,0,1,2.34-.64A4.11,4.11,0,0,1,99,132.05Z"/><path class="cls-2" d="M104.73,142.33a2.48,2.48,0,0,1-1.71-.56,1.84,1.84,0,0,1-.62-1.47,2,2,0,0,1,.94-1.77,5.42,5.42,0,0,1,2.74-.75l1.09-.09q.24,0,.24-.21v-.38a1.56,1.56,0,0,0-.47-1.19,1.75,1.75,0,0,0-1.27-.44,2.35,2.35,0,0,0-2,1.12l-.09.09a.15.15,0,0,1-.11,0l-.76-.25a.11.11,0,0,1-.07-.1.36.36,0,0,1,.05-.13,2.93,2.93,0,0,1,1.19-1.15,3.82,3.82,0,0,1,1.84-.41,3.1,3.1,0,0,1,2.1.63,2.21,2.21,0,0,1,.73,1.76v5c0,.08,0,.14,0,.16a.21.21,0,0,1-.15.05h-.7c-.12,0-.18-.08-.2-.23l0-.64c0-.07,0-.1-.07-.1a.15.15,0,0,0-.12.07A3.5,3.5,0,0,1,104.73,142.33Zm2.47-3.92-.91.08a4.75,4.75,0,0,0-2,.5,1.31,1.31,0,0,0-.71,1.17,1.17,1.17,0,0,0,.43,1,1.74,1.74,0,0,0,1.14.35,2.5,2.5,0,0,0,.85-.15,3,3,0,0,0,.75-.42,2,2,0,0,0,.49-.54,1.05,1.05,0,0,0,.18-.56v-1.16C107.41,138.48,107.34,138.41,107.2,138.41Z"/><path class="cls-2" d="M111.75,135v.59c0,.08,0,.12.07.12s.06,0,.11-.07.37-.35.52-.47a2.22,2.22,0,0,1,.66-.35,2.66,2.66,0,0,1,1-.17,3,3,0,0,1,1.57.42,2.84,2.84,0,0,1,1.1,1.26,4.85,4.85,0,0,1,.39,2.06,5.25,5.25,0,0,1-.39,2.12,2.94,2.94,0,0,1-2.83,1.84,2.94,2.94,0,0,1-2-.7c-.07-.07-.12-.1-.16-.1s-.07.06-.07.18v2.61q0,.18-.15.18h-.87q-.15,0-.15-.18V135a.23.23,0,0,1,0-.17.25.25,0,0,1,.17,0h.74A.18.18,0,0,1,111.75,135Zm.92,6.26a2.08,2.08,0,0,0,1,.23,2,2,0,0,0,1.68-.8,3.55,3.55,0,0,0,.64-2.29,3.24,3.24,0,0,0-.63-2.18,2.05,2.05,0,0,0-1.62-.72,2,2,0,0,0-1.72.87,1.33,1.33,0,0,0-.26.74v3.46A3.27,3.27,0,0,0,112.67,141.24Z"/><path class="cls-2" d="M120.18,133.17a.28.28,0,0,1-.06.2.23.23,0,0,1-.2.07h-.81q-.21,0-.21-.24V132c0-.15.07-.22.2-.22H120a.22.22,0,0,1,.14,0,.21.21,0,0,1,.06.16Zm-.06,8.78a.25.25,0,0,1-.06.19.29.29,0,0,1-.19.05h-.72a.2.2,0,0,1-.16-.05s0-.07,0-.15v-7c0-.13.06-.19.17-.19H120q.15,0,.15.18v7Z"/><path class="cls-2" d="M124.25,135.64c-.07,0-.11,0-.11.12v4.44a1.35,1.35,0,0,0,.21.87.87.87,0,0,0,.69.24h1a.13.13,0,0,1,.15.15v.48c0,.09-.06.15-.17.18a9,9,0,0,1-1.31.07,1.73,1.73,0,0,1-1.29-.42,1.79,1.79,0,0,1-.41-1.3v-4.68c0-.1,0-.15-.14-.15H121.7a.13.13,0,0,1-.15-.15v-.58a.12.12,0,0,1,.14-.14h1.19c.06,0,.1,0,.1-.12l.15-2.22c0-.12.05-.18.16-.18H124c.12,0,.17.06.17.19v2.21c0,.08,0,.12.11.12H126q.15,0,.15.12v.6c0,.1-.05.14-.15.14h-1.78Z"/><path class="cls-2" d="M129.53,142.33a2.51,2.51,0,0,1-1.72-.56,1.87,1.87,0,0,1-.62-1.47,2,2,0,0,1,.94-1.77,5.45,5.45,0,0,1,2.74-.75l1.09-.09q.24,0,.24-.21v-.38a1.52,1.52,0,0,0-.47-1.19,1.74,1.74,0,0,0-1.27-.44,2.35,2.35,0,0,0-2,1.12l-.09.09a.15.15,0,0,1-.11,0l-.75-.25a.1.1,0,0,1-.07-.1.3.3,0,0,1,0-.13,2.89,2.89,0,0,1,1.2-1.15,3.79,3.79,0,0,1,1.84-.41,3.14,3.14,0,0,1,2.1.63,2.23,2.23,0,0,1,.72,1.76v5c0,.08,0,.14,0,.16a.19.19,0,0,1-.15.05h-.7c-.11,0-.18-.08-.2-.23l0-.64c0-.07,0-.1-.07-.1a.19.19,0,0,0-.13.07A3.5,3.5,0,0,1,129.53,142.33Zm2.46-3.92-.91.08a4.75,4.75,0,0,0-2,.5,1.3,1.3,0,0,0-.7,1.17,1.17,1.17,0,0,0,.42,1,1.79,1.79,0,0,0,1.15.35,2.54,2.54,0,0,0,.85-.15,2.8,2.8,0,0,0,.74-.42,2.09,2.09,0,0,0,.5-.54,1.13,1.13,0,0,0,.17-.56v-1.16C132.2,138.48,132.13,138.41,132,138.41Z"/><path class="cls-2" d="M136.57,142a.25.25,0,0,1-.06.19.29.29,0,0,1-.19.05h-.73a.23.23,0,0,1-.17-.05s0-.07,0-.15V132c0-.13.06-.19.17-.19h.84c.11,0,.17.06.17.18v10Z"/><path class="cls-4" d="M195.27,103.14a4.18,4.18,0,0,1-2.6,1.11.41.41,0,0,0-.22.06.32.32,0,0,0,0,.2v.57a.38.38,0,0,1-.09.28.37.37,0,0,1-.29.09h-.88c-.23,0-.34-.11-.34-.32v-.64a.27.27,0,0,0-.05-.19.25.25,0,0,0-.17,0,6,6,0,0,1-2-.42,5.57,5.57,0,0,1-1.61-1c-.16-.13-.24-.24-.24-.34a.25.25,0,0,1,.08-.17l1-1a.4.4,0,0,1,.26-.15.36.36,0,0,1,.21.11,3.82,3.82,0,0,0,2.36,1.27h.1c.09,0,.13-.06.13-.17V99.56a.4.4,0,0,0,0-.2.38.38,0,0,0-.2-.12,5.13,5.13,0,0,1-2.71-1.31,3.12,3.12,0,0,1-.82-2.19,3,3,0,0,1,.91-2.19,4.68,4.68,0,0,1,2.56-1.19c.2,0,.31-.14.31-.27v-.61a.24.24,0,0,1,0-.16.18.18,0,0,1,.14-.06h1.09c.19,0,.28.1.28.3v.64q0,.1.21.15a6.77,6.77,0,0,1,2.77,1.2.23.23,0,0,1,.13.21.41.41,0,0,1-.08.19L194.58,95a.27.27,0,0,1-.19.11.36.36,0,0,1-.26-.13,2.85,2.85,0,0,0-.68-.5,3.47,3.47,0,0,0-.85-.35l-.07,0c-.09,0-.14,0-.14.15V97a.18.18,0,0,0,0,.14.35.35,0,0,0,.15.07l.9.24a4.23,4.23,0,0,1,2,1.26,3,3,0,0,1,.75,2.05A3.2,3.2,0,0,1,195.27,103.14Zm-4.43-8.86c0-.16-.07-.22-.21-.19a2.05,2.05,0,0,0-1.11.51,1.2,1.2,0,0,0-.38.88,1.12,1.12,0,0,0,.32.83,2.43,2.43,0,0,0,1,.55l.1,0c.15,0,.23-.11.23-.31Zm1.76,8.2a2.08,2.08,0,0,0,1.13-.45,1.17,1.17,0,0,0,.42-.9,1.26,1.26,0,0,0-.37-.93,2.7,2.7,0,0,0-1.18-.59l-.1,0c-.07,0-.11.06-.11.18v2.59Q192.39,102.51,192.6,102.48Z"/><path class="cls-4" d="M204.4,102.36v1.55a.26.26,0,0,1-.08.2.33.33,0,0,1-.24.08h-6.32c-.2,0-.3-.09-.3-.28v-1.55q0-.24.27-.24h1.67c.11,0,.17,0,.17-.11V95.29c0-.08,0-.14,0-.17a.22.22,0,0,0-.17,0l-1.55.47-.12,0c-.16,0-.24-.11-.24-.32V94.22a.41.41,0,0,1,.05-.23.52.52,0,0,1,.19-.15l2.67-1.33a1.43,1.43,0,0,1,.37-.15,1,1,0,0,1,.31,0h1.1a.21.21,0,0,1,.18.08.32.32,0,0,1,.06.2V102c0,.11,0,.16.14.16h1.6C204.31,102.12,204.4,102.2,204.4,102.36Z"/><path class="cls-4" d="M212.59,92.59a3.88,3.88,0,0,1,1.57,1.18,2.8,2.8,0,0,1,.56,1.7,2.59,2.59,0,0,1-1.53,2.21c-.09,0-.13.1-.13.14s0,.1.11.14a4.63,4.63,0,0,1,1.61,1.29,2.75,2.75,0,0,1,.47,1.58,3,3,0,0,1-.62,1.89,3.88,3.88,0,0,1-1.76,1.21,7.44,7.44,0,0,1-2.61.42,6.16,6.16,0,0,1-3.39-.82,2.57,2.57,0,0,1-1.27-2.27,2.54,2.54,0,0,1,.42-1.44,4.06,4.06,0,0,1,1.42-1.18l.09-.06c.05,0,.07-.06.07-.09s0-.09-.12-.14a4.15,4.15,0,0,1-1.15-1.08,2.52,2.52,0,0,1-.41-1.47,3.25,3.25,0,0,1,.55-1.83A3.73,3.73,0,0,1,208,92.64a5.33,5.33,0,0,1,2.33-.48A5.44,5.44,0,0,1,212.59,92.59Zm-.66,9.52a1.35,1.35,0,0,0,.26-1.92,2.08,2.08,0,0,0-1-.55l-1.52-.44a.68.68,0,0,0-.21,0,1.25,1.25,0,0,0-.67.23,1.86,1.86,0,0,0-.57.61,1.61,1.61,0,0,0-.23.84,1.44,1.44,0,0,0,.6,1.24,3.21,3.21,0,0,0,1.83.43A2.58,2.58,0,0,0,211.93,102.11Zm-2.85-7.71a1.28,1.28,0,0,0-.53,1.07,1.19,1.19,0,0,0,.28.81,1.64,1.64,0,0,0,.82.48l1.28.37.15,0a.94.94,0,0,0,.59-.25,2,2,0,0,0,.5-.62,1.62,1.62,0,0,0,.2-.75,1.36,1.36,0,0,0-.53-1.09,2.18,2.18,0,0,0-1.45-.44A2,2,0,0,0,209.08,94.4Z"/><path class="cls-4" d="M224.1,92.91a5.13,5.13,0,0,1,1.76,2.16,8.38,8.38,0,0,1,0,6.4,5,5,0,0,1-1.75,2.12,4.82,4.82,0,0,1-5.13,0,4.94,4.94,0,0,1-1.76-2.12,7.5,7.5,0,0,1-.63-3.17,7.66,7.66,0,0,1,.64-3.23A5.06,5.06,0,0,1,219,92.91a4.61,4.61,0,0,1,5.1,0Zm-1,8.49a6.92,6.92,0,0,0,.51-3.1,7.33,7.33,0,0,0-.52-3.21,1.75,1.75,0,0,0-3.17,0,7.14,7.14,0,0,0-.53,3.2,6.66,6.66,0,0,0,.53,3.1,1.72,1.72,0,0,0,1.6.95A1.69,1.69,0,0,0,223.14,101.4Z"/><path class="cls-4" d="M228.41,104.09a.37.37,0,0,1-.09-.27V92.62q0-.3.27-.3h3.32a.54.54,0,0,1,.25,0,.34.34,0,0,1,.13.2l2.42,6.7c0,.08.07.13.11.13s.08,0,.11-.13l2.3-6.58c.07-.24.18-.36.36-.36H241c.16,0,.24.09.24.28v11.2a.41.41,0,0,1-.1.3.46.46,0,0,1-.31.09H238.8a.4.4,0,0,1-.26-.07.34.34,0,0,1-.08-.25v-8c0-.07,0-.11,0-.11s-.07,0-.1.13l-2.8,8a.33.33,0,0,1-.34.26h-1.32a.34.34,0,0,1-.36-.26L230.74,96c0-.09-.07-.13-.1-.13s-.06,0-.06.15v7.85c0,.12,0,.2-.06.23a.33.33,0,0,1-.23.06h-1.63A.34.34,0,0,1,228.41,104.09Z"/><path class="cls-2" d="M198.72,120.08a4.3,4.3,0,0,1-2.69.77h-2.38c-.08,0-.13,0-.13.12v4a.19.19,0,0,1-.21.21h-.95a.16.16,0,0,1-.18-.18V115a.28.28,0,0,1,0-.15.18.18,0,0,1,.14,0h3.52a4.75,4.75,0,0,1,2.81.75,3,3,0,0,1,0,4.53Zm-1-3.8a3.2,3.2,0,0,0-1.88-.46H193.7c-.12,0-.18.06-.18.17v3.64a.26.26,0,0,0,0,.15.11.11,0,0,0,.1,0h2.25a2.83,2.83,0,0,0,1.8-.51,1.81,1.81,0,0,0,.65-1.53A1.71,1.71,0,0,0,197.69,116.28Z"/><path class="cls-2" d="M201.56,125V118q0-.18.15-.18h.81c.11,0,.16,0,.16.15v.91c0,.06,0,.09,0,.1s.07,0,.1-.06a2.93,2.93,0,0,1,2.17-1.24c.33,0,.49.06.49.18v.84c0,.09,0,.13-.12.11a3.77,3.77,0,0,0-.63,0,2,2,0,0,0-.89.24,2.39,2.39,0,0,0-.79.61,1.17,1.17,0,0,0-.33.77V125a.19.19,0,0,1-.21.21h-.77C201.62,125.19,201.56,125.13,201.56,125Z"/><path class="cls-2" d="M208.15,116.17a.34.34,0,0,1-.05.2.24.24,0,0,1-.2.07h-.81q-.21,0-.21-.24V115c0-.15.06-.22.19-.22H208a.24.24,0,0,1,.14,0,.25.25,0,0,1,.05.16ZM208.1,125a.25.25,0,0,1-.06.19.31.31,0,0,1-.19,0h-.72a.25.25,0,0,1-.17,0,.22.22,0,0,1,0-.15v-7c0-.13.06-.19.17-.19h.85c.11,0,.16.06.16.18Z"/><path class="cls-2" d="M216.43,117.83a.12.12,0,0,1,0,.13l-2.84,7a.31.31,0,0,1-.32.21h-.51a.35.35,0,0,1-.35-.2l-2.83-7a.15.15,0,0,1,0-.07c0-.1.06-.14.17-.14h.87a.23.23,0,0,1,.22.15l2.2,5.5c0,.1.06.14.1.14s.08,0,.12-.15l2.19-5.49a.2.2,0,0,1,.21-.15h.64C216.37,117.77,216.41,117.79,216.43,117.83Z"/><path class="cls-2" d="M219.75,125.33a2.49,2.49,0,0,1-1.72-.56,1.84,1.84,0,0,1-.62-1.47,2,2,0,0,1,.94-1.77,5.42,5.42,0,0,1,2.74-.75l1.09-.09q.24,0,.24-.21v-.38a1.56,1.56,0,0,0-.47-1.19,1.75,1.75,0,0,0-1.27-.44,2.35,2.35,0,0,0-2,1.12.38.38,0,0,1-.09.09.15.15,0,0,1-.11,0l-.76-.25a.11.11,0,0,1-.07-.1.36.36,0,0,1,.05-.13,2.81,2.81,0,0,1,1.19-1.15,3.82,3.82,0,0,1,1.84-.41,3.1,3.1,0,0,1,2.1.63,2.21,2.21,0,0,1,.73,1.76v5c0,.08,0,.14,0,.16a.21.21,0,0,1-.15,0h-.7c-.12,0-.18-.08-.2-.23l0-.64c0-.07,0-.1-.07-.1a.17.17,0,0,0-.12.07A3.5,3.5,0,0,1,219.75,125.33Zm2.46-3.92-.91.08a4.75,4.75,0,0,0-2,.5,1.31,1.31,0,0,0-.71,1.17,1.15,1.15,0,0,0,.43,1,1.76,1.76,0,0,0,1.14.35,2.6,2.6,0,0,0,.86-.15,3.15,3.15,0,0,0,.74-.42,2,2,0,0,0,.49-.54,1.05,1.05,0,0,0,.18-.56v-1.16C222.42,121.48,222.35,121.41,222.21,121.41Z"/><path class="cls-2" d="M227.56,118.64c-.08,0-.11,0-.11.12v4.44a1.42,1.42,0,0,0,.2.87.89.89,0,0,0,.69.24h1a.13.13,0,0,1,.15.15v.48c0,.09-.06.15-.17.18a9.06,9.06,0,0,1-1.32.07,1.72,1.72,0,0,1-1.28-.42,1.79,1.79,0,0,1-.41-1.3v-4.68c0-.1-.05-.15-.14-.15H225a.13.13,0,0,1-.15-.15v-.58c0-.1,0-.14.14-.14h1.19q.09,0,.09-.12l.16-2.22q0-.18.15-.18h.7c.11,0,.17.06.17.19v2.21c0,.08,0,.12.11.12h1.77q.15,0,.15.12v.6c0,.1-.05.14-.15.14h-1.78Z"/><path class="cls-2" d="M232,123.19a2.5,2.5,0,0,0,.89.91,2.36,2.36,0,0,0,1.23.33,2.49,2.49,0,0,0,2.18-1.16s.07-.06.1-.06a.13.13,0,0,1,.1,0l.59.29c.07,0,.08.11,0,.2a3.28,3.28,0,0,1-1.3,1.22,3.87,3.87,0,0,1-1.81.39,3.52,3.52,0,0,1-1.83-.48,3.35,3.35,0,0,1-1.27-1.34,4.14,4.14,0,0,1-.45-2,4.4,4.4,0,0,1,.46-2.08,3.37,3.37,0,0,1,1.27-1.37,3.75,3.75,0,0,1,3.58,0,3,3,0,0,1,1.18,1.31,4.64,4.64,0,0,1,.42,2v.06a.36.36,0,0,1,0,.19s-.08.06-.17.06h-5.36q-.12,0-.12.21A2.49,2.49,0,0,0,232,123.19Zm4-2.23a.31.31,0,0,0,.2,0,.24.24,0,0,0,0-.16,2.58,2.58,0,0,0-.26-1.14,2.05,2.05,0,0,0-.76-.84,2.08,2.08,0,0,0-1.15-.31,2.26,2.26,0,0,0-1.25.35,2.42,2.42,0,0,0-.81.93,2.65,2.65,0,0,0-.27,1.21Z"/><path class="cls-2" d="M195,135.84s.06,0,.13,0h6.28c.1,0,.14,0,.14.15v.72c0,.11-.06.17-.18.17h-4.88a.24.24,0,0,0-.15,0,.2.2,0,0,0,0,.13v3.28a.14.14,0,0,0,.16.15h3.63c.1,0,.15,0,.15.16v.74q0,.12-.15.12h-3.63a.14.14,0,0,0-.16.16V145a.14.14,0,0,0,0,.11.16.16,0,0,0,.11,0h5.14a.17.17,0,0,1,.12,0s0,0,0,.11V146a.14.14,0,0,1-.16.15h-6.42a.22.22,0,0,1-.16,0,.21.21,0,0,1,0-.15V136A.21.21,0,0,1,195,135.84Z"/><path class="cls-2" d="M209.51,138.77a.22.22,0,0,1,.16,0,.26.26,0,0,1,.05.19v9.31c0,.12-.05.18-.17.18h-.85q-.15,0-.15-.18v-2.58c0-.13,0-.19-.06-.19a.27.27,0,0,0-.15.08,3.82,3.82,0,0,1-.94.5,3.29,3.29,0,0,1-1.14.2,3,3,0,0,1-1.69-.48,3.08,3.08,0,0,1-1.1-1.35,5,5,0,0,1-.39-2.05,4.81,4.81,0,0,1,.39-2,3.13,3.13,0,0,1,1.11-1.34,3.09,3.09,0,0,1,1.71-.47,2.93,2.93,0,0,1,1.42.28,3.44,3.44,0,0,1,.89.71c.05,0,.08.07.09.07s.05,0,.06-.11l.1-.59a.38.38,0,0,1,.08-.17s.09,0,.18,0Zm-1,2.5a1.7,1.7,0,0,0-.26-.89,2,2,0,0,0-.72-.68,2.09,2.09,0,0,0-1-.25,2.06,2.06,0,0,0-1.64.77,3.34,3.34,0,0,0-.64,2.22,3.49,3.49,0,0,0,.63,2.24,2,2,0,0,0,1.66.79,2.6,2.6,0,0,0,2-.89v-3.31Z"/><path class="cls-2" d="M215.52,145.09a5.17,5.17,0,0,0,1.13-.9V139c0-.13.08-.19.23-.19h.77a.17.17,0,0,1,.19.19l0,7q0,.18-.15.18h-.81a.14.14,0,0,1-.16-.16v-.82c0-.11,0-.13-.12,0a5.58,5.58,0,0,1-1.34.9,3.06,3.06,0,0,1-1.21.26,2.28,2.28,0,0,1-1.61-.59,2,2,0,0,1-.63-1.55V139a.19.19,0,0,1,.21-.21h.78a.17.17,0,0,1,.19.19v4.92a1.61,1.61,0,0,0,.38,1.11,1.4,1.4,0,0,0,1.06.41A2.2,2.2,0,0,0,215.52,145.09Z"/><path class="cls-2" d="M221.22,137.17a.28.28,0,0,1-.06.2.23.23,0,0,1-.2.07h-.81q-.21,0-.21-.24V136c0-.15.07-.22.2-.22H221a.22.22,0,0,1,.14,0,.21.21,0,0,1,.06.16v1.16Zm-.06,8.78a.25.25,0,0,1-.06.19.29.29,0,0,1-.19.05h-.72a.2.2,0,0,1-.16-.05s-.05-.07-.05-.15v-7c0-.13.06-.19.17-.19H221q.15,0,.15.18v7Z"/><path class="cls-2" d="M225.29,139.64c-.08,0-.11,0-.11.12v4.44a1.35,1.35,0,0,0,.21.87.86.86,0,0,0,.68.24h1a.14.14,0,0,1,.16.15l0,.48c0,.09-.06.15-.17.18a9,9,0,0,1-1.31.07,1.73,1.73,0,0,1-1.29-.42,1.79,1.79,0,0,1-.41-1.3v-4.68c0-.1,0-.15-.14-.15h-1.12a.13.13,0,0,1-.15-.15v-.58a.12.12,0,0,1,.14-.14h1.19c.06,0,.1,0,.1-.12l.15-2.22q0-.18.15-.18H225c.11,0,.16.06.16.19v2.21c0,.08,0,.12.11.12h1.77q.15,0,.15.12v.6c0,.1-.05.14-.15.14h-1.78Z"/><path class="cls-2" d="M228.48,148.47q-.18,0-.18-.15v-.55a.13.13,0,0,1,.08-.14.7.7,0,0,1,.31,0h.88a.89.89,0,0,0,.62-.25,1.63,1.63,0,0,0,.44-.61,1.65,1.65,0,0,0,.16-.7.75.75,0,0,0-.06-.33L228.06,139a.22.22,0,0,1,0-.09c0-.1,0-.15.16-.15h.87a.25.25,0,0,1,.23.15l2.08,5.43c0,.09.07.13.11.13s.11-.06.14-.17l2.06-5.39a.22.22,0,0,1,.2-.15h.66a.14.14,0,0,1,.12.06.15.15,0,0,1,0,.13l-3.08,7.89a2.72,2.72,0,0,1-.94,1.3,2.91,2.91,0,0,1-1.53.35A4.93,4.93,0,0,1,228.48,148.47Z"/><polygon class="cls-5" points="24.56 157.26 13.41 164.2 11.87 187.23 37.25 187.23 35.71 164.2 24.56 157.26"/><polygon class="cls-5" points="47.06 58.28 24.56 29.64 2.06 58.28 14.57 58.28 13.44 76.34 24.59 69.4 35.74 76.34 34.6 58.28 47.06 58.28"/><polygon class="cls-6" points="203.24 76.34 214.39 69.4 225.54 76.34 224.4 30.26 236.85 30.26 214.35 1.62 191.85 30.26 204.37 30.26 203.24 76.34"/><polygon class="cls-6" points="214.35 157.26 203.2 164.2 201.66 187.23 227.04 187.23 225.5 164.2 214.35 157.26"/><polygon class="cls-7" points="103.67 76.34 114.82 69.4 125.97 76.34 124.84 43.27 137.29 43.27 114.79 14.63 92.29 43.27 104.81 43.27 103.67 76.34"/><polygon class="cls-7" points="114.79 157.26 103.64 164.2 102.1 187.23 127.48 187.23 125.94 164.2 114.79 157.26"/></g></g></svg>