<svg xmlns="http://www.w3.org/2000/svg" viewBox="0 0 223.26 182.31"><defs><style>.cls-1{fill:#c92568;}.cls-2{fill:#757777;}.cls-3{fill:#eeb820;}.cls-4{fill:#902450;}.cls-5{fill:#4c85c5;}.cls-6{fill:#4a86c6;}.cls-7{fill:#959595;}.cls-8{fill:#ca2569;}.cls-9{fill:#f1b91f;}</style></defs><title>chart-active-investments</title><g id="Layer_2" data-name="Layer 2"><g id="Layer_1-2" data-name="Layer 1"><path class="cls-1" d="M73.21,81.89l15.67,4.56-16.31-.9a34.57,34.57,0,0,1,.64-3.66m-1.43-2.5a39.25,39.25,0,0,0-1.4,8l35.81,2-34.41-10Z"/><path class="cls-2" d="M72.27,92.47l29.27.65L75.4,106.42a37,37,0,0,1-3.13-14m-2-2a40,40,0,0,0,4.2,18.72l35.09-17.86-39.29-.86Z"/><path class="cls-3" d="M110.53,95.91,118.4,131a42.11,42.11,0,0,1-5.8.41A39.76,39.76,0,0,1,78.65,112.6l6.11-3.2,25.77-13.49m1.38-3L83.84,107.62l-8,4.19a41.68,41.68,0,0,0,36.75,21.62,43.89,43.89,0,0,0,8.21-.78l-8.9-39.72Z"/><polygon class="cls-4" points="111.91 92.92 83.83 107.63 111.91 92.93 111.91 92.92"/><path class="cls-4" d="M153.27,85.24a40.81,40.81,0,0,1-28,44.24L122,115.07l-4.87-21.73,2.05-.46,34.09-7.64m1.63-2.42-36.16,8.11-4,.89.1.45L120,115.5l3.7,16.49A42.74,42.74,0,0,0,154.9,82.82Z"/><polygon class="cls-4" points="114.84 92.27 114.83 92.27 120.04 115.51 114.84 92.27"/><rect class="cls-4" x="114.79" y="91.82" height="0.45" transform="translate(-17.11 26.85) rotate(-12.42)"/><path class="cls-5" d="M112.93,50a40.65,40.65,0,0,1,12.16,1.87A39.76,39.76,0,0,1,151.75,78.4l-29.86,6.7-8.8,2L75.3,75.25A40.71,40.71,0,0,1,112.93,50m0-2A42.48,42.48,0,0,0,72.68,76.53L113,89.14l9.32-2.09,31.92-7.16A41.63,41.63,0,0,0,125.69,50a42.73,42.73,0,0,0-12.76-2Z"/><path class="cls-6" d="M127.09,10.22v1.56A.27.27,0,0,1,127,12a.36.36,0,0,1-.24.08h-6.32c-.21,0-.31-.09-.31-.27V10.22c0-.15.09-.23.27-.23h1.67c.12,0,.17,0,.17-.12V3.15c0-.08,0-.14,0-.16s-.09,0-.18,0l-1.55.46-.11,0c-.16,0-.24-.11-.24-.32V2.08a.45.45,0,0,1,0-.23.57.57,0,0,1,.2-.15L123,.37a2.16,2.16,0,0,1,.36-.15,1,1,0,0,1,.31,0h1.1a.22.22,0,0,1,.18.08.33.33,0,0,1,.06.21V9.83a.14.14,0,0,0,.15.16h1.6C127,10,127.09,10.07,127.09,10.22Z"/><path class="cls-6" d="M135.86.77a5.11,5.11,0,0,1,1.75,2.16,7.59,7.59,0,0,1,.65,3.22,7.45,7.45,0,0,1-.64,3.19,5,5,0,0,1-1.75,2.11,4.55,4.55,0,0,1-2.56.74,4.63,4.63,0,0,1-2.57-.74A5,5,0,0,1,129,9.34a7.55,7.55,0,0,1-.63-3.18A7.59,7.59,0,0,1,129,2.94,5.12,5.12,0,0,1,130.76.77a4.61,4.61,0,0,1,5.1,0Zm-1,8.49a6.73,6.73,0,0,0,.52-3.1A7.48,7.48,0,0,0,134.89,3a1.76,1.76,0,0,0-3.18,0,7.28,7.28,0,0,0-.53,3.2,6.79,6.79,0,0,0,.53,3.1,1.73,1.73,0,0,0,1.6,1A1.68,1.68,0,0,0,134.89,9.26Z"/><path class="cls-7" d="M100.87,30.86v-10a.21.21,0,0,1,0-.15s.06,0,.13,0h1.35a.35.35,0,0,1,.16,0,.2.2,0,0,1,.07.12l3.11,8c0,.09.06.13.1.13s.09,0,.13-.14l3.1-8a.2.2,0,0,1,.21-.18h1.42q.15,0,.15.18v10c0,.15-.07.22-.21.22h-.92c-.14,0-.21-.07-.21-.19v-8s0-.06,0-.06,0,0,0,.06l-3.08,8a.28.28,0,0,1-.27.19h-.67a.27.27,0,0,1-.28-.17l-3-7.94s0-.07,0-.07,0,0,0,.07v7.92c0,.07,0,.12,0,.14a.22.22,0,0,1-.16,0h-.75C100.94,31.08,100.87,31,100.87,30.86Z"/><path class="cls-7" d="M114.51,22.06a.28.28,0,0,1-.06.2.26.26,0,0,1-.19.07h-.82c-.13,0-.2-.09-.2-.24V20.91c0-.15.06-.22.19-.22h.88a.2.2,0,0,1,.14,0,.21.21,0,0,1,.06.16v1.16Zm-.06,8.78a.31.31,0,0,1,0,.19.34.34,0,0,1-.2,0h-.71a.23.23,0,0,1-.17,0s0-.08,0-.15v-7c0-.13,0-.19.16-.19h.86q.15,0,.15.18v7Z"/><path class="cls-7" d="M121.45,24a3.58,3.58,0,0,1,1.15,1.26l0,.11c0,.06,0,.09-.1.1l-.77.18,0,0s-.09,0-.14-.11a4.09,4.09,0,0,0-.86-.89,1.71,1.71,0,0,0-1-.28,2.08,2.08,0,0,0-1.73.81,3.39,3.39,0,0,0-.65,2.18,3.37,3.37,0,0,0,.65,2.18,2.17,2.17,0,0,0,1.76.8A2.09,2.09,0,0,0,121,30a3,3,0,0,0,.91-1s0-.07.08-.07a.13.13,0,0,1,.1,0l.6.22q.1,0,.06.18a3.64,3.64,0,0,1-1.19,1.33,3.16,3.16,0,0,1-1.81.51,3.48,3.48,0,0,1-1.82-.48,3.34,3.34,0,0,1-1.24-1.36,4.19,4.19,0,0,1-.45-2,4.37,4.37,0,0,1,.45-2A3.35,3.35,0,0,1,117.89,24a3.39,3.39,0,0,1,1.81-.49A3,3,0,0,1,121.45,24Z"/><path class="cls-7" d="M124.23,30.89v-10q0-.18.15-.18h.83c.1,0,.15,0,.15.16v3.74c0,.1,0,.12.13,0a6.75,6.75,0,0,1,1.35-.86,3,3,0,0,1,1.23-.26,2.28,2.28,0,0,1,1.66.58,2.07,2.07,0,0,1,.58,1.55v5.21c0,.15-.07.23-.21.23h-.78a.17.17,0,0,1-.18-.19v-5a1.49,1.49,0,0,0-.36-1.07,1.45,1.45,0,0,0-1.1-.38,2.15,2.15,0,0,0-1.07.26,7.18,7.18,0,0,0-1.21.87v5.3c0,.14-.07.21-.23.21h-.77C124.29,31.08,124.23,31,124.23,30.89Z"/><path class="cls-7" d="M133.62,22.06a.28.28,0,0,1-.06.2.24.24,0,0,1-.19.07h-.81c-.15,0-.22-.09-.22-.24V20.91c0-.15.07-.22.2-.22h.88a.2.2,0,0,1,.14,0,.21.21,0,0,1,.06.16Zm-.06,8.78a.31.31,0,0,1-.05.19.34.34,0,0,1-.2,0h-.71a.23.23,0,0,1-.17,0s0-.08,0-.15v-7c0-.13.05-.19.17-.19h.85q.15,0,.15.18Z"/><path class="cls-7" d="M142.7,23.75v.49a.31.31,0,0,1-.06.21.3.3,0,0,1-.21.05,1.79,1.79,0,0,0-.73.12c-.23.1-.32.2-.28.32a1,1,0,0,0,.08.21,1.79,1.79,0,0,1,.11.35,1.67,1.67,0,0,1,0,.39,2,2,0,0,1-.77,1.63,3.52,3.52,0,0,1-2.26.63,4.1,4.1,0,0,0-1.43.17c-.29.11-.44.25-.44.43s.1.25.3.32a3.6,3.6,0,0,0,1,.14l1.8.1a3.07,3.07,0,0,1,1.8.57,1.73,1.73,0,0,1,.58,1.38,1.87,1.87,0,0,1-.93,1.66,4.88,4.88,0,0,1-2.65.6,5.75,5.75,0,0,1-2.71-.51,1.6,1.6,0,0,1-.93-1.46c0-.63.44-1.15,1.32-1.58q.15-.07,0-.15a.91.91,0,0,1-.65-.83.83.83,0,0,1,.29-.59,2.05,2.05,0,0,1,.82-.46s.07,0,.07-.07a.11.11,0,0,0-.07-.1,2.22,2.22,0,0,1-.91-.78,2,2,0,0,1-.3-1.1,2.06,2.06,0,0,1,.83-1.72,3.79,3.79,0,0,1,2.34-.63,3.25,3.25,0,0,1,2.1.63.25.25,0,0,0,.14.07.25.25,0,0,0,.15-.07,2.6,2.6,0,0,1,.62-.45,1.45,1.45,0,0,1,.7-.19C142.62,23.53,142.7,23.6,142.7,23.75Zm-5.31,6.42a1.14,1.14,0,0,0-.58.14,1.61,1.61,0,0,0-.55.46,1.08,1.08,0,0,0-.22.64,1.12,1.12,0,0,0,.69,1,4.47,4.47,0,0,0,2,.36c1.57,0,2.36-.47,2.36-1.4a.94.94,0,0,0-.33-.77,1.76,1.76,0,0,0-1.07-.33ZM140.07,27a1.36,1.36,0,0,0,.48-1.13,1.47,1.47,0,0,0-.49-1.18,2.17,2.17,0,0,0-1.44-.42,2.21,2.21,0,0,0-1.44.43,1.44,1.44,0,0,0-.52,1.17,1.35,1.35,0,0,0,.51,1.13,2.34,2.34,0,0,0,1.45.4A2.24,2.24,0,0,0,140.07,27Z"/><path class="cls-7" d="M146,31.21a2.46,2.46,0,0,1-1.71-.55,1.87,1.87,0,0,1-.63-1.48,2,2,0,0,1,1-1.76,5.52,5.52,0,0,1,2.74-.76l1.09-.08q.24,0,.24-.21V26a1.53,1.53,0,0,0-.48-1.19,1.73,1.73,0,0,0-1.26-.44,2.38,2.38,0,0,0-2,1.11.29.29,0,0,1-.08.1.14.14,0,0,1-.11,0l-.76-.25a.1.1,0,0,1-.07-.1.3.3,0,0,1,0-.13,2.89,2.89,0,0,1,1.2-1.15,3.82,3.82,0,0,1,1.84-.41,3.12,3.12,0,0,1,2.1.63,2.21,2.21,0,0,1,.73,1.76v5a.26.26,0,0,1,0,.16.22.22,0,0,1-.16,0h-.7c-.11,0-.17-.08-.19-.23l0-.64c0-.07,0-.1-.07-.1a.19.19,0,0,0-.13.07A3.49,3.49,0,0,1,146,31.21Zm2.46-3.92-.91.09a4.59,4.59,0,0,0-2,.5,1.28,1.28,0,0,0-.71,1.16,1.19,1.19,0,0,0,.42,1,1.79,1.79,0,0,0,1.15.35,2.61,2.61,0,0,0,1.59-.58,1.81,1.81,0,0,0,.5-.54,1,1,0,0,0,.17-.55V27.52C148.65,27.37,148.58,27.29,148.44,27.29Z"/><path class="cls-7" d="M151.83,30.89v-7c0-.12,0-.19.16-.19h.84a.14.14,0,0,1,.15.16v.81c0,.1,0,.12.13,0a7.69,7.69,0,0,1,1.33-.88,2.79,2.79,0,0,1,1.24-.27,2.27,2.27,0,0,1,1.66.58,2,2,0,0,1,.6,1.54v5.22a.19.19,0,0,1-.22.22h-.78a.16.16,0,0,1-.18-.18v-5a1.49,1.49,0,0,0-.36-1.07,1.44,1.44,0,0,0-1.1-.38,2.21,2.21,0,0,0-1.08.26,6.46,6.46,0,0,0-1.21.87v5.3a.25.25,0,0,1,0,.16.23.23,0,0,1-.16,0H152A.18.18,0,0,1,151.83,30.89Z"/><path class="cls-8" d="M33.42,54.44V56a.3.3,0,0,1-.08.2.36.36,0,0,1-.24.08H26.78c-.2,0-.31-.09-.31-.28V54.44c0-.16.09-.24.28-.24h1.66c.12,0,.18,0,.18-.11V47.37a.23.23,0,0,0-.05-.17.25.25,0,0,0-.18,0l-1.55.47H26.7c-.16,0-.24-.1-.24-.32V46.3a.34.34,0,0,1,.05-.23.54.54,0,0,1,.19-.16l2.67-1.32a2.38,2.38,0,0,1,.36-.16,1.42,1.42,0,0,1,.31,0h1.11a.19.19,0,0,1,.17.08.32.32,0,0,1,.07.2V54c0,.11,0,.16.14.16h1.6C33.32,54.2,33.42,54.28,33.42,54.44Z"/><path class="cls-7" d="M7.81,64.94a.18.18,0,0,1,.13,0h6.28c.1,0,.14,0,.14.16v.71c0,.11-.06.17-.18.17H9.3a.24.24,0,0,0-.15,0,.23.23,0,0,0,0,.14v3.27a.14.14,0,0,0,.16.16H12.9a.13.13,0,0,1,.15.15v.74c0,.09-.05.13-.15.13H9.27c-.11,0-.16,0-.16.15v3.4a.17.17,0,0,0,0,.12l.11,0h5.14a.17.17,0,0,1,.12,0,.16.16,0,0,1,0,.11v.74a.14.14,0,0,1-.16.16H8a.28.28,0,0,1-.16,0,.22.22,0,0,1,0-.16v-10A.22.22,0,0,1,7.81,64.94Z"/><path class="cls-7" d="M19.93,74.19a5.42,5.42,0,0,0,1.13-.9V68.07c0-.13.07-.2.22-.2h.77a.18.18,0,0,1,.2.2l0,7q0,.18-.15.18h-.82a.13.13,0,0,1-.15-.15v-.83c0-.11,0-.12-.13,0a5.58,5.58,0,0,1-1.34.9,2.82,2.82,0,0,1-1.2.26,2.22,2.22,0,0,1-1.61-.59,2,2,0,0,1-.63-1.55V68.08a.19.19,0,0,1,.21-.21h.78c.12,0,.18.07.18.2V73a1.53,1.53,0,0,0,.39,1.11,1.36,1.36,0,0,0,1.05.42A2.28,2.28,0,0,0,19.93,74.19Z"/><path class="cls-7" d="M24.39,75.11V68.05q0-.18.15-.18h.81c.11,0,.16,0,.16.15v.91c0,.06,0,.09,0,.1s.06,0,.1,0a3,3,0,0,1,2.17-1.25c.33,0,.49.06.49.18v.84c0,.1,0,.13-.12.11a5.31,5.31,0,0,0-.64,0,2,2,0,0,0-.88.24,2.57,2.57,0,0,0-.8.62,1.2,1.2,0,0,0-.32.77v4.63a.19.19,0,0,1-.21.21h-.77C24.45,75.29,24.39,75.23,24.39,75.11Z"/><path class="cls-7" d="M30.82,75a3.26,3.26,0,0,1-1.25-1.35,4.65,4.65,0,0,1,0-4,3.37,3.37,0,0,1,1.26-1.38,3.64,3.64,0,0,1,3.68,0,3.34,3.34,0,0,1,1.25,1.38,4.43,4.43,0,0,1,.44,2,4.21,4.21,0,0,1-.45,2,3.35,3.35,0,0,1-3.09,1.85A3.58,3.58,0,0,1,30.82,75Zm3.58-1.19a4.17,4.17,0,0,0,0-4.36,2.05,2.05,0,0,0-1.7-.8,2.08,2.08,0,0,0-1.72.8,3.47,3.47,0,0,0-.63,2.18A3.4,3.4,0,0,0,31,73.75a2.1,2.1,0,0,0,1.73.8A2,2,0,0,0,34.4,73.76Z"/><path class="cls-7" d="M39.12,68.08v.59c0,.08,0,.12.07.12a.24.24,0,0,0,.11-.06,5.24,5.24,0,0,1,.52-.48,2.25,2.25,0,0,1,.65-.35,2.88,2.88,0,0,1,1-.17,3,3,0,0,1,1.57.42,2.83,2.83,0,0,1,1.09,1.26,4.73,4.73,0,0,1,.4,2.06,5.16,5.16,0,0,1-.4,2.13A2.94,2.94,0,0,1,43,75a3,3,0,0,1-1.69.47,3,3,0,0,1-2-.7c-.06-.06-.11-.1-.15-.1s-.07.06-.07.19v2.6q0,.18-.15.18h-.87c-.11,0-.16-.06-.16-.18V68.1a.26.26,0,0,1,0-.17.24.24,0,0,1,.18-.06h.74A.18.18,0,0,1,39.12,68.08ZM40,74.35a2.26,2.26,0,0,0,1,.23,2.06,2.06,0,0,0,1.69-.8,3.58,3.58,0,0,0,.64-2.3,3.26,3.26,0,0,0-.63-2.18,2.05,2.05,0,0,0-1.62-.72,2.1,2.1,0,0,0-1,.25,2,2,0,0,0-.71.62,1.33,1.33,0,0,0-.26.74v3.46A3.67,3.67,0,0,0,40,74.35Z"/><path class="cls-7" d="M47.42,73.29a2.51,2.51,0,0,0,.89.91,2.42,2.42,0,0,0,1.24.33,2.47,2.47,0,0,0,2.18-1.16l.1-.06a.2.2,0,0,1,.1,0l.59.29a.13.13,0,0,1,0,.2,3.45,3.45,0,0,1-1.3,1.23,4,4,0,0,1-1.81.38A3.52,3.52,0,0,1,47.6,75a3.32,3.32,0,0,1-1.27-1.33,4.21,4.21,0,0,1-.45-2,4.46,4.46,0,0,1,.46-2.08,3.28,3.28,0,0,1,1.27-1.36,3.68,3.68,0,0,1,3.58,0,3,3,0,0,1,1.18,1.31,4.57,4.57,0,0,1,.42,2v.06a.32.32,0,0,1,0,.19.19.19,0,0,1-.17.06H47.22q-.12,0-.12.21A2.55,2.55,0,0,0,47.42,73.29Zm4-2.23a.36.36,0,0,0,.19,0,.2.2,0,0,0,0-.16,2.58,2.58,0,0,0-.26-1.14,2.09,2.09,0,0,0-1.91-1.16,2.19,2.19,0,0,0-1.25.36,2.33,2.33,0,0,0-.81.92,2.52,2.52,0,0,0-.27,1.21Z"/><path class="cls-2" d="M29,113.84c.71-.61,1.23-1.1,1.57-1.46a4.06,4.06,0,0,0,.71-.95,2,2,0,0,0,.2-.89,1.46,1.46,0,0,0-.5-1.15,1.93,1.93,0,0,0-1.28-.42,2.17,2.17,0,0,0-1.24.39,4,4,0,0,0-1.09,1.29.19.19,0,0,1-.21.13.46.46,0,0,1-.22-.06L25.55,110a.36.36,0,0,1-.19-.29.52.52,0,0,1,.08-.24,5,5,0,0,1,4.46-2.51,5.74,5.74,0,0,1,2.27.43,3.58,3.58,0,0,1,1.53,1.25,3.4,3.4,0,0,1,.54,1.92,3.23,3.23,0,0,1-.52,1.79,8,8,0,0,1-1.78,1.83l-3,2.32c-.07,0-.1.08-.1.11s.07.08.19.08h5c.2,0,.3.08.3.25v1.76c0,.2-.1.29-.32.29H25.7a.42.42,0,0,1-.29-.07.37.37,0,0,1-.08-.26V117.4a.51.51,0,0,1,.13-.31,4.33,4.33,0,0,1,.6-.57Z"/><path class="cls-7" d="M7.73,127.61a.21.21,0,0,1,.12,0,.24.24,0,0,1,0,.14v10.05c0,.11-.06.17-.18.17H7l-.17,0a.35.35,0,0,1-.12-.1L1.31,130c0-.06-.07-.09-.1-.08s-.05,0-.05.1v7.77c0,.12-.06.18-.19.18H.18a.16.16,0,0,1-.18-.18v-10a.28.28,0,0,1,0-.15s.07,0,.15,0H1a.4.4,0,0,1,.17,0,.38.38,0,0,1,.12.11l5.25,7.69c.05.05.09.08.13.08s.08,0,.08-.13v-7.61a.15.15,0,0,1,.17-.17Z"/><path class="cls-7" d="M11.43,136a2.59,2.59,0,0,0,.89.91,2.36,2.36,0,0,0,1.23.33,2.51,2.51,0,0,0,2.19-1.16.14.14,0,0,1,.09-.06.12.12,0,0,1,.1,0l.59.29c.08,0,.09.11,0,.2a3.35,3.35,0,0,1-1.3,1.22,3.93,3.93,0,0,1-1.81.39,3.52,3.52,0,0,1-1.83-.48,3.22,3.22,0,0,1-1.27-1.34,4.17,4.17,0,0,1-.46-2,4.4,4.4,0,0,1,.47-2.08,3.35,3.35,0,0,1,1.26-1.37,3.77,3.77,0,0,1,3.59,0,3,3,0,0,1,1.18,1.31,4.64,4.64,0,0,1,.42,2v.06a.36.36,0,0,1,0,.19.21.21,0,0,1-.17.06H11.23c-.09,0-.13.07-.13.21A2.49,2.49,0,0,0,11.43,136Zm4-2.23c.1,0,.16,0,.19,0s0-.07,0-.16a2.45,2.45,0,0,0-.26-1.14,2,2,0,0,0-.75-.84,2.12,2.12,0,0,0-1.16-.31,2.22,2.22,0,0,0-1.24.35,2.27,2.27,0,0,0-.81.93,2.52,2.52,0,0,0-.27,1.21Z"/><path class="cls-7" d="M28.07,130.64a.12.12,0,0,1,0,.13l-2.14,7a.25.25,0,0,1-.27.18H25a.26.26,0,0,1-.29-.18L23,132.58c0-.08-.06-.13-.09-.13s-.05.05-.07.13l-1.59,5.24A.24.24,0,0,1,21,138h-.72a.26.26,0,0,1-.29-.18l-2.2-7a.15.15,0,0,1,0-.07c0-.1.05-.14.16-.14h.83a.25.25,0,0,1,.23.15l1.66,5.45c0,.09.06.14.1.14s.06-.06.11-.16l1.65-5.44a.19.19,0,0,1,.2-.14h.66a.2.2,0,0,1,.21.15l1.72,5.45c0,.09.06.14.1.14s.07-.06.09-.16l1.61-5.43a.25.25,0,0,1,.24-.15h.56A.15.15,0,0,1,28.07,130.64Z"/><path class="cls-7" d="M40.4,127.67a.13.13,0,0,1,0,.13L37,133.38a.51.51,0,0,0-.07.17c0,.06,0,.16,0,.29v3.92a.23.23,0,0,1-.06.18.28.28,0,0,1-.2.06h-.84c-.15,0-.23-.07-.23-.21V133.9a1,1,0,0,0,0-.2.75.75,0,0,0-.09-.18l-3.38-5.69a.3.3,0,0,1,0-.11c0-.07.07-.11.2-.11h1a.34.34,0,0,1,.17,0,.6.6,0,0,1,.12.14l2.61,4.48c0,.11.1.17.15.17s.09-.05.15-.15l2.59-4.5a.61.61,0,0,1,.11-.14.44.44,0,0,1,.19,0h.87A.15.15,0,0,1,40.4,127.67Z"/><path class="cls-7" d="M41.82,137.65a3.24,3.24,0,0,1-1.24-1.35,4.2,4.2,0,0,1-.44-2,4.39,4.39,0,0,1,.45-2,3.51,3.51,0,0,1,1.26-1.38,3.7,3.7,0,0,1,3.68,0,3.28,3.28,0,0,1,1.25,1.38,4.72,4.72,0,0,1,0,4,3.38,3.38,0,0,1-1.26,1.36,3.53,3.53,0,0,1-1.84.48A3.4,3.4,0,0,1,41.82,137.65Zm3.59-1.18a3.55,3.55,0,0,0,.61-2.18,3.45,3.45,0,0,0-.63-2.18,2,2,0,0,0-1.7-.81,2.07,2.07,0,0,0-1.72.81,4.07,4.07,0,0,0,0,4.35,2.1,2.1,0,0,0,1.74.8A2,2,0,0,0,45.41,136.47Z"/><path class="cls-7" d="M49,137.82v-7.06q0-.18.15-.18h.81c.11,0,.16,0,.16.15v.91c0,.06,0,.09.05.1s.06,0,.1-.06a2.93,2.93,0,0,1,2.17-1.24c.33,0,.49.06.49.18v.84c0,.09,0,.13-.13.11a3.57,3.57,0,0,0-.62,0,2,2,0,0,0-.89.24,2.39,2.39,0,0,0-.79.61,1.17,1.17,0,0,0-.33.77v4.64a.19.19,0,0,1-.21.21h-.77C49,138,49,137.94,49,137.82Z"/><path class="cls-7" d="M60.76,137.87c0,.08,0,.13-.15.13h-1a.2.2,0,0,1-.14,0,.38.38,0,0,1-.12-.13l-2.11-3.63s0-.07-.07-.07-.06,0-.1.05l-1.48,1.49a.37.37,0,0,0-.1.28v1.81a.24.24,0,0,1-.06.19.29.29,0,0,1-.19.05h-.72a.2.2,0,0,1-.16-.05s-.05-.07-.05-.15v-10c0-.12.06-.19.16-.19h.85c.11,0,.17.06.17.18v6.5c0,.09,0,.14,0,.14s.06,0,.1-.09l3.46-3.59a.39.39,0,0,1,.29-.17h.86c.11,0,.16,0,.16.1a.44.44,0,0,1-.09.16l-2.21,2.26a.31.31,0,0,0-.06.12.24.24,0,0,0,0,.12l2.63,4.43A.13.13,0,0,1,60.76,137.87Z"/><path class="cls-9" d="M102.14,149.1a.53.53,0,0,1,.32.06.46.46,0,0,1,.05.31l-.08,1.58a.3.3,0,0,1-.09.22.37.37,0,0,1-.26.07H97c-.19,0-.28.08-.29.24l-.19,2v0a.17.17,0,0,0,.07.16.2.2,0,0,0,.17,0c.51-.18.92-.31,1.22-.39a4.8,4.8,0,0,1,1.06-.11,5.21,5.21,0,0,1,2.18.44,3.4,3.4,0,0,1,1.52,1.28,3.63,3.63,0,0,1,.56,2.06,3.85,3.85,0,0,1-.6,2.16,3.9,3.9,0,0,1-1.7,1.39,6.24,6.24,0,0,1-2.53.48,7.12,7.12,0,0,1-2.77-.52,4.57,4.57,0,0,1-1.92-1.4.5.5,0,0,1-.13-.29.3.3,0,0,1,.16-.25l1.32-.93a.27.27,0,0,1,.17-.06.29.29,0,0,1,.24.12,6.17,6.17,0,0,0,1.23,1,2.76,2.76,0,0,0,1.4.32,2.57,2.57,0,0,0,1.75-.55,1.82,1.82,0,0,0,.63-1.43,1.74,1.74,0,0,0-.58-1.36,2.33,2.33,0,0,0-1.58-.51,2.91,2.91,0,0,0-1,.15,10.22,10.22,0,0,0-1.1.47.48.48,0,0,1-.21.06.4.4,0,0,1-.2-.08l-1.46-.8a.29.29,0,0,1-.18-.27,1.66,1.66,0,0,1,0-.24l.45-5.12a.36.36,0,0,1,.13-.3.75.75,0,0,1,.44-.08Z"/><path class="cls-7" d="M60.54,170.49a2.69,2.69,0,0,0-1.65.46,1.54,1.54,0,0,0-.6,1.29c0,.73.5,1.26,1.49,1.6l2,.67a3.76,3.76,0,0,1,1.78,1.08,2.77,2.77,0,0,1-.44,3.78,4.35,4.35,0,0,1-2.72.77,5.18,5.18,0,0,1-2.22-.45,3.75,3.75,0,0,1-1.54-1.3.52.52,0,0,1-.06-.14c0-.07.05-.13.14-.2l.5-.35a.48.48,0,0,1,.2-.08.19.19,0,0,1,.15.08,4,4,0,0,0,1.19,1.09,3.25,3.25,0,0,0,1.59.32,3.33,3.33,0,0,0,1.82-.42,1.43,1.43,0,0,0,.65-1.3,1.35,1.35,0,0,0-.34-.93,3.08,3.08,0,0,0-1.24-.72L59.15,175a3.3,3.3,0,0,1-1.63-1.08,2.58,2.58,0,0,1-.52-1.57,2.63,2.63,0,0,1,.44-1.52,2.86,2.86,0,0,1,1.24-1,4.71,4.71,0,0,1,1.86-.35,4.59,4.59,0,0,1,1.85.36,4.07,4.07,0,0,1,1.43,1,.26.26,0,0,1,.07.14.19.19,0,0,1-.07.13l-.65.5a.15.15,0,0,1-.08,0s-.09,0-.17-.13A3,3,0,0,0,60.54,170.49Z"/><path class="cls-7" d="M67.23,171a.34.34,0,0,1,0,.2.24.24,0,0,1-.2.07h-.81q-.21,0-.21-.24v-1.18c0-.15.06-.22.19-.22H67a.24.24,0,0,1,.14,0,.25.25,0,0,1,0,.16Zm0,8.78a.25.25,0,0,1-.06.19.31.31,0,0,1-.19.05h-.72A.25.25,0,0,1,66,180a.22.22,0,0,1,0-.15v-7c0-.13.06-.19.17-.19H67c.1,0,.16.06.16.18Z"/><path class="cls-7" d="M70.54,179.76a.25.25,0,0,1-.06.19.32.32,0,0,1-.2.05h-.72a.23.23,0,0,1-.17-.05s0-.07,0-.15v-10c0-.13.06-.19.17-.19h.84c.11,0,.17.06.17.18Z"/><path class="cls-7" d="M73.92,171a.34.34,0,0,1,0,.2.23.23,0,0,1-.2.07h-.81q-.21,0-.21-.24v-1.18c0-.15.07-.22.2-.22h.88a.22.22,0,0,1,.14,0,.21.21,0,0,1,.06.16V171Zm0,8.78a.25.25,0,0,1-.06.19.31.31,0,0,1-.19.05H72.9a.2.2,0,0,1-.16-.05s0-.07,0-.15v-7c0-.13.06-.19.17-.19h.85c.11,0,.16.06.16.18Z"/><path class="cls-7" d="M80.86,172.91A3.6,3.6,0,0,1,82,174.17l0,.11c0,.06,0,.09-.1.1l-.76.19h-.05s-.09,0-.14-.11a3.61,3.61,0,0,0-.86-.88,1.6,1.6,0,0,0-.94-.28,2.13,2.13,0,0,0-1.74.8,4,4,0,0,0,0,4.36,2.29,2.29,0,0,0,2.91.48,3.12,3.12,0,0,0,.9-1c0-.05.06-.08.09-.08a.11.11,0,0,1,.09,0l.61.22c.06,0,.08.09,0,.19a3.6,3.6,0,0,1-1.19,1.32,3.12,3.12,0,0,1-1.8.51,3.43,3.43,0,0,1-1.82-.48,3.33,3.33,0,0,1-1.25-1.35,4.26,4.26,0,0,1-.45-2,4.37,4.37,0,0,1,.45-2,3.32,3.32,0,0,1,3.07-1.87A3.06,3.06,0,0,1,80.86,172.91Z"/><path class="cls-7" d="M84.88,179.65a3.26,3.26,0,0,1-1.25-1.35,4.33,4.33,0,0,1-.44-2,4.27,4.27,0,0,1,.46-2,3.37,3.37,0,0,1,1.26-1.38,3.7,3.7,0,0,1,3.68,0,3.34,3.34,0,0,1,1.25,1.38,4.49,4.49,0,0,1,.44,2,4.25,4.25,0,0,1-.45,2,3.42,3.42,0,0,1-1.25,1.36,3.54,3.54,0,0,1-1.85.48A3.36,3.36,0,0,1,84.88,179.65Zm3.58-1.18a4.17,4.17,0,0,0,0-4.36,2,2,0,0,0-1.7-.81,2.06,2.06,0,0,0-1.72.81,4.07,4.07,0,0,0,0,4.35,2.08,2.08,0,0,0,1.73.8A2,2,0,0,0,88.46,178.47Z"/><path class="cls-7" d="M92,179.82v-7.06c0-.12,0-.18.16-.18H93a.13.13,0,0,1,.15.15v.81c0,.11,0,.12.13,0a7.69,7.69,0,0,1,1.33-.88,2.93,2.93,0,0,1,1.24-.26,2.31,2.31,0,0,1,1.66.57,2,2,0,0,1,.6,1.54v5.22c0,.15-.07.23-.22.23h-.78a.16.16,0,0,1-.18-.18v-5a1.5,1.5,0,0,0-.36-1.08,1.45,1.45,0,0,0-1.1-.38,2.33,2.33,0,0,0-1.08.26,6.46,6.46,0,0,0-1.21.87v5.3a.25.25,0,0,1,0,.16A.23.23,0,0,1,93,180h-.77C92.08,180,92,179.94,92,179.82Z"/><path class="cls-7" d="M111.37,169.67a.15.15,0,0,1,0,.13l-3.54,10a.33.33,0,0,1-.11.16.37.37,0,0,1-.2.05h-1c-.18,0-.3-.07-.33-.2l-3.48-10a.15.15,0,0,1,0-.07c0-.09.06-.14.17-.14h1a.25.25,0,0,1,.24.17l2.91,8.48c0,.09.06.13.1.13s.08,0,.11-.14l3-8.49a.2.2,0,0,1,.21-.15h.82A.16.16,0,0,1,111.37,169.67Z"/><path class="cls-7" d="M114.15,180.14a2.51,2.51,0,0,1-1.72-.56,1.87,1.87,0,0,1-.62-1.47,2,2,0,0,1,.94-1.77,5.45,5.45,0,0,1,2.74-.75l1.09-.09q.24,0,.24-.21v-.38a1.52,1.52,0,0,0-.47-1.19,1.74,1.74,0,0,0-1.27-.44,2.35,2.35,0,0,0-2,1.12l-.09.09a.15.15,0,0,1-.11,0l-.75-.25a.1.1,0,0,1-.07-.1.3.3,0,0,1,0-.13,2.89,2.89,0,0,1,1.2-1.15,3.79,3.79,0,0,1,1.84-.41,3.14,3.14,0,0,1,2.1.63,2.23,2.23,0,0,1,.72,1.76v5c0,.08,0,.14,0,.16a.21.21,0,0,1-.15.05h-.7c-.11,0-.18-.08-.2-.23l0-.64c0-.07,0-.1-.07-.1a.19.19,0,0,0-.13.07A3.5,3.5,0,0,1,114.15,180.14Zm2.46-3.92-.91.08a4.6,4.6,0,0,0-2,.5A1.31,1.31,0,0,0,113,178a1.19,1.19,0,0,0,.43.95,1.78,1.78,0,0,0,1.14.35,2.34,2.34,0,0,0,.86-.16,2.45,2.45,0,0,0,.74-.42,1.87,1.87,0,0,0,.49-.53,1.05,1.05,0,0,0,.18-.56v-1.16C116.82,176.29,116.75,176.22,116.61,176.22Z"/><path class="cls-7" d="M121.19,179.76a.25.25,0,0,1-.06.19.31.31,0,0,1-.19.05h-.73A.23.23,0,0,1,120,180s0-.07,0-.15v-10c0-.13.06-.19.17-.19H121c.11,0,.17.06.17.18v10Z"/><path class="cls-7" d="M124.53,179.76a.31.31,0,0,1,0,.19.34.34,0,0,1-.2.05h-.73a.25.25,0,0,1-.17-.05.22.22,0,0,1,0-.15l0-10c0-.13.06-.19.17-.19h.84c.11,0,.16.06.16.18v10Z"/><path class="cls-7" d="M127.8,178a2.59,2.59,0,0,0,.89.91,2.41,2.41,0,0,0,1.23.33,2.51,2.51,0,0,0,2.19-1.16s.07-.06.1-.06a.14.14,0,0,1,.1,0l.58.29c.08,0,.09.11,0,.2a3.35,3.35,0,0,1-1.3,1.22,3.9,3.9,0,0,1-1.81.39,3.52,3.52,0,0,1-1.83-.48,3.35,3.35,0,0,1-1.27-1.34,4.17,4.17,0,0,1-.46-2,4.4,4.4,0,0,1,.47-2.08,3.37,3.37,0,0,1,1.27-1.37,3.75,3.75,0,0,1,3.58,0,3,3,0,0,1,1.18,1.31,4.64,4.64,0,0,1,.42,2v.06a.36.36,0,0,1,0,.19.19.19,0,0,1-.17.06H127.6c-.08,0-.13.07-.13.21A2.49,2.49,0,0,0,127.8,178Zm4-2.23c.1,0,.17,0,.19,0s.05-.07.05-.16a2.58,2.58,0,0,0-.26-1.14,2.06,2.06,0,0,0-1.91-1.15,2.23,2.23,0,0,0-1.25.35,2.27,2.27,0,0,0-.81.93,2.52,2.52,0,0,0-.27,1.21Z"/><path class="cls-7" d="M134.56,182.28c-.12,0-.18-.07-.18-.16v-.54a.14.14,0,0,1,.07-.14.76.76,0,0,1,.32,0h.88a.87.87,0,0,0,.61-.25,1.52,1.52,0,0,0,.44-.61,1.67,1.67,0,0,0,.17-.7.75.75,0,0,0-.06-.33l-2.67-6.69a.2.2,0,0,1,0-.09c0-.1.06-.15.17-.15h.87a.23.23,0,0,1,.22.15l2.09,5.43c0,.09.06.13.11.13s.1,0,.14-.17l2.06-5.39c.05-.1.11-.15.19-.15h.66a.15.15,0,0,1,.13.06.12.12,0,0,1,0,.13l-3.08,7.89a2.6,2.6,0,0,1-.94,1.3,2.87,2.87,0,0,1-1.52.35A4.83,4.83,0,0,1,134.56,182.28Z"/><path class="cls-8" d="M199.48,107.29a4.1,4.1,0,0,1,1.32.84,2.82,2.82,0,0,1,.69,1,.45.45,0,0,1,0,.13.22.22,0,0,1-.16.22l-1.74.56a.11.11,0,0,1-.08,0c-.1,0-.17-.06-.23-.19a3,3,0,0,0-.69-.72,1.56,1.56,0,0,0-.91-.24,2.14,2.14,0,0,0-1.81.85,3.57,3.57,0,0,0-.65,2.22,1.09,1.09,0,0,0,0,.31.1.1,0,0,0,.11.08l.21-.07a10,10,0,0,1,1.23-.44,4.15,4.15,0,0,1,1.19-.15,4.89,4.89,0,0,1,2.15.45,3.42,3.42,0,0,1,1.45,1.25,3.3,3.3,0,0,1,.51,1.82,3.43,3.43,0,0,1-.61,2,4.16,4.16,0,0,1-1.68,1.38,5.43,5.43,0,0,1-2.35.5,4.92,4.92,0,0,1-2.66-.71,4.63,4.63,0,0,1-1.74-2,7.34,7.34,0,0,1-.61-3.09,8.15,8.15,0,0,1,.65-3.38,4.79,4.79,0,0,1,4.58-3A4.53,4.53,0,0,1,199.48,107.29Zm-3.11,6.42a2.79,2.79,0,0,0-.88.38.45.45,0,0,0-.19.2,1.25,1.25,0,0,0,0,.34,3,3,0,0,0,.58,1.87,1.81,1.81,0,0,0,1.55.77,1.91,1.91,0,0,0,2-2,1.67,1.67,0,0,0-.54-1.29,2,2,0,0,0-1.38-.48A3.78,3.78,0,0,0,196.37,113.71Z"/><path class="cls-7" d="M177.58,127.86a3.84,3.84,0,0,1,1.38,1,2.88,2.88,0,0,1,.66,1.43v.1a.1.1,0,0,1-.11.11l-1.05.08h0a.11.11,0,0,1-.07,0,.23.23,0,0,1,0-.11,2.57,2.57,0,0,0-.87-1.45,2.39,2.39,0,0,0-1.59-.55,2.59,2.59,0,0,0-2.25,1.09,5.53,5.53,0,0,0-.78,3.24,5.36,5.36,0,0,0,.78,3.18,2.67,2.67,0,0,0,2.32,1.07,2.78,2.78,0,0,0,1.66-.48,3.32,3.32,0,0,0,1.07-1.52c0-.06.07-.08.16-.06l.83.2c.06,0,.09.08.07.2a3.77,3.77,0,0,1-.73,1.32,4,4,0,0,1-1.31,1,4.08,4.08,0,0,1-1.81.39,4.28,4.28,0,0,1-2.38-.65,4.09,4.09,0,0,1-1.52-1.84,7,7,0,0,1-.54-2.86,7.07,7.07,0,0,1,.53-2.85,4,4,0,0,1,1.51-1.83,4.19,4.19,0,0,1,2.34-.64A4.08,4.08,0,0,1,177.58,127.86Z"/><path class="cls-7" d="M181.52,137.82v-10c0-.12,0-.18.16-.18h.82c.11,0,.16.06.16.17v3.74c0,.1,0,.11.12,0a7.4,7.4,0,0,1,1.36-.87,2.91,2.91,0,0,1,1.23-.25A2.28,2.28,0,0,1,187,131a2.07,2.07,0,0,1,.58,1.56v5.2c0,.15-.07.23-.21.23h-.78a.17.17,0,0,1-.19-.18v-5a1.5,1.5,0,0,0-.35-1.08,1.47,1.47,0,0,0-1.1-.38,2.26,2.26,0,0,0-1.07.26,7.34,7.34,0,0,0-1.21.88v5.29c0,.14-.08.21-.23.21h-.77A.16.16,0,0,1,181.52,137.82Z"/><path class="cls-7" d="M190.92,129a.28.28,0,0,1-.06.2.23.23,0,0,1-.2.07h-.81q-.21,0-.21-.24v-1.18c0-.15.07-.22.2-.22h.88a.22.22,0,0,1,.14,0,.21.21,0,0,1,.06.16V129Zm-.06,8.78a.31.31,0,0,1-.05.19.34.34,0,0,1-.2.05h-.72a.2.2,0,0,1-.16-.05s0-.07,0-.15v-7c0-.13.06-.19.17-.19h.86q.15,0,.15.18v7Z"/><path class="cls-7" d="M197.86,130.91a3.67,3.67,0,0,1,1.15,1.26l0,.11c0,.06,0,.09-.1.1l-.77.19h0s-.09,0-.13-.11a3.62,3.62,0,0,0-.87-.88,1.6,1.6,0,0,0-.94-.28,2.13,2.13,0,0,0-1.74.8,4,4,0,0,0,0,4.36,2.13,2.13,0,0,0,1.76.8,2.09,2.09,0,0,0,1.15-.32,3.12,3.12,0,0,0,.9-1c0-.05.06-.08.09-.08a.13.13,0,0,1,.1,0l.6.22c.06,0,.08.09.06.19a3.69,3.69,0,0,1-1.19,1.32,3.18,3.18,0,0,1-1.81.51,3.46,3.46,0,0,1-1.82-.48,3.33,3.33,0,0,1-1.25-1.35,4.26,4.26,0,0,1-.44-2,4.37,4.37,0,0,1,.44-2,3.35,3.35,0,0,1,3.07-1.87A3.12,3.12,0,0,1,197.86,130.91Z"/><path class="cls-7" d="M202.44,138.14a2.51,2.51,0,0,1-1.72-.56,1.87,1.87,0,0,1-.62-1.47,2,2,0,0,1,1-1.77,5.41,5.41,0,0,1,2.73-.75l1.09-.09q.24,0,.24-.21v-.38a1.52,1.52,0,0,0-.47-1.19,1.73,1.73,0,0,0-1.26-.44,2.37,2.37,0,0,0-2,1.12l-.08.09a.17.17,0,0,1-.12,0l-.75-.25a.1.1,0,0,1-.07-.1.3.3,0,0,1,0-.13,2.89,2.89,0,0,1,1.2-1.15,3.79,3.79,0,0,1,1.84-.41,3.14,3.14,0,0,1,2.1.63,2.24,2.24,0,0,1,.73,1.76v5a.2.2,0,0,1-.05.16s-.07.05-.15.05h-.7c-.11,0-.18-.08-.19-.23l0-.64c0-.07,0-.1-.07-.1a.19.19,0,0,0-.13.07A3.5,3.5,0,0,1,202.44,138.14Zm2.46-3.92-.91.08a4.6,4.6,0,0,0-2,.5,1.3,1.3,0,0,0-.7,1.17,1.18,1.18,0,0,0,.42.95,1.78,1.78,0,0,0,1.14.35,2.61,2.61,0,0,0,1.6-.58,1.91,1.91,0,0,0,.5-.53,1.13,1.13,0,0,0,.17-.56v-1.16C205.11,134.29,205,134.22,204.9,134.22Z"/><path class="cls-7" d="M215.26,130.67v.49a.29.29,0,0,1-.06.21.27.27,0,0,1-.22,0,1.82,1.82,0,0,0-.73.12c-.22.1-.31.2-.28.32a1.68,1.68,0,0,0,.09.22,2.27,2.27,0,0,1,.11.34,1.7,1.7,0,0,1,0,.4,2,2,0,0,1-.77,1.62,3.54,3.54,0,0,1-2.26.63,4.36,4.36,0,0,0-1.43.17c-.29.11-.44.25-.44.43s.1.25.3.32a3.6,3.6,0,0,0,1,.14l1.8.1a3,3,0,0,1,1.79.57,1.71,1.71,0,0,1,.59,1.38,1.87,1.87,0,0,1-.93,1.66,4.88,4.88,0,0,1-2.65.61,5.75,5.75,0,0,1-2.71-.51,1.61,1.61,0,0,1-.93-1.47c0-.62.44-1.15,1.31-1.58q.16-.07,0-.15a.9.9,0,0,1-.64-.83.84.84,0,0,1,.28-.59,2.35,2.35,0,0,1,.82-.46c.05,0,.07,0,.07-.07a.1.1,0,0,0-.07-.1,2.35,2.35,0,0,1-.91-.77,2.22,2.22,0,0,1,.54-2.83,3.78,3.78,0,0,1,2.33-.63,3.21,3.21,0,0,1,2.1.63.2.2,0,0,0,.3,0,2.6,2.6,0,0,1,.62-.45,1.45,1.45,0,0,1,.7-.19C215.17,130.45,215.26,130.53,215.26,130.67Zm-5.32,6.42a1.19,1.19,0,0,0-.57.14,1.53,1.53,0,0,0-.55.46,1,1,0,0,0-.22.64,1.11,1.11,0,0,0,.68,1,4.52,4.52,0,0,0,2,.36c1.58,0,2.37-.47,2.37-1.4a1,1,0,0,0-.33-.77,1.81,1.81,0,0,0-1.07-.32Zm2.68-3.15a1.36,1.36,0,0,0,.49-1.14,1.48,1.48,0,0,0-.49-1.17,2.18,2.18,0,0,0-1.45-.42,2.24,2.24,0,0,0-1.44.42,1.47,1.47,0,0,0-.52,1.17,1.33,1.33,0,0,0,.52,1.13,2.84,2.84,0,0,0,2.89,0Z"/><path class="cls-7" d="M217.86,137.65a3.26,3.26,0,0,1-1.25-1.35,4.33,4.33,0,0,1-.44-2,4.27,4.27,0,0,1,.46-2,3.37,3.37,0,0,1,1.26-1.38,3.7,3.7,0,0,1,3.68,0,3.34,3.34,0,0,1,1.25,1.38,4.49,4.49,0,0,1,.44,2,4.25,4.25,0,0,1-.45,2,3.42,3.42,0,0,1-1.25,1.36,3.54,3.54,0,0,1-1.85.48A3.36,3.36,0,0,1,217.86,137.65Zm3.58-1.18a4.17,4.17,0,0,0,0-4.36,2,2,0,0,0-1.7-.81,2.09,2.09,0,0,0-1.73.81,4.13,4.13,0,0,0,0,4.35,2.11,2.11,0,0,0,1.74.8A2,2,0,0,0,221.44,136.47Z"/></g></g></svg>