<svg xmlns="http://www.w3.org/2000/svg" viewBox="0 0 221.57 170.34"><defs><style>.cls-1{fill:#4c85c5;}.cls-2{fill:#c92568;}.cls-3{fill:#eeb820;}.cls-4{fill:#757777;}.cls-5{fill:#902450;}.cls-6{fill:#4a86c6;}.cls-7{fill:#959595;}.cls-8{fill:#ce2c71;}.cls-9{fill:#f1b91f;}</style></defs><title>chart-venture-partners</title><g id="Layer_2" data-name="Layer 2"><g id="Layer_1-2" data-name="Layer 1"><path class="cls-1" d="M92.6,33.75l4.47,5.82,15.08,19.65L96,57.09,80.32,55A38.9,38.9,0,0,1,92.6,33.75m.3-2.89A41.1,41.1,0,0,0,78,56.74l17.76,2.34,21,2.75-18-23.48L92.9,30.86Z"/><path class="cls-2" d="M79.41,62,95.08,64l16.16,2.13L103.6,72,85.78,85.71A38.84,38.84,0,0,1,79.41,62m-1.83-2.25a41,41,0,0,0,7.74,28.86l19.5-15,11.47-8.81-21-2.75L77.58,59.72Z"/><path class="cls-2" d="M95.34,62.05l21,2.75-21-2.75Zm21,2.75-11.47,8.81,11.47-8.81Z"/><path class="cls-3" d="M115.5,71.71l-4.18,31.83A38.86,38.86,0,0,1,90,91.26L115.5,71.71m2.62-4.53L87.15,91A41.06,41.06,0,0,0,113,105.89l5.09-38.71Z"/><path class="cls-4" d="M122.87,69.39l30.77,17.4a40,40,0,0,1-33.31,17.7c-.68,0-1.37,0-2.07,0l4.61-35m-1.6-3.2L116,106.28c1.45.14,2.9.21,4.33.21a41.92,41.92,0,0,0,36.14-20.4l-35.2-19.9Z"/><path class="cls-2" d="M121.27,66.19,116,106.28Z"/><path class="cls-5" d="M120,23.1A40.43,40.43,0,0,1,152.35,39c9.5,12.38,11.22,27.82,4.75,41.69l-5.48-3.09L123.77,61.86l-1.09-.62-.27-.15-.47-.62-23.78-31A40.28,40.28,0,0,1,120,23.1m0-2A42.24,42.24,0,0,0,95.28,29l25.07,32.65.53.69.2.25h0l.61.35,1.09.62,27.86,15.75L158,83.48c7.91-15.08,6.45-32.05-4-45.69A42.39,42.39,0,0,0,120,21.1Z"/><path class="cls-6" d="M33.57,6.9c.7-.61,1.22-1.1,1.57-1.46a4.37,4.37,0,0,0,.71-1,2,2,0,0,0,.2-.89,1.4,1.4,0,0,0-.51-1.14A1.86,1.86,0,0,0,34.27,2,2.14,2.14,0,0,0,33,2.42a3.92,3.92,0,0,0-1.09,1.29.21.21,0,0,1-.21.13.49.49,0,0,1-.23-.06L30.08,3a.34.34,0,0,1-.19-.29A.43.43,0,0,1,30,2.51,5,5,0,0,1,34.43,0,5.57,5.57,0,0,1,36.7.43a3.49,3.49,0,0,1,1.52,1.25,3.33,3.33,0,0,1,.55,1.92,3.31,3.31,0,0,1-.52,1.79,8.11,8.11,0,0,1-1.79,1.83l-3,2.32c-.06,0-.09.08-.09.11s.06.08.19.08h5c.21,0,.31.08.31.25v1.76c0,.19-.11.29-.32.29H30.22a.39.39,0,0,1-.28-.07.33.33,0,0,1-.08-.26V10.46a.55.55,0,0,1,.12-.31,5.44,5.44,0,0,1,.61-.57Z"/><path class="cls-7" d="M.05,31a.17.17,0,0,1,0-.12v-10c0-.13.06-.2.18-.2H3.42a5,5,0,0,1,2.87.7,2.47,2.47,0,0,1,.57,3.42,3,3,0,0,1-1.39.91.06.06,0,0,0,0,.06s0,0,0,.05a2.41,2.41,0,0,1,2.09,2.48,2.34,2.34,0,0,1-1,2.08,5.43,5.43,0,0,1-3,.69H.17A.13.13,0,0,1,.05,31Zm3.55-5.7a3.1,3.1,0,0,0,1.66-.42A1.48,1.48,0,0,0,6,23.49a1.6,1.6,0,0,0-.67-1.4,3.24,3.24,0,0,0-1.86-.47H1.53c-.12,0-.19.06-.19.17v3.3c0,.13,0,.19.13.19Zm-.16,4.77a3.73,3.73,0,0,0,2.05-.45,1.55,1.55,0,0,0,.67-1.38,1.63,1.63,0,0,0-.7-1.46,3.33,3.33,0,0,0-1.86-.47H1.54a.3.3,0,0,0-.16,0,.2.2,0,0,0,0,.13v3.41a.28.28,0,0,0,0,.15.11.11,0,0,0,.1,0Z"/><path class="cls-7" d="M10.69,30.79a.27.27,0,0,1,0,.19.32.32,0,0,1-.2.05H9.71a.22.22,0,0,1-.16,0,.21.21,0,0,1,0-.15v-10c0-.13.06-.2.17-.2h.84c.11,0,.16.07.16.19Z"/><path class="cls-7" d="M14.1,30.69a3.24,3.24,0,0,1-1.24-1.35,4.24,4.24,0,0,1-.44-2,4.34,4.34,0,0,1,.45-2A3.51,3.51,0,0,1,14.13,24a3.65,3.65,0,0,1,3.69,0,3.32,3.32,0,0,1,1.24,1.38,4.43,4.43,0,0,1,.44,2,4.21,4.21,0,0,1-.45,2,3.35,3.35,0,0,1-1.25,1.36,3.45,3.45,0,0,1-1.84.49A3.58,3.58,0,0,1,14.1,30.69Zm3.59-1.19a3.53,3.53,0,0,0,.61-2.18,3.47,3.47,0,0,0-.63-2.18,2,2,0,0,0-1.7-.8,2.08,2.08,0,0,0-1.72.8,3.47,3.47,0,0,0-.63,2.18,3.4,3.4,0,0,0,.63,2.17,2.1,2.1,0,0,0,1.74.8A2,2,0,0,0,17.69,29.5Z"/><path class="cls-7" d="M26.06,24a3.41,3.41,0,0,1,1.15,1.26l0,.11c0,.06,0,.09-.1.1l-.77.18,0,0s-.09,0-.14-.12a3.8,3.8,0,0,0-.86-.88,1.6,1.6,0,0,0-.94-.28,2.11,2.11,0,0,0-1.74.81A3.36,3.36,0,0,0,22,27.32a3.33,3.33,0,0,0,.66,2.19,2.15,2.15,0,0,0,1.75.8A2,2,0,0,0,25.57,30a2.92,2.92,0,0,0,.9-1,.19.19,0,0,1,.08-.08l.1,0,.6.23q.11,0,.06.18a3.71,3.71,0,0,1-1.19,1.33,3.13,3.13,0,0,1-1.81.51,3.4,3.4,0,0,1-1.82-.49,3.31,3.31,0,0,1-1.24-1.35,4.26,4.26,0,0,1-.45-2,4.36,4.36,0,0,1,.45-2A3.29,3.29,0,0,1,22.5,24a3.4,3.4,0,0,1,1.82-.49A3,3,0,0,1,26.06,24Z"/><path class="cls-7" d="M35.26,30.91q0,.12-.15.12h-1A.29.29,0,0,1,34,31a.42.42,0,0,1-.11-.14l-2.12-3.62a.11.11,0,0,0-.06-.08.12.12,0,0,0-.1.05l-1.49,1.5A.4.4,0,0,0,30,29v1.8c0,.1,0,.16-.05.19a.32.32,0,0,1-.2.05h-.71a.25.25,0,0,1-.17,0,.21.21,0,0,1,0-.15v-10c0-.13.05-.2.15-.2h.86c.11,0,.16.07.16.19v6.49c0,.1,0,.14,0,.14s.06,0,.1-.08l3.45-3.6a.45.45,0,0,1,.3-.17h.85c.11,0,.17,0,.17.1a.35.35,0,0,1-.1.17l-2.21,2.25a.28.28,0,0,0-.06.13.25.25,0,0,0,0,.11l2.63,4.44S35.26,30.86,35.26,30.91Z"/><path class="cls-7" d="M41.14,24a3.41,3.41,0,0,1,1.15,1.26l0,.11c0,.06,0,.09-.1.1l-.77.18,0,0s-.09,0-.14-.12a4,4,0,0,0-.86-.88,1.63,1.63,0,0,0-.95-.28,2.1,2.1,0,0,0-1.73.81,3.36,3.36,0,0,0-.65,2.17,3.33,3.33,0,0,0,.66,2.19,2.15,2.15,0,0,0,1.75.8A2.07,2.07,0,0,0,40.65,30a2.92,2.92,0,0,0,.9-1,.19.19,0,0,1,.08-.08l.1,0,.6.23q.11,0,.06.18a3.8,3.8,0,0,1-1.19,1.33,3.13,3.13,0,0,1-1.81.51,3.4,3.4,0,0,1-1.82-.49,3.31,3.31,0,0,1-1.24-1.35,4.26,4.26,0,0,1-.45-2,4.36,4.36,0,0,1,.45-2A3.23,3.23,0,0,1,37.58,24a3.39,3.39,0,0,1,1.81-.49A3,3,0,0,1,41.14,24Z"/><path class="cls-7" d="M43.92,30.85v-10c0-.13,0-.19.15-.19h.83c.1,0,.15.06.15.17v3.74c0,.1,0,.12.12,0a7.75,7.75,0,0,1,1.36-.87,3.16,3.16,0,0,1,1.24-.25,2.21,2.21,0,0,1,1.65.58A2.07,2.07,0,0,1,50,25.6v5.21c0,.15-.06.22-.21.22H49a.16.16,0,0,1-.18-.18v-5a1.53,1.53,0,0,0-.36-1.08,1.45,1.45,0,0,0-1.1-.37,2.15,2.15,0,0,0-1.07.26,7.61,7.61,0,0,0-1.21.87v5.29c0,.14-.07.21-.22.21H44.1A.16.16,0,0,1,43.92,30.85Z"/><path class="cls-7" d="M53.9,31.17a2.5,2.5,0,0,1-1.72-.55,1.89,1.89,0,0,1-.62-1.48,2,2,0,0,1,.95-1.76,5.48,5.48,0,0,1,2.73-.76l1.09-.08q.24,0,.24-.21V26a1.56,1.56,0,0,0-.47-1.2,1.78,1.78,0,0,0-1.27-.44,2.35,2.35,0,0,0-2,1.12.19.19,0,0,1-.09.09s-.06,0-.11,0l-.75-.25a.1.1,0,0,1-.07-.1.27.27,0,0,1,0-.12A2.92,2.92,0,0,1,53,23.88a3.9,3.9,0,0,1,1.84-.41,3.08,3.08,0,0,1,2.1.64,2.23,2.23,0,0,1,.73,1.76v4.95a.23.23,0,0,1-.05.17s-.07,0-.15,0h-.7c-.11,0-.18-.07-.19-.22l0-.65c0-.06,0-.1-.07-.1a.24.24,0,0,0-.13.07A3.46,3.46,0,0,1,53.9,31.17Zm2.46-3.92-.91.09a4.47,4.47,0,0,0-2,.5,1.29,1.29,0,0,0-.7,1.16,1.17,1.17,0,0,0,.42.95,1.73,1.73,0,0,0,1.14.35,2.55,2.55,0,0,0,.86-.15,2.34,2.34,0,0,0,.74-.42,2.09,2.09,0,0,0,.5-.54,1.1,1.1,0,0,0,.17-.55V27.48C56.57,27.33,56.5,27.25,56.36,27.25Z"/><path class="cls-7" d="M61,22a.28.28,0,0,1-.06.2.24.24,0,0,1-.19.06h-.81q-.21,0-.21-.24V20.87c0-.15.06-.23.19-.23h.89a.2.2,0,0,1,.14.06.25.25,0,0,1,0,.15V22Zm0,8.77c0,.1,0,.16-.06.19a.32.32,0,0,1-.2.05H60a.25.25,0,0,1-.17,0,.21.21,0,0,1,0-.15v-7c0-.13.06-.2.17-.2h.85c.11,0,.16.06.16.19Z"/><path class="cls-7" d="M63.1,30.85V23.79q0-.18.15-.18h.84a.13.13,0,0,1,.15.15v.82c0,.1.05.11.13,0a7.16,7.16,0,0,1,1.34-.88A2.79,2.79,0,0,1,67,23.47,2.27,2.27,0,0,1,68.6,24a2,2,0,0,1,.6,1.54v5.23A.19.19,0,0,1,69,31h-.78a.17.17,0,0,1-.19-.18v-5a1.51,1.51,0,0,0-.35-1.08,1.47,1.47,0,0,0-1.1-.38,2.37,2.37,0,0,0-1.09.26,7.52,7.52,0,0,0-1.21.88v5.29a.23.23,0,0,1,0,.16.22.22,0,0,1-.16.05h-.77C63.16,31,63.1,31,63.1,30.85Z"/><path class="cls-8" d="M39.57,69.9c.7-.61,1.22-1.1,1.57-1.46a4.37,4.37,0,0,0,.71-1,2,2,0,0,0,.2-.89,1.4,1.4,0,0,0-.51-1.14A1.86,1.86,0,0,0,40.27,65a2.14,2.14,0,0,0-1.24.39,3.92,3.92,0,0,0-1.09,1.29.21.21,0,0,1-.21.13.49.49,0,0,1-.23-.06L36.08,66a.34.34,0,0,1-.19-.29.43.43,0,0,1,.08-.24A5,5,0,0,1,40.43,63a5.74,5.74,0,0,1,2.27.43,3.49,3.49,0,0,1,1.52,1.25,3.35,3.35,0,0,1,.55,1.92,3.31,3.31,0,0,1-.52,1.79,8.11,8.11,0,0,1-1.79,1.83l-3,2.32c-.06,0-.09.08-.09.11s.06.08.19.08h5c.21,0,.31.08.31.25v1.76c0,.19-.11.29-.32.29H36.22a.39.39,0,0,1-.28-.07.33.33,0,0,1-.08-.26V73.46a.55.55,0,0,1,.12-.31,4.78,4.78,0,0,1,.61-.56Z"/><path class="cls-7" d="M14.43,83.64h6.16c.09,0,.14.06.14.16v.71c0,.11-.06.17-.19.17H15.78a.22.22,0,0,0-.14,0,.23.23,0,0,0,0,.14v3.44a.14.14,0,0,0,.16.16h3.73c.11,0,.16,0,.16.14v.74a.12.12,0,0,1,0,.1s-.06,0-.12,0H15.76a.14.14,0,0,0-.16.16v4.24c0,.12-.06.18-.19.18h-.95a.22.22,0,0,1-.16,0,.27.27,0,0,1,0-.15v-10C14.26,83.71,14.31,83.64,14.43,83.64Z"/><path class="cls-7" d="M23.62,85a.36.36,0,0,1-.05.21.27.27,0,0,1-.2.06h-.81q-.21,0-.21-.24V83.87c0-.15.07-.23.2-.23h.88a.18.18,0,0,1,.14.06.2.2,0,0,1,.06.15V85Zm-.05,8.78c0,.1,0,.16-.06.19a.31.31,0,0,1-.19,0H22.6a.25.25,0,0,1-.17,0,.28.28,0,0,1,0-.16v-7c0-.13.06-.2.17-.2h.85c.11,0,.16.06.16.18Z"/><path class="cls-7" d="M25.74,93.85V86.79q0-.18.15-.18h.84c.11,0,.16,0,.16.15v.82c0,.1,0,.11.12,0a7.16,7.16,0,0,1,1.34-.88,2.79,2.79,0,0,1,1.24-.27,2.31,2.31,0,0,1,1.66.57,2.08,2.08,0,0,1,.59,1.54v5.23c0,.15-.07.22-.21.22h-.78a.17.17,0,0,1-.19-.18v-5a1.5,1.5,0,0,0-.35-1.08,1.47,1.47,0,0,0-1.1-.38,2.4,2.4,0,0,0-1.09.26,7.52,7.52,0,0,0-1.21.88v5.29c0,.08,0,.13-.05.16a.22.22,0,0,1-.16,0h-.77C25.8,94,25.74,94,25.74,93.85Z"/><path class="cls-7" d="M37.3,90.6c0,.13-.08.2-.24.2H33.89a.18.18,0,0,1-.14,0,.14.14,0,0,1,0-.13V90c0-.11,0-.16.13-.16h3.33c.1,0,.14,0,.14.14Z"/><path class="cls-7" d="M37.08,83.8c0-.11.05-.16.17-.16h7.53c.11,0,.17,0,.17.16v.73a.13.13,0,0,1-.05.11s-.07,0-.12,0H41.94a.17.17,0,0,0-.12,0,.12.12,0,0,0,0,.11v9c0,.12-.05.18-.17.18h-1c-.12,0-.17-.06-.17-.18v-9a.19.19,0,0,0,0-.13.16.16,0,0,0-.11,0h-3a.24.24,0,0,1-.13,0,.12.12,0,0,1,0-.11Z"/><path class="cls-7" d="M46.23,92a2.43,2.43,0,0,0,.89.91,2.37,2.37,0,0,0,1.23.34,2.48,2.48,0,0,0,2.18-1.17s.07-.06.1-.06a.2.2,0,0,1,.1,0l.59.3c.07,0,.08.11,0,.19A3.38,3.38,0,0,1,50,93.79a4,4,0,0,1-1.8.38,3.62,3.62,0,0,1-1.84-.47,3.42,3.42,0,0,1-1.27-1.34,4.21,4.21,0,0,1-.45-2,4.46,4.46,0,0,1,.46-2.08A3.28,3.28,0,0,1,46.41,87a3.68,3.68,0,0,1,3.58,0,3,3,0,0,1,1.18,1.31,4.45,4.45,0,0,1,.42,2v0a.34.34,0,0,1,0,.19s-.08.06-.16.06H46q-.12,0-.12.21A2.46,2.46,0,0,0,46.23,92Zm4-2.23a.43.43,0,0,0,.2,0s0-.08,0-.16a2.58,2.58,0,0,0-.26-1.14,2.1,2.1,0,0,0-.75-.84,2.15,2.15,0,0,0-1.16-.32,2.19,2.19,0,0,0-1.25.36,2.4,2.4,0,0,0-.81.92,2.65,2.65,0,0,0-.27,1.21Z"/><path class="cls-7" d="M58.07,87a3.44,3.44,0,0,1,1.16,1.26l0,.11a.09.09,0,0,1-.09.1l-.77.18,0,0s-.09,0-.14-.12a3.8,3.8,0,0,0-.86-.88,1.6,1.6,0,0,0-.94-.28,2.11,2.11,0,0,0-1.74.81,4,4,0,0,0,0,4.36,2.15,2.15,0,0,0,1.75.8A2,2,0,0,0,57.58,93a2.92,2.92,0,0,0,.9-1,.16.16,0,0,1,.09-.08l.09,0,.61.23c.06,0,.08.09,0,.18a3.6,3.6,0,0,1-1.19,1.32,3.12,3.12,0,0,1-1.8.51,3.46,3.46,0,0,1-1.82-.48,3.33,3.33,0,0,1-1.25-1.35,4.26,4.26,0,0,1-.45-2,4.43,4.43,0,0,1,.45-2A3.32,3.32,0,0,1,54.51,87a3.43,3.43,0,0,1,1.82-.49A3,3,0,0,1,58.07,87Z"/><path class="cls-7" d="M60.85,93.85v-10c0-.12,0-.19.15-.19h.83c.1,0,.15.06.15.17v3.74c0,.1,0,.12.13,0a7.08,7.08,0,0,1,1.36-.87,3.07,3.07,0,0,1,1.23-.25,2.24,2.24,0,0,1,1.66.58,2.11,2.11,0,0,1,.58,1.55v5.21c0,.15-.07.22-.21.22h-.79a.16.16,0,0,1-.18-.18v-5a1.53,1.53,0,0,0-.35-1.07,1.43,1.43,0,0,0-1.1-.38,2.18,2.18,0,0,0-1.08.26,7.61,7.61,0,0,0-1.21.87v5.29C62,94,62,94,61.8,94H61A.16.16,0,0,1,60.85,93.85Z"/><path class="cls-9" d="M96.9,127.06a19.91,19.91,0,0,0,1.57-1.45,4.06,4.06,0,0,0,.71-1,2.07,2.07,0,0,0,.2-.89,1.46,1.46,0,0,0-.5-1.15,1.93,1.93,0,0,0-1.27-.42,2.12,2.12,0,0,0-1.24.39,3.94,3.94,0,0,0-1.1,1.29.2.2,0,0,1-.21.13.38.38,0,0,1-.22-.07l-1.43-.73a.38.38,0,0,1-.19-.29.52.52,0,0,1,.08-.24,5,5,0,0,1,4.47-2.51,5.56,5.56,0,0,1,2.26.43,3.3,3.3,0,0,1,2.07,3.17,3.23,3.23,0,0,1-.52,1.79,8,8,0,0,1-1.78,1.82l-3,2.32c-.07.05-.1.08-.1.12s.07.08.19.08h5c.2,0,.3.08.3.25v1.76c0,.19-.1.29-.32.29H93.56a.42.42,0,0,1-.29-.07.38.38,0,0,1-.08-.27v-1.23a.51.51,0,0,1,.13-.31,4.33,4.33,0,0,1,.6-.57Z"/><path class="cls-7" d="M80.55,140.88a.22.22,0,0,1,0,.18L77.69,151a.26.26,0,0,1-.1.16.41.41,0,0,1-.21,0h-.85c-.18,0-.29-.06-.33-.2L74,143.07c0-.11-.06-.1-.09,0L71.6,151a.26.26,0,0,1-.1.16.41.41,0,0,1-.21,0h-.87c-.18,0-.28-.06-.32-.2l-2.84-9.93a.24.24,0,0,1,0-.08q0-.18.21-.18h.9a.22.22,0,0,1,.24.17l2.28,8.15c0,.1,0,.15.08.15s.07-.05.09-.14L73.36,141a.24.24,0,0,1,.25-.15h.8a.29.29,0,0,1,.17,0,.22.22,0,0,1,.08.13l2.3,8.19c0,.08.05.12.08.12s.06,0,.09-.12L79.44,141c0-.1.1-.15.23-.15h.7A.22.22,0,0,1,80.55,140.88Z"/><path class="cls-7" d="M82.44,149.2a2.59,2.59,0,0,0,.89.91,2.39,2.39,0,0,0,1.23.33,2.49,2.49,0,0,0,2.19-1.16.14.14,0,0,1,.09-.06.13.13,0,0,1,.1,0l.59.29a.12.12,0,0,1,0,.2,3.35,3.35,0,0,1-1.3,1.22,3.93,3.93,0,0,1-1.81.39,3.52,3.52,0,0,1-1.83-.48,3.2,3.2,0,0,1-1.27-1.33,4.21,4.21,0,0,1-.46-2,4.4,4.4,0,0,1,.47-2.08,3.35,3.35,0,0,1,1.26-1.37,3.56,3.56,0,0,1,1.81-.47,3.44,3.44,0,0,1,1.78.45,2.91,2.91,0,0,1,1.18,1.31,4.57,4.57,0,0,1,.42,2v.06a.34.34,0,0,1,0,.19.21.21,0,0,1-.17.06H82.24c-.09,0-.13.07-.13.21A2.49,2.49,0,0,0,82.44,149.2Zm4-2.23a.38.38,0,0,0,.19,0s0-.08,0-.17a2.45,2.45,0,0,0-.26-1.14,2,2,0,0,0-.75-.84,2.12,2.12,0,0,0-1.16-.31,2.22,2.22,0,0,0-1.24.35,2.27,2.27,0,0,0-.81.93,2.52,2.52,0,0,0-.27,1.21Z"/><path class="cls-7" d="M91.28,151.34a2.51,2.51,0,0,1-1.71-.55,1.87,1.87,0,0,1-.63-1.48,2,2,0,0,1,1-1.77,5.53,5.53,0,0,1,2.74-.75l1.09-.09c.16,0,.24-.08.24-.21v-.37a1.57,1.57,0,0,0-.47-1.2,1.77,1.77,0,0,0-1.27-.44,2.38,2.38,0,0,0-2,1.12.24.24,0,0,1-.08.09.14.14,0,0,1-.11,0l-.76-.25a.1.1,0,0,1-.07-.1.27.27,0,0,1,0-.12,2.92,2.92,0,0,1,1.2-1.16,3.93,3.93,0,0,1,1.84-.41,3.05,3.05,0,0,1,2.1.64,2.19,2.19,0,0,1,.73,1.75v5a.25.25,0,0,1,0,.17.28.28,0,0,1-.16,0h-.7c-.11,0-.17-.08-.19-.23l0-.64c0-.07,0-.1-.07-.1a.19.19,0,0,0-.13.07A3.46,3.46,0,0,1,91.28,151.34Zm2.47-3.92-.91.08a4.59,4.59,0,0,0-2,.51,1.28,1.28,0,0,0-.71,1.16,1.15,1.15,0,0,0,.43,1,1.74,1.74,0,0,0,1.14.35,2.5,2.5,0,0,0,.85-.15,2.8,2.8,0,0,0,.74-.42,2.09,2.09,0,0,0,.5-.54,1.05,1.05,0,0,0,.18-.55v-1.17C94,147.49,93.89,147.42,93.75,147.42Z"/><path class="cls-7" d="M97.14,151V144q0-.18.15-.18h.81a.13.13,0,0,1,.15.15v.91c0,.06,0,.09,0,.1s.07,0,.11-.06a2.93,2.93,0,0,1,2.17-1.24c.32,0,.49.06.49.18v.84c0,.1,0,.13-.13.11a5.27,5.27,0,0,0-.63,0,2,2,0,0,0-.88.24,2.58,2.58,0,0,0-.8.61,1.23,1.23,0,0,0-.32.77V151a.19.19,0,0,1-.21.21h-.77C97.2,151.2,97.14,151.14,97.14,151Z"/><path class="cls-7" d="M104.28,151.34a2.54,2.54,0,0,1-1.72-.55,1.86,1.86,0,0,1-.62-1.48,2,2,0,0,1,.94-1.77,5.53,5.53,0,0,1,2.74-.75l1.09-.09c.16,0,.24-.08.24-.21v-.37a1.57,1.57,0,0,0-.47-1.2,1.75,1.75,0,0,0-1.27-.44,2.35,2.35,0,0,0-2,1.12.25.25,0,0,1-.09.09.15.15,0,0,1-.11,0l-.76-.25a.11.11,0,0,1-.07-.1.33.33,0,0,1,0-.12,2.83,2.83,0,0,1,1.19-1.16,3.93,3.93,0,0,1,1.84-.41,3.05,3.05,0,0,1,2.1.64,2.19,2.19,0,0,1,.73,1.75v5a.25.25,0,0,1,0,.17.27.27,0,0,1-.15,0h-.7c-.12,0-.18-.08-.2-.23l0-.64c0-.07,0-.1-.07-.1a.17.17,0,0,0-.12.07A3.5,3.5,0,0,1,104.28,151.34Zm2.46-3.92-.91.08a4.59,4.59,0,0,0-2,.51,1.3,1.3,0,0,0-.71,1.16,1.15,1.15,0,0,0,.43,1,1.74,1.74,0,0,0,1.14.35,2.5,2.5,0,0,0,.85-.15,3,3,0,0,0,.75-.42,2,2,0,0,0,.49-.54,1.05,1.05,0,0,0,.18-.55v-1.17C107,147.49,106.88,147.42,106.74,147.42Z"/><path class="cls-7" d="M110.35,151.2a.28.28,0,0,1-.18,0,.25.25,0,0,1,0-.17V141c0-.13.05-.2.16-.2h.87c.1,0,.14.07.14.2v3.43c0,.1,0,.15.07.15a.25.25,0,0,0,.14-.07,3.15,3.15,0,0,1,2.24-.88A2.55,2.55,0,0,1,116,144.7a4.57,4.57,0,0,1,.77,2.75,4.38,4.38,0,0,1-.85,2.85,2.86,2.86,0,0,1-2.34,1,2.76,2.76,0,0,1-1.42-.34,3.15,3.15,0,0,1-.87-.77.1.1,0,0,0-.08,0s-.06,0-.07.09l-.07.71a.3.3,0,0,1-.08.17.25.25,0,0,1-.17,0Zm1-2.51a1.59,1.59,0,0,0,.29.91,2.06,2.06,0,0,0,.75.65,2,2,0,0,0,1,.25,1.94,1.94,0,0,0,1.61-.76,3.54,3.54,0,0,0,.61-2.27,3.75,3.75,0,0,0-.55-2.2,1.8,1.8,0,0,0-1.58-.78,2.59,2.59,0,0,0-1.17.28,3,3,0,0,0-.93.76v3.16Z"/><path class="cls-7" d="M119.7,151a.29.29,0,0,1,0,.19.34.34,0,0,1-.2,0h-.73a.32.32,0,0,1-.17,0,.22.22,0,0,1,0-.16l0-10c0-.13,0-.2.16-.2h.84c.12,0,.17.06.17.18Z"/><path class="cls-7" d="M123,149.2a2.59,2.59,0,0,0,.89.91,2.39,2.39,0,0,0,1.23.33,2.49,2.49,0,0,0,2.19-1.16.14.14,0,0,1,.09-.06.12.12,0,0,1,.1,0l.59.29a.12.12,0,0,1,0,.2,3.35,3.35,0,0,1-1.3,1.22,3.93,3.93,0,0,1-1.81.39,3.52,3.52,0,0,1-1.83-.48,3.2,3.2,0,0,1-1.27-1.33,4.21,4.21,0,0,1-.46-2,4.4,4.4,0,0,1,.47-2.08,3.35,3.35,0,0,1,1.26-1.37,3.58,3.58,0,0,1,1.82-.47,3.43,3.43,0,0,1,1.77.45,2.91,2.91,0,0,1,1.18,1.31,4.57,4.57,0,0,1,.42,2v.06a.34.34,0,0,1,0,.19.21.21,0,0,1-.17.06h-5.36c-.09,0-.13.07-.13.21A2.49,2.49,0,0,0,123,149.2Zm4-2.23a.38.38,0,0,0,.19,0s0-.08,0-.17a2.45,2.45,0,0,0-.26-1.14,2,2,0,0,0-.75-.84,2.12,2.12,0,0,0-1.16-.31,2.22,2.22,0,0,0-1.24.35,2.27,2.27,0,0,0-.81.93,2.52,2.52,0,0,0-.27,1.21Z"/><path class="cls-7" d="M82.62,160c0-.1,0-.15.16-.15h7.54c.11,0,.16.05.16.15v.73c0,.06,0,.1,0,.12l-.12,0H87.47a.21.21,0,0,0-.12,0,.16.16,0,0,0,0,.11V170c0,.12-.06.18-.17.18h-1c-.11,0-.16-.06-.16-.18v-9a.19.19,0,0,0,0-.13.16.16,0,0,0-.11,0H82.78l-.12,0s0-.06,0-.12Z"/><path class="cls-7" d="M91.77,168.2a2.43,2.43,0,0,0,.89.91,2.36,2.36,0,0,0,1.23.33,2.47,2.47,0,0,0,2.18-1.16s.07-.06.1-.06a.13.13,0,0,1,.1,0l.59.29a.13.13,0,0,1,0,.2,3.28,3.28,0,0,1-1.3,1.22,3.86,3.86,0,0,1-1.8.39,3.53,3.53,0,0,1-1.84-.48,3.32,3.32,0,0,1-1.27-1.33,4.21,4.21,0,0,1-.45-2,4.4,4.4,0,0,1,.46-2.08A3.37,3.37,0,0,1,92,163.11a3.56,3.56,0,0,1,1.81-.47,3.43,3.43,0,0,1,1.77.45,2.93,2.93,0,0,1,1.19,1.31,4.57,4.57,0,0,1,.42,2v.06a.33.33,0,0,1,0,.19s-.08.06-.17.06H91.56q-.12,0-.12.21A2.49,2.49,0,0,0,91.77,168.2Zm4-2.23a.4.4,0,0,0,.2,0s0-.08,0-.17a2.58,2.58,0,0,0-.26-1.14,2,2,0,0,0-.76-.84,2.08,2.08,0,0,0-1.15-.31,2.26,2.26,0,0,0-1.25.35,2.42,2.42,0,0,0-.81.93,2.52,2.52,0,0,0-.26,1.21Z"/><path class="cls-7" d="M103.61,163.11a3.58,3.58,0,0,1,1.15,1.26l0,.12s0,.09-.1.1l-.77.18h0s-.09,0-.14-.11a3.8,3.8,0,0,0-.86-.88,1.6,1.6,0,0,0-.94-.28,2.13,2.13,0,0,0-1.74.8,3.41,3.41,0,0,0-.64,2.18,3.34,3.34,0,0,0,.65,2.19,2.14,2.14,0,0,0,1.75.79,2,2,0,0,0,1.16-.32,2.92,2.92,0,0,0,.9-1,.12.12,0,0,1,.18-.06l.61.23c.06,0,.08.08,0,.18a3.6,3.6,0,0,1-1.19,1.32,3.12,3.12,0,0,1-1.8.51,3.46,3.46,0,0,1-1.82-.48,3.26,3.26,0,0,1-1.25-1.35,4.26,4.26,0,0,1-.45-2,4.37,4.37,0,0,1,.45-2,3.41,3.41,0,0,1,1.25-1.38,3.52,3.52,0,0,1,1.82-.49A3.14,3.14,0,0,1,103.61,163.11Z"/><path class="cls-7" d="M106.39,170V160q0-.18.15-.18h.83c.1,0,.15.06.15.17v3.74c0,.1,0,.11.13,0a7.08,7.08,0,0,1,1.36-.87,2.91,2.91,0,0,1,1.23-.25,2.28,2.28,0,0,1,1.66.57,2.13,2.13,0,0,1,.58,1.56V170a.19.19,0,0,1-.21.22h-.79a.16.16,0,0,1-.18-.18v-5a1.5,1.5,0,0,0-.36-1.08,1.44,1.44,0,0,0-1.1-.38,2.29,2.29,0,0,0-1.07.26,8.53,8.53,0,0,0-1.21.88V170c0,.14-.07.21-.22.21h-.77A.16.16,0,0,1,106.39,170Z"/><path class="cls-4" d="M186.06,103.55a.45.45,0,0,1,.06-.19,4.42,4.42,0,0,1,1.76-1.21,6.35,6.35,0,0,1,2.39-.45,6.69,6.69,0,0,1,2.39.39,3.49,3.49,0,0,1,1.55,1.1,2.58,2.58,0,0,1,.54,1.61,2.45,2.45,0,0,1-.5,1.48,2.53,2.53,0,0,1-1.39,1c-.13,0-.19.1-.19.16s.06.1.17.13a3.59,3.59,0,0,1,1.65,1.08,2.51,2.51,0,0,1,.62,1.69,3.1,3.1,0,0,1-1.27,2.67,7.35,7.35,0,0,1-6.33.4,4.6,4.6,0,0,1-1.87-1.45.43.43,0,0,1-.08-.21c0-.09.06-.17.18-.26l1.25-.88a.45.45,0,0,1,.2-.09.15.15,0,0,1,.15.08,5.16,5.16,0,0,0,1.38,1.07,3.52,3.52,0,0,0,1.52.3,2.51,2.51,0,0,0,1.56-.43,1.38,1.38,0,0,0,.56-1.14,1.46,1.46,0,0,0-.63-1.24,2.68,2.68,0,0,0-1.59-.48l-1.38,0c-.18,0-.27-.08-.27-.23v-1.5c0-.12.09-.19.27-.23l1.11,0a2.5,2.5,0,0,0,1.54-.47A1.38,1.38,0,0,0,192,105a1.19,1.19,0,0,0-.5-1,2,2,0,0,0-1.27-.39,3.17,3.17,0,0,0-1.35.28,4.47,4.47,0,0,0-1.25.9.31.31,0,0,1-.17.11.71.71,0,0,1-.18-.11l-1.17-1.09A.21.21,0,0,1,186.06,103.55Z"/><path class="cls-7" d="M159.62,132.52v-10a.25.25,0,0,1,0-.15.16.16,0,0,1,.13,0h1.35a.31.31,0,0,1,.16,0,.18.18,0,0,1,.07.12l3.11,8c0,.08.06.12.1.12s.09,0,.13-.13l3.1-8c0-.13.1-.19.21-.19h1.42c.1,0,.15.06.15.19v10a.19.19,0,0,1-.21.21h-.92q-.21,0-.21-.18v-8c0-.05,0-.07,0-.06s0,0,0,.06l-3.08,8a.29.29,0,0,1-.27.18h-.67a.27.27,0,0,1-.28-.17l-3-7.94s0-.07,0-.07,0,0,0,.07v7.93a.2.2,0,0,1,0,.14.21.21,0,0,1-.15,0h-.76A.18.18,0,0,1,159.62,132.52Z"/><path class="cls-7" d="M173.14,130.73a2.59,2.59,0,0,0,.89.91,2.36,2.36,0,0,0,1.23.33,2.49,2.49,0,0,0,2.19-1.16.18.18,0,0,1,.1-.06.16.16,0,0,1,.09,0l.59.29a.12.12,0,0,1,0,.2,3.45,3.45,0,0,1-1.3,1.23,4.06,4.06,0,0,1-1.81.38,3.52,3.52,0,0,1-1.83-.48,3.26,3.26,0,0,1-1.27-1.33,4.21,4.21,0,0,1-.46-2,4.46,4.46,0,0,1,.47-2.08,3.32,3.32,0,0,1,1.26-1.36,3.51,3.51,0,0,1,1.82-.48,3.43,3.43,0,0,1,1.77.45,3,3,0,0,1,1.18,1.31,4.57,4.57,0,0,1,.42,2V129a.41.41,0,0,1,0,.19.21.21,0,0,1-.17.06h-5.36c-.08,0-.13.07-.13.21A2.46,2.46,0,0,0,173.14,130.73Zm4-2.23a.36.36,0,0,0,.19,0,.22.22,0,0,0,0-.16,2.61,2.61,0,0,0-.25-1.15,2.06,2.06,0,0,0-1.92-1.15,2.15,2.15,0,0,0-1.24.36,2.18,2.18,0,0,0-.81.92,2.52,2.52,0,0,0-.27,1.21Z"/><path class="cls-7" d="M185.24,132.53v-.6c0-.08,0-.12-.07-.12a.2.2,0,0,0-.11.07,4.7,4.7,0,0,1-.91.7,2.58,2.58,0,0,1-1.28.29,3,3,0,0,1-1.6-.42,2.84,2.84,0,0,1-1.11-1.27,4.71,4.71,0,0,1-.4-2.05,4.84,4.84,0,0,1,.42-2.07,3.26,3.26,0,0,1,1.16-1.39,2.9,2.9,0,0,1,1.69-.5,2.85,2.85,0,0,1,1.1.19,3.79,3.79,0,0,1,.86.55.32.32,0,0,0,.16.08s.07-.06.07-.18v-3.29q0-.18.15-.18h.86q.15,0,.15.18v10a.26.26,0,0,1,0,.18.27.27,0,0,1-.19,0h-.71A.18.18,0,0,1,185.24,132.53Zm-.94-6.26a2.19,2.19,0,0,0-1-.23,2.1,2.1,0,0,0-1.71.8,3.54,3.54,0,0,0-.64,2.25,3.23,3.23,0,0,0,.64,2.2,2.08,2.08,0,0,0,1.63.73,2.07,2.07,0,0,0,1.71-.91,1.35,1.35,0,0,0,.26-.79V127A3.55,3.55,0,0,0,184.3,126.27Z"/><path class="cls-7" d="M191.94,129.3c0,.13-.08.2-.24.2h-3.18a.18.18,0,0,1-.14,0s0-.07,0-.13v-.62q0-.15.12-.15l3.34,0a.13.13,0,0,1,.14.14Z"/><path class="cls-7" d="M191.71,122.5c0-.11.06-.16.17-.16h7.53c.12,0,.17,0,.17.16v.72c0,.06,0,.1,0,.12a.24.24,0,0,1-.13,0h-2.84a.17.17,0,0,0-.12,0,.16.16,0,0,0,0,.11v9.05c0,.12-.06.18-.17.18h-1c-.11,0-.17-.06-.17-.18v-9a.31.31,0,0,0,0-.13.17.17,0,0,0-.12,0h-3.05l-.13,0a.17.17,0,0,1,0-.12v-.72Z"/><path class="cls-7" d="M200.86,130.73a2.59,2.59,0,0,0,.89.91A2.41,2.41,0,0,0,203,132a2.49,2.49,0,0,0,2.19-1.16s.07-.06.1-.06a.16.16,0,0,1,.09,0l.59.29a.12.12,0,0,1,0,.2,3.45,3.45,0,0,1-1.3,1.23,4.06,4.06,0,0,1-1.81.38,3.52,3.52,0,0,1-1.83-.48,3.26,3.26,0,0,1-1.27-1.33,4.21,4.21,0,0,1-.46-2,4.46,4.46,0,0,1,.47-2.08,3.28,3.28,0,0,1,1.27-1.36,3.68,3.68,0,0,1,3.58,0,3,3,0,0,1,1.18,1.31,4.57,4.57,0,0,1,.42,2V129a.32.32,0,0,1,0,.19.19.19,0,0,1-.17.06h-5.36c-.08,0-.13.07-.13.21A2.46,2.46,0,0,0,200.86,130.73Zm4-2.23a.36.36,0,0,0,.19,0,.22.22,0,0,0,0-.16,2.61,2.61,0,0,0-.25-1.15,2.06,2.06,0,0,0-1.92-1.15,2.15,2.15,0,0,0-1.24.36,2.18,2.18,0,0,0-.81.92,2.52,2.52,0,0,0-.27,1.21Z"/><path class="cls-7" d="M212.71,125.65a3.41,3.41,0,0,1,1.15,1.26l0,.11a.11.11,0,0,1-.1.1l-.77.18h0s-.1,0-.14-.11a4,4,0,0,0-.86-.88A1.63,1.63,0,0,0,211,126a2.08,2.08,0,0,0-1.73.81,4,4,0,0,0,0,4.36,2.17,2.17,0,0,0,1.76.8,2,2,0,0,0,1.15-.33,2.94,2.94,0,0,0,.91-1,.13.13,0,0,1,.08-.08l.1,0,.6.23c.07,0,.08.09.06.18a3.69,3.69,0,0,1-1.19,1.32,3.18,3.18,0,0,1-1.81.51,3.46,3.46,0,0,1-1.82-.48A3.24,3.24,0,0,1,207.9,131a4.26,4.26,0,0,1-.45-2,4.43,4.43,0,0,1,.45-2,3.28,3.28,0,0,1,1.25-1.38,3.47,3.47,0,0,1,1.81-.48A3,3,0,0,1,212.71,125.65Z"/><path class="cls-7" d="M215.48,132.55v-10c0-.13.06-.19.16-.19h.82c.11,0,.16.06.16.17v3.74c0,.1,0,.11.12,0a7.75,7.75,0,0,1,1.36-.87,3.14,3.14,0,0,1,1.23-.25,2.26,2.26,0,0,1,1.66.57,2.11,2.11,0,0,1,.58,1.56v5.21a.19.19,0,0,1-.21.22h-.78a.16.16,0,0,1-.18-.18v-5a1.5,1.5,0,0,0-.36-1.08,1.45,1.45,0,0,0-1.1-.37,2.25,2.25,0,0,0-1.07.25,8,8,0,0,0-1.21.88v5.29c0,.14-.08.21-.23.21h-.77A.16.16,0,0,1,215.48,132.55Z"/><path class="cls-8" d="M206.89,16.16a.52.52,0,0,1,.35.1.28.28,0,0,1,.1.25l-.05.87a1.81,1.81,0,0,1-.14.42,3.3,3.3,0,0,1-.26.47,21.17,21.17,0,0,0-1.71,3.15,31.77,31.77,0,0,0-1.29,3.42,15,15,0,0,0-.6,2.74q0,.45-.33.45h-2.53c-.19,0-.29-.08-.29-.25a.39.39,0,0,1,0-.13,28.46,28.46,0,0,1,1.49-4.1,42.58,42.58,0,0,1,2.7-4.88.46.46,0,0,0,.06-.18c0-.06-.06-.09-.19-.09h-5.41c-.23,0-.34-.11-.32-.32l.18-1.7c0-.15.15-.22.38-.22Z"/><path class="cls-7" d="M190.35,47a.13.13,0,0,1,0-.12v-10c0-.13.06-.2.18-.2h3.23a5,5,0,0,1,2.88.7,2.47,2.47,0,0,1,.57,3.42,3,3,0,0,1-1.39.91.06.06,0,0,0-.05.06s0,0,.05.05a2.41,2.41,0,0,1,2.09,2.48,2.34,2.34,0,0,1-1,2.08,5.43,5.43,0,0,1-3,.69h-3.34A.13.13,0,0,1,190.35,47Zm3.54-5.7a3.14,3.14,0,0,0,1.67-.42,1.48,1.48,0,0,0,.69-1.37,1.61,1.61,0,0,0-.68-1.4,3.19,3.19,0,0,0-1.86-.47h-1.89c-.12,0-.18.06-.18.17v3.3c0,.13,0,.19.13.19Zm-.15,4.77a3.67,3.67,0,0,0,2-.45,1.54,1.54,0,0,0,.68-1.38,1.66,1.66,0,0,0-.7-1.46,3.34,3.34,0,0,0-1.87-.47h-2a.3.3,0,0,0-.16,0s0,.07,0,.13v3.41a.28.28,0,0,0,0,.15.11.11,0,0,0,.1,0Z"/><path class="cls-7" d="M202.77,42.68a12,12,0,0,0,1.67-1.84,2.71,2.71,0,0,0,.46-1.47,1.59,1.59,0,0,0-.62-1.33,2.23,2.23,0,0,0-1.45-.49,2.83,2.83,0,0,0-2.4,1.39.14.14,0,0,1-.14.07.3.3,0,0,1-.14,0l-.61-.37a.19.19,0,0,1-.12-.16.2.2,0,0,1,.06-.14A4,4,0,0,1,201,37a4.29,4.29,0,0,1,1.94-.45,4,4,0,0,1,1.64.33,2.72,2.72,0,0,1,1.18,1,2.84,2.84,0,0,1,.44,1.6,3.12,3.12,0,0,1-.5,1.69,11.23,11.23,0,0,1-1.75,2l-2.82,2.65s-.07.06-.07.1.06.07.16.07h4.91a.26.26,0,0,1,.14,0,.15.15,0,0,1,0,.12v.81c0,.11-.06.17-.18.17h-6.5a.19.19,0,0,1-.22-.22v-.58a.44.44,0,0,1,.07-.26,1.69,1.69,0,0,1,.31-.33Z"/><path class="cls-7" d="M208.52,47a.13.13,0,0,1-.05-.12v-10c0-.13.06-.2.18-.2h3.23a5,5,0,0,1,2.88.7,2.47,2.47,0,0,1,.57,3.42,3,3,0,0,1-1.39.91.06.06,0,0,0-.05.06s0,0,.05.05A2.41,2.41,0,0,1,216,44.26a2.34,2.34,0,0,1-1,2.08,5.43,5.43,0,0,1-3,.69h-3.34A.13.13,0,0,1,208.52,47Zm3.55-5.7a3.1,3.1,0,0,0,1.66-.42,1.48,1.48,0,0,0,.69-1.37,1.6,1.6,0,0,0-.67-1.4,3.24,3.24,0,0,0-1.86-.47H210c-.12,0-.18.06-.18.17v3.3c0,.13.05.19.13.19Zm-.16,4.77A3.73,3.73,0,0,0,214,45.6a1.55,1.55,0,0,0,.67-1.38,1.63,1.63,0,0,0-.7-1.46,3.33,3.33,0,0,0-1.86-.47H210a.24.24,0,0,0-.15,0,.16.16,0,0,0-.05.13v3.41a.28.28,0,0,0,0,.15.11.11,0,0,0,.1,0Z"/></g></g></svg>