<svg xmlns="http://www.w3.org/2000/svg" viewBox="0 0 612 605.05"><defs><style>.cls-1{fill:#fff;}</style></defs><title>linkedin-white</title><g id="Layer_2" data-name="Layer 2"><g id="Capa_1" data-name="Capa 1"><g id="linkedin"><path class="cls-1" d="M133.57,169H17.64A14.37,14.37,0,0,0,3.27,183.37V588.64A14.38,14.38,0,0,0,17.64,603h116A14.37,14.37,0,0,0,148,588.64V183.37A14.37,14.37,0,0,0,133.57,169ZM119.21,574.28H32V197.74h87.22Zm337.61-410.2c-56.29,0-93.12,24.29-114.51,45.42L339.67,182a14.38,14.38,0,0,0-14.29-13h-.29L219.4,171a14.38,14.38,0,0,0-14.08,15c1.32,29.59,1.28,64.18,1.22,104.23V590.68a14.37,14.37,0,0,0,14.36,14.37h116a14.37,14.37,0,0,0,14.36-14.37V356.4c0-12,1-20.61,3.09-25.77,7.23-18.4,31.07-37.41,58.45-37.41,35.47,0,56.62,27,56.62,72.18V590.68a14.38,14.38,0,0,0,14.37,14.37H597.64A14.38,14.38,0,0,0,612,590.68v-240C612,233.83,554,164.08,456.82,164.08ZM583.27,576.32H498.09V365.4c0-61.31-33.51-100.91-85.35-100.91-41.14,0-74.59,28.67-85.15,55.57-3.49,8.72-5.11,20.28-5.11,36.34V576.32H235.26v-286c0-34,.09-64.12-.7-90.84L312.35,198l4.47,46.33a14.37,14.37,0,0,0,14.3,13h2.45a14.35,14.35,0,0,0,12.18-6.75c8.47-13.55,41.52-57.73,111.09-57.73,80.37,0,126.45,57.54,126.45,157.88V576.32ZM80.47,0C33.84,0,0,32.13,0,76.42s33.17,76.37,78.86,76.37c47.1,0,81.29-32.12,81.29-76.72C159.1,31.29,126.33,0,80.47,0ZM78.86,124.06c-29.52,0-50.13-19.59-50.13-47.64,0-28.53,20.8-47.69,51.74-47.69,30.26,0,50.27,18.84,50.95,47.69C131.42,104.92,110.29,124.06,78.86,124.06Z"/></g></g></g></svg>