<?xml version="1.0" encoding="utf-8"?>
<!-- Generator: Adobe Illustrator 15.1.0, SVG Export Plug-In  -->
<!DOCTYPE svg PUBLIC "-//W3C//DTD SVG 1.0//EN" "http://www.w3.org/TR/2001/REC-SVG-20010904/DTD/svg10.dtd" [
  <!ENTITY ns_flows "http://ns.adobe.com/Flows/1.0/">
]>
<svg version="1.0"
   xmlns="http://www.w3.org/2000/svg" xmlns:xlink="http://www.w3.org/1999/xlink" xmlns:a="http://ns.adobe.com/AdobeSVGViewerExtensions/3.0/"
   x="0px" y="0px" width="500px" height="100px" viewBox="0 -1.802 500 100"
   style="overflow:visible;enable-background:new 0 -1.802 500 100;" xml:space="preserve">
<defs>
</defs>
<path d="M137.466,23.938c0.737,0,1.293,0.197,1.663,0.589c0.369,0.393,0.693,0.983,0.97,1.769l16.983,43.808
  c0.046,0.14,0.069,0.303,0.069,0.485c0,0.509-0.185,0.948-0.555,1.317c-0.371,0.371-0.81,0.555-1.316,0.555h-4.991
  c-0.925,0-1.572-0.196-1.941-0.59c-0.37-0.392-0.624-0.773-0.763-1.145l-2.981-7.694H122.7l-2.981,7.694
  c-0.138,0.371-0.393,0.753-0.763,1.145c-0.37,0.394-1.017,0.59-1.94,0.59h-4.991c-0.509,0-0.948-0.184-1.316-0.555
  c-0.371-0.369-0.555-0.809-0.555-1.317c0-0.183,0.023-0.346,0.069-0.485l16.983-43.808c0.277-0.786,0.6-1.375,0.97-1.769
  c0.37-0.391,0.924-0.589,1.664-0.589H137.466L137.466,23.938z M141.279,54.368l-7.626-19.755l-7.625,19.755H141.279z"/>
<path d="M183.215,23.938c5.777,0,10.167,1.341,13.171,4.021c3.004,2.681,4.505,6.401,4.505,11.162c0,3.373-0.774,6.25-2.322,8.629
  c-1.549,2.381-3.825,4.148-6.828,5.302l9.566,17.123c0.139,0.274,0.208,0.53,0.208,0.763c0,0.417-0.151,0.775-0.45,1.072
  c-0.302,0.305-0.658,0.452-1.074,0.452h-5.893c-0.925,0-1.606-0.218-2.045-0.657c-0.44-0.44-0.751-0.844-0.936-1.215l-9.08-16.15
  h-9.22v16.15c0,0.509-0.186,0.948-0.554,1.317c-0.371,0.371-0.811,0.555-1.317,0.555h-5.615c-0.509,0-0.948-0.184-1.318-0.555
  c-0.371-0.369-0.554-0.809-0.554-1.317V25.81c0-0.507,0.184-0.946,0.554-1.317c0.37-0.369,0.809-0.555,1.318-0.555L183.215,23.938
  L183.215,23.938z M172.817,45.773h10.051c2.635,0,4.738-0.461,6.309-1.386c1.571-0.924,2.356-2.679,2.356-5.268
  c0-2.588-0.786-4.321-2.356-5.199c-1.571-0.877-3.673-1.317-6.309-1.317h-10.051V45.773z"/>
<path d="M208.171,41.892c0.091-2.772,0.6-5.303,1.525-7.59c0.923-2.288,2.265-4.251,4.02-5.893c1.755-1.64,3.916-2.911,6.481-3.812
  c2.565-0.901,5.558-1.351,8.978-1.351c4.021,0,7.335,0.52,9.947,1.559c2.611,1.04,4.69,2.287,6.238,3.744
  c1.548,1.455,2.636,2.957,3.258,4.505c0.624,1.549,0.98,2.854,1.074,3.916c0.047,0.555-0.126,1.005-0.52,1.352
  c-0.392,0.346-0.843,0.52-1.35,0.52h-5.616c-0.508,0-0.913-0.127-1.213-0.381c-0.301-0.254-0.519-0.521-0.659-0.798
  c-0.093-0.183-0.335-0.588-0.727-1.212c-0.394-0.623-1.019-1.271-1.873-1.941c-0.855-0.669-1.976-1.27-3.362-1.802
  c-1.386-0.531-3.12-0.797-5.199-0.797c-3.466,0-6.239,0.936-8.319,2.807c-2.08,1.872-3.188,4.379-3.328,7.522
  c-0.092,1.756-0.139,3.64-0.139,5.649c0,2.012,0.047,3.893,0.139,5.651c0.14,3.834,1.248,6.618,3.328,8.351
  c2.08,1.733,4.853,2.601,8.319,2.601c1.708,0,3.279-0.185,4.713-0.554c1.431-0.368,2.67-0.97,3.709-1.804
  c1.04-0.832,1.848-1.93,2.426-3.293c0.577-1.361,0.866-3.037,0.866-5.025v-0.555h-8.458c-0.509,0-0.948-0.184-1.315-0.555
  c-0.372-0.37-0.556-0.808-0.556-1.316v-4.921c0-0.508,0.185-0.947,0.556-1.317c0.368-0.368,0.807-0.554,1.315-0.554h15.943
  c0.508,0,0.948,0.186,1.316,0.554c0.371,0.371,0.556,0.809,0.556,1.317v7.625c0,2.771-0.441,5.328-1.317,7.659
  c-0.878,2.336-2.196,4.347-3.95,6.031c-1.757,1.688-3.952,3.004-6.585,3.95c-2.635,0.946-5.708,1.423-9.22,1.423
  c-3.513,0-6.562-0.464-9.149-1.388c-2.588-0.923-4.739-2.218-6.447-3.882c-1.709-1.664-3.015-3.663-3.917-5.997
  c-0.901-2.331-1.398-4.885-1.49-7.658c-0.046-0.877-0.081-1.849-0.103-2.912c-0.024-1.062-0.035-2.148-0.035-3.258
  c0-1.109,0.011-2.193,0.035-3.258C208.089,43.741,208.124,42.769,208.171,41.892z"/>
<path d="M257.317,42.029c0.138-2.586,0.633-5.025,1.489-7.313c0.854-2.288,2.114-4.273,3.778-5.961
  c1.662-1.687,3.743-3.026,6.237-4.02c2.497-0.994,5.453-1.491,8.873-1.491c3.374,0,6.309,0.485,8.806,1.456
  c2.494,0.971,4.574,2.312,6.237,4.021c1.664,1.71,2.934,3.698,3.813,5.961c0.877,2.266,1.386,4.714,1.523,7.348
  c0.046,0.879,0.079,1.85,0.104,2.912c0.022,1.063,0.034,2.161,0.034,3.292c0,1.134-0.012,2.229-0.034,3.292
  c-0.025,1.063-0.059,2.035-0.104,2.912c-0.138,2.589-0.635,5.025-1.49,7.312s-2.113,4.275-3.777,5.962
  c-1.664,1.688-3.755,3.016-6.273,3.986c-2.519,0.97-5.465,1.456-8.839,1.456c-3.42,0-6.376-0.486-8.873-1.456
  c-2.494-0.973-4.575-2.299-6.237-3.986c-1.664-1.687-2.924-3.675-3.778-5.962c-0.856-2.287-1.352-4.724-1.489-7.312
  c-0.048-0.878-0.082-1.849-0.104-2.912c-0.024-1.062-0.035-2.158-0.035-3.292c0-1.132,0.011-2.229,0.035-3.292
  C257.235,43.878,257.27,42.909,257.317,42.029z M288.718,42.376c-0.186-3.327-1.258-5.903-3.224-7.728
  c-1.965-1.825-4.563-2.739-7.798-2.739c-3.235,0-5.834,0.914-7.798,2.739c-1.965,1.826-3.04,4.402-3.223,7.728
  c-0.094,1.757-0.14,3.71-0.14,5.857c0,2.149,0.046,4.102,0.14,5.858c0.184,3.326,1.258,5.891,3.223,7.692
  c1.964,1.806,4.562,2.705,7.798,2.705c3.234,0,5.833-0.901,7.798-2.705c1.966-1.802,3.039-4.366,3.224-7.692
  c0.093-1.757,0.139-3.709,0.139-5.858C288.856,46.086,288.81,44.133,288.718,42.376z"/>
<path d="M338.697,72.461c-0.786,0-1.386-0.207-1.803-0.623c-0.417-0.417-0.717-0.738-0.901-0.971L316.584,42.03v28.561
  c0,0.509-0.186,0.946-0.556,1.315c-0.369,0.371-0.809,0.555-1.317,0.555h-5.614c-0.509,0-0.947-0.184-1.316-0.555
  c-0.369-0.369-0.554-0.807-0.554-1.315v-44.78c0-0.508,0.185-0.947,0.554-1.317c0.369-0.369,0.808-0.555,1.316-0.555h4.854
  c0.783,0,1.385,0.208,1.801,0.625c0.418,0.416,0.717,0.739,0.903,0.969l19.408,28.836V25.81c0-0.507,0.185-0.946,0.557-1.317
  c0.367-0.369,0.806-0.555,1.315-0.555h5.615c0.508,0,0.946,0.186,1.316,0.555c0.368,0.371,0.555,0.81,0.555,1.317v44.779
  c0,0.509-0.187,0.948-0.555,1.317c-0.37,0.371-0.809,0.555-1.316,0.555H338.697z"/>
<path d="M354.57,42.029c0.139-2.586,0.635-5.025,1.489-7.313c0.855-2.288,2.115-4.273,3.778-5.961
  c1.665-1.687,3.745-3.026,6.239-4.02s5.453-1.491,8.872-1.491c3.374,0,6.31,0.485,8.804,1.456c2.495,0.971,4.575,2.312,6.24,4.021
  c1.664,1.71,2.932,3.698,3.812,5.961c0.877,2.266,1.387,4.714,1.524,7.348c0.047,0.879,0.08,1.85,0.104,2.912
  c0.023,1.063,0.036,2.161,0.036,3.292c0,1.134-0.013,2.229-0.036,3.292c-0.023,1.063-0.057,2.035-0.104,2.912
  c-0.138,2.589-0.635,5.025-1.49,7.312s-2.113,4.275-3.778,5.962c-1.663,1.688-3.755,3.016-6.274,3.986
  c-2.517,0.97-5.463,1.456-8.837,1.456c-3.419,0-6.378-0.486-8.872-1.456c-2.496-0.973-4.575-2.299-6.239-3.986
  c-1.663-1.687-2.923-3.675-3.778-5.962c-0.854-2.287-1.351-4.724-1.489-7.312c-0.046-0.878-0.08-1.849-0.104-2.912
  c-0.024-1.062-0.034-2.158-0.034-3.292c0-1.132,0.01-2.229,0.034-3.292C354.49,43.878,354.523,42.909,354.57,42.029z
   M385.972,42.376c-0.188-3.327-1.26-5.903-3.224-7.728s-4.563-2.739-7.799-2.739c-3.233,0-5.834,0.914-7.799,2.739
  c-1.964,1.826-3.037,4.402-3.222,7.728c-0.093,1.757-0.139,3.71-0.139,5.857c0,2.149,0.046,4.102,0.139,5.858
  c0.185,3.326,1.258,5.891,3.222,7.692c1.965,1.806,4.565,2.705,7.799,2.705c3.235,0,5.835-0.901,7.799-2.705
  c1.964-1.802,3.038-4.366,3.224-7.692c0.091-1.757,0.138-3.709,0.138-5.858C386.111,46.086,386.062,44.133,385.972,42.376z"/>
<path d="M427.217,48.685l13.17-22.875c0.185-0.231,0.495-0.6,0.936-1.11c0.439-0.507,1.12-0.762,2.047-0.762h4.712
  c0.507,0,0.945,0.186,1.316,0.554c0.369,0.371,0.556,0.809,0.556,1.317v44.78c0,0.509-0.187,0.946-0.556,1.317
  c-0.371,0.369-0.81,0.555-1.316,0.555h-5.614c-0.51,0-0.948-0.186-1.317-0.555c-0.37-0.371-0.555-0.809-0.555-1.317V43.486
  l-9.012,15.596c-0.232,0.371-0.554,0.752-0.97,1.142c-0.416,0.396-0.948,0.593-1.596,0.593h-3.604c-0.648,0-1.179-0.197-1.595-0.593
  c-0.416-0.39-0.739-0.771-0.97-1.142l-9.012-15.596v27.103c0,0.509-0.184,0.946-0.554,1.317c-0.371,0.369-0.811,0.555-1.317,0.555
  h-5.614c-0.509,0-0.948-0.186-1.317-0.555c-0.371-0.371-0.557-0.809-0.557-1.317v-44.78c0-0.508,0.186-0.946,0.557-1.317
  c0.369-0.369,0.809-0.554,1.317-0.554h4.713c0.925,0,1.605,0.255,2.046,0.762c0.438,0.509,0.749,0.879,0.935,1.11L427.217,48.685z"
  />
<path d="M459.103,42.029c0.138-2.586,0.635-5.025,1.489-7.313c0.855-2.288,2.114-4.273,3.778-5.961
  c1.664-1.687,3.744-3.026,6.238-4.02c2.496-0.994,5.452-1.491,8.874-1.491c3.371,0,6.308,0.485,8.802,1.456
  c2.497,0.971,4.575,2.312,6.24,4.021c1.662,1.71,2.932,3.698,3.812,5.961c0.877,2.266,1.387,4.714,1.525,7.348
  c0.046,0.879,0.081,1.85,0.104,2.912c0.022,1.063,0.035,2.161,0.035,3.292c0,1.134-0.013,2.229-0.035,3.292
  c-0.022,1.063-0.058,2.035-0.104,2.912c-0.139,2.589-0.636,5.025-1.489,7.312c-0.855,2.287-2.115,4.275-3.779,5.962
  c-1.662,1.688-3.755,3.016-6.272,3.986c-2.52,0.97-5.467,1.456-8.838,1.456c-3.422,0-6.378-0.486-8.874-1.456
  c-2.495-0.973-4.574-2.299-6.238-3.986c-1.664-1.687-2.923-3.675-3.778-5.962c-0.854-2.287-1.352-4.724-1.489-7.312
  c-0.046-0.878-0.08-1.849-0.104-2.912c-0.023-1.062-0.034-2.158-0.034-3.292c0-1.132,0.011-2.229,0.034-3.292
  C459.022,43.878,459.057,42.909,459.103,42.029z M490.504,42.376c-0.185-3.327-1.26-5.903-3.223-7.728
  c-1.965-1.825-4.564-2.739-7.798-2.739c-3.236,0-5.835,0.914-7.799,2.739c-1.964,1.826-3.04,4.402-3.224,7.728
  c-0.094,1.757-0.138,3.71-0.138,5.857c0,2.149,0.044,4.102,0.138,5.858c0.185,3.326,1.26,5.891,3.224,7.692
  c1.964,1.806,4.562,2.705,7.799,2.705c3.233,0,5.833-0.901,7.798-2.705c1.963-1.802,3.038-4.366,3.223-7.692
  c0.093-1.757,0.139-3.709,0.139-5.858C490.643,46.086,490.597,44.133,490.504,42.376z"/>
<path style="fill:#010101;" d="M48.197,0C21.62,0,0,21.622,0,48.198c0,26.578,21.62,48.198,48.197,48.198
  s48.199-21.62,48.199-48.197S74.774,0,48.197,0z M48.197,88.167c-22.04,0-39.969-17.929-39.969-39.969
  c0-22.04,17.929-39.969,39.969-39.969s39.97,17.93,39.97,39.969C88.167,70.238,70.237,88.167,48.197,88.167z"/>
<path style="fill:#010101;" d="M65.291,43.513c-7.311,0-13.256,5.946-13.256,13.253v6.203h-7.674v-6.194
  c0-7.31-5.946-13.256-13.255-13.256c-7.309,0-13.255,5.946-13.255,13.256c0,7.312,5.946,13.254,13.255,13.254h6.202v9.856h7.054
  v-9.856v-0.009h7.674v9.865h7.054v-9.865h6.202c7.309,0,13.255-5.944,13.255-13.254C78.546,49.458,72.6,43.513,65.291,43.513z
   M31.104,62.977c-3.42,0-6.202-2.782-6.202-6.201s2.782-6.201,6.202-6.201s6.202,2.782,6.202,6.201v6.194v0.009h-6.202V62.977z
   M65.291,62.97h-6.202v-6.203c0-3.419,2.782-6.199,6.202-6.199c3.42,0,6.202,2.781,6.202,6.199
  C71.493,60.188,68.71,62.97,65.291,62.97z"/>
<path style="fill:#010101;" d="M48.197,47.797l9.373-9.373c5.169-5.167,5.169-13.578,0.001-18.746
  c-5.169-5.167-13.577-5.167-18.746,0c-5.168,5.168-5.168,13.579,0,18.746L48.197,47.797z M43.811,24.666
  c2.419-2.417,6.353-2.419,8.771,0c2.419,2.418,2.418,6.353,0,8.77l-4.385,4.386l-4.386-4.386
  C41.394,31.019,41.393,27.084,43.811,24.666z"/>
</svg>
