<svg xmlns="http://www.w3.org/2000/svg" viewBox="0 0 447.86 119.03"><defs><style>.cls-1{fill:#333;}.cls-2{fill:#f05a28;}</style></defs><title>amtech</title><g id="Layer_2" data-name="Layer 2"><g id="Layer_1-2" data-name="Layer 1"><path class="cls-1" d="M51.34,24.52a5.41,5.41,0,0,0-.4-1.5c-.2-.39-.6-.6-1.3-.79a12.34,12.34,0,0,0-2.7-.4c-1.2-.1-2.7-.1-4.7-.1-1.7,0-3.1,0-4.2.1a11.82,11.82,0,0,0-2.5.4,3.82,3.82,0,0,0-1.4.79,8.47,8.47,0,0,0-1,1.4L1.44,82.22A19.9,19.9,0,0,0,.14,85a1.74,1.74,0,0,0,.1,1.6,2.45,2.45,0,0,0,1.7.69c.9.1,2.1.1,3.6.1s2.6,0,3.6-.1a10.15,10.15,0,0,0,2.3-.4,3.16,3.16,0,0,0,1.3-.7,3.55,3.55,0,0,0,.8-1.19l6.8-12.81h24.5l1.8,13.1a1.78,1.78,0,0,0,.3,1.1,1.46,1.46,0,0,0,.9.6c.4.1,1.1.2,1.9.3a28.18,28.18,0,0,0,3.1.1c1.8,0,3.2,0,4.3-.1a3.88,3.88,0,0,0,2.2-.69A2.21,2.21,0,0,0,60,85c0-.7-.1-1.7-.2-2.9Zm-25.9,37.7,14.5-27.69H40l3.7,27.7Z"/><path class="cls-1" d="M143.94,86.43a4.05,4.05,0,0,0,.5-.9L156,27.33a8.47,8.47,0,0,0,.1-2.2,3.25,3.25,0,0,0-.7-1.71,2.87,2.87,0,0,0-1.4-1,6.65,6.65,0,0,0-2.2-.4h-9.4a13.14,13.14,0,0,0-3.6.4,7.12,7.12,0,0,0-2.7,1.4,8.53,8.53,0,0,0-2.2,2.4,34,34,0,0,0-2,3.4l-22.4,38.8h-.2l-6.4-38.79a14.26,14.26,0,0,0-.7-3.5,7,7,0,0,0-1.5-2.4,6.36,6.36,0,0,0-2.6-1.3,19.25,19.25,0,0,0-3.8-.4H86a5.38,5.38,0,0,0-2.2.4,5.24,5.24,0,0,0-1.8,1,5.5,5.5,0,0,0-1.3,1.7,12.34,12.34,0,0,0-.8,2.3l-11.6,58.1a1,1,0,0,0,.1.9c.1.3.4.5.9.7a7.25,7.25,0,0,0,1.9.4,27.25,27.25,0,0,0,3.1.1,30.14,30.14,0,0,0,3.2-.1,8.78,8.78,0,0,0,2-.4,3.11,3.11,0,0,0,1.1-.7,1.8,1.8,0,0,0,.4-.9l10.6-53.1h.1l7.7,53.2c0,.59.5,1,1.5,1.4a13.3,13.3,0,0,0,4.7.6,20.17,20.17,0,0,0,4.9-.41,3.26,3.26,0,0,0,2.3-1.69l29.6-53h.1l-10.6,53.1a1.42,1.42,0,0,0,.1.9,1.37,1.37,0,0,0,.8.69,6.81,6.81,0,0,0,1.9.41c.8.09,1.9.09,3.2.09s2.3,0,3.1-.09a8.22,8.22,0,0,0,2-.41A3.62,3.62,0,0,0,143.94,86.43Z"/><path class="cls-1" d="M164.74,32.92h16.2l-10.5,52.6a1.41,1.41,0,0,0,.1.9c.1.3.5.5.9.7a7.81,7.81,0,0,0,1.9.4,29.19,29.19,0,0,0,3.2.1,32.18,32.18,0,0,0,3.3-.1,8.68,8.68,0,0,0,2.1-.4,2.23,2.23,0,0,0,1.2-.7,2.36,2.36,0,0,0,.6-.9l10.5-52.6h16.4a1.61,1.61,0,0,0,1.1-.5,3.39,3.39,0,0,0,.9-1.4,10.66,10.66,0,0,0,.7-1.9c.2-.7.3-1.4.5-2s.2-1.2.3-1.7.1-.9.1-1.1a3.51,3.51,0,0,0-.3-1.6,1,1,0,0,0-.9-.6H167a1.61,1.61,0,0,0-1.1.5A8.51,8.51,0,0,0,165,24a10.66,10.66,0,0,0-.7,1.9c-.2.7-.3,1.4-.5,2s-.2,1.2-.3,1.8a5.74,5.74,0,0,0-.1,1.2,3.34,3.34,0,0,0,.3,1.5A1,1,0,0,0,164.74,32.92Z"/><path class="cls-1" d="M210.14,85a2.62,2.62,0,0,0,.6,1.3,3.13,3.13,0,0,0,1.1.8,3.42,3.42,0,0,0,1.5.2h32.8a2.08,2.08,0,0,0,1.2-.5,7.3,7.3,0,0,0,.9-1.3,6.31,6.31,0,0,0,.6-1.81,12.6,12.6,0,0,0,.4-1.9,11,11,0,0,0,.2-1.69c0-.5.1-.91.1-1.1a2.81,2.81,0,0,0-.3-1.5.87.87,0,0,0-.9-.5h-23.6l3.7-18.4h19.7a1.65,1.65,0,0,0,1.1-.5,7.3,7.3,0,0,0,.9-1.3,4.78,4.78,0,0,0,.6-1.8,12.86,12.86,0,0,0,.4-1.9,11.26,11.26,0,0,0,.2-1.71c0-.5.1-.79.1-1.09a2.71,2.71,0,0,0-.3-1.41,1.12,1.12,0,0,0-1-.5h-19.8l3.2-15.89h23.3a1.38,1.38,0,0,0,1.1-.6,3.39,3.39,0,0,0,.9-1.4,6.36,6.36,0,0,0,.6-1.8,16.25,16.25,0,0,0,.4-1.9,11.14,11.14,0,0,0,.2-1.7c0-.5.1-.9.1-1.1,0-1.3-.4-1.9-1.3-1.9h-32.5a4.72,4.72,0,0,0-3,1,5.05,5.05,0,0,0-1.8,3.2l-11.4,56.9A10.8,10.8,0,0,0,210.14,85Z"/><path class="cls-1" d="M266.84,82.43a17.59,17.59,0,0,0,7.5,4.4,30.29,30.29,0,0,0,9.9,1.5,42.32,42.32,0,0,0,6.3-.5,32.89,32.89,0,0,0,5.2-1.3,31,31,0,0,0,3.9-1.6,17.63,17.63,0,0,0,2.2-1.4,3.84,3.84,0,0,0,.9-1.31c.2-.5.4-1,.6-1.59s.3-1.2.5-1.91.3-1.3.4-1.9.2-1.1.3-1.6a4.87,4.87,0,0,0,.1-1.09,4,4,0,0,0-.2-1.31.94.94,0,0,0-.9-.5,3.24,3.24,0,0,0-2.1.81c-.8.5-1.8,1.09-3,1.69a25.67,25.67,0,0,1-4.3,1.7,21.49,21.49,0,0,1-6.1.8,15.29,15.29,0,0,1-5.4-.9,11.51,11.51,0,0,1-4.1-2.6,11.1,11.1,0,0,1-2.5-4.4,19.3,19.3,0,0,1-.9-6.2,36.12,36.12,0,0,1,.6-6.3,42.72,42.72,0,0,1,1.8-6.8,39.29,39.29,0,0,1,3-6.6,26.45,26.45,0,0,1,4.2-5.6,19.81,19.81,0,0,1,5.5-3.9,15.1,15.1,0,0,1,6.8-1.5,17.5,17.5,0,0,1,5.6.8,21.34,21.34,0,0,1,3.7,1.8,12.47,12.47,0,0,1,2.4,1.8,2.22,2.22,0,0,0,1.6.8c.6,0,1.2-.5,1.6-1.4a14.19,14.19,0,0,0,1.2-3.8,22,22,0,0,0,.5-3.8,3.66,3.66,0,0,0-.9-2.5,10.9,10.9,0,0,0-3.3-2.2,20.91,20.91,0,0,0-5.5-1.9,28.7,28.7,0,0,0-6.7-.7,32.66,32.66,0,0,0-11.5,1.9,33.21,33.21,0,0,0-9.2,5.2,36.16,36.16,0,0,0-7,7.6,45.09,45.09,0,0,0-4.9,9.2,48.86,48.86,0,0,0-2.9,9.9,56.19,56.19,0,0,0-1,9.8,30.41,30.41,0,0,0,1.7,10.5A16.94,16.94,0,0,0,266.84,82.43Z"/><path class="cls-1" d="M312,86.43a2,2,0,0,0,1,.7,8.32,8.32,0,0,0,1.9.4,29.19,29.19,0,0,0,3.2.1,30.14,30.14,0,0,0,3.2-.1,8.68,8.68,0,0,0,2.1-.4,2.3,2.3,0,0,0,1.2-.7,2,2,0,0,0,.5-.9l5.2-26.4h24.4l-5.2,26.4a1,1,0,0,0,.1.9,2.18,2.18,0,0,0,.9.7,8.32,8.32,0,0,0,1.9.4,29.19,29.19,0,0,0,3.2.1,30.14,30.14,0,0,0,3.2-.1,8.68,8.68,0,0,0,2.1-.4,3.62,3.62,0,0,0,1.2-.7,2,2,0,0,0,.5-.9L375,23.83a1.41,1.41,0,0,0-.1-.9,2.18,2.18,0,0,0-.9-.7,7.34,7.34,0,0,0-2-.4,51.25,51.25,0,0,0-6.4,0,8.68,8.68,0,0,0-2.1.4,3.46,3.46,0,0,0-1.2.7,2,2,0,0,0-.5.9l-4.7,24h-24.5l4.8-24a1.41,1.41,0,0,0-.1-.9c-.1-.3-.5-.5-.9-.7a7.34,7.34,0,0,0-2-.4,51.25,51.25,0,0,0-6.4,0,8.68,8.68,0,0,0-2.1.4,3.46,3.46,0,0,0-1.2.7,2,2,0,0,0-.5.9l-12.3,61.7C311.84,85.93,311.84,86.22,312,86.43Z"/><path class="cls-2" d="M446.44,54.33,393.54,1.42a4.88,4.88,0,0,0-6.9,6.9L436,57.73l-43.5,43.5H166.74a13,13,0,1,0-12.1,17.8,13.17,13.17,0,0,0,12.1-8.1h227.8a5.18,5.18,0,0,0,3.5-1.4l48.4-48.4A4.77,4.77,0,0,0,446.44,54.33Zm-291.7,56a4.12,4.12,0,0,1-4.1-4.1,4.1,4.1,0,0,1,8.2,0A4.25,4.25,0,0,1,154.74,110.32Z"/><path class="cls-1" d="M385.34,18.63a3.25,3.25,0,1,0,4.6,0A3.2,3.2,0,0,0,385.34,18.63Z"/><path class="cls-1" d="M399.14,32.42a3.25,3.25,0,1,0-4.6,0A3.2,3.2,0,0,0,399.14,32.42Z"/><path class="cls-1" d="M408.34,41.63a3.25,3.25,0,1,0-4.6,0A3.2,3.2,0,0,0,408.34,41.63Z"/><path class="cls-1" d="M417.64,46.33a3.25,3.25,0,1,0,0,4.59A3.38,3.38,0,0,0,417.64,46.33Z"/><path class="cls-1" d="M385.34,37a3.25,3.25,0,1,0,4.6,0A3.39,3.39,0,0,0,385.34,37Z"/><path class="cls-1" d="M394.54,50.92a3.25,3.25,0,1,0,0-4.59A3.2,3.2,0,0,0,394.54,50.92Z"/><path class="cls-1" d="M403.74,60.13a3.25,3.25,0,1,0,0-4.6A3.39,3.39,0,0,0,403.74,60.13Z"/><path class="cls-1" d="M426.84,60.13a3.25,3.25,0,1,0-4.6,0A3.2,3.2,0,0,0,426.84,60.13Z"/><path class="cls-1" d="M413,64.72a3.25,3.25,0,1,0,4.6,0A3.2,3.2,0,0,0,413,64.72Z"/><path class="cls-1" d="M394.54,83.13a3.25,3.25,0,1,0,4.6,0A3.39,3.39,0,0,0,394.54,83.13Z"/><path class="cls-1" d="M389.94,97a3.25,3.25,0,1,0-4.6,0A3.41,3.41,0,0,0,389.94,97Z"/><path class="cls-1" d="M403.74,73.93a3.25,3.25,0,1,0,4.6,0A3.2,3.2,0,0,0,403.74,73.93Z"/><path class="cls-1" d="M389.94,78.53a3.25,3.25,0,1,0-4.6,0A3.2,3.2,0,0,0,389.94,78.53Z"/><path class="cls-1" d="M394.54,69.32a3.25,3.25,0,1,0,0-4.6A3.18,3.18,0,0,0,394.54,69.32Z"/></g></g></svg>