<svg xmlns="http://www.w3.org/2000/svg" viewBox="0 0 550.1 114.8"><defs><style>.cls-1{fill:#06b4a6;}.cls-2{fill:#464646;}</style></defs><title>argonize</title><g id="Layer_2" data-name="Layer 2"><g id="Layer_1-2" data-name="Layer 1"><path class="cls-1" d="M98.1,16.8A57.45,57.45,0,1,0,98,98,57.64,57.64,0,0,0,98.1,16.8ZM27,87.9a43.06,43.06,0,1,1,60.9,0A42.91,42.91,0,0,1,27,87.9Z"/><path class="cls-1" d="M65.2,80.3a10.75,10.75,0,1,1,15.2,0A10.74,10.74,0,0,1,65.2,80.3Z"/><path class="cls-1" d="M72.7,34.2h0a7.47,7.47,0,0,1,5.5,2.3A7.81,7.81,0,0,1,80.5,42a7.47,7.47,0,0,1-2.3,5.5,7.64,7.64,0,0,1-5.5,2.3,7.47,7.47,0,0,1-5.5-2.3A7.64,7.64,0,0,1,64.9,42a7.47,7.47,0,0,1,2.3-5.5,8.26,8.26,0,0,1,5.5-2.3m0-2.8a10.7,10.7,0,0,0-7.6,18.3,10.58,10.58,0,0,0,7.6,3.1,10.7,10.7,0,0,0,7.6-18.3,10.58,10.58,0,0,0-7.6-3.1Z"/><path class="cls-1" d="M49.7,34.5a10.72,10.72,0,0,0-6.6-3.1h-1a10.7,10.7,0,0,0-7.6,18.3,10.58,10.58,0,0,0,7.6,3.1h1a11,11,0,0,0,6.6-3.1A10.74,10.74,0,0,0,49.7,34.5Z"/><path class="cls-2" d="M151.1,87a14.31,14.31,0,0,1-11.8-5.4c-2.9-3.6-4.3-8.7-4.3-15.2a50.1,50.1,0,0,1,3.7-19.2q3.6-9.15,9.6-14.1a20.08,20.08,0,0,1,13.1-5,16.49,16.49,0,0,1,8.5,2.1,14.71,14.71,0,0,1,5.6,6.2h.4l2.9-7.3h11.8L178.5,86H166.9l.7-7.4h-.2C162.8,84.2,157.4,87,151.1,87Zm6-12.4c2.3,0,4.6-1.1,6.8-3.4a23.89,23.89,0,0,0,5.2-9.2,41.59,41.59,0,0,0,2-13.2,9.24,9.24,0,0,0-2-6,6.32,6.32,0,0,0-5.2-2.4c-2.3,0-4.5,1.2-6.6,3.7a28.53,28.53,0,0,0-5,9.7,41.61,41.61,0,0,0-1.9,11.9c0,3,.6,5.2,1.7,6.7A6.18,6.18,0,0,0,157.1,74.6Z"/><path class="cls-2" d="M235.2,28a16.78,16.78,0,0,1,4.9.6l-3.4,14.8a16,16,0,0,0-5.1-.8,14.17,14.17,0,0,0-10.4,4.7c-3,3.1-5.1,7.6-6.3,13.4l-5.4,25.4H194.2l12.1-56.9H218l-1.1,10.5h.3Q224.7,28,235.2,28Z"/><path class="cls-2" d="M296.5,29.2l-1.8,8.4-8.9,2.1a22.33,22.33,0,0,1,.8,6c0,6.6-2.1,11.8-6.2,15.7s-9.7,5.8-16.7,5.8a22.71,22.71,0,0,1-5-.5c-2.8.9-4.3,2.2-4.3,4a2.55,2.55,0,0,0,1.5,2.5,15.77,15.77,0,0,0,4.5,1.2l7,.9c5.5.7,9.6,2.1,12.1,4.3s3.8,5.3,3.8,9.3c0,7.2-2.6,12.6-7.9,16.4s-12.9,5.7-22.7,5.7c-7.1,0-12.6-1.3-16.5-3.8a12.14,12.14,0,0,1-5.9-10.6,12.63,12.63,0,0,1,3.5-8.9c2.3-2.5,6-4.6,10.9-6.2a7.6,7.6,0,0,1-3.8-6.8,9.14,9.14,0,0,1,2.3-6.2,22.53,22.53,0,0,1,7.5-5,17.38,17.38,0,0,1-4.9-5.7,16.69,16.69,0,0,1-1.6-7.8c0-6.7,2.1-12.1,6.4-16s10-5.9,17.4-5.9a30.45,30.45,0,0,1,8.4,1.2h20.1Zm-41.7,57c-3.6.5-6.3,1.4-8.2,2.9a7,7,0,0,0-2.8,5.5c0,3.9,3.3,5.8,9.9,5.8,5.1,0,9-.8,11.6-2.3a7.15,7.15,0,0,0,3.9-6.5,3.68,3.68,0,0,0-1.7-3.1c-1.1-.7-3.4-1.3-7-1.8Zm12.6-48.5q-3.9,0-6.3,3.9a18.12,18.12,0,0,0-2.4,9.7c0,4,1.7,6.1,5.2,6.1,2.5,0,4.6-1.3,6.2-3.9a18.49,18.49,0,0,0,2.4-9.8C272.5,39.8,270.8,37.7,267.4,37.7Z"/><path class="cls-2" d="M348.9,50.5a47,47,0,0,1-3.6,19A29,29,0,0,1,335,82.4,28.48,28.48,0,0,1,318.9,87c-6.6,0-11.9-2-15.8-6s-5.9-9.3-5.9-15.9a48.84,48.84,0,0,1,3.6-19.3,29.24,29.24,0,0,1,10.5-13.1A28,28,0,0,1,327.4,28c6.6,0,11.9,2,15.8,6S348.9,43.5,348.9,50.5Zm-15.4,0c0-6.7-2.4-10-7.3-10a9.17,9.17,0,0,0-6.8,3.1,22.29,22.29,0,0,0-4.9,9.1,39.68,39.68,0,0,0-1.9,12.4c0,6.3,2.5,9.4,7.6,9.4a9.54,9.54,0,0,0,6.9-3.1,22.48,22.48,0,0,0,4.8-8.7A42.88,42.88,0,0,0,333.5,50.5Z"/><path class="cls-1" d="M403.2,85.9H387.9l7-33.2a29.24,29.24,0,0,0,.8-6.1c0-4.2-1.8-6.3-5.5-6.3-3.1,0-6,1.9-8.5,5.8s-4.5,9.3-6,16.2l-5,23.6H355.4L367.5,29h11.6l-1,10.6h.3c5-7.7,11-11.6,18.1-11.6,4.7,0,8.3,1.4,10.9,4.2s3.8,6.9,3.8,12.1a44.6,44.6,0,0,1-1.2,9.2Z"/><polygon class="cls-1" points="433.7 85.9 418.3 85.9 430.4 28.5 445.8 28.5 433.7 85.9"/><path class="cls-1" d="M485.4,85.9H445l1.8-9.2L476,40.8H455.8l2.6-11.9h38.1l-2.2,10.2L465.5,73.9h22.3Z"/><path class="cls-1" d="M521.8,87c-7.1,0-12.6-1.9-16.6-5.7s-5.9-9.2-5.9-16.2a43.58,43.58,0,0,1,4.2-19.2,30.92,30.92,0,0,1,11.4-13.2,30,30,0,0,1,16.2-4.6c6,0,10.7,1.4,14,4.1s5,6.6,5,11.4c0,6.3-2.8,11.2-8.5,14.7s-13.8,5.2-24.3,5.2h-2.6l-.1,1.1v1a10.17,10.17,0,0,0,2.6,7.3q2.55,2.7,7.5,2.7a28.74,28.74,0,0,0,8-1,50.81,50.81,0,0,0,8.7-3.4V82.7A43.52,43.52,0,0,1,521.8,87Zm8.4-48c-3,0-5.8,1.4-8.4,4.1a19.77,19.77,0,0,0-5.2,9.9h2.3c5.3,0,9.4-.8,12.3-2.5s4.4-3.9,4.4-6.7C535.5,40.7,533.7,39,530.2,39Z"/></g></g></svg>