<svg xmlns="http://www.w3.org/2000/svg" viewBox="0 0 599.9 115.6"><defs><style>.cls-1{fill:#001522;}</style></defs><title>argonomo</title><g id="Layer_2" data-name="Layer 2"><g id="Layer_1-2" data-name="Layer 1"><path class="cls-1" d="M165,28.7a2.44,2.44,0,0,1,2,.7,9.75,9.75,0,0,1,1.2,2.1l20.4,52.6a1.27,1.27,0,0,1,.1.6,2.13,2.13,0,0,1-.7,1.6,2.36,2.36,0,0,1-1.6.7h-6a2.88,2.88,0,0,1-2.3-.7,5.51,5.51,0,0,1-.9-1.4l-3.6-9.2H147.3l-3.6,9.2a8,8,0,0,1-.9,1.4,2.88,2.88,0,0,1-2.3.7h-6a2.13,2.13,0,0,1-1.6-.7,2.36,2.36,0,0,1-.7-1.6,1.27,1.27,0,0,1,.1-.6l20.4-52.6a5.28,5.28,0,0,1,1.2-2.1,2.44,2.44,0,0,1,2-.7Zm4.5,36.5-9.2-23.7-9.2,23.7Z"/><path class="cls-1" d="M219.9,28.7c6.9,0,12.2,1.6,15.8,4.8s5.4,7.7,5.4,13.4a18.6,18.6,0,0,1-2.8,10.4,16.59,16.59,0,0,1-8.2,6.4l11.5,20.5a1.49,1.49,0,0,1,.2.9,2.11,2.11,0,0,1-.5,1.3,1.66,1.66,0,0,1-1.3.5h-7.1a3.74,3.74,0,0,1-2.5-.8,4.79,4.79,0,0,1-1.1-1.5L218.4,65.2H207.3V84.6a2.13,2.13,0,0,1-.7,1.6,2.36,2.36,0,0,1-1.6.7h-6.7a2.13,2.13,0,0,1-1.6-.7,2.36,2.36,0,0,1-.7-1.6V30.9a2.13,2.13,0,0,1,.7-1.6,2.36,2.36,0,0,1,1.6-.7h21.6ZM207.4,54.9h12.1a15,15,0,0,0,7.6-1.7c1.9-1.1,2.8-3.2,2.8-6.3s-.9-5.2-2.8-6.2a15.06,15.06,0,0,0-7.6-1.6H207.4Z"/><path class="cls-1" d="M249.8,50.2a26.32,26.32,0,0,1,1.8-9.1,20.29,20.29,0,0,1,4.8-7.1,21.52,21.52,0,0,1,7.8-4.6A32.31,32.31,0,0,1,275,27.8a31.23,31.23,0,0,1,11.9,1.9,22.66,22.66,0,0,1,7.5,4.5,13.73,13.73,0,0,1,3.9,5.4,18.78,18.78,0,0,1,1.3,4.7,1.8,1.8,0,0,1-.6,1.6,2.45,2.45,0,0,1-1.6.6h-6.7a2.46,2.46,0,0,1-1.5-.5,2.54,2.54,0,0,1-.8-1q-.15-.3-.9-1.5a11.5,11.5,0,0,0-2.2-2.3A15.9,15.9,0,0,0,275.1,38c-4.2,0-7.5,1.1-10,3.4a12.42,12.42,0,0,0-4,9c-.1,2.1-.2,4.4-.2,6.8s.1,4.7.2,6.8c.2,4.6,1.5,7.9,4,10s5.8,3.1,10,3.1a20.71,20.71,0,0,0,5.7-.7,11.83,11.83,0,0,0,4.5-2.2,10.11,10.11,0,0,0,2.9-4,15.06,15.06,0,0,0,1-6v-.7H279.1a2.13,2.13,0,0,1-1.6-.7,2.36,2.36,0,0,1-.7-1.6V55.3a2.13,2.13,0,0,1,.7-1.6,2.36,2.36,0,0,1,1.6-.7H298a2.13,2.13,0,0,1,1.6.7,2.36,2.36,0,0,1,.7,1.6v9.1a25.06,25.06,0,0,1-1.6,9.2,19.57,19.57,0,0,1-4.7,7.2,21.3,21.3,0,0,1-7.9,4.7A33.63,33.63,0,0,1,275,87.2a32.6,32.6,0,0,1-11-1.7,20.45,20.45,0,0,1-7.7-4.7,19.57,19.57,0,0,1-4.7-7.2,27.38,27.38,0,0,1-1.8-9.2c-.1-1.1-.1-2.2-.1-3.5V53.1C249.7,52.4,249.7,51.3,249.8,50.2Z"/><path class="cls-1" d="M308.8,50.4a32,32,0,0,1,1.8-8.8,20.83,20.83,0,0,1,4.5-7.2,22,22,0,0,1,7.5-4.8,28.33,28.33,0,0,1,10.6-1.8,31,31,0,0,1,10.6,1.7,22,22,0,0,1,7.5,4.8,21.64,21.64,0,0,1,4.6,7.2,25.57,25.57,0,0,1,1.8,8.8c.1,1.1.1,2.2.1,3.5v8c0,1.3-.1,2.4-.1,3.5a32,32,0,0,1-1.8,8.8,20.83,20.83,0,0,1-4.5,7.2,20.6,20.6,0,0,1-7.5,4.8,28.77,28.77,0,0,1-10.6,1.7,30.2,30.2,0,0,1-10.6-1.7,22,22,0,0,1-7.5-4.8,19.13,19.13,0,0,1-4.5-7.2,31.28,31.28,0,0,1-1.8-8.8c-.1-1.1-.1-2.2-.1-3.5v-8A19.29,19.29,0,0,1,308.8,50.4Zm37.7.4q-.3-6-3.9-9.3a15,15,0,0,0-18.8,0c-2.4,2.2-3.6,5.3-3.9,9.3-.1,2.1-.2,4.5-.2,7s.1,4.9.2,7c.2,4,1.5,7.1,3.9,9.2s5.5,3.2,9.4,3.2a13.72,13.72,0,0,0,9.4-3.2c2.4-2.2,3.6-5.2,3.9-9.2.1-2.1.2-4.4.2-7S346.6,52.9,346.5,50.8Z"/><path class="cls-1" d="M406.4,86.9a3.07,3.07,0,0,1-2.2-.7,10,10,0,0,1-1.1-1.2L379.8,50.4V84.7a2.4,2.4,0,0,1-2.3,2.3h-6.7a2.13,2.13,0,0,1-1.6-.7,2.36,2.36,0,0,1-.7-1.6V30.9a2.13,2.13,0,0,1,.7-1.6,2.36,2.36,0,0,1,1.6-.7h5.8a3.07,3.07,0,0,1,2.2.7,10,10,0,0,1,1.1,1.2l23.3,34.6V30.9a2.13,2.13,0,0,1,.7-1.6,2.36,2.36,0,0,1,1.6-.7h6.7a2.13,2.13,0,0,1,1.6.7,2.36,2.36,0,0,1,.7,1.6V84.6a2.13,2.13,0,0,1-.7,1.6,2.36,2.36,0,0,1-1.6.7Z"/><path class="cls-1" d="M425.5,50.4a32,32,0,0,1,1.8-8.8,20.83,20.83,0,0,1,4.5-7.2,22,22,0,0,1,7.5-4.8,28.33,28.33,0,0,1,10.6-1.8,31,31,0,0,1,10.6,1.7,22,22,0,0,1,7.5,4.8,21.64,21.64,0,0,1,4.6,7.2,25.57,25.57,0,0,1,1.8,8.8c.1,1.1.1,2.2.1,3.5v8c0,1.3-.1,2.4-.1,3.5a32,32,0,0,1-1.8,8.8,20.83,20.83,0,0,1-4.5,7.2,22,22,0,0,1-7.5,4.8A28.77,28.77,0,0,1,450,87.8a30.2,30.2,0,0,1-10.6-1.7,22,22,0,0,1-7.5-4.8,19.13,19.13,0,0,1-4.5-7.2,31.28,31.28,0,0,1-1.8-8.8c-.1-1.1-.1-2.2-.1-3.5v-8A19.29,19.29,0,0,1,425.5,50.4Zm37.7.4q-.3-6-3.9-9.3a15,15,0,0,0-18.8,0c-2.4,2.2-3.6,5.3-3.9,9.3-.1,2.1-.2,4.5-.2,7s.1,4.9.2,7c.2,4,1.5,7.1,3.9,9.2s5.5,3.2,9.4,3.2a13.72,13.72,0,0,0,9.4-3.2c2.4-2.2,3.6-5.2,3.9-9.2.1-2.1.2-4.4.2-7S463.3,52.9,463.2,50.8Z"/><path class="cls-1" d="M512.7,58.4l15.8-27.5c.2-.3.6-.7,1.1-1.3a3,3,0,0,1,2.5-.9h5.7a2.13,2.13,0,0,1,1.6.7,2.36,2.36,0,0,1,.7,1.6V84.7a2.13,2.13,0,0,1-.7,1.6,2.36,2.36,0,0,1-1.6.7H531a2.13,2.13,0,0,1-1.6-.7,2.36,2.36,0,0,1-.7-1.6V52.1L517.9,70.8a13,13,0,0,1-1.2,1.4,2.49,2.49,0,0,1-1.9.7h-4.3a2.49,2.49,0,0,1-1.9-.7,7.47,7.47,0,0,1-1.2-1.4L496.6,52.1V84.6a2.13,2.13,0,0,1-.7,1.6,2.36,2.36,0,0,1-1.6.7h-6.7a2.13,2.13,0,0,1-1.6-.7,2.36,2.36,0,0,1-.7-1.6V30.9a2.13,2.13,0,0,1,.7-1.6,2.36,2.36,0,0,1,1.6-.7h5.7a3.33,3.33,0,0,1,2.5.9c.5.6.9,1.1,1.1,1.3Z"/><path class="cls-1" d="M550.9,50.4a32,32,0,0,1,1.8-8.8,20.83,20.83,0,0,1,4.5-7.2,22,22,0,0,1,7.5-4.8,28.33,28.33,0,0,1,10.6-1.8,31,31,0,0,1,10.6,1.7,22,22,0,0,1,7.5,4.8,21.64,21.64,0,0,1,4.6,7.2,25.57,25.57,0,0,1,1.8,8.8c.1,1.1.1,2.2.1,3.5v8c0,1.3-.1,2.4-.1,3.5a32,32,0,0,1-1.8,8.8,20.83,20.83,0,0,1-4.5,7.2,22,22,0,0,1-7.5,4.8,28.77,28.77,0,0,1-10.6,1.7,30.2,30.2,0,0,1-10.6-1.7,22,22,0,0,1-7.5-4.8,19.13,19.13,0,0,1-4.5-7.2,31.28,31.28,0,0,1-1.8-8.8c-.1-1.1-.1-2.2-.1-3.5v-8C550.8,52.6,550.9,51.5,550.9,50.4Zm37.7.4q-.3-6-3.9-9.3a15,15,0,0,0-18.8,0c-2.4,2.2-3.6,5.3-3.9,9.3-.1,2.1-.2,4.5-.2,7s.1,4.9.2,7c.2,4,1.5,7.1,3.9,9.2s5.5,3.2,9.4,3.2a13.72,13.72,0,0,0,9.4-3.2c2.4-2.2,3.6-5.2,3.9-9.2.1-2.1.2-4.4.2-7S588.7,52.9,588.6,50.8Z"/><path class="cls-1" d="M57.8,0a57.8,57.8,0,1,0,57.8,57.8A57.83,57.83,0,0,0,57.8,0Zm0,105.8a48,48,0,1,1,48-48A48.08,48.08,0,0,1,57.8,105.8Z"/><path class="cls-1" d="M78.3,52.2A15.88,15.88,0,0,0,62.4,68.1v7.4H53.2V68.1A15.9,15.9,0,1,0,37.3,84h7.4V95.8h8.5V84h9.2V95.8h8.5V84h7.4a15.9,15.9,0,1,0,0-31.8Zm-41,23.3a7.4,7.4,0,1,1,7.4-7.4v7.4H37.3Zm41,0H70.9V68.1a7.4,7.4,0,0,1,14.8,0A7.26,7.26,0,0,1,78.3,75.5Z"/><path class="cls-1" d="M57.8,57.3,69,46.1a15.91,15.91,0,1,0-22.5,0ZM52.6,29.6A7.42,7.42,0,0,1,63.1,40.1l-5.3,5.3-5.3-5.3A7.52,7.52,0,0,1,52.6,29.6Z"/></g></g></svg>