<svg xmlns="http://www.w3.org/2000/svg" viewBox="0 0 237.37 187.25"><defs><style>.cls-1{fill:#414042;}.cls-2{fill:#808285;}</style></defs><title>chart-access-capital-bw</title><g id="Layer_2" data-name="Layer 2"><g id="Layer_1-2" data-name="Layer 1"><path class="cls-1" d="M10,102.6a3.94,3.94,0,0,1-2.44,1,.37.37,0,0,0-.21.06.26.26,0,0,0,0,.18v.54a.33.33,0,0,1-.09.26.34.34,0,0,1-.27.09H6.13c-.21,0-.31-.1-.31-.3v-.6a.26.26,0,0,0-.05-.18.22.22,0,0,0-.16,0,5.6,5.6,0,0,1-1.89-.4,5,5,0,0,1-1.5-1C2.07,102.14,2,102,2,102a.25.25,0,0,1,.08-.17l.9-1a.38.38,0,0,1,.24-.14.29.29,0,0,1,.19.11A3.59,3.59,0,0,0,5.62,102l.09,0c.08,0,.12-.06.12-.17l0-2.56a.33.33,0,0,0,0-.19A.31.31,0,0,0,5.62,99a4.76,4.76,0,0,1-2.54-1.23,2.91,2.91,0,0,1-.77-2.06,2.79,2.79,0,0,1,.85-2,4.41,4.41,0,0,1,2.4-1.11c.19,0,.29-.14.29-.26v-.57a.2.2,0,0,1,.05-.15A.16.16,0,0,1,6,91.46h1c.18,0,.27.1.27.29v.6c0,.06.06.1.19.13a6.48,6.48,0,0,1,2.6,1.13.22.22,0,0,1,.12.19.34.34,0,0,1-.08.18l-.79,1a.26.26,0,0,1-.18.11A.35.35,0,0,1,8.94,95a3.34,3.34,0,0,0-.64-.48,3.43,3.43,0,0,0-.8-.32H7.44c-.09,0-.14,0-.14.13v2.54a.17.17,0,0,0,0,.13.38.38,0,0,0,.14.06l.84.23a4,4,0,0,1,1.89,1.17,2.88,2.88,0,0,1,.71,1.93A3,3,0,0,1,10,102.6ZM5.85,94.3c0-.15-.07-.21-.2-.18a1.87,1.87,0,0,0-1,.47,1.11,1.11,0,0,0-.36.83,1,1,0,0,0,.3.77,2.27,2.27,0,0,0,1,.52l.09,0c.14,0,.21-.1.21-.29ZM7.5,102a1.93,1.93,0,0,0,1.06-.42,1.08,1.08,0,0,0,.39-.84,1.2,1.2,0,0,0-.34-.88,2.6,2.6,0,0,0-1.11-.55H7.41c-.07,0-.11,0-.11.16v2.43C7.3,102,7.37,102,7.5,102Z"/><path class="cls-1" d="M15.48,98.76A18.84,18.84,0,0,0,17,97.4a3.78,3.78,0,0,0,.66-.89,1.85,1.85,0,0,0,.19-.84,1.34,1.34,0,0,0-.47-1.07,1.81,1.81,0,0,0-1.19-.39,2.07,2.07,0,0,0-1.17.36,3.88,3.88,0,0,0-1,1.21.19.19,0,0,1-.2.12.42.42,0,0,1-.21-.06l-1.33-.69a.33.33,0,0,1-.18-.27.4.4,0,0,1,.07-.22,4.68,4.68,0,0,1,4.19-2.36,5.24,5.24,0,0,1,2.12.41,3.26,3.26,0,0,1,1.43,1.17,3.17,3.17,0,0,1,.51,1.8,3,3,0,0,1-.49,1.68,7.47,7.47,0,0,1-1.67,1.71l-2.77,2.17c-.06,0-.09.08-.09.11s.06.07.18.07h4.66c.19,0,.29.08.29.24v1.65q0,.27-.3.27H12.34a.38.38,0,0,1-.27-.07.3.3,0,0,1-.07-.24v-1.16a.48.48,0,0,1,.12-.29,4.74,4.74,0,0,1,.57-.53Z"/><path class="cls-1" d="M28.81,93a4.82,4.82,0,0,1,1.65,2,7.89,7.89,0,0,1,0,6,4.74,4.74,0,0,1-1.64,2A4.48,4.48,0,0,1,24,103a4.62,4.62,0,0,1-1.65-2,7,7,0,0,1-.6-3,7.17,7.17,0,0,1,.6-3A4.81,4.81,0,0,1,24,93a4.16,4.16,0,0,1,2.4-.72A4.1,4.1,0,0,1,28.81,93Zm-.9,8a6.48,6.48,0,0,0,.48-2.91,6.84,6.84,0,0,0-.49-3,1.64,1.64,0,0,0-3,0,6.79,6.79,0,0,0-.5,3,6.27,6.27,0,0,0,.5,2.9,1.61,1.61,0,0,0,1.5.9A1.59,1.59,0,0,0,27.91,101Z"/><path class="cls-1" d="M32.85,103.49a.37.37,0,0,1-.08-.25V92.74c0-.19.08-.29.25-.29h3.11a.48.48,0,0,1,.24,0,.29.29,0,0,1,.12.17L38.75,99c0,.08.07.12.11.12s.07,0,.11-.12l2.16-6.16c.06-.23.17-.35.33-.35h3.22c.15,0,.23.09.23.27v10.5a.38.38,0,0,1-.09.28.46.46,0,0,1-.29.08H42.6a.33.33,0,0,1-.25-.07.29.29,0,0,1-.07-.23V95.81c0-.07,0-.1,0-.1s-.06,0-.09.12l-2.63,7.51a.3.3,0,0,1-.31.24H38a.3.3,0,0,1-.33-.24L35,95.93q0-.12-.09-.12s-.06,0-.06.14v7.36a.29.29,0,0,1-.06.22s-.1,0-.21,0H33.09A.32.32,0,0,1,32.85,103.49Z"/><path class="cls-2" d="M3.85,124.52a.19.19,0,0,1,0-.18l3.63-10a.26.26,0,0,1,.09-.15.31.31,0,0,1,.19,0H8.85a.29.29,0,0,1,.32.21l3.58,9.94,0,.07c0,.11,0,.17-.16.17h-1a.21.21,0,0,1-.22-.14l-1-2.72-.06-.08a.14.14,0,0,0-.11,0H6.19a.17.17,0,0,0-.17.11l-1,2.73a.19.19,0,0,1-.21.13H4A.15.15,0,0,1,3.85,124.52Zm6.05-4c.1,0,.14-.06.11-.19l-1.68-4.6c0-.08-.06-.13-.1-.13s-.07.05-.1.13l-1.7,4.63,0,.09s0,.07.11.07Z"/><path class="cls-2" d="M14.46,124.4v-7.06c0-.12,0-.18.16-.18h.84a.13.13,0,0,1,.15.15v.82c0,.1,0,.11.13,0a7.14,7.14,0,0,1,1.33-.88,2.82,2.82,0,0,1,1.24-.27,2.31,2.31,0,0,1,1.66.57,2,2,0,0,1,.6,1.54v5.23c0,.15-.07.22-.21.22h-.79a.16.16,0,0,1-.18-.18v-5a1.5,1.5,0,0,0-.36-1.08,1.44,1.44,0,0,0-1.1-.38,2.33,2.33,0,0,0-1.08.26,7.11,7.11,0,0,0-1.21.88v5.29a.22.22,0,0,1-.05.16.23.23,0,0,1-.16,0h-.77C14.53,124.58,14.46,124.52,14.46,124.4Z"/><path class="cls-2" d="M29.61,117.26v.49a.28.28,0,0,1-.06.2.29.29,0,0,1-.22,0,1.65,1.65,0,0,0-.73.13c-.22.09-.32.2-.28.32l.09.21a2.72,2.72,0,0,1,.11.34,1.75,1.75,0,0,1,0,.4,2,2,0,0,1-.78,1.62,3.52,3.52,0,0,1-2.26.63,4.4,4.4,0,0,0-1.43.17c-.29.11-.43.26-.43.44s.1.24.29.31a4.11,4.11,0,0,0,1,.15l1.81.1a2.91,2.91,0,0,1,1.79.57,1.72,1.72,0,0,1,.59,1.37,1.89,1.89,0,0,1-.93,1.67,4.91,4.91,0,0,1-2.65.6,5.75,5.75,0,0,1-2.71-.51,1.6,1.6,0,0,1-.93-1.47c0-.62.43-1.15,1.31-1.58.11,0,.11-.1,0-.15a.89.89,0,0,1-.64-.83.8.8,0,0,1,.28-.58,2.21,2.21,0,0,1,.82-.47s.07,0,.07-.07a.09.09,0,0,0-.07-.09,2.45,2.45,0,0,1-.91-.78,2,2,0,0,1-.29-1.1,2,2,0,0,1,.83-1.72,3.78,3.78,0,0,1,2.33-.63,3.21,3.21,0,0,1,2.1.63.56.56,0,0,0,.14.07.4.4,0,0,0,.16-.07,2.44,2.44,0,0,1,.62-.46,1.56,1.56,0,0,1,.69-.19C29.52,117,29.61,117.11,29.61,117.26Zm-5.32,6.41a1.11,1.11,0,0,0-.57.15,1.5,1.5,0,0,0-.55.45,1,1,0,0,0-.22.65,1.12,1.12,0,0,0,.68,1,4.69,4.69,0,0,0,2,.35c1.58,0,2.37-.47,2.37-1.4a1,1,0,0,0-.33-.77,1.88,1.88,0,0,0-1.07-.32ZM27,120.52a1.38,1.38,0,0,0,.48-1.13,1.46,1.46,0,0,0-.49-1.18,2.13,2.13,0,0,0-1.44-.42,2.17,2.17,0,0,0-1.44.43,1.41,1.41,0,0,0-.52,1.17,1.33,1.33,0,0,0,.51,1.12,2.29,2.29,0,0,0,1.45.4A2.26,2.26,0,0,0,27,120.52Z"/><path class="cls-2" d="M32.07,122.58a2.43,2.43,0,0,0,.89.91,2.37,2.37,0,0,0,1.23.34,2.48,2.48,0,0,0,2.18-1.17s.07-.06.1-.06a.2.2,0,0,1,.1,0l.59.3c.07,0,.08.11,0,.19a3.38,3.38,0,0,1-1.3,1.23,4,4,0,0,1-1.8.38,3.62,3.62,0,0,1-1.84-.47A3.42,3.42,0,0,1,31,122.91a4.21,4.21,0,0,1-.45-2,4.43,4.43,0,0,1,.46-2.08,3.28,3.28,0,0,1,1.27-1.36,3.47,3.47,0,0,1,1.81-.48,3.43,3.43,0,0,1,1.77.45A3,3,0,0,1,37,118.78a4.58,4.58,0,0,1,.42,2v.05a.33.33,0,0,1,0,.19s-.08.06-.16.06H31.86q-.12,0-.12.21A2.46,2.46,0,0,0,32.07,122.58Zm4-2.23a.43.43,0,0,0,.2,0,.22.22,0,0,0,0-.16A2.65,2.65,0,0,0,36,119a2,2,0,0,0-.76-.84,2.32,2.32,0,0,0-2.4,0,2.4,2.4,0,0,0-.81.92,2.52,2.52,0,0,0-.26,1.21Z"/><path class="cls-2" d="M40.28,124.34c0,.1,0,.16-.06.19a.31.31,0,0,1-.19,0H39.3c-.09,0-.14,0-.17,0a.22.22,0,0,1,0-.16v-10c0-.13.06-.2.17-.2h.84c.11,0,.17.06.17.18Z"/><path class="cls-2" d="M8,131.44a4.17,4.17,0,0,1,1.38,1.06,2.89,2.89,0,0,1,.66,1.42v.1a.12.12,0,0,1,0,.09.12.12,0,0,1-.08,0l-1.05.09h0a.1.1,0,0,1-.07,0,.23.23,0,0,1,0-.1,2.57,2.57,0,0,0-.87-1.46,2.44,2.44,0,0,0-1.59-.55A2.61,2.61,0,0,0,4,133.16a5.53,5.53,0,0,0-.78,3.24A5.36,5.36,0,0,0,4,139.58a2.67,2.67,0,0,0,2.32,1.08A2.67,2.67,0,0,0,8,140.17a3.3,3.3,0,0,0,1.08-1.51c0-.07.07-.09.16-.06l.83.19c.06,0,.09.09.07.2a3.6,3.6,0,0,1-.73,1.32,3.92,3.92,0,0,1-1.31,1,4.11,4.11,0,0,1-1.81.39,4.28,4.28,0,0,1-2.38-.64,4.2,4.2,0,0,1-1.53-1.85,8,8,0,0,1,0-5.71,4,4,0,0,1,1.51-1.83,4.19,4.19,0,0,1,2.34-.64A4.11,4.11,0,0,1,8,131.44Z"/><path class="cls-2" d="M13.73,141.72a2.55,2.55,0,0,1-1.72-.55,1.89,1.89,0,0,1-.62-1.48,2,2,0,0,1,.94-1.77,5.45,5.45,0,0,1,2.74-.75l1.09-.09c.16,0,.24-.08.24-.21v-.37a1.57,1.57,0,0,0-.47-1.2,1.74,1.74,0,0,0-1.27-.44,2.35,2.35,0,0,0-2,1.12.19.19,0,0,1-.09.09.15.15,0,0,1-.11,0l-.75-.25a.1.1,0,0,1-.07-.1.27.27,0,0,1,0-.12,2.92,2.92,0,0,1,1.2-1.16,3.9,3.9,0,0,1,1.84-.41,3.08,3.08,0,0,1,2.1.64,2.21,2.21,0,0,1,.72,1.75v5a.25.25,0,0,1,0,.17.21.21,0,0,1-.15,0h-.7c-.11,0-.18-.07-.2-.23l0-.64c0-.06,0-.1-.07-.1a.17.17,0,0,0-.12.07A3.46,3.46,0,0,1,13.73,141.72Zm2.46-3.92-.91.08a4.59,4.59,0,0,0-2,.51,1.29,1.29,0,0,0-.7,1.16,1.17,1.17,0,0,0,.42.95,1.78,1.78,0,0,0,1.14.35,2.55,2.55,0,0,0,.86-.15,2.45,2.45,0,0,0,.74-.42,2.28,2.28,0,0,0,.5-.54,1.13,1.13,0,0,0,.17-.55V138A.19.19,0,0,0,16.19,137.8Z"/><path class="cls-2" d="M20.74,134.37V135c0,.08,0,.12.07.12a.16.16,0,0,0,.11-.07c.2-.19.37-.35.52-.47a2.48,2.48,0,0,1,.66-.35,2.87,2.87,0,0,1,1-.17,3,3,0,0,1,1.58.42,2.89,2.89,0,0,1,1.09,1.26,4.88,4.88,0,0,1,.4,2.06,5.32,5.32,0,0,1-.4,2.13A2.95,2.95,0,0,1,23,141.72a3,3,0,0,1-2-.7c-.07-.06-.12-.1-.15-.1s-.07.06-.07.18v2.61c0,.12-.06.18-.16.18h-.87q-.15,0-.15-.18v-9.33a.25.25,0,0,1,.05-.16.21.21,0,0,1,.17-.06h.75C20.68,134.16,20.74,134.23,20.74,134.37Zm.92,6.27a2.22,2.22,0,0,0,1,.22,2.06,2.06,0,0,0,1.69-.79,3.66,3.66,0,0,0,.63-2.3,3.26,3.26,0,0,0-.63-2.18,2.05,2.05,0,0,0-1.62-.72,2,2,0,0,0-1,.25,2,2,0,0,0-.71.62,1.33,1.33,0,0,0-.26.74v3.46A3.53,3.53,0,0,0,21.66,140.64Z"/><path class="cls-2" d="M29.17,132.57a.28.28,0,0,1-.06.2.24.24,0,0,1-.19.06h-.81q-.21,0-.21-.24v-1.17c0-.15.06-.23.19-.23H29a.17.17,0,0,1,.14.06.2.2,0,0,1,.06.15Zm-.06,8.77a.27.27,0,0,1-.05.19.34.34,0,0,1-.2.05h-.71c-.09,0-.14,0-.17,0a.22.22,0,0,1,0-.16v-7c0-.14,0-.2.17-.2H29q.15,0,.15.18Z"/><path class="cls-2" d="M33.24,135c-.07,0-.11,0-.11.13v4.43a1.35,1.35,0,0,0,.21.87.87.87,0,0,0,.69.24h1c.11,0,.16.05.16.15l0,.48c0,.09-.05.15-.17.18a7.73,7.73,0,0,1-1.31.07,1.77,1.77,0,0,1-1.29-.41,1.82,1.82,0,0,1-.41-1.31v-4.68c0-.1,0-.15-.13-.15H30.7c-.11,0-.16-.05-.16-.14v-.59a.13.13,0,0,1,.14-.14h1.19c.07,0,.1,0,.1-.11l.15-2.23c0-.12.05-.18.16-.18H33c.11,0,.16.06.16.2v2.21c0,.07,0,.11.12.11H35q.15,0,.15.12v.61c0,.09-.05.14-.15.14Z"/><path class="cls-2" d="M38.52,141.72a2.51,2.51,0,0,1-1.71-.55,1.87,1.87,0,0,1-.63-1.48,2,2,0,0,1,1-1.77,5.41,5.41,0,0,1,2.73-.75l1.1-.09c.16,0,.24-.08.24-.21v-.37a1.57,1.57,0,0,0-.47-1.2,1.77,1.77,0,0,0-1.27-.44,2.38,2.38,0,0,0-2,1.12.13.13,0,0,1-.19.08l-.76-.25a.1.1,0,0,1-.07-.1.54.54,0,0,1,0-.12,2.92,2.92,0,0,1,1.2-1.16A3.93,3.93,0,0,1,39.5,134a3.05,3.05,0,0,1,2.1.64,2.19,2.19,0,0,1,.73,1.75v5a.25.25,0,0,1,0,.17.22.22,0,0,1-.16,0h-.7c-.11,0-.17-.07-.19-.23l0-.64c0-.06,0-.1-.07-.1a.19.19,0,0,0-.13.07A3.46,3.46,0,0,1,38.52,141.72ZM41,137.8l-.92.08a4.58,4.58,0,0,0-2,.51,1.28,1.28,0,0,0-.71,1.16,1.15,1.15,0,0,0,.43.95,1.74,1.74,0,0,0,1.14.35,2.5,2.5,0,0,0,.85-.15,2.34,2.34,0,0,0,.74-.42,2.09,2.09,0,0,0,.5-.54,1,1,0,0,0,.17-.55V138A.18.18,0,0,0,41,137.8Z"/><path class="cls-2" d="M45.56,141.34a.27.27,0,0,1-.05.19.34.34,0,0,1-.2.05h-.73c-.08,0-.14,0-.16,0a.22.22,0,0,1-.05-.16l0-10c0-.13,0-.2.17-.2h.83c.12,0,.17.06.17.18Z"/><path class="cls-1" d="M96.25,102.6a3.89,3.89,0,0,1-2.43,1,.37.37,0,0,0-.21.06.26.26,0,0,0,0,.18v.54a.37.37,0,0,1-.08.26.38.38,0,0,1-.28.09h-.82c-.21,0-.32-.1-.32-.3v-.6a.26.26,0,0,0,0-.18.25.25,0,0,0-.17,0,5.49,5.49,0,0,1-1.88-.4,5.08,5.08,0,0,1-1.51-1c-.15-.12-.22-.22-.22-.31a.23.23,0,0,1,.07-.17l.9-1a.38.38,0,0,1,.24-.14.31.31,0,0,1,.2.11A3.59,3.59,0,0,0,91.87,102l.09,0c.08,0,.12-.06.12-.17V99.25a.34.34,0,0,0,0-.19.31.31,0,0,0-.18-.11,4.83,4.83,0,0,1-2.55-1.23,3,3,0,0,1-.77-2.06,2.8,2.8,0,0,1,.86-2,4.41,4.41,0,0,1,2.4-1.11c.19,0,.28-.14.28-.26v-.57a.2.2,0,0,1,.06-.15.14.14,0,0,1,.12-.06h1c.18,0,.27.1.27.29v.6c0,.06.07.1.2.13a6.43,6.43,0,0,1,2.59,1.13.22.22,0,0,1,.12.19.32.32,0,0,1-.07.18l-.8,1a.26.26,0,0,1-.18.11.35.35,0,0,1-.24-.12,3.25,3.25,0,0,0-.63-.48,3.5,3.5,0,0,0-.81-.32h-.06c-.09,0-.13,0-.13.13v2.54a.17.17,0,0,0,0,.13.38.38,0,0,0,.14.06l.84.23a4,4,0,0,1,1.89,1.17,2.87,2.87,0,0,1,.7,1.93A3,3,0,0,1,96.25,102.6Zm-4.16-8.3c0-.15-.06-.21-.19-.18a1.9,1.9,0,0,0-1,.47,1.11,1.11,0,0,0-.36.83,1,1,0,0,0,.3.77,2.27,2.27,0,0,0,1,.52l.09,0c.14,0,.21-.1.21-.29ZM93.74,102a2,2,0,0,0,1.07-.42,1.08,1.08,0,0,0,.39-.84,1.21,1.21,0,0,0-.35-.88,2.6,2.6,0,0,0-1.11-.55h-.09c-.07,0-.1,0-.1.16v2.43C93.55,102,93.61,102,93.74,102Z"/><path class="cls-1" d="M104.81,101.87v1.46a.21.21,0,0,1-.07.17.28.28,0,0,1-.23.08H98.59c-.19,0-.29-.08-.29-.25v-1.46c0-.15.09-.23.26-.23h1.56c.11,0,.16,0,.16-.1v-6.3a.22.22,0,0,0,0-.16.24.24,0,0,0-.17,0l-1.45.43-.11,0c-.15,0-.22-.1-.22-.3v-1a.41.41,0,0,1,0-.22.47.47,0,0,1,.18-.14L101,92.63a1.85,1.85,0,0,1,.33-.14,1,1,0,0,1,.3,0h1a.19.19,0,0,1,.17.08.29.29,0,0,1,.06.19v8.77c0,.1,0,.15.13.15h1.5C104.72,101.65,104.81,101.72,104.81,101.87Z"/><path class="cls-1" d="M106.24,94a.38.38,0,0,1,.06-.18A4.05,4.05,0,0,1,108,92.72a5.94,5.94,0,0,1,2.23-.42,6.08,6.08,0,0,1,2.24.37,3.15,3.15,0,0,1,1.46,1,2.43,2.43,0,0,1,.5,1.51,2.32,2.32,0,0,1-.46,1.39,2.47,2.47,0,0,1-1.31.89q-.18.06-.18.15s.06.09.17.12a3.39,3.39,0,0,1,1.54,1,2.42,2.42,0,0,1,.59,1.6,2.91,2.91,0,0,1-1.19,2.5,6,6,0,0,1-3.54.87,5.83,5.83,0,0,1-2.4-.5,4.33,4.33,0,0,1-1.75-1.36.34.34,0,0,1-.08-.19c0-.08.06-.16.17-.24l1.17-.83a.43.43,0,0,1,.19-.09.16.16,0,0,1,.14.08,4.9,4.9,0,0,0,1.29,1,3.27,3.27,0,0,0,1.42.29,2.35,2.35,0,0,0,1.46-.41,1.26,1.26,0,0,0,.54-1.06,1.37,1.37,0,0,0-.6-1.17,2.51,2.51,0,0,0-1.49-.45l-1.29,0c-.17,0-.25-.07-.25-.21V97.15c0-.11.08-.18.25-.21l1,0a2.33,2.33,0,0,0,1.44-.44,1.28,1.28,0,0,0,.57-1.07,1.12,1.12,0,0,0-.48-.91,1.9,1.9,0,0,0-1.19-.37,3.05,3.05,0,0,0-1.26.26,4.42,4.42,0,0,0-1.17.85c-.07.07-.12.11-.16.11a.58.58,0,0,1-.17-.11l-1.09-1A.2.2,0,0,1,106.24,94Z"/><path class="cls-1" d="M123,93a4.82,4.82,0,0,1,1.65,2,7.17,7.17,0,0,1,.6,3,7,7,0,0,1-.6,3,4.67,4.67,0,0,1-1.64,2,4.28,4.28,0,0,1-2.4.7,4.34,4.34,0,0,1-2.41-.7,4.76,4.76,0,0,1-1.65-2,7.86,7.86,0,0,1,0-6,4.74,4.74,0,0,1,1.66-2A4.33,4.33,0,0,1,123,93Zm-.9,8a6.48,6.48,0,0,0,.48-2.91,7,7,0,0,0-.49-3,1.65,1.65,0,0,0-3,0,6.82,6.82,0,0,0-.49,3,6.3,6.3,0,0,0,.49,2.9,1.61,1.61,0,0,0,1.5.9A1.59,1.59,0,0,0,122.14,101Z"/><path class="cls-1" d="M127.08,103.49a.33.33,0,0,1-.08-.25V92.74c0-.19.08-.29.25-.29h3.11a.48.48,0,0,1,.24,0,.29.29,0,0,1,.12.17L133,99c0,.08.07.12.11.12s.07,0,.1-.12l2.16-6.16c.06-.23.17-.35.33-.35h3.23c.15,0,.22.09.22.27v10.5a.38.38,0,0,1-.09.28.44.44,0,0,1-.28.08h-1.94a.34.34,0,0,1-.25-.07.33.33,0,0,1-.06-.23V95.81c0-.07,0-.1,0-.1s-.06,0-.09.12l-2.62,7.51a.31.31,0,0,1-.32.24h-1.24a.3.3,0,0,1-.33-.24l-2.6-7.41q0-.12-.09-.12s-.06,0-.06.14v7.36a.35.35,0,0,1-.05.22s-.11,0-.22,0h-1.53A.29.29,0,0,1,127.08,103.49Z"/><path class="cls-2" d="M97.17,114.26a.12.12,0,0,1,0,.13l-3.54,10a.34.34,0,0,1-.11.16.39.39,0,0,1-.2,0h-1c-.19,0-.3-.06-.34-.2l-3.47-10a.15.15,0,0,1,0-.07c0-.09,0-.14.16-.14h1a.25.25,0,0,1,.24.17l2.91,8.48c0,.09.06.13.1.13s.07,0,.11-.14l3-8.48a.2.2,0,0,1,.21-.16H97A.13.13,0,0,1,97.17,114.26Z"/><path class="cls-2" d="M99.16,122.58a2.51,2.51,0,0,0,.89.91,2.37,2.37,0,0,0,1.23.34,2.51,2.51,0,0,0,2.19-1.17.2.2,0,0,1,.09-.06.18.18,0,0,1,.1,0l.59.3c.08,0,.08.11,0,.19a3.52,3.52,0,0,1-1.3,1.23,4.06,4.06,0,0,1-1.81.38,3.61,3.61,0,0,1-1.83-.47,3.28,3.28,0,0,1-1.27-1.34,4.21,4.21,0,0,1-.46-2,4.43,4.43,0,0,1,.47-2.08,3.26,3.26,0,0,1,1.26-1.36,3.48,3.48,0,0,1,1.82-.48,3.43,3.43,0,0,1,1.77.45,3,3,0,0,1,1.18,1.31,4.58,4.58,0,0,1,.42,2v.05a.34.34,0,0,1,0,.19.21.21,0,0,1-.17.06H99c-.09,0-.13.07-.13.21A2.46,2.46,0,0,0,99.16,122.58Zm4-2.23a.38.38,0,0,0,.19,0,.22.22,0,0,0,0-.16,2.65,2.65,0,0,0-.25-1.15,2.06,2.06,0,0,0-1.92-1.15,2.15,2.15,0,0,0-1.24.36,2.24,2.24,0,0,0-.81.92,2.52,2.52,0,0,0-.27,1.21Z"/><path class="cls-2" d="M106.18,124.4v-7.06c0-.12,0-.18.16-.18h.84a.13.13,0,0,1,.15.15v.82c0,.1,0,.11.13,0a7.14,7.14,0,0,1,1.33-.88A2.82,2.82,0,0,1,110,117a2.31,2.31,0,0,1,1.66.57,2,2,0,0,1,.6,1.54v5.23c0,.15-.07.22-.21.22h-.79a.16.16,0,0,1-.18-.18v-5a1.5,1.5,0,0,0-.36-1.08,1.44,1.44,0,0,0-1.1-.38,2.33,2.33,0,0,0-1.08.26,7.11,7.11,0,0,0-1.21.88v5.29a.22.22,0,0,1,0,.16.23.23,0,0,1-.16,0h-.77C106.25,124.58,106.18,124.52,106.18,124.4Z"/><path class="cls-2" d="M116.32,118c-.08,0-.11,0-.11.13v4.43a1.35,1.35,0,0,0,.21.87.85.85,0,0,0,.68.24h1a.13.13,0,0,1,.15.15v.48c0,.09-.06.15-.17.18a7.79,7.79,0,0,1-1.32.07,1.76,1.76,0,0,1-1.28-.41,1.82,1.82,0,0,1-.41-1.31v-4.68c0-.1,0-.15-.14-.15h-1.12c-.1,0-.15,0-.15-.14v-.59a.12.12,0,0,1,.14-.14H115c.06,0,.09,0,.09-.11l.16-2.23q0-.18.15-.18h.7c.11,0,.17.06.17.2v2.21a.1.1,0,0,0,.11.11h1.77q.15,0,.15.12v.61c0,.09,0,.14-.15.14Z"/><path class="cls-2" d="M123.42,123.48a5.17,5.17,0,0,0,1.13-.9v-5.22c0-.13.08-.2.23-.2h.77c.13,0,.19.06.19.2l0,7q0,.18-.15.18h-.81c-.11,0-.16,0-.16-.15v-.83c0-.11,0-.13-.12,0a5.61,5.61,0,0,1-1.35.9,3,3,0,0,1-1.2.26,2.24,2.24,0,0,1-1.61-.59,2,2,0,0,1-.63-1.55v-5.21a.19.19,0,0,1,.21-.21h.79c.12,0,.18.07.18.2v4.91a1.57,1.57,0,0,0,.38,1.11,1.37,1.37,0,0,0,1.06.42A2.25,2.25,0,0,0,123.42,123.48Z"/><path class="cls-2" d="M127.88,124.4v-7.06c0-.12.05-.18.16-.18h.81a.13.13,0,0,1,.15.15v.91c0,.06,0,.09.05.1s.07,0,.11,0a2.93,2.93,0,0,1,2.17-1.25c.32,0,.49.06.49.18V118c0,.1,0,.13-.13.11a5.27,5.27,0,0,0-.63,0,2,2,0,0,0-.88.24,2.46,2.46,0,0,0-.8.61,1.18,1.18,0,0,0-.32.78v4.63a.19.19,0,0,1-.21.21h-.77C128,124.58,127.88,124.52,127.88,124.4Z"/><path class="cls-2" d="M134.18,122.58a2.4,2.4,0,0,0,.88.91,2.43,2.43,0,0,0,1.24.34,2.48,2.48,0,0,0,2.18-1.17s.07-.06.1-.06a.2.2,0,0,1,.1,0l.59.3c.07,0,.08.11,0,.19a3.45,3.45,0,0,1-1.3,1.23,4,4,0,0,1-1.8.38,3.62,3.62,0,0,1-1.84-.47,3.42,3.42,0,0,1-1.27-1.34,4.21,4.21,0,0,1-.45-2,4.43,4.43,0,0,1,.46-2.08,3.28,3.28,0,0,1,1.27-1.36,3.68,3.68,0,0,1,3.58,0,3,3,0,0,1,1.18,1.31,4.58,4.58,0,0,1,.42,2v.05a.34.34,0,0,1,0,.19.19.19,0,0,1-.17.06H134q-.12,0-.12.21A2.46,2.46,0,0,0,134.18,122.58Zm3.95-2.23a.43.43,0,0,0,.2,0,.28.28,0,0,0,0-.16,2.65,2.65,0,0,0-.26-1.15,2.12,2.12,0,0,0-.76-.84,2.32,2.32,0,0,0-2.4,0,2.4,2.4,0,0,0-.81.92,2.65,2.65,0,0,0-.27,1.21Z"/><path class="cls-2" d="M98.22,131.44a4.17,4.17,0,0,1,1.38,1.06,2.79,2.79,0,0,1,.65,1.42l0,.1a.1.1,0,0,1,0,.09.1.1,0,0,1-.07,0l-1,.09h0a.1.1,0,0,1-.07,0,.23.23,0,0,1-.05-.1,2.55,2.55,0,0,0-.86-1.46,2.45,2.45,0,0,0-1.6-.55,2.61,2.61,0,0,0-2.25,1.09,5.61,5.61,0,0,0-.77,3.24,5.44,5.44,0,0,0,.77,3.18,2.67,2.67,0,0,0,2.32,1.08,2.7,2.7,0,0,0,1.66-.49,3.28,3.28,0,0,0,1.07-1.51c0-.07.08-.09.17-.06l.83.19c.06,0,.08.09.07.2a3.75,3.75,0,0,1-.73,1.32,4,4,0,0,1-1.32,1,4,4,0,0,1-1.8.39,4.25,4.25,0,0,1-2.38-.64,4.07,4.07,0,0,1-1.53-1.85,7,7,0,0,1-.53-2.86,7.08,7.08,0,0,1,.52-2.85,4,4,0,0,1,1.51-1.83,4.2,4.2,0,0,1,2.35-.64A4.14,4.14,0,0,1,98.22,131.44Z"/><path class="cls-2" d="M104,141.72a2.53,2.53,0,0,1-1.71-.55,1.86,1.86,0,0,1-.62-1.48,2,2,0,0,1,.94-1.77,5.42,5.42,0,0,1,2.74-.75l1.09-.09c.16,0,.24-.08.24-.21v-.37a1.57,1.57,0,0,0-.47-1.2,1.75,1.75,0,0,0-1.27-.44,2.35,2.35,0,0,0-2,1.12.19.19,0,0,1-.09.09.15.15,0,0,1-.11,0l-.76-.25a.11.11,0,0,1-.07-.1.33.33,0,0,1,0-.12,2.89,2.89,0,0,1,1.19-1.16,3.93,3.93,0,0,1,1.84-.41,3.05,3.05,0,0,1,2.1.64,2.19,2.19,0,0,1,.73,1.75v5a.25.25,0,0,1,0,.17.21.21,0,0,1-.15,0h-.7c-.12,0-.18-.07-.2-.23l0-.64c0-.06,0-.1-.07-.1a.15.15,0,0,0-.12.07A3.46,3.46,0,0,1,104,141.72Zm2.47-3.92-.91.08a4.59,4.59,0,0,0-2,.51,1.3,1.3,0,0,0-.71,1.16,1.15,1.15,0,0,0,.43.95,1.74,1.74,0,0,0,1.14.35,2.58,2.58,0,0,0,1.6-.57,2,2,0,0,0,.49-.54,1.05,1.05,0,0,0,.18-.55V138A.19.19,0,0,0,106.43,137.8Z"/><path class="cls-2" d="M111,134.37V135c0,.08,0,.12.07.12a.2.2,0,0,0,.11-.07,6.48,6.48,0,0,1,.52-.47,2.48,2.48,0,0,1,.66-.35,2.83,2.83,0,0,1,1-.17,3,3,0,0,1,1.57.42A2.83,2.83,0,0,1,116,135.7a4.73,4.73,0,0,1,.4,2.06,5.16,5.16,0,0,1-.4,2.13,3,3,0,0,1-1.12,1.36,3.1,3.1,0,0,1-1.7.47,3,3,0,0,1-2-.7c-.06-.06-.11-.1-.15-.1s-.07.06-.07.18v2.61q0,.18-.15.18H110c-.1,0-.16-.06-.16-.18v-9.33a.25.25,0,0,1,0-.16.23.23,0,0,1,.18-.06h.74A.18.18,0,0,1,111,134.37Zm.91,6.27a2.26,2.26,0,0,0,1,.22,2,2,0,0,0,1.68-.79,3.6,3.6,0,0,0,.64-2.3,3.26,3.26,0,0,0-.63-2.18,2.06,2.06,0,0,0-1.63-.72,2,2,0,0,0-1,.25,2,2,0,0,0-.71.62,1.33,1.33,0,0,0-.26.74v3.46A3.67,3.67,0,0,0,111.89,140.64Z"/><path class="cls-2" d="M119.41,132.57a.28.28,0,0,1-.06.2.27.27,0,0,1-.2.06h-.81q-.21,0-.21-.24v-1.17c0-.15.07-.23.2-.23h.88a.18.18,0,0,1,.14.06.2.2,0,0,1,.06.15Zm-.06,8.77c0,.1,0,.16-.06.19a.31.31,0,0,1-.19.05h-.72a.25.25,0,0,1-.17,0,.28.28,0,0,1,0-.16v-7c0-.14.06-.2.17-.2h.85c.11,0,.16.06.16.18Z"/><path class="cls-2" d="M123.48,135c-.08,0-.11,0-.11.13v4.43a1.35,1.35,0,0,0,.21.87.85.85,0,0,0,.68.24h1a.13.13,0,0,1,.15.15v.48c0,.09-.06.15-.17.18a7.79,7.79,0,0,1-1.32.07,1.76,1.76,0,0,1-1.28-.41,1.82,1.82,0,0,1-.41-1.31v-4.68c0-.1,0-.15-.14-.15h-1.12c-.1,0-.15-.05-.15-.14v-.59a.12.12,0,0,1,.14-.14h1.19a.1.1,0,0,0,.1-.11l.15-2.23q0-.18.15-.18h.7c.11,0,.17.06.17.2v2.21a.1.1,0,0,0,.11.11h1.77q.15,0,.15.12v.61c0,.09,0,.14-.15.14Z"/><path class="cls-2" d="M128.76,141.72a2.55,2.55,0,0,1-1.72-.55,1.89,1.89,0,0,1-.62-1.48,2,2,0,0,1,.94-1.77,5.56,5.56,0,0,1,2.74-.75l1.09-.09c.16,0,.24-.08.24-.21v-.37a1.57,1.57,0,0,0-.47-1.2,1.74,1.74,0,0,0-1.27-.44,2.35,2.35,0,0,0-2,1.12.19.19,0,0,1-.09.09.15.15,0,0,1-.11,0l-.75-.25a.1.1,0,0,1-.07-.1.27.27,0,0,1,0-.12,3,3,0,0,1,1.19-1.16,4,4,0,0,1,1.85-.41,3.08,3.08,0,0,1,2.1.64,2.22,2.22,0,0,1,.73,1.75v5a.25.25,0,0,1,0,.17s-.08,0-.15,0h-.7c-.11,0-.18-.07-.2-.23l0-.64c0-.06,0-.1-.07-.1a.19.19,0,0,0-.13.07A3.46,3.46,0,0,1,128.76,141.72Zm2.46-3.92-.91.08a4.59,4.59,0,0,0-2,.51,1.3,1.3,0,0,0-.71,1.16,1.17,1.17,0,0,0,.43.95,1.78,1.78,0,0,0,1.14.35,2.55,2.55,0,0,0,.86-.15,2.45,2.45,0,0,0,.74-.42,2.28,2.28,0,0,0,.5-.54,1.13,1.13,0,0,0,.17-.55V138A.19.19,0,0,0,131.22,137.8Z"/><path class="cls-2" d="M135.8,141.34c0,.1,0,.16-.06.19a.29.29,0,0,1-.19.05h-.73a.25.25,0,0,1-.17,0,.22.22,0,0,1,0-.16v-10c0-.13.06-.2.17-.2h.84c.11,0,.17.06.17.18v10Z"/><path class="cls-1" d="M193.13,102.6a3.89,3.89,0,0,1-2.43,1,.37.37,0,0,0-.21.06.26.26,0,0,0-.05.18v.54a.37.37,0,0,1-.08.26.38.38,0,0,1-.28.09h-.82c-.21,0-.32-.1-.32-.3v-.6a.26.26,0,0,0,0-.18.25.25,0,0,0-.17,0,5.49,5.49,0,0,1-1.88-.4,5.21,5.21,0,0,1-1.51-1c-.15-.12-.22-.22-.22-.31a.23.23,0,0,1,.07-.17l.9-1a.38.38,0,0,1,.24-.14.31.31,0,0,1,.2.11,3.59,3.59,0,0,0,2.22,1.18l.09,0c.08,0,.12-.06.12-.17V99.25a.34.34,0,0,0,0-.19.31.31,0,0,0-.18-.11,4.83,4.83,0,0,1-2.55-1.23,3,3,0,0,1-.77-2.06,2.8,2.8,0,0,1,.86-2,4.41,4.41,0,0,1,2.4-1.11c.19,0,.28-.14.28-.26v-.57a.25.25,0,0,1,.05-.15.18.18,0,0,1,.13-.06h1c.18,0,.27.1.27.29v.6c0,.06.07.1.2.13a6.43,6.43,0,0,1,2.59,1.13.22.22,0,0,1,.12.19.32.32,0,0,1-.07.18l-.8,1a.26.26,0,0,1-.18.11.35.35,0,0,1-.24-.12,3.05,3.05,0,0,0-.64-.48,3.26,3.26,0,0,0-.8-.32h-.06c-.09,0-.13,0-.13.13v2.54a.23.23,0,0,0,0,.13l.15.06.84.23a4,4,0,0,1,1.89,1.17,2.87,2.87,0,0,1,.7,1.93A3,3,0,0,1,193.13,102.6ZM189,94.3c0-.15-.06-.21-.19-.18a1.9,1.9,0,0,0-1,.47,1.11,1.11,0,0,0-.36.83,1,1,0,0,0,.3.77,2.27,2.27,0,0,0,1,.52l.09,0c.14,0,.21-.1.21-.29V94.3Zm1.65,7.68a2,2,0,0,0,1.07-.42,1.08,1.08,0,0,0,.39-.84,1.21,1.21,0,0,0-.35-.88,2.6,2.6,0,0,0-1.11-.55h-.09c-.07,0-.1,0-.1.16v2.43C190.43,102,190.49,102,190.62,102Z"/><path class="cls-1" d="M201.69,101.87v1.46a.21.21,0,0,1-.07.17.28.28,0,0,1-.23.08h-5.92c-.19,0-.29-.08-.29-.25v-1.46c0-.15.09-.23.26-.23H197c.11,0,.16,0,.16-.1v-6.3a.22.22,0,0,0,0-.16.24.24,0,0,0-.17,0l-1.45.43-.11,0c-.15,0-.22-.1-.22-.3v-1a.41.41,0,0,1,0-.22.47.47,0,0,1,.18-.14l2.51-1.25a1.63,1.63,0,0,1,.34-.14.85.85,0,0,1,.29,0h1a.19.19,0,0,1,.17.08.29.29,0,0,1,.06.19v8.77c0,.1,0,.15.13.15h1.5C201.6,101.65,201.69,101.72,201.69,101.87Z"/><path class="cls-1" d="M209.36,92.71a3.5,3.5,0,0,1,1.47,1.11,2.55,2.55,0,0,1,.54,1.59,2.42,2.42,0,0,1-1.44,2.07c-.08,0-.12.09-.12.13a.17.17,0,0,0,.1.14,4.33,4.33,0,0,1,1.51,1.2,2.58,2.58,0,0,1,.44,1.48,2.79,2.79,0,0,1-.58,1.77,3.6,3.6,0,0,1-1.65,1.14,7,7,0,0,1-2.45.39A5.79,5.79,0,0,1,204,103a2.51,2.51,0,0,1-.8-3.48,3.74,3.74,0,0,1,1.33-1.11l.08-.06s.07,0,.07-.08,0-.08-.12-.13a3.89,3.89,0,0,1-1.07-1,2.28,2.28,0,0,1-.38-1.37,3.12,3.12,0,0,1,.51-1.72,3.51,3.51,0,0,1,1.44-1.24,4.9,4.9,0,0,1,2.19-.46A5.21,5.21,0,0,1,209.36,92.71Zm-.61,8.92a1.19,1.19,0,0,0,.52-1,1.15,1.15,0,0,0-.28-.8,2,2,0,0,0-.94-.51l-1.42-.42-.2,0a1.12,1.12,0,0,0-.62.21,1.68,1.68,0,0,0-.54.58,1.45,1.45,0,0,0-.22.79,1.34,1.34,0,0,0,.56,1.15,3,3,0,0,0,1.72.4A2.3,2.3,0,0,0,208.75,101.63Zm-2.68-7.22a1.2,1.2,0,0,0-.49,1,1.07,1.07,0,0,0,.26.75,1.55,1.55,0,0,0,.77.46l1.2.35H208a.9.9,0,0,0,.55-.23,2,2,0,0,0,.48-.59,1.48,1.48,0,0,0,.18-.69,1.27,1.27,0,0,0-.5-1A2.1,2.1,0,0,0,207.3,94,1.92,1.92,0,0,0,206.07,94.41Z"/><path class="cls-1" d="M220.16,93a4.82,4.82,0,0,1,1.65,2,7.17,7.17,0,0,1,.6,3,7,7,0,0,1-.6,3,4.67,4.67,0,0,1-1.64,2,4.28,4.28,0,0,1-2.4.7,4.34,4.34,0,0,1-2.41-.7,4.76,4.76,0,0,1-1.65-2,7.86,7.86,0,0,1,0-6,4.81,4.81,0,0,1,1.66-2,4.33,4.33,0,0,1,4.78,0Zm-.9,8a6.48,6.48,0,0,0,.48-2.91,7,7,0,0,0-.49-3,1.65,1.65,0,0,0-3,0,6.82,6.82,0,0,0-.49,3,6.3,6.3,0,0,0,.49,2.9,1.61,1.61,0,0,0,1.5.9A1.59,1.59,0,0,0,219.26,101Z"/><path class="cls-1" d="M224.2,103.49a.33.33,0,0,1-.08-.25V92.74c0-.19.08-.29.25-.29h3.11a.48.48,0,0,1,.24,0,.29.29,0,0,1,.12.17L230.1,99c0,.08.07.12.11.12s.07,0,.1-.12l2.16-6.16c.06-.23.17-.35.33-.35H236c.15,0,.23.09.23.27v10.5a.38.38,0,0,1-.09.28.43.43,0,0,1-.28.08h-1.94a.34.34,0,0,1-.25-.07.33.33,0,0,1-.06-.23V95.81c0-.07,0-.1,0-.1s-.06,0-.09.12l-2.62,7.51a.31.31,0,0,1-.32.24h-1.24a.3.3,0,0,1-.33-.24l-2.6-7.41q0-.12-.09-.12s-.06,0-.06.14v7.36a.35.35,0,0,1,0,.22s-.11,0-.22,0h-1.53A.3.3,0,0,1,224.2,103.49Z"/><path class="cls-2" d="M195.39,119.48a4.34,4.34,0,0,1-2.69.76h-2.38c-.09,0-.13,0-.13.13v4a.19.19,0,0,1-.21.21H189a.16.16,0,0,1-.18-.18v-10a.24.24,0,0,1,0-.15.16.16,0,0,1,.13,0h3.53a4.71,4.71,0,0,1,2.8.75,2.62,2.62,0,0,1,1,2.28A2.66,2.66,0,0,1,195.39,119.48Zm-1-3.8a3.26,3.26,0,0,0-1.89-.47h-2.1c-.12,0-.18.06-.18.17V119a.3.3,0,0,0,0,.16.13.13,0,0,0,.09,0h2.26a2.87,2.87,0,0,0,1.8-.51,1.84,1.84,0,0,0,.65-1.54A1.69,1.69,0,0,0,194.36,115.68Z"/><path class="cls-2" d="M198.22,124.4v-7.06c0-.12.06-.18.16-.18h.81a.14.14,0,0,1,.16.15v.91c0,.06,0,.09,0,.1s.07,0,.11,0a3,3,0,0,1,2.17-1.25c.32,0,.49.06.49.18V118c0,.1,0,.13-.13.11a5.27,5.27,0,0,0-.63,0,2,2,0,0,0-.88.24,2.58,2.58,0,0,0-.8.61,1.23,1.23,0,0,0-.32.78v4.63a.19.19,0,0,1-.21.21h-.77C198.29,124.58,198.22,124.52,198.22,124.4Z"/><path class="cls-2" d="M204.82,115.57a.28.28,0,0,1-.06.2.24.24,0,0,1-.19.06h-.81c-.15,0-.21-.08-.21-.24v-1.17c0-.15.06-.23.19-.23h.88a.17.17,0,0,1,.14.06.2.2,0,0,1,.06.15v1.17Zm-.06,8.77a.27.27,0,0,1,0,.19.34.34,0,0,1-.2,0h-.71c-.09,0-.14,0-.17,0a.22.22,0,0,1,0-.16v-7c0-.14,0-.2.17-.2h.85q.15,0,.15.18Z"/><path class="cls-2" d="M213.1,117.22a.22.22,0,0,1,0,.14l-2.84,7a.31.31,0,0,1-.33.21h-.5a.32.32,0,0,1-.35-.2l-2.83-7a.15.15,0,0,1,0-.07c0-.09.05-.14.16-.14h.87a.23.23,0,0,1,.23.16l2.2,5.5c0,.09.06.14.09.14s.08,0,.13-.16l2.19-5.48a.18.18,0,0,1,.2-.16H213A.14.14,0,0,1,213.1,117.22Z"/><path class="cls-2" d="M216.41,124.72a2.51,2.51,0,0,1-1.71-.55,1.87,1.87,0,0,1-.63-1.48,2,2,0,0,1,1-1.77,5.53,5.53,0,0,1,2.74-.75l1.09-.09c.16,0,.24-.08.24-.21v-.37a1.57,1.57,0,0,0-.47-1.2,1.77,1.77,0,0,0-1.27-.44,2.38,2.38,0,0,0-2,1.12s-.05.08-.08.09a.14.14,0,0,1-.11,0l-.76-.25a.1.1,0,0,1-.07-.1.54.54,0,0,1,0-.12,2.92,2.92,0,0,1,1.2-1.16,3.93,3.93,0,0,1,1.84-.41,3.05,3.05,0,0,1,2.1.64,2.19,2.19,0,0,1,.73,1.75v5a.25.25,0,0,1,0,.17.22.22,0,0,1-.16,0h-.7c-.11,0-.17-.07-.19-.23l0-.64c0-.06,0-.1-.07-.1a.15.15,0,0,0-.12.07A3.5,3.5,0,0,1,216.41,124.72Zm2.47-3.92-.91.08a4.59,4.59,0,0,0-2,.51,1.28,1.28,0,0,0-.71,1.16,1.15,1.15,0,0,0,.43,1,1.74,1.74,0,0,0,1.14.35,2.5,2.5,0,0,0,.85-.15,2.34,2.34,0,0,0,.74-.42,2.09,2.09,0,0,0,.5-.54,1.05,1.05,0,0,0,.18-.55V121A.19.19,0,0,0,218.88,120.8Z"/><path class="cls-2" d="M224.22,118c-.07,0-.11,0-.11.13v4.43a1.35,1.35,0,0,0,.21.87.87.87,0,0,0,.69.24h1c.11,0,.16,0,.16.15l0,.48c0,.09-.05.15-.16.18a8,8,0,0,1-1.32.07,1.77,1.77,0,0,1-1.29-.41,1.82,1.82,0,0,1-.4-1.31v-4.68c0-.1-.05-.15-.14-.15h-1.12c-.11,0-.16,0-.16-.14v-.59a.13.13,0,0,1,.14-.14h1.19c.07,0,.1,0,.1-.11l.15-2.23c0-.12.06-.18.16-.18h.7c.11,0,.17.06.17.2v2.21a.1.1,0,0,0,.11.11H226c.1,0,.16,0,.16.12v.61c0,.09-.06.14-.16.14Z"/><path class="cls-2" d="M228.61,122.58a2.51,2.51,0,0,0,.89.91,2.42,2.42,0,0,0,1.23.34,2.5,2.5,0,0,0,2.19-1.17s.07-.06.1-.06a.16.16,0,0,1,.09,0l.59.3c.08,0,.09.11,0,.19a3.45,3.45,0,0,1-1.3,1.23,4.06,4.06,0,0,1-1.81.38,3.61,3.61,0,0,1-1.83-.47,3.35,3.35,0,0,1-1.27-1.34,4.21,4.21,0,0,1-.45-2,4.43,4.43,0,0,1,.46-2.08,3.28,3.28,0,0,1,1.27-1.36,3.68,3.68,0,0,1,3.58,0,3,3,0,0,1,1.18,1.31,4.58,4.58,0,0,1,.42,2v.05a.34.34,0,0,1,0,.19.19.19,0,0,1-.17.06h-5.36q-.12,0-.12.21A2.36,2.36,0,0,0,228.61,122.58Zm4-2.23a.38.38,0,0,0,.19,0,.22.22,0,0,0,0-.16,2.65,2.65,0,0,0-.25-1.15,2.06,2.06,0,0,0-1.92-1.15,2.15,2.15,0,0,0-1.24.36,2.24,2.24,0,0,0-.81.92,2.52,2.52,0,0,0-.27,1.21Z"/><path class="cls-2" d="M191.68,131.24a.16.16,0,0,1,.13-.05h6.29c.09,0,.14.05.14.16v.71c0,.11-.06.17-.18.17h-4.89a.28.28,0,0,0-.15,0,.24.24,0,0,0,0,.14v3.27a.14.14,0,0,0,.15.16h3.63a.13.13,0,0,1,.15.15v.74c0,.08,0,.13-.15.13h-3.63a.13.13,0,0,0-.15.15v3.4c0,.06,0,.1,0,.11a.14.14,0,0,0,.11,0h5.14a.21.21,0,0,1,.12,0,.16.16,0,0,1,0,.11v.74c0,.11,0,.16-.15.16h-6.43a.19.19,0,0,1-.15-.05s-.05-.07-.05-.15v-10A.29.29,0,0,1,191.68,131.24Z"/><path class="cls-2" d="M206.18,134.16a.21.21,0,0,1,.16.06.28.28,0,0,1,0,.18v9.31c0,.12-.06.18-.17.18h-.86q-.15,0-.15-.18v-2.58c0-.13,0-.19-.06-.19a.35.35,0,0,0-.15.08,3.67,3.67,0,0,1-.94.51,3.23,3.23,0,0,1-1.13.19,3.07,3.07,0,0,1-1.7-.47,3,3,0,0,1-1.09-1.36,5,5,0,0,1-.39-2,4.87,4.87,0,0,1,.39-2,3,3,0,0,1,1.1-1.33A3,3,0,0,1,203,134a3,3,0,0,1,1.42.29,3.4,3.4,0,0,1,.89.7c0,.05.07.07.08.07s.05,0,.07-.11l.1-.59a.3.3,0,0,1,.08-.17.25.25,0,0,1,.17-.05Zm-1,2.51a1.62,1.62,0,0,0-.26-.9,1.91,1.91,0,0,0-.71-.67,2.14,2.14,0,0,0-2.64.51,3.36,3.36,0,0,0-.65,2.22,3.54,3.54,0,0,0,.63,2.25,2.05,2.05,0,0,0,1.67.79,2.57,2.57,0,0,0,1.08-.24,2.61,2.61,0,0,0,.88-.66v-3.3Z"/><path class="cls-2" d="M212.19,140.48a5.42,5.42,0,0,0,1.13-.9v-5.22c0-.13.07-.2.22-.2h.77a.18.18,0,0,1,.2.2l0,7q0,.18-.15.18h-.82a.13.13,0,0,1-.15-.15v-.83c0-.11,0-.13-.13,0a5.58,5.58,0,0,1-1.34.9,3,3,0,0,1-1.2.26,2.22,2.22,0,0,1-1.61-.59,2,2,0,0,1-.63-1.55v-5.21a.19.19,0,0,1,.21-.21h.78c.12,0,.18.07.18.2v4.91a1.53,1.53,0,0,0,.39,1.11,1.36,1.36,0,0,0,1.06.42A2.25,2.25,0,0,0,212.19,140.48Z"/><path class="cls-2" d="M217.88,132.57a.28.28,0,0,1-.06.2.24.24,0,0,1-.19.06h-.81q-.21,0-.21-.24v-1.17c0-.15.06-.23.19-.23h.89a.2.2,0,0,1,.14.06.25.25,0,0,1,0,.15v1.17Zm-.06,8.77c0,.1,0,.16,0,.19a.32.32,0,0,1-.2.05h-.71a.25.25,0,0,1-.17,0,.22.22,0,0,1,0-.16v-7c0-.14.06-.2.17-.2h.85q.15,0,.15.18v7Z"/><path class="cls-2" d="M222,135c-.08,0-.12,0-.12.13v4.43a1.35,1.35,0,0,0,.21.87.89.89,0,0,0,.69.24h1a.13.13,0,0,1,.15.15v.48c0,.09-.06.15-.17.18a7.87,7.87,0,0,1-1.32.07,1.77,1.77,0,0,1-1.29-.41,1.82,1.82,0,0,1-.4-1.31v-4.68c0-.1,0-.15-.14-.15h-1.12c-.1,0-.16-.05-.16-.14v-.59a.13.13,0,0,1,.14-.14h1.19c.07,0,.1,0,.1-.11l.16-2.23q0-.18.15-.18h.7c.11,0,.17.06.17.2v2.21a.1.1,0,0,0,.11.11h1.76c.11,0,.16,0,.16.12v.61c0,.09,0,.14-.16.14Z"/><path class="cls-2" d="M225.15,143.86c-.12,0-.19-.07-.19-.15v-.55A.16.16,0,0,1,225,143a.76.76,0,0,1,.32,0h.88a.91.91,0,0,0,.62-.25,1.8,1.8,0,0,0,.44-.6,1.9,1.9,0,0,0,.16-.7.8.8,0,0,0-.06-.34l-2.67-6.69a.19.19,0,0,1,0-.08c0-.11.06-.16.17-.16h.87a.23.23,0,0,1,.22.16l2.09,5.43c0,.08.06.12.11.12s.1-.05.14-.16l2.06-5.39c0-.11.11-.16.19-.16h.66a.15.15,0,0,1,.13.06.14.14,0,0,1,0,.14l-3.08,7.88a2.56,2.56,0,0,1-.94,1.3,2.87,2.87,0,0,1-1.52.35A4.83,4.83,0,0,1,225.15,143.86Z"/><path class="cls-1" d="M37.14,187.25H10.43l1.6-24,11.76-7.31,11.75,7.31ZM11.76,186H35.81L34.33,164l-10.54-6.56L13.24,164Z"/><path class="cls-1" d="M35.67,76.9,23.82,69.53,12,76.9l1.18-18.6H0L23.79,28,47.57,58.3H34.49ZM2.57,57.05h11.9L13.36,74.56l10.46-6.5,10.45,6.5L33.16,57.05H45L23.78,30Z"/><path class="cls-1" d="M225.42,76.87l-11.81-7.34-11.8,7.34L203,30.28H189.8L213.58,0l23.79,30.28h-13.1ZM192.37,29h11.87l-1.12,45.56,10.49-6.53,10.5,6.53L223,29H234.8L213.58,2Z"/><path class="cls-1" d="M226.94,187.25H200.22l1.61-24,11.75-7.31,11.76,7.31ZM201.56,186h24.05L224.13,164l-10.55-6.56L203,164Z"/><path class="cls-1" d="M125.87,76.88l-11.82-7.35-11.81,7.35,1.15-33.59H90.24L114,13l23.79,30.28h-13.1ZM92.81,42h11.88l-1.12,32.54,10.48-6.52,10.49,6.52L123.42,42h11.81L114,15Z"/><path class="cls-1" d="M127.38,187.25H100.66l1.61-24L114,155.92l11.76,7.31ZM102,186h24L124.57,164,114,157.39,103.47,164Z"/></g></g></svg>