<svg xmlns="http://www.w3.org/2000/svg" viewBox="0 0 183.01 163.23"><defs><style>.cls-1{fill:#414042;}.cls-2{fill:#808285;}</style></defs><title>chart-returns-bw</title><g id="Layer_2" data-name="Layer 2"><g id="Layer_1-2" data-name="Layer 1"><path class="cls-1" d="M20.47,72.58c.66-.57,1.15-1,1.47-1.37a3.67,3.67,0,0,0,.67-.89,1.78,1.78,0,0,0,.19-.83,1.33,1.33,0,0,0-.47-1.07,1.78,1.78,0,0,0-1.19-.4,2,2,0,0,0-1.17.37,3.85,3.85,0,0,0-1,1.2.17.17,0,0,1-.19.12.42.42,0,0,1-.21-.06L17.21,69a.31.31,0,0,1-.18-.27.4.4,0,0,1,.07-.22,4.69,4.69,0,0,1,4.18-2.36,5.29,5.29,0,0,1,2.13.41,3.26,3.26,0,0,1,1.43,1.17,3.17,3.17,0,0,1,.51,1.8,3,3,0,0,1-.49,1.68,7.47,7.47,0,0,1-1.67,1.71l-2.77,2.17c-.06,0-.09.08-.09.11s.06.07.18.07h4.66c.19,0,.29.08.29.24v1.65q0,.27-.3.27H17.34a.45.45,0,0,1-.27-.06.34.34,0,0,1-.07-.25V75.92a.5.5,0,0,1,.12-.29,4.74,4.74,0,0,1,.57-.53Z"/><path class="cls-1" d="M31.81,66.32a.76.76,0,0,1,.35-.06H34q.24,0,.24.27v6.29a.17.17,0,0,0,0,.12.13.13,0,0,0,.1,0h1.23c.19,0,.29.08.29.23V74.5q0,.27-.3.27h-1.2c-.11,0-.17.06-.17.18v2.1a.33.33,0,0,1-.09.26.41.41,0,0,1-.3.09h-2c-.21,0-.31-.1-.31-.3V74.91c0-.09-.06-.14-.18-.14h-4.5c-.21,0-.32-.09-.32-.27V73.26a.57.57,0,0,1,.09-.29,3.39,3.39,0,0,1,.3-.45l4.53-6A.75.75,0,0,1,31.81,66.32ZM31.5,73a.17.17,0,0,0,.1,0,.09.09,0,0,0,0-.07V69.14c0-.14,0-.21,0-.21s-.1,0-.17.15l-2.68,3.71a.31.31,0,0,0-.06.12s.05.07.16.07Z"/><path class="cls-1" d="M45,77.24c0,.1-.1.15-.29.15H42.82a.55.55,0,0,1-.51-.24L40.77,75c-.08-.13-.14-.2-.18-.2s-.1.06-.18.18l-1.58,2.19a.53.53,0,0,1-.49.24H37.11q-.36,0-.36-.21a.67.67,0,0,1,.18-.39l2.46-3.16a.43.43,0,0,0,.09-.21.57.57,0,0,0-.1-.26l-2.44-3.3a.28.28,0,0,1-.06-.18.23.23,0,0,1,.08-.16.29.29,0,0,1,.21-.08H39a.55.55,0,0,1,.29.06.46.46,0,0,1,.19.18l1.4,2c0,.08.09.12.13.12s.07,0,.12-.12l1.32-2a.46.46,0,0,1,.19-.18.6.6,0,0,1,.31-.06H44.3c.17,0,.25,0,.25.15a.37.37,0,0,1-.09.2l-2.23,3a.32.32,0,0,0-.09.21.52.52,0,0,0,.1.24l2.61,3.61A.73.73,0,0,1,45,77.24Z"/><path class="cls-2" d="M7.43,98.22c0,.12,0,.17-.17.17h-1A.23.23,0,0,1,6,98.22L4.21,93.81a.32.32,0,0,0-.11-.12.43.43,0,0,0-.22,0H1.51c-.11,0-.17,0-.17.15v4.37c0,.08,0,.14-.05.17s-.09,0-.19,0H.19a.21.21,0,0,1-.15,0,.18.18,0,0,1,0-.14v-10a.26.26,0,0,1,0-.15.18.18,0,0,1,.14,0h3.9a4.21,4.21,0,0,1,2.58.69,2.38,2.38,0,0,1,.91,2A2.6,2.6,0,0,1,7,92.48a3,3,0,0,1-1.45.93.11.11,0,0,0-.07.06.13.13,0,0,0,0,.08l2,4.58A.22.22,0,0,1,7.43,98.22Zm-1.89-6a1.63,1.63,0,0,0,.62-1.41,1.67,1.67,0,0,0-.55-1.37A2.42,2.42,0,0,0,4,89H1.54c-.13,0-.2.06-.2.16V92.5c0,.12,0,.18.13.18H3.68A3.15,3.15,0,0,0,5.54,92.23Z"/><path class="cls-2" d="M10.58,96.39a2.4,2.4,0,0,0,.88.91,2.34,2.34,0,0,0,1.24.34,2.48,2.48,0,0,0,2.18-1.17l.1-.06.1,0,.59.3c.07,0,.08.11,0,.19a3.45,3.45,0,0,1-1.3,1.23,3.87,3.87,0,0,1-1.81.38,3.51,3.51,0,0,1-1.83-.47,3.35,3.35,0,0,1-1.27-1.34,4.18,4.18,0,0,1-.45-2,4.46,4.46,0,0,1,.46-2.08,3.34,3.34,0,0,1,1.27-1.36,3.68,3.68,0,0,1,3.58,0,3,3,0,0,1,1.18,1.31,4.58,4.58,0,0,1,.42,2v.05a.32.32,0,0,1,0,.19s-.08.07-.17.07H10.37q-.12,0-.12.21A2.45,2.45,0,0,0,10.58,96.39Zm3.95-2.22a.4.4,0,0,0,.2,0,.26.26,0,0,0,0-.16,2.58,2.58,0,0,0-.26-1.14,2.05,2.05,0,0,0-.76-.84,2.09,2.09,0,0,0-1.15-.32,2.19,2.19,0,0,0-1.25.36,2.47,2.47,0,0,0-.81.92,2.56,2.56,0,0,0-.27,1.22Z"/><path class="cls-2" d="M19.5,91.84c-.07,0-.11,0-.11.13v4.44a1.3,1.3,0,0,0,.21.86.87.87,0,0,0,.69.24h1a.14.14,0,0,1,.16.16l0,.47c0,.1-.06.16-.17.18a7.73,7.73,0,0,1-1.31.07A1.72,1.72,0,0,1,18.62,98a1.8,1.8,0,0,1-.41-1.31V92c0-.1,0-.15-.14-.15H17c-.1,0-.15,0-.15-.14v-.59a.13.13,0,0,1,.14-.14h1.19c.06,0,.1,0,.1-.11l.15-2.23c0-.12.05-.18.16-.18h.7c.11,0,.16.07.16.2v2.21a.1.1,0,0,0,.11.11h1.77c.1,0,.15,0,.15.13v.6c0,.09-.05.14-.15.14Z"/><path class="cls-2" d="M26.61,97.29a5.39,5.39,0,0,0,1.12-.9V91.17c0-.13.08-.2.23-.2h.77c.13,0,.19.07.19.2l0,7c0,.12-.06.18-.16.18h-.81a.13.13,0,0,1-.15-.15v-.83c0-.11-.05-.12-.13,0a5.58,5.58,0,0,1-1.34.9,2.9,2.9,0,0,1-1.21.26A2.27,2.27,0,0,1,23.49,98a2,2,0,0,1-.63-1.56V91.18a.19.19,0,0,1,.21-.21h.79c.12,0,.18.07.18.2v4.91a1.57,1.57,0,0,0,.38,1.11,1.37,1.37,0,0,0,1.06.42A2.28,2.28,0,0,0,26.61,97.29Z"/><path class="cls-2" d="M31.06,98.21V91.15c0-.12.06-.18.16-.18H32c.1,0,.15,0,.15.16V92s0,.08,0,.09.07,0,.11,0a3,3,0,0,1,2.17-1.25c.32,0,.49.06.49.18v.84c0,.1,0,.14-.13.12a3.65,3.65,0,0,0-.63,0,2,2,0,0,0-.88.24,2.6,2.6,0,0,0-.8.62,1.2,1.2,0,0,0-.32.77v4.63a.19.19,0,0,1-.21.21h-.77C31.13,98.39,31.06,98.33,31.06,98.21Z"/><path class="cls-2" d="M36.43,98.21V91.15q0-.18.15-.18h.84c.1,0,.15,0,.15.16v.81c0,.1,0,.11.13,0A7.71,7.71,0,0,1,39,91.1a2.79,2.79,0,0,1,1.24-.27,2.28,2.28,0,0,1,1.65.57,2,2,0,0,1,.6,1.54v5.23c0,.15-.07.22-.21.22h-.78c-.13,0-.19-.06-.19-.18v-5A1.54,1.54,0,0,0,41,92.13a1.46,1.46,0,0,0-1.1-.37,2.36,2.36,0,0,0-1.09.25,7.52,7.52,0,0,0-1.21.88v5.29a.18.18,0,0,1-.21.21h-.77C36.49,98.39,36.43,98.33,36.43,98.21Z"/><path class="cls-2" d="M48.86,98.05a3.24,3.24,0,0,1-1.24-1.35,4.24,4.24,0,0,1-.44-2,4.37,4.37,0,0,1,.45-2,3.51,3.51,0,0,1,1.26-1.38,3.65,3.65,0,0,1,3.69,0,3.32,3.32,0,0,1,1.24,1.38,4.7,4.7,0,0,1,0,4A3.31,3.31,0,0,1,52.56,98a3.42,3.42,0,0,1-1.84.49A3.58,3.58,0,0,1,48.86,98.05Zm3.59-1.19a3.53,3.53,0,0,0,.61-2.18,3.42,3.42,0,0,0-.63-2.17,2,2,0,0,0-1.7-.81,2.07,2.07,0,0,0-1.72.81,4.05,4.05,0,0,0,0,4.34,2.07,2.07,0,0,0,1.74.8A2,2,0,0,0,52.45,96.86Z"/><path class="cls-2" d="M56,98.21V91.15q0-.18.15-.18H57c.1,0,.15,0,.15.16v.81c0,.1,0,.11.13,0a7.71,7.71,0,0,1,1.34-.88,2.79,2.79,0,0,1,1.24-.27,2.31,2.31,0,0,1,1.66.57,2.08,2.08,0,0,1,.59,1.54v5.23c0,.15-.07.22-.21.22h-.78a.17.17,0,0,1-.19-.18v-5a1.5,1.5,0,0,0-.35-1.08,1.46,1.46,0,0,0-1.1-.37,2.36,2.36,0,0,0-1.09.25,7.52,7.52,0,0,0-1.21.88v5.29c0,.08,0,.13-.05.16a.22.22,0,0,1-.16,0h-.77C56.06,98.39,56,98.33,56,98.21Z"/><path class="cls-2" d="M11.53,105.05s.07,0,.13,0H18c.09,0,.14,0,.14.15v.71c0,.11-.06.17-.19.17H13c-.08,0-.13,0-.15,0a.19.19,0,0,0,0,.13v3.27c0,.11.05.16.15.16h3.63a.13.13,0,0,1,.15.15v.74c0,.09-.05.13-.15.13H13a.13.13,0,0,0-.15.15v3.41a.16.16,0,0,0,0,.11s.05,0,.11,0h5.14c.05,0,.09,0,.11,0a.12.12,0,0,1,0,.11v.74c0,.11-.05.16-.15.16H11.69a.22.22,0,0,1-.15,0,.22.22,0,0,1,0-.16v-10A.21.21,0,0,1,11.53,105.05Z"/><path class="cls-2" d="M26,108a.22.22,0,0,1,.17.06.3.3,0,0,1,0,.18v9.31c0,.12-.06.19-.17.19h-.86c-.1,0-.15-.07-.15-.19V115c0-.13,0-.2-.06-.2a.36.36,0,0,0-.15.09,3.65,3.65,0,0,1-.94.5,3.24,3.24,0,0,1-1.13.2,3,3,0,0,1-1.7-.48,3.15,3.15,0,0,1-1.1-1.35,5.21,5.21,0,0,1-.38-2,5,5,0,0,1,.38-2,3.07,3.07,0,0,1,1.11-1.34,3,3,0,0,1,1.71-.48,2.92,2.92,0,0,1,1.42.29,3.28,3.28,0,0,1,.89.71l.09.07s.05,0,.07-.11l.1-.59a.39.39,0,0,1,.07-.18.28.28,0,0,1,.18,0Zm-1,2.51a1.71,1.71,0,0,0-.26-.9,1.91,1.91,0,0,0-.71-.67,2.14,2.14,0,0,0-2.64.51,3.36,3.36,0,0,0-.65,2.22,3.54,3.54,0,0,0,.63,2.25,2,2,0,0,0,1.67.79,2.57,2.57,0,0,0,1.08-.24,2.61,2.61,0,0,0,.88-.66v-3.3Z"/><path class="cls-2" d="M32,114.29a5.14,5.14,0,0,0,1.12-.9v-5.22c0-.13.08-.2.23-.2h.77c.13,0,.19.07.19.2l0,7c0,.12,0,.18-.16.18h-.81a.13.13,0,0,1-.15-.15v-.83c0-.11,0-.12-.13,0a5.58,5.58,0,0,1-1.34.9,2.87,2.87,0,0,1-1.21.26,2.27,2.27,0,0,1-1.61-.58,2,2,0,0,1-.63-1.56v-5.21a.19.19,0,0,1,.21-.21h.79c.12,0,.18.07.18.2v4.91a1.53,1.53,0,0,0,.39,1.11,1.33,1.33,0,0,0,1.05.42A2.28,2.28,0,0,0,32,114.29Z"/><path class="cls-2" d="M37.73,106.38a.28.28,0,0,1-.06.2.24.24,0,0,1-.19.06h-.81q-.21,0-.21-.24v-1.17c0-.15.06-.23.19-.23h.88a.17.17,0,0,1,.14.06.2.2,0,0,1,.06.15Zm-.06,8.77a.27.27,0,0,1-.05.19.28.28,0,0,1-.2,0h-.71c-.09,0-.14,0-.17,0a.21.21,0,0,1,0-.15v-7c0-.13,0-.2.17-.2h.85c.1,0,.15.06.15.19Z"/><path class="cls-2" d="M41.8,108.84c-.07,0-.11,0-.11.13v4.44a1.3,1.3,0,0,0,.21.86.87.87,0,0,0,.69.24h1a.14.14,0,0,1,.16.16l0,.47c0,.1,0,.16-.17.18a7.73,7.73,0,0,1-1.31.07,1.72,1.72,0,0,1-1.29-.41,1.8,1.8,0,0,1-.4-1.31V109c0-.1-.05-.15-.14-.15H39.26c-.11,0-.16,0-.16-.14v-.59a.13.13,0,0,1,.14-.14h1.19c.07,0,.1,0,.1-.11l.15-2.23c0-.12,0-.18.16-.18h.7c.11,0,.17.07.17.2v2.21a.1.1,0,0,0,.11.11h1.76c.1,0,.15,0,.15.13v.6c0,.09,0,.14-.15.14Z"/><path class="cls-2" d="M45,117.68c-.12,0-.18-.07-.18-.16V117a.13.13,0,0,1,.08-.13.66.66,0,0,1,.31,0h.89a.91.91,0,0,0,.61-.24,1.85,1.85,0,0,0,.6-1.31,1.06,1.06,0,0,0,0-.34l-2.68-6.69a.17.17,0,0,1,0-.08c0-.1,0-.16.17-.16h.86a.25.25,0,0,1,.23.16l2.08,5.43c0,.08.07.13.12.13s.1-.06.14-.17l2.05-5.39a.24.24,0,0,1,.2-.16h.66a.12.12,0,0,1,.12.07.12.12,0,0,1,0,.13l-3.08,7.88a2.57,2.57,0,0,1-.94,1.3,2.78,2.78,0,0,1-1.52.35Z"/><path class="cls-1" d="M128,72.58c.66-.57,1.15-1,1.47-1.37a3.59,3.59,0,0,0,.66-.89,1.78,1.78,0,0,0,.19-.83,1.3,1.3,0,0,0-.47-1.07,1.75,1.75,0,0,0-1.19-.4,2,2,0,0,0-1.16.37,3.61,3.61,0,0,0-1,1.2.19.19,0,0,1-.2.12.42.42,0,0,1-.21-.06L124.71,69a.33.33,0,0,1-.18-.27.4.4,0,0,1,.07-.22,4.7,4.7,0,0,1,4.19-2.36,5.21,5.21,0,0,1,2.12.41,3.1,3.1,0,0,1,1.94,3,3.1,3.1,0,0,1-.48,1.68,7.77,7.77,0,0,1-1.68,1.71l-2.77,2.17c-.06,0-.09.08-.09.11s.06.07.18.07h4.66c.19,0,.29.08.29.24v1.65q0,.27-.3.27h-7.82a.45.45,0,0,1-.27-.06.34.34,0,0,1-.07-.25V75.92a.5.5,0,0,1,.12-.29,4.74,4.74,0,0,1,.57-.53Z"/><path class="cls-1" d="M139.31,66.32a.76.76,0,0,1,.35-.06h1.88q.24,0,.24.27v6.29a.16.16,0,0,0,0,.12.15.15,0,0,0,.11,0h1.23c.19,0,.28.08.28.23V74.5q0,.27-.3.27h-1.2c-.11,0-.16.06-.16.18v2.1a.33.33,0,0,1-.09.26.41.41,0,0,1-.3.09h-1.95c-.21,0-.32-.1-.32-.3V74.91c0-.09-.06-.14-.18-.14h-4.5c-.21,0-.31-.09-.31-.27V73.26a.55.55,0,0,1,.08-.29,3.75,3.75,0,0,1,.31-.45l4.53-6A.73.73,0,0,1,139.31,66.32ZM139,73a.17.17,0,0,0,.1,0,.08.08,0,0,0,0-.07V69.14c0-.14,0-.21,0-.21s-.09,0-.16.15l-2.69,3.71a.31.31,0,0,0-.06.12s.06.07.17.07Z"/><path class="cls-1" d="M151.19,66.44a4,4,0,0,1,1.24.79,2.5,2.5,0,0,1,.64.94.37.37,0,0,1,0,.12.21.21,0,0,1-.15.21L151.3,69l-.07,0q-.14,0-.21-.18a3.05,3.05,0,0,0-.65-.68,1.47,1.47,0,0,0-.85-.22,2,2,0,0,0-1.7.79,3.33,3.33,0,0,0-.61,2.09,1.52,1.52,0,0,0,0,.28.11.11,0,0,0,.11.08l.2-.06a10,10,0,0,1,1.15-.42,4,4,0,0,1,1.11-.14,4.62,4.62,0,0,1,2,.42,3.19,3.19,0,0,1,1.36,1.17,3.1,3.1,0,0,1,.48,1.71,3.3,3.3,0,0,1-.58,1.89,3.92,3.92,0,0,1-1.57,1.29,5.1,5.1,0,0,1-2.2.47,4.56,4.56,0,0,1-2.5-.67,4.35,4.35,0,0,1-1.63-1.9,6.8,6.8,0,0,1-.57-2.89,7.61,7.61,0,0,1,.61-3.18,4.5,4.5,0,0,1,4.3-2.76A4.32,4.32,0,0,1,151.19,66.44Zm-2.91,6a2.71,2.71,0,0,0-.83.36.46.46,0,0,0-.18.19,1.17,1.17,0,0,0,0,.32,2.87,2.87,0,0,0,.54,1.75,1.72,1.72,0,0,0,1.45.72A1.78,1.78,0,0,0,151.06,74a1.52,1.52,0,0,0-.51-1.2,1.84,1.84,0,0,0-1.29-.46A3.6,3.6,0,0,0,148.28,72.46Z"/><path class="cls-1" d="M159.07,66.53a2.89,2.89,0,0,1,1,1.15,3.46,3.46,0,0,1,.37,1.6,3.39,3.39,0,0,1-.37,1.59,2.82,2.82,0,0,1-1,1.13,2.55,2.55,0,0,1-1.44.41A2.6,2.6,0,0,1,156.2,72a2.73,2.73,0,0,1-1-1.13,3.39,3.39,0,0,1-.37-1.59,3.46,3.46,0,0,1,.38-1.6,2.92,2.92,0,0,1,1-1.15,2.59,2.59,0,0,1,2.86,0Zm-.59,4.2a3.11,3.11,0,0,0,.28-1.44,3.34,3.34,0,0,0-.28-1.5.94.94,0,0,0-1.69,0,3.24,3.24,0,0,0-.28,1.49,3.13,3.13,0,0,0,.27,1.44,1,1,0,0,0,1.7,0Zm-.16,6.56a.4.4,0,0,1-.37.16h-.63q-.24,0-.24-.21a.4.4,0,0,1,.07-.21l7.13-10.71a.39.39,0,0,1,.15-.14.47.47,0,0,1,.19,0h.8c.11,0,.18,0,.18.12a.51.51,0,0,1-.07.14Zm8.07-5.63a2.89,2.89,0,0,1,1,1.15,3.46,3.46,0,0,1,.37,1.6A3.39,3.39,0,0,1,167.4,76a2.82,2.82,0,0,1-1,1.13,2.54,2.54,0,0,1-1.43.41,2.61,2.61,0,0,1-1.45-.41,2.73,2.73,0,0,1-1-1.13,3.39,3.39,0,0,1-.37-1.59,3.46,3.46,0,0,1,.38-1.6,3,3,0,0,1,1-1.15,2.56,2.56,0,0,1,1.44-.43A2.47,2.47,0,0,1,166.39,71.66Zm-.59,4.2a3.11,3.11,0,0,0,.28-1.44,3.2,3.2,0,0,0-.29-1.49.91.91,0,0,0-.84-.53.89.89,0,0,0-.83.53,3.21,3.21,0,0,0-.28,1.49,3,3,0,0,0,.28,1.44.89.89,0,0,0,.83.51A.91.91,0,0,0,165.8,75.86Z"/><path class="cls-2" d="M122.72,98.22c0,.12,0,.17-.17.17h-1a.22.22,0,0,1-.22-.17l-1.81-4.41a.32.32,0,0,0-.11-.12.43.43,0,0,0-.22,0H116.8c-.11,0-.17,0-.17.15v4.37a.25.25,0,0,1,0,.17s-.09,0-.19,0h-.91a.21.21,0,0,1-.15,0,.18.18,0,0,1,0-.14v-10a.26.26,0,0,1,0-.15.17.17,0,0,1,.13,0h3.91a4.21,4.21,0,0,1,2.58.68,2.38,2.38,0,0,1,.91,2,2.6,2.6,0,0,1-.6,1.79,3,3,0,0,1-1.45.93.11.11,0,0,0-.07.06.09.09,0,0,0,0,.08l2,4.58A.22.22,0,0,1,122.72,98.22Zm-1.89-6a1.63,1.63,0,0,0,.62-1.41,1.71,1.71,0,0,0-.55-1.37,2.42,2.42,0,0,0-1.61-.47h-2.46c-.13,0-.2.06-.2.16V92.5c0,.12,0,.18.13.18H119A3.15,3.15,0,0,0,120.83,92.23Z"/><path class="cls-2" d="M125.86,96.39a2.51,2.51,0,0,0,.89.91,2.33,2.33,0,0,0,1.23.34,2.5,2.5,0,0,0,2.19-1.17l.1-.06.1,0,.58.3c.08,0,.09.11,0,.19a3.45,3.45,0,0,1-1.3,1.23,3.9,3.9,0,0,1-1.81.38,3.51,3.51,0,0,1-1.83-.47,3.35,3.35,0,0,1-1.27-1.34,4.18,4.18,0,0,1-.45-2,4.46,4.46,0,0,1,.46-2.08,3.34,3.34,0,0,1,1.27-1.36,3.68,3.68,0,0,1,3.58,0,3,3,0,0,1,1.18,1.31,4.58,4.58,0,0,1,.42,2v.05a.32.32,0,0,1,0,.19s-.08.07-.17.07h-5.36c-.08,0-.13.07-.13.21A2.45,2.45,0,0,0,125.86,96.39Zm4-2.22a.4.4,0,0,0,.2,0,.26.26,0,0,0,0-.16,2.58,2.58,0,0,0-.26-1.14A2.05,2.05,0,0,0,129,92a2.09,2.09,0,0,0-1.15-.32,2.19,2.19,0,0,0-1.25.36,2.47,2.47,0,0,0-.81.92,2.56,2.56,0,0,0-.27,1.22Z"/><path class="cls-2" d="M134.79,91.84c-.08,0-.11,0-.11.13v4.44a1.3,1.3,0,0,0,.21.86.86.86,0,0,0,.68.24h1c.1,0,.15,0,.15.16v.47c0,.1-.06.16-.17.18a7.73,7.73,0,0,1-1.31.07,1.72,1.72,0,0,1-1.29-.41,1.8,1.8,0,0,1-.41-1.31V92c0-.1,0-.15-.14-.15h-1.12c-.1,0-.15,0-.15-.14v-.59a.13.13,0,0,1,.14-.14h1.19c.06,0,.1,0,.1-.11l.15-2.23q0-.18.15-.18h.7c.11,0,.17.07.17.2v2.21a.1.1,0,0,0,.11.11h1.77c.1,0,.15,0,.15.13v.6c0,.09-.05.14-.15.14Z"/><path class="cls-2" d="M141.89,97.29a5.17,5.17,0,0,0,1.13-.9V91.17c0-.13.07-.2.23-.2H144c.13,0,.19.07.19.2l0,7q0,.18-.15.18h-.81a.13.13,0,0,1-.15-.15v-.83c0-.11,0-.12-.13,0a5.58,5.58,0,0,1-1.34.9,2.9,2.9,0,0,1-1.21.26,2.27,2.27,0,0,1-1.61-.58,2,2,0,0,1-.63-1.56V91.18a.19.19,0,0,1,.21-.21h.79c.12,0,.18.07.18.2v4.91a1.57,1.57,0,0,0,.38,1.11,1.37,1.37,0,0,0,1.06.42A2.22,2.22,0,0,0,141.89,97.29Z"/><path class="cls-2" d="M146.35,98.21V91.15c0-.12.05-.18.16-.18h.81c.1,0,.15,0,.15.16V92s0,.08.05.09.07,0,.11,0a3,3,0,0,1,2.17-1.25c.32,0,.49.06.49.18v.84c0,.1,0,.14-.13.12a3.65,3.65,0,0,0-.63,0,2,2,0,0,0-.88.24,2.6,2.6,0,0,0-.8.62,1.2,1.2,0,0,0-.32.77v4.63a.19.19,0,0,1-.21.21h-.77C146.42,98.39,146.35,98.33,146.35,98.21Z"/><path class="cls-2" d="M151.71,98.21V91.15c0-.12,0-.18.16-.18h.84c.1,0,.15,0,.15.16v.81c0,.1,0,.11.13,0a7.71,7.71,0,0,1,1.34-.88,2.74,2.74,0,0,1,1.23-.27,2.29,2.29,0,0,1,1.66.57,2,2,0,0,1,.6,1.54v5.23c0,.15-.07.22-.21.22h-.78c-.13,0-.19-.06-.19-.18v-5a1.54,1.54,0,0,0-.35-1.08,1.46,1.46,0,0,0-1.1-.37,2.33,2.33,0,0,0-1.09.25,7.52,7.52,0,0,0-1.21.88v5.29a.22.22,0,0,1,0,.16.23.23,0,0,1-.16,0h-.77C151.78,98.39,151.71,98.33,151.71,98.21Z"/><path class="cls-2" d="M164.15,98.05a3.24,3.24,0,0,1-1.24-1.35,4.24,4.24,0,0,1-.44-2,4.37,4.37,0,0,1,.45-2,3.51,3.51,0,0,1,1.26-1.38,3.65,3.65,0,0,1,3.69,0,3.32,3.32,0,0,1,1.24,1.38,4.46,4.46,0,0,1,.44,2,4.18,4.18,0,0,1-.45,2A3.29,3.29,0,0,1,167.85,98a3.45,3.45,0,0,1-1.84.49A3.58,3.58,0,0,1,164.15,98.05Zm3.59-1.19a3.53,3.53,0,0,0,.61-2.18,3.42,3.42,0,0,0-.63-2.17,2,2,0,0,0-1.7-.81,2.06,2.06,0,0,0-1.72.81,4.05,4.05,0,0,0,0,4.34,2.07,2.07,0,0,0,1.74.8A2,2,0,0,0,167.74,96.86Z"/><path class="cls-2" d="M171.29,98.21V91.15q0-.18.15-.18h.84c.1,0,.15,0,.15.16v.81c0,.1,0,.11.13,0a7.71,7.71,0,0,1,1.34-.88,2.79,2.79,0,0,1,1.24-.27,2.32,2.32,0,0,1,1.66.57,2.08,2.08,0,0,1,.59,1.54v5.23c0,.15-.07.22-.21.22h-.78c-.13,0-.19-.06-.19-.18v-5a1.54,1.54,0,0,0-.35-1.08,1.46,1.46,0,0,0-1.1-.37,2.33,2.33,0,0,0-1.09.25,7.52,7.52,0,0,0-1.21.88v5.29a.18.18,0,0,1-.21.21h-.77C171.35,98.39,171.29,98.33,171.29,98.21Z"/><path class="cls-2" d="M111.39,105c.11,0,.17.06.17.18v10a.22.22,0,0,1-.06.18.27.27,0,0,1-.2,0h-.88a.25.25,0,0,1-.17,0,.27.27,0,0,1,0-.15v-10c0-.13.06-.19.17-.19Z"/><path class="cls-2" d="M114,115.21v-7.06q0-.18.15-.18H115a.14.14,0,0,1,.16.16v.81c0,.1,0,.11.13,0a7.69,7.69,0,0,1,1.33-.88,2.79,2.79,0,0,1,1.24-.27,2.31,2.31,0,0,1,1.66.57,2,2,0,0,1,.6,1.54v5.23c0,.15-.07.22-.21.22h-.79a.16.16,0,0,1-.18-.18v-5a1.5,1.5,0,0,0-.36-1.08,1.45,1.45,0,0,0-1.1-.37,2.32,2.32,0,0,0-1.08.25,7.11,7.11,0,0,0-1.21.88v5.29a.22.22,0,0,1,0,.16.23.23,0,0,1-.16,0h-.77C114.06,115.39,114,115.33,114,115.21Z"/><path class="cls-2" d="M128.33,108a.12.12,0,0,1,0,.13l-2.84,7a.3.3,0,0,1-.32.2h-.51a.35.35,0,0,1-.35-.19l-2.82-7a.19.19,0,0,1,0-.08c0-.09.06-.14.17-.14h.87a.24.24,0,0,1,.22.16l2.2,5.5c0,.09.06.14.1.14s.08,0,.12-.15l2.19-5.49a.21.21,0,0,1,.21-.16h.64A.13.13,0,0,1,128.33,108Z"/><path class="cls-2" d="M130.52,113.39a2.43,2.43,0,0,0,.89.91,2.28,2.28,0,0,0,1.23.34,2.48,2.48,0,0,0,2.18-1.17l.1-.06.1,0,.59.3c.07,0,.08.11,0,.19a3.47,3.47,0,0,1-1.31,1.23,3.86,3.86,0,0,1-1.8.38,3.51,3.51,0,0,1-1.83-.47,3.22,3.22,0,0,1-1.27-1.34,4.06,4.06,0,0,1-.46-2,4.58,4.58,0,0,1,.46-2.08,3.34,3.34,0,0,1,1.27-1.36,3.47,3.47,0,0,1,1.81-.48,3.44,3.44,0,0,1,1.78.45,3,3,0,0,1,1.18,1.31,4.58,4.58,0,0,1,.42,2v.05a.32.32,0,0,1,0,.19.18.18,0,0,1-.17.07h-5.36c-.09,0-.13.07-.13.21A2.45,2.45,0,0,0,130.52,113.39Zm3.95-2.22a.37.37,0,0,0,.2,0s0-.08,0-.16a2.58,2.58,0,0,0-.26-1.14,2,2,0,0,0-.75-.84,2.29,2.29,0,0,0-2.4,0,2.41,2.41,0,0,0-.82.92,2.68,2.68,0,0,0-.26,1.22Z"/><path class="cls-2" d="M141.19,108.92a2.64,2.64,0,0,0-1.19-.26,2.23,2.23,0,0,0-1.26.33,1,1,0,0,0-.49.86.8.8,0,0,0,.25.58,2.08,2.08,0,0,0,.89.45l1.78.54a2.69,2.69,0,0,1,1.37.75,1.68,1.68,0,0,1,.44,1.18,1.79,1.79,0,0,1-.39,1.14,2.53,2.53,0,0,1-1.07.77,4.62,4.62,0,0,1-3.48-.15,2.65,2.65,0,0,1-1.19-1.12.3.3,0,0,1,0-.11.12.12,0,0,1,.07-.11l.55-.31c.09-.06.16,0,.21,0a2.56,2.56,0,0,0,2.34,1.2,2.66,2.66,0,0,0,1.36-.34,1,1,0,0,0,.54-.86.84.84,0,0,0-.32-.66,3,3,0,0,0-1.05-.48l-1.44-.4a3,3,0,0,1-1.47-.75,1.64,1.64,0,0,1-.44-1.16,1.94,1.94,0,0,1,.36-1.15,2.28,2.28,0,0,1,1-.77,3.85,3.85,0,0,1,1.49-.27,3.74,3.74,0,0,1,1.66.35,2.63,2.63,0,0,1,1.12,1c.07.09.06.16,0,.19l-.59.32-.08,0a.19.19,0,0,1-.13-.07A2,2,0,0,0,141.19,108.92Z"/><path class="cls-2" d="M146.67,108.84c-.08,0-.11,0-.11.13v4.44a1.3,1.3,0,0,0,.21.86.86.86,0,0,0,.68.24h1c.1,0,.15,0,.15.16v.47c0,.1-.06.16-.17.18a7.73,7.73,0,0,1-1.31.07,1.72,1.72,0,0,1-1.29-.41,1.8,1.8,0,0,1-.41-1.31V109c0-.1,0-.15-.14-.15h-1.12c-.1,0-.15,0-.15-.14v-.59a.12.12,0,0,1,.14-.14h1.19c.06,0,.09,0,.09-.11l.16-2.23q0-.18.15-.18h.7c.12,0,.17.07.17.2v2.21a.1.1,0,0,0,.11.11h1.77c.1,0,.15,0,.15.13v.6c0,.09,0,.14-.15.14Z"/><path class="cls-2" d="M150.13,115.21v-7.06q0-.18.15-.18h.84c.09,0,.14,0,.14.16v.81c0,.11.05.12.14,0a7.24,7.24,0,0,1,1.29-.88,2.57,2.57,0,0,1,1.19-.27,2.25,2.25,0,0,1,1.29.35,1.81,1.81,0,0,1,.7.88s0,0,0,0a.35.35,0,0,0,.14-.07,6.82,6.82,0,0,1,1.31-.91,2.66,2.66,0,0,1,1.23-.3,2.12,2.12,0,0,1,1.57.57,2.14,2.14,0,0,1,.57,1.56v5.21c0,.15-.07.22-.21.22h-.79a.16.16,0,0,1-.18-.18v-5a1.6,1.6,0,0,0-.33-1.08,1.29,1.29,0,0,0-1-.37,2.13,2.13,0,0,0-1.05.27,5,5,0,0,0-.95.68.8.8,0,0,0-.16.19.65.65,0,0,0,0,.21v5.06c0,.15-.07.22-.21.22H155c-.13,0-.19-.06-.19-.18v-5c0-1-.44-1.45-1.34-1.45a2.12,2.12,0,0,0-1,.25,8,8,0,0,0-1.17.88v5.29a.22.22,0,0,1-.05.16s-.08,0-.16,0h-.77C150.19,115.39,150.13,115.33,150.13,115.21Z"/><path class="cls-2" d="M163.92,113.39a2.51,2.51,0,0,0,.89.91,2.33,2.33,0,0,0,1.23.34,2.49,2.49,0,0,0,2.19-1.17l.1-.06.1,0,.58.3c.08,0,.09.11,0,.19a3.45,3.45,0,0,1-1.3,1.23,3.93,3.93,0,0,1-1.81.38,3.51,3.51,0,0,1-1.83-.47,3.28,3.28,0,0,1-1.27-1.34,4.18,4.18,0,0,1-.45-2,4.46,4.46,0,0,1,.46-2.08,3.34,3.34,0,0,1,1.27-1.36,3.68,3.68,0,0,1,3.58,0,3,3,0,0,1,1.18,1.31,4.61,4.61,0,0,1,.42,2v.05a.32.32,0,0,1,0,.19s-.08.07-.17.07h-5.36q-.12,0-.12.21A2.34,2.34,0,0,0,163.92,113.39Zm4-2.22a.33.33,0,0,0,.19,0,.2.2,0,0,0,.05-.16,2.58,2.58,0,0,0-.26-1.14,2.09,2.09,0,0,0-1.91-1.16,2.16,2.16,0,0,0-1.25.36,2.47,2.47,0,0,0-.81.92,2.56,2.56,0,0,0-.27,1.22Z"/><path class="cls-2" d="M170.94,115.21v-7.06c0-.12.06-.18.16-.18h.84c.1,0,.15,0,.15.16v.81c0,.1,0,.11.13,0a7.71,7.71,0,0,1,1.34-.88,2.74,2.74,0,0,1,1.23-.27,2.29,2.29,0,0,1,1.66.57,2,2,0,0,1,.6,1.54v5.23c0,.15-.07.22-.21.22h-.79a.16.16,0,0,1-.18-.18v-5a1.5,1.5,0,0,0-.36-1.08,1.43,1.43,0,0,0-1.1-.37,2.32,2.32,0,0,0-1.08.25,7.52,7.52,0,0,0-1.21.88v5.29a.22.22,0,0,1-.05.16.23.23,0,0,1-.16,0h-.77C171,115.39,170.94,115.33,170.94,115.21Z"/><path class="cls-2" d="M181.08,108.84c-.08,0-.11,0-.11.13v4.44a1.3,1.3,0,0,0,.21.86.87.87,0,0,0,.69.24h1c.1,0,.15,0,.15.16v.47c0,.1-.06.16-.17.18a7.73,7.73,0,0,1-1.31.07,1.72,1.72,0,0,1-1.29-.41,1.8,1.8,0,0,1-.41-1.31V109c0-.1,0-.15-.14-.15h-1.12c-.1,0-.15,0-.15-.14v-.59a.13.13,0,0,1,.14-.14h1.19c.06,0,.1,0,.1-.11l.15-2.23c0-.12,0-.18.16-.18h.69c.12,0,.17.07.17.2v2.21a.1.1,0,0,0,.11.11h1.77c.1,0,.15,0,.15.13v.6c0,.09,0,.14-.15.14Z"/><path class="cls-1" d="M44.25,163.23H17.54l1.6-27L30.9,128.9l11.75,7.31ZM18.87,162H42.92l-1.48-25L30.9,130.37l-10.55,6.56Z"/><path class="cls-1" d="M42.73,53.87,30.9,46.52,19.06,53.87l1.17-23.59H7.08L30.87,0,54.65,30.28H41.57ZM9.65,29H21.54L20.43,51.55,30.9,45l10.47,6.51L40.26,29H52.08L30.87,2Z"/><path class="cls-1" d="M158,53.87l-11.83-7.35-11.84,7.35,1.17-23.59H122.37L146.16,0l23.78,30.28H156.86ZM146.19,45l10.46,6.51L155.54,29h11.83L146.16,2,124.94,29h11.89l-1.11,22.52Z"/><path class="cls-1" d="M159.54,163.23H132.83l1.6-27,11.76-7.31,11.75,7.31ZM134.16,162h24.05l-1.48-25-10.54-6.56-10.55,6.56Z"/></g></g></svg>