<svg xmlns="http://www.w3.org/2000/svg" viewBox="0 0 291.74 285.19"><defs><style>.cls-1{fill:#fff;}</style></defs><title>focus-b2b-black</title><g id="Layer_2" data-name="Layer 2"><g id="Layer_1-2" data-name="Layer 1"><path class="cls-1" d="M245,83.36A16.05,16.05,0,1,1,261,67.3,16.07,16.07,0,0,1,245,83.36Zm0-26.1A10.05,10.05,0,1,0,255,67.3,10.06,10.06,0,0,0,245,57.26Z"/><path class="cls-1" d="M46.76,255.21a16,16,0,1,1,16.05-16.05A16.07,16.07,0,0,1,46.76,255.21Zm0-26.1a10.05,10.05,0,1,0,10.05,10A10.06,10.06,0,0,0,46.76,229.11Z"/><path class="cls-1" d="M233,201.85h0a9.74,9.74,0,1,1,9.73-9.73A9.69,9.69,0,0,1,233,201.85Zm0-13.47a3.74,3.74,0,1,0,0,7.47v0a3.74,3.74,0,1,0,0-7.47Z"/><path class="cls-1" d="M146.21,260.42a9.74,9.74,0,1,1,9.73-9.73A9.75,9.75,0,0,1,146.21,260.42Zm0-13.47a3.74,3.74,0,1,0,3.73,3.74A3.74,3.74,0,0,0,146.21,247Z"/><polygon class="cls-1" points="149.21 129.51 143.21 129.51 143.21 72.76 157.2 58.78 157.2 23.02 163.2 23.02 163.2 61.26 149.21 75.25 149.21 129.51"/><path class="cls-1" d="M198.86,258.31V209.79H105.12v-36h93.74V125.93l77.19,66.19Zm-87.74-54.52h86.72c5.25,0,7,0,7,3v38.47l62-53.14-62-53.14v40.79H111.12Z"/><rect class="cls-1" x="108.12" y="189.12" width="118.11" height="6"/><path class="cls-1" d="M59.44,153.92a9.74,9.74,0,1,1,9.74-9.74A9.74,9.74,0,0,1,59.44,153.92Zm0-13.47a3.74,3.74,0,1,0,3.74,3.73A3.74,3.74,0,0,0,59.44,140.45Z"/><path class="cls-1" d="M46,89.9a9.73,9.73,0,1,1,9.74-9.73A9.73,9.73,0,0,1,46,89.9Zm0-13.47a3.74,3.74,0,1,0,3.74,3.73A3.74,3.74,0,0,0,46,76.43Z"/><path class="cls-1" d="M251.71,263.15a9.74,9.74,0,1,1,9.74-9.73A9.74,9.74,0,0,1,251.71,263.15Zm0-13.47a3.74,3.74,0,1,0,3.73,3.73A3.74,3.74,0,0,0,251.72,249.68Z"/><path class="cls-1" d="M93.55,210.38,16.36,144.19,93.55,78v48.52h93.74v36H93.55Zm-68-66.19,62,53.14V156.54h93.74v-24H87.55V91Z"/><rect class="cls-1" x="66.18" y="141.18" width="118.11" height="6"/><polygon class="cls-1" points="111.12 119.25 105.12 119.25 105.12 20.02 187.29 20.02 187.29 116.39 181.29 116.39 181.29 26.02 111.12 26.02 111.12 119.25"/><polygon class="cls-1" points="187.29 284.47 105.12 284.47 105.12 223.27 111.12 223.27 111.12 278.47 181.29 278.47 181.29 226.13 187.29 226.13 187.29 284.47"/><polygon class="cls-1" points="93.52 285.19 0 285.19 0 40.04 93.52 40.04 93.52 67.69 87.52 67.69 87.52 46.04 6 46.04 6 279.19 87.52 279.19 87.52 224.14 93.52 224.14 93.52 285.19"/><polygon class="cls-1" points="291.74 285.19 198.22 285.19 198.22 267.33 204.22 267.33 204.22 279.19 285.74 279.19 285.74 6 204.22 6 204.22 117.02 198.22 117.02 198.22 0 291.74 0 291.74 285.19"/><rect class="cls-1" x="3" y="77.17" width="36.23" height="6"/><rect class="cls-1" x="259.51" y="250.42" width="28.23" height="6"/><rect class="cls-1" x="143.21" y="206.79" width="6" height="39.89"/></g></g></svg>