<svg xmlns="http://www.w3.org/2000/svg" xmlns:xlink="http://www.w3.org/1999/xlink" viewBox="0 0 478.21 120.1"><defs><style>.cls-1{fill:#3d586a;}.cls-2{fill:url(#linear-gradient);}.cls-3{fill:url(#linear-gradient-2);}.cls-4{fill:#fff;}</style><linearGradient id="linear-gradient" x1="60.05" y1="121.6" x2="60.05" y2="1.5" gradientTransform="matrix(1, 0, 0, -1, 0, 121.6)" gradientUnits="userSpaceOnUse"><stop offset="0" stop-color="#cce5ef"/><stop offset="1" stop-color="#1fc3f3"/></linearGradient><linearGradient id="linear-gradient-2" x1="17.59" y1="19.13" x2="102.48" y2="104.02" gradientTransform="matrix(1, 0, 0, -1, 0, 121.6)" gradientUnits="userSpaceOnUse"><stop offset="0" stop-color="#00bac0"/><stop offset="1" stop-color="#3d586a"/></linearGradient></defs><title>meddomo</title><g id="Layer_2" data-name="Layer 2"><g id="Layer_1-2" data-name="Layer 1"><path class="cls-1" d="M454.71,36.8a23.5,23.5,0,1,0,23.5,23.5A23.47,23.47,0,0,0,454.71,36.8Zm0,39.8a16.2,16.2,0,1,1,16.2-16.2A16.26,16.26,0,0,1,454.71,76.6Z"/><path class="cls-2" d="M112.61,50.9l-9.4-9.7a22.37,22.37,0,0,1-5.4-9.3L94.11,19A26.05,26.05,0,0,0,75.71.9a27.24,27.24,0,0,0-6.9-.9,25.66,25.66,0,0,0-18.1,7.4L41,16.8a22.37,22.37,0,0,1-9.3,5.4L19,25.8A26.18,26.18,0,0,0,7.41,69.2l9.4,9.7a22.37,22.37,0,0,1,5.4,9.3l3.7,12.9a26.05,26.05,0,0,0,18.4,18.1,27.24,27.24,0,0,0,6.9.9,25.66,25.66,0,0,0,18.1-7.4l9.7-9.4a22.37,22.37,0,0,1,9.3-5.4l12.9-3.7a26.05,26.05,0,0,0,18.1-18.4A26.32,26.32,0,0,0,112.61,50.9Zm2.6,23.9a21.92,21.92,0,0,1-15.3,15.6L87,94.1a27.53,27.53,0,0,0-11,6.3l-9.7,9.4A22.07,22.07,0,0,1,51,116h0a23.16,23.16,0,0,1-5.8-.8,21.92,21.92,0,0,1-15.6-15.3L25.91,87a27.53,27.53,0,0,0-6.3-11l-9.4-9.7A22.15,22.15,0,0,1,20,29.6l12.9-3.7a27.53,27.53,0,0,0,11-6.3l9.7-9.4A22.07,22.07,0,0,1,68.91,4a23.16,23.16,0,0,1,5.8.8,21.92,21.92,0,0,1,15.6,15.3L94,33a27.53,27.53,0,0,0,6.3,11l9.4,9.7A21.87,21.87,0,0,1,115.21,74.8Z"/><path class="cls-3" d="M113,29.4a26,26,0,0,0-22.2-13.1l-13.5-.2a22.48,22.48,0,0,1-10.4-2.8L55.21,6.8a25.87,25.87,0,0,0-12.7-3.3A26.51,26.51,0,0,0,29.41,7a26,26,0,0,0-13.1,22.2l-.2,13.5a22.48,22.48,0,0,1-2.8,10.4L6.81,64.8a26.18,26.18,0,0,0,22.4,38.9l13.5.2a22.48,22.48,0,0,1,10.4,2.8l11.8,6.5a25.87,25.87,0,0,0,12.7,3.3h0a26.51,26.51,0,0,0,13.1-3.5,26,26,0,0,0,13.1-22.2l.2-13.5a22.48,22.48,0,0,1,2.8-10.4l6.5-11.8A26.15,26.15,0,0,0,113,29.4ZM53.21,10.3,65,16.8a26.29,26.29,0,0,0,12.3,3.3l13.5.2a22.18,22.18,0,0,1,19,32.9L103.31,65A26.29,26.29,0,0,0,100,77.3l-.4,13.4a22.27,22.27,0,0,1-22.2,21.8,22.47,22.47,0,0,1-10.7-2.8l-11.8-6.5a26.29,26.29,0,0,0-12.3-3.3l-13.5-.2a22.18,22.18,0,0,1-19-32.9L16.61,55a26.29,26.29,0,0,0,3.3-12.3l.2-13.5a22,22,0,0,1,11.1-18.8,21.77,21.77,0,0,1,11.1-3A23.93,23.93,0,0,1,53.21,10.3Z"/><path class="cls-1" d="M99.41,37.2a45.45,45.45,0,1,0-16.6,62.1A45.68,45.68,0,0,0,99.41,37.2Z"/><path class="cls-4" d="M60.11,102.5h0a42.67,42.67,0,0,1-36.9-21.3,42.6,42.6,0,0,1,15.6-58.1,42.54,42.54,0,1,1,42.5,73.7A41.89,41.89,0,0,1,60.11,102.5Zm-.2-82.9A40.33,40.33,0,0,0,21,49.5a39.92,39.92,0,0,0,4,30.6,40.65,40.65,0,0,0,35,20.2h0a40.63,40.63,0,0,0,20.1-5.4h0a40.35,40.35,0,0,0-20.2-75.3Z"/><path class="cls-4" d="M72.11,38.1a17.74,17.74,0,0,0-12,4.7A17.27,17.27,0,0,0,48,37.9a17.52,17.52,0,0,0-17.5,17.5V76.3A5.48,5.48,0,0,0,36,81.8a5.42,5.42,0,0,0,5.5-5.5V55.5a6.6,6.6,0,0,1,13.2,0V75.7a5.5,5.5,0,1,0,11,0V55.6a6.6,6.6,0,1,1,13.2,0V76.3a5.48,5.48,0,0,0,5.5,5.5,5.42,5.42,0,0,0,5.5-5.5V55.6A18,18,0,0,0,72.11,38.1Zm0,6.9a10.61,10.61,0,0,0-10.6,10.6V75.7a1.4,1.4,0,1,1-2.8,0V55.5a10.6,10.6,0,0,0-21.2,0V76.4a1.4,1.4,0,1,1-2.8,0V55.5A13.51,13.51,0,0,1,48.21,42a13.37,13.37,0,0,1,10.5,5.1l1.6,1.9,1.6-1.9a13.5,13.5,0,0,1,23.9,8.6V76.4a1.4,1.4,0,0,1-2.8,0V55.6A11.14,11.14,0,0,0,72.11,45Z"/><path class="cls-1" d="M402.81,37.4A16.43,16.43,0,0,0,390,43.5a16.52,16.52,0,0,0-29.5,10.3V79a3.7,3.7,0,0,0,7.4,0V53.7a9.2,9.2,0,0,1,18.4,0V77.6a3.7,3.7,0,0,0,7.4,0V53.9a9.2,9.2,0,1,1,18.4,0V79.1a3.7,3.7,0,1,0,7.4,0V53.9A16.69,16.69,0,0,0,402.81,37.4Z"/><path class="cls-1" d="M325.21,36.8a23.5,23.5,0,1,0,23.5,23.5A23.47,23.47,0,0,0,325.21,36.8Zm0,39.8a16.2,16.2,0,1,1,16.2-16.2A16.26,16.26,0,0,1,325.21,76.6Z"/><path class="cls-1" d="M148.61,76.2A16.42,16.42,0,0,1,137,71.3l13.2-7.6,12.7-7.4,1.2-.7,6.5-3.8a25.13,25.13,0,0,0-3.6-6.4,23.5,23.5,0,0,0-42,14.5,22.86,22.86,0,0,0,1.7,8.7,22.54,22.54,0,0,0,3.8,6.3,23.57,23.57,0,0,0,41.4-11.4h-7.5A16.27,16.27,0,0,1,148.61,76.2ZM132.41,60a16.26,16.26,0,0,1,16.2-16.2,15.94,15.94,0,0,1,12,5.4l-12.4,7.2-2.5,1.5-12.4,7.2A15.24,15.24,0,0,1,132.41,60Z"/><path class="cls-1" d="M227.41,13.9a3.69,3.69,0,0,0-3.7,3.7V43.3a23.48,23.48,0,1,0,7.3,17V17.5A3.59,3.59,0,0,0,227.41,13.9Zm-19.9,62.7a16.2,16.2,0,1,1,16.2-16.2A16.26,16.26,0,0,1,207.51,76.6Z"/><path class="cls-1" d="M286.21,13.9a3.69,3.69,0,0,0-3.7,3.7V43.3a23.48,23.48,0,1,0,7.3,17V17.5A3.52,3.52,0,0,0,286.21,13.9Zm-19.8,62.7a16.2,16.2,0,1,1,16.2-16.2A16.26,16.26,0,0,1,266.41,76.6Z"/></g></g></svg>