<svg xmlns="http://www.w3.org/2000/svg" xmlns:xlink="http://www.w3.org/1999/xlink" viewBox="0 0 517.7 92.1"><defs><style>.cls-1{fill:#404041;}.cls-2{fill:url(#linear-gradient);}.cls-3{fill:url(#linear-gradient-2);}</style><linearGradient id="linear-gradient" x1="17.65" y1="15.65" x2="39.59" y2="87.87" gradientTransform="matrix(1, 0, 0, -1, 0, 94.2)" gradientUnits="userSpaceOnUse"><stop offset="0" stop-color="#2175bb"/><stop offset="1" stop-color="#0fa8e0"/></linearGradient><linearGradient id="linear-gradient-2" x1="56.04" y1="3.99" x2="77.98" y2="76.21" xlink:href="#linear-gradient"/></defs><title>safewhistle</title><g id="Layer_2" data-name="Layer 2"><g id="Layer_1-2" data-name="Layer 1"><path class="cls-1" d="M143.1,43.6V71.3c.3,2.3,2.7,3.6,7.2,4l-.2,3c-4.7,0-8-1.3-9.9-4a48.68,48.68,0,0,1-19.4,4.1q-6,0-9.3-3.6c-2.2-2.4-3.3-5.7-3.3-10.1s1.1-7.7,3.2-10,5.5-3.7,10.1-4.1l18.2-1.9v-5c0-4.1-.9-7.1-2.6-8.9s-4.4-2.8-8-2.8a133.36,133.36,0,0,0-15.2,1.2l-3,.4-.3-3.2A112.91,112.91,0,0,1,129,28.7C138.4,28.6,143.1,33.6,143.1,43.6Zm-29,13c-1.5,1.7-2.3,4.3-2.3,7.8s.8,6.1,2.4,8a8.13,8.13,0,0,0,6.6,2.8,40.46,40.46,0,0,0,8.9-1,56.94,56.94,0,0,0,7.4-2l2.7-1V51.6l-17.9,1.8C118.2,53.8,115.6,54.9,114.1,56.6Z"/><path class="cls-1" d="M163.9,32.5V77.4h-3.4V32.5h-6.6V29.4h6.6V23.5c0-6.7.9-11.2,2.7-13.6s5-3.5,9.5-3.5l8.8.3v3c-4.1-.1-7-.2-8.8-.2-3.4,0-5.7.9-7,2.8s-1.9,5.6-1.9,11.3v5.8h15.6v3.1Z"/><path class="cls-1" d="M218.4,74.6l2.9-.2.2,3.1c-7.2.6-13.1.9-17.8.9-6.8-.1-11.5-2.1-14.1-6.2s-3.9-10.3-3.9-18.7c0-16.6,6.5-24.9,19.4-24.9,6.1,0,10.6,1.8,13.7,5.5s4.6,9.5,4.6,17.6v3.2H189.3c0,6.9,1.1,12.1,3.3,15.4s5.8,5,10.8,5S213.4,75,218.4,74.6ZM189.2,51.7h30.5c0-7.2-1.2-12.4-3.5-15.5s-6.1-4.6-11.2-4.6C194.5,31.7,189.2,38.3,189.2,51.7Z"/><path class="cls-1" d="M230.1,10.2h3.5L247,74.1h3.7l14.7-63h4.2l14.7,63H288l13.4-63.9h3.5L290.8,77.4h-9.2L267.5,15.9,253.4,77.4h-9.2Z"/><path class="cls-1" d="M319.6,77.4h-3.4V7.4h3.4v25A42.19,42.19,0,0,1,337,28.7q9,0,12,4.8c2,3.2,3.1,9.6,3.1,19.1v25h-3.4V52.7c0-8.4-.8-14.1-2.3-16.9s-4.9-4.2-10.1-4.2a32.45,32.45,0,0,0-8,1,39.44,39.44,0,0,0-6.4,1.9l-2.3,1V77.4Z"/><path class="cls-1" d="M366.7,15.5V10.2h3.4v5.3Zm0,61.9v-48h3.4v48Z"/><path class="cls-1" d="M399,31.7q-12.9,0-12.9,9.6c0,3,.9,5.1,2.7,6.4s5.8,2.4,11.9,3.3,10.4,2.2,12.9,3.8,3.6,4.8,3.6,9.6-1.5,8.4-4.6,10.6S405,78.3,399,78.3a95.29,95.29,0,0,1-13.1-1.2l-2.8-.4.4-3.2A109.34,109.34,0,0,0,400,75.1q6.15,0,9.9-2.4c2.5-1.6,3.7-4.3,3.7-8.2s-1-6.4-2.9-7.6-6-2.3-12-3.2-10.3-2.2-12.6-3.7-3.6-4.2-3.6-7.9.9-6.6,2.6-8.6a11.85,11.85,0,0,1,6-4,24.57,24.57,0,0,1,7.2-1,96.22,96.22,0,0,1,14.6,1.1l2.5.4-.2,3.2A109,109,0,0,0,399,31.7Z"/><path class="cls-1" d="M453.1,32.5H435.6V57.7c0,7.4.5,12.1,1.6,14.4s3.5,3.3,7.2,3.3l9.4-.8.3,3.1a92.31,92.31,0,0,1-9.7.8c-4.5,0-7.7-1.2-9.5-3.5s-2.7-6.9-2.7-13.6V32.5h-7.6V29.4h7.6V13.8h3.4V29.5h17.5v3Z"/><path class="cls-1" d="M462.9,77.4V7.4h3.4V77.5h-3.4Z"/><path class="cls-1" d="M512.7,74.6l2.9-.2.2,3.1c-7.2.6-13.1.9-17.8.9-6.8-.1-11.5-2.1-14.1-6.2S480,61.9,480,53.5c0-16.6,6.5-24.9,19.4-24.9,6.1,0,10.6,1.8,13.7,5.5s4.6,9.5,4.6,17.6v3.2H483.6c0,6.9,1.1,12.1,3.3,15.4s5.8,5,10.9,5C502.7,75.2,507.8,75,512.7,74.6ZM483.6,51.7h30.5c0-7.2-1.2-12.4-3.5-15.5s-6.1-4.6-11.2-4.6C488.8,31.7,483.6,38.3,483.6,51.7Z"/><path class="cls-1" d="M91.2,48.5c2.4,1.8,3.6,5,3.6,9.7,0,11.1-5.3,16.6-15.9,16.6A176.72,176.72,0,0,1,58,73.2l-.4,3.4,3.6.4a160.4,160.4,0,0,0,17,1.2c6.8,0,12-1.6,15.3-4.7s5-8.3,5-15.5c0-5.7-1.5-9.7-4.6-12-2.1-1.6-5.1-2.8-9-3.8-.6,1-1.4,2-2.2,3.1A21.9,21.9,0,0,1,91.2,48.5Z"/><path class="cls-2" d="M11.8,11.9C8.9,19.1,0,22.8,0,22.8s10.5,4.8,10.5,12V61A18.88,18.88,0,0,0,29.4,79.9h0A19,19,0,0,1,46.9,91.6a.75.75,0,0,0,.7.5.68.68,0,0,0,.7-.7V18.9a18.93,18.93,0,0,0-36.5-7ZM18.9,23a3.6,3.6,0,1,1,3.6-3.6A3.59,3.59,0,0,1,18.9,23Z"/><path class="cls-3" d="M79.9,16v4.7H74.3V16H71A18.88,18.88,0,0,0,52.1,34.9V50.8a3,3,0,0,0,3,3h2.8c15.7,0,24.8-12.2,26.8-18.9a27.85,27.85,0,0,1,10.9-14h3.1V16Z"/></g></g></svg>