<svg xmlns="http://www.w3.org/2000/svg" viewBox="0 0 432.5 107.6"><defs><style>.cls-1{fill:#f16322;}</style></defs><title>sidepitch</title><g id="Layer_2" data-name="Layer 2"><g id="Layer_1-2" data-name="Layer 1"><path class="cls-1" d="M6.3,67.2c5.1,4,10,6.4,15.9,6.4,6.2,0,9.1-2.9,9.1-6.9,0-4.8-6.2-6.9-12.2-9.2C11.5,54.7,3,50.4,3,40.8c0-10,8-17.1,20.9-17.1a31.14,31.14,0,0,1,19,6.9l-6.2,8.2c-4-2.9-8-4.9-12.6-4.9-5.7,0-8.4,2.7-8.4,6.3,0,4.4,5.7,6.3,11.9,8.5C35.4,51.6,44,55.3,44,66.1c0,9.8-7.8,17.7-22.3,17.7A36.61,36.61,0,0,1,0,75.9Z"/><path class="cls-1" d="M68.7,99.9c0,4.5-3.5,7.7-8.3,7.7s-8.3-3.1-8.3-7.7c0-4.4,3.5-7.6,8.3-7.6S68.7,95.5,68.7,99.9ZM67.2,82.3H53.8V25.1H67.2Z"/><path class="cls-1" d="M102.6,23.7c6.5,0,10.6,2.4,15,6.3l-.5-9.2V0h13.4V82.3H119.4l-.9-6.2H118c-4.2,4.2-10,7.6-16.2,7.6-14.3,0-23.5-11.1-23.5-30C78.4,35.1,90.1,23.7,102.6,23.7Zm2.6,48.9c4.4,0,8.2-2,12-6.4V39.5c-4-3.5-7.8-4.8-11.7-4.8-7.3,0-13.3,6.9-13.3,18.9C92.2,66,96.9,72.6,105.2,72.6Z"/><path class="cls-1" d="M167.9,23.7c15.5,0,23.7,11.2,23.7,27.2a25.69,25.69,0,0,1-.6,6.3H154.6c1.2,10.4,7.7,16.2,16.9,16.2a23.8,23.8,0,0,0,13.3-4.2l4.5,8.4a36.43,36.43,0,0,1-19.6,6.2c-15.9,0-28.2-11.1-28.2-30C141.5,35.1,154.5,23.7,167.9,23.7Zm12,24.9c0-9.1-3.8-14.6-11.7-14.6-6.8,0-12.6,5-13.8,14.6Z"/><path class="cls-1" d="M215.4,87v17.9H202V25.1h11.1l.9,6.1h.5c4.8-4.1,11-7.5,17.3-7.5,14.2,0,22.5,11.4,22.5,29.1,0,19.6-11.8,30.9-24.5,30.9-5,0-10-2.3-14.7-6.3ZM227,72.6c7.6,0,13.4-6.8,13.4-19.7,0-11.4-3.7-18.2-12.4-18.2-4.2,0-8.2,2.1-12.6,6.4V67.8C219.6,71.3,223.6,72.6,227,72.6Z"/><path class="cls-1" d="M280.5,99.9c0,4.5-3.5,7.7-8.3,7.7s-8.3-3.1-8.3-7.7c0-4.4,3.5-7.6,8.3-7.6S280.5,95.5,280.5,99.9Zm-1.6-17.6H265.5V25.1h13.4Z"/><path class="cls-1" d="M295.6,35.7h-8.2v-10l8.9-.6,1.6-15.6h11.2V25.1h14.6V35.7H309.1V63c0,6.8,2.6,10,8,10a15.94,15.94,0,0,0,5.9-1.3l2.3,9.9a37.69,37.69,0,0,1-11.7,2.1c-13.3,0-18.2-8.4-18.2-20.7V35.7Z"/><path class="cls-1" d="M357.2,23.7A23.93,23.93,0,0,1,374,30.3l-6.4,8.5c-3-2.7-6.1-4.2-9.7-4.2-9.2,0-15.6,7.6-15.6,19.1s6.3,19,15.3,19c4.7,0,8.6-2.3,11.8-4.9l5.6,8.5a28.53,28.53,0,0,1-18.8,7.3c-15.6,0-27.6-11-27.6-30S341.9,23.7,357.2,23.7Z"/><path class="cls-1" d="M383.7,0h13.4V21.2l-.5,11.1c4.8-4.5,10.5-8.6,18.3-8.6,12.2,0,17.6,8.3,17.6,22.7V82.3H419.1V48.2c0-9.4-2.7-12.9-9-12.9-5,0-8.3,2.4-13.1,7.1v40H383.6V0Z"/></g></g></svg>