<svg xmlns="http://www.w3.org/2000/svg" viewBox="0 0 599.9 108.75"><defs><style>.cls-1{fill:#2c3a4e;}.cls-2{fill:#959ea8;}.cls-3{fill:#a3fb66;}.cls-4{fill:#54958a;}</style></defs><title>analyteum</title><g id="Layer_2" data-name="Layer 2"><g id="Layer_1-2" data-name="Layer 1"><path class="cls-1" d="M152.8,65.37H130.6L126,77.57h-3.3L140.1,32h3.3l17.2,45.6h-3.3Zm-.9-2.4-10.2-27.3L131.5,63Z"/><path class="cls-1" d="M214.5,77.57h-3l-27.4-41.8v41.8h-3V30.78h3l27.4,41.79V30.78h3Z"/><path class="cls-1" d="M265.1,65.37H242.9l-4.6,12.2H235L252.4,32h3.3l17.2,45.6h-3.3Zm-1-2.4-10.2-27.3L243.7,63Z"/><path class="cls-1" d="M296.3,75.18h17.5v2.5H293.3v-47h3Z"/><path class="cls-1" d="M362.9,30.67l-14.8,27.9v19h-3v-19l-15-27.9h3.5l12.9,24.7,12.8-24.7Z"/><path class="cls-1" d="M409.3,30.67v2.5H395.8v44.4h-3.1V33.17H379.3v-2.5Z"/><path class="cls-1" d="M432.1,33.17v19.7h19v2.41h-19V75.07h21v2.5H429.2V30.67h23.9v2.5Z"/><path class="cls-1" d="M477.6,30.67v28.8c0,5.5,1.2,9.4,3.6,12a13,13,0,0,0,9.8,3.81c4.1,0,7.3-1.31,9.6-3.81s3.5-6.5,3.5-12V30.67h3.1v28.8c0,6.31-1.5,10.9-4.4,14s-6.8,4.6-11.8,4.6-9-1.5-11.9-4.6-4.4-7.69-4.4-14V30.67Z"/><path class="cls-1" d="M574.4,31.87v45.7h-3V37.17L554,77.57h-2.7l-17.4-40.2v40.2h-3V31.87h3.4l18.4,41.91L571,31.87Z"/><path class="cls-1" d="M588.5,45.17v18.4a1.12,1.12,0,0,0,1.9.8l9.2-9.2a1.2,1.2,0,0,0,0-1.59l-9.2-9.21A1.12,1.12,0,0,0,588.5,45.17Z"/><path class="cls-1" d="M78.3,22.87,56.1.68a2.22,2.22,0,0,0-3.2,0L30.6,22.87a2.25,2.25,0,0,0,0,3.21L52.9,48.37a2.22,2.22,0,0,0,3.2,0l22.2-22.2A2.35,2.35,0,0,0,78.3,22.87ZM54.5,34.28a9.8,9.8,0,1,1,9.8-9.8A9.82,9.82,0,0,1,54.5,34.28Z"/><path class="cls-1" d="M78.3,82.68,56.1,60.37a2.23,2.23,0,0,0-3.2,0L30.6,82.68a2.22,2.22,0,0,0,0,3.19l22.2,22.2a2.23,2.23,0,0,0,3.2,0l22.2-22.2A2.14,2.14,0,0,0,78.3,82.68ZM54.5,95.07a10.8,10.8,0,1,1,10.8-10.8A10.82,10.82,0,0,1,54.5,95.07Z"/><circle class="cls-2" cx="54.5" cy="84.28" r="7.2"/><path class="cls-3" d="M60.4,55.87l18.7,18.7a2.12,2.12,0,0,0,3.6-1.5V35.67a2.12,2.12,0,0,0-3.6-1.5L60.4,52.87A2.17,2.17,0,0,0,60.4,55.87Z"/><path class="cls-4" d="M108.3,52.87,89.6,34.17a2.12,2.12,0,0,0-3.6,1.5v37.4a2.12,2.12,0,0,0,3.6,1.5l18.7-18.7A2.17,2.17,0,0,0,108.3,52.87Z"/><path class="cls-4" d="M.6,55.87l18.7,18.7a2.12,2.12,0,0,0,3.6-1.5V35.67a2.12,2.12,0,0,0-3.6-1.5L.6,52.87A2.17,2.17,0,0,0,.6,55.87Z"/><path class="cls-3" d="M48.6,52.87,29.9,34.17a2.12,2.12,0,0,0-3.6,1.5v37.4a2.12,2.12,0,0,0,3.6,1.5l18.7-18.7A2.17,2.17,0,0,0,48.6,52.87Z"/></g></g></svg>