<svg xmlns="http://www.w3.org/2000/svg" viewBox="0 0 62.29 40.68"><defs><style>.cls-1{fill:#fff;}</style></defs><title>arrow-down-white</title><g id="Layer_2" data-name="Layer 2"><g id="Layer_1-2" data-name="Layer 1"><g id="Layer_2-2" data-name="Layer 2"><g id="Layer_1-2-2" data-name="Layer 1-2"><path class="cls-1" d="M30.78,21.16a.37.37,0,0,0,.51.08.34.34,0,0,0,.09-.08L52.55.14q.15-.15.6,0l9,9a.38.38,0,0,1,.06.53l-.06.07L31.38,40.38a.38.38,0,0,0-.15.3h-.3l-.15-.3L.15,9.75a.38.38,0,0,1-.07-.54l.07-.06,9-9A.37.37,0,0,1,9.68.08a.46.46,0,0,1,.07.07Z"/></g></g></g></g></svg>