<svg xmlns="http://www.w3.org/2000/svg" viewBox="0 0 411.4 73.1"><defs><style>.cls-1{fill:#2c3e50;}.cls-2{fill:#61a8c4;}.cls-3{fill:#ea622d;}</style></defs><title>cozilo</title><g id="Layer_2" data-name="Layer 2"><g id="Layer_1-2" data-name="Layer 1"><path class="cls-1" d="M49,20a15.25,15.25,0,0,0-5.5-4.2,18.08,18.08,0,0,0-7.6-1.5,19.45,19.45,0,0,0-8,1.7,20.9,20.9,0,0,0-6.4,4.6,21.9,21.9,0,0,0-4.2,7.1,25.58,25.58,0,0,0-1.5,8.9,25.18,25.18,0,0,0,1.5,8.9,20.43,20.43,0,0,0,4.2,7,18.59,18.59,0,0,0,6.2,4.6,18.08,18.08,0,0,0,7.7,1.7,17.27,17.27,0,0,0,8.3-2,16.59,16.59,0,0,0,6-5.5l12.7,9.5a26.52,26.52,0,0,1-11.1,9.1,33.66,33.66,0,0,1-13.9,2.9,42.94,42.94,0,0,1-15-2.5A33.11,33.11,0,0,1,10.6,63,34.43,34.43,0,0,1,2.8,51.5,38.34,38.34,0,0,1,0,36.4,38.34,38.34,0,0,1,2.8,21.3,33,33,0,0,1,10.6,9.8,34,34,0,0,1,22.4,2.5,42.55,42.55,0,0,1,37.4,0a43,43,0,0,1,6.1.5,36.82,36.82,0,0,1,6.3,1.7,30.35,30.35,0,0,1,5.9,3.1,23.12,23.12,0,0,1,5.1,4.8Z"/><path class="cls-2" d="M126.3,52.6a20,20,0,0,1-6.8,4.6,22.63,22.63,0,0,1-8.8,1.7,22.27,22.27,0,0,1-8.8-1.7,21.49,21.49,0,0,1-6.8-4.6,20.06,20.06,0,0,1-4.3-7,25.58,25.58,0,0,1-1.5-8.9,25.58,25.58,0,0,1,1.5-8.9,22.13,22.13,0,0,1,4.3-7.1,20,20,0,0,1,6.8-4.6,22.63,22.63,0,0,1,8.8-1.7,22.27,22.27,0,0,1,8.8,1.7,21.49,21.49,0,0,1,6.8,4.6,22.09,22.09,0,0,1,3.3,4.7h16.9c-.4-1.3-.8-2.6-1.3-3.8a33,33,0,0,0-7.8-11.5,34,34,0,0,0-11.8-7.3,42.55,42.55,0,0,0-15-2.5,42.94,42.94,0,0,0-15,2.5,33.11,33.11,0,0,0-11.8,7.3A34.43,34.43,0,0,0,76,21.6a38.34,38.34,0,0,0-2.8,15.1A38.69,38.69,0,0,0,76,51.8a33,33,0,0,0,7.8,11.5,34,34,0,0,0,11.8,7.3,42.55,42.55,0,0,0,15,2.5,42.94,42.94,0,0,0,15-2.5,33.11,33.11,0,0,0,11.8-7.3,34.43,34.43,0,0,0,7.8-11.5c.5-1.2.9-2.5,1.3-3.8H129.6A24.27,24.27,0,0,1,126.3,52.6Z"/><path class="cls-2" d="M153.7,30.5H137.6a24.28,24.28,0,0,1,.7,6.1,23.75,23.75,0,0,1-.7,6.1h16.1a40.77,40.77,0,0,0,.4-6.1A39.91,39.91,0,0,0,153.7,30.5Z"/><path class="cls-3" d="M346.4,36.6a29.17,29.17,0,0,1,.7-6.1H331a40.77,40.77,0,0,0-.4,6.1,39.91,39.91,0,0,0,.4,6.1h16.1A23.75,23.75,0,0,1,346.4,36.6Z"/><path class="cls-3" d="M408.6,21.6a33,33,0,0,0-7.8-11.5A34,34,0,0,0,389,2.8a46.25,46.25,0,0,0-30,0,33.11,33.11,0,0,0-11.8,7.3,34.43,34.43,0,0,0-7.8,11.5c-.5,1.2-.9,2.5-1.3,3.8H355a19.29,19.29,0,0,1,10.1-9.3,22.63,22.63,0,0,1,8.8-1.7,22.27,22.27,0,0,1,8.8,1.7,21.49,21.49,0,0,1,6.8,4.6,22.37,22.37,0,0,1,4.4,7.1,25.58,25.58,0,0,1,1.5,8.9,25.18,25.18,0,0,1-1.5,8.9,19.4,19.4,0,0,1-4.4,7,20,20,0,0,1-6.8,4.6,22.63,22.63,0,0,1-8.8,1.7,22.27,22.27,0,0,1-8.8-1.7,21.49,21.49,0,0,1-6.8-4.6,22.09,22.09,0,0,1-3.3-4.7H338.1c.4,1.3.8,2.6,1.3,3.8a33,33,0,0,0,7.8,11.5A34,34,0,0,0,359,70.5,42.55,42.55,0,0,0,374,73a42.94,42.94,0,0,0,15-2.5,33.11,33.11,0,0,0,11.8-7.3,34.43,34.43,0,0,0,7.8-11.5,38.34,38.34,0,0,0,2.8-15.1A37.84,37.84,0,0,0,408.6,21.6Z"/><path class="cls-1" d="M163.4,54.2,196,15.5H162.2V2h52.3v9.7a9.94,9.94,0,0,1-2.4,6.6L180.1,57h35.6V71.1H161V60.9A11,11,0,0,1,163.4,54.2Z"/><path class="cls-1" d="M239.2,2h15.2V71.2H239.2Z"/><path class="cls-1" d="M278.7,2h15.2V57.1h31.8V71.2h-40a7,7,0,0,1-7-7Z"/></g></g></svg>