<svg xmlns="http://www.w3.org/2000/svg" xmlns:xlink="http://www.w3.org/1999/xlink" viewBox="0 0 599.8 62.49"><defs><style>.cls-1{fill:#414042;}.cls-2{fill:url(#linear-gradient);}</style><linearGradient id="linear-gradient" x1="40.27" y1="56.4" x2="31" y2="6.37" gradientTransform="matrix(1, 0, 0, -1, 0, 64.58)" gradientUnits="userSpaceOnUse"><stop offset="0" stop-color="#a5dc00"/><stop offset="1" stop-color="#00c8eb"/></linearGradient></defs><title>ensureum</title><g id="Layer_2" data-name="Layer 2"><g id="Layer_1-2" data-name="Layer 1"><path class="cls-1" d="M109.75,16.09h-6q-7.05,0-10.5,3.3c-2.3,2.2-3.4,5.8-3.4,10.6v8.4c0,4.7,1.1,8.2,3.4,10.5s5.8,3.4,10.5,3.4h6c4.1,0,7.3-.7,9.6-2.2a9.62,9.62,0,0,0,4.1-6.8,2.2,2.2,0,0,0-.5-2,2.58,2.58,0,0,0-2-.7,2.71,2.71,0,0,0-1.9.6,3.74,3.74,0,0,0-.9,1.9,4.07,4.07,0,0,1-2.4,3.1,15.08,15.08,0,0,1-6,.9h-6a14.16,14.16,0,0,1-5.2-.8,4.74,4.74,0,0,1-2.6-2.6,13.58,13.58,0,0,1-.8-5.1v-2.1h25.9a2.35,2.35,0,0,0,1.9-.7,2.49,2.49,0,0,0,.7-1.9v-3.7c0-4.8-1.1-8.3-3.4-10.5C118.05,17.19,114.55,16.09,109.75,16.09Zm8.6,14.9H95.15V30a14.16,14.16,0,0,1,.8-5.2,5.26,5.26,0,0,1,2.6-2.7,12.26,12.26,0,0,1,5.2-.7h6a14.16,14.16,0,0,1,5.2.8,4.74,4.74,0,0,1,2.6,2.6,13.79,13.79,0,0,1,.8,5.2Z"/><path class="cls-1" d="M177.85,16.09h-2c-5.4,0-9.3,1.6-11.8,4.7v-2a2.35,2.35,0,0,0-.7-1.9,2.49,2.49,0,0,0-1.9-.7,2.35,2.35,0,0,0-1.9.7,2.49,2.49,0,0,0-.7,1.9v30.8a2.35,2.35,0,0,0,.7,1.9,2.49,2.49,0,0,0,1.9.7,2.35,2.35,0,0,0,1.9-.7,2.49,2.49,0,0,0,.7-1.9V27.19c0-1.9,1.1-3.4,3.2-4.4a20.42,20.42,0,0,1,8.6-1.5h2a14.16,14.16,0,0,1,5.2.8,4.74,4.74,0,0,1,2.6,2.6,13.79,13.79,0,0,1,.8,5.2v19.6a2.35,2.35,0,0,0,.7,1.9,2.49,2.49,0,0,0,1.9.7,2.35,2.35,0,0,0,1.9-.7,2.49,2.49,0,0,0,.7-1.9V29.89c0-4.8-1.1-8.3-3.4-10.5C186.15,17.19,182.65,16.09,177.85,16.09Z"/><path class="cls-1" d="M247.75,31.09h-11.7c-1.9,0-3.3-.3-3.9-1s-1-2-1-3.9.3-3.3,1-3.9a6.1,6.1,0,0,1,3.9-1h11.4a8,8,0,0,1,3.1.5,2.65,2.65,0,0,1,1.4,1.8,3.77,3.77,0,0,0,1,1.9,3.11,3.11,0,0,0,3.8-.1,2,2,0,0,0,.5-2c-.9-4.8-4.1-7.2-9.8-7.2h-11.4c-3.4,0-6,.8-7.6,2.5s-2.5,4.2-2.5,7.7q0,10.2,10.2,10.2H248a6.41,6.41,0,0,1,4.2,1.1c.7.7,1.1,2.1,1.1,4.2s-.4,3.5-1.1,4.2-2.1,1.1-4.2,1.1H236a7.57,7.57,0,0,1-3.5-.6,2.81,2.81,0,0,1-1.5-2.1,3.77,3.77,0,0,0-1-1.9,3.11,3.11,0,0,0-3.8.1,2,2,0,0,0-.5,2,8.59,8.59,0,0,0,3.2,5.8c1.7,1.3,4.1,1.9,7.2,1.9h12c3.6,0,6.2-.9,7.9-2.6s2.6-4.4,2.6-7.9-.9-6.2-2.6-7.9C254,32,251.35,31.09,247.75,31.09Z"/><path class="cls-1" d="M322.35,16.09a2.35,2.35,0,0,0-1.9.7,2.49,2.49,0,0,0-.7,1.9V41c0,1.9-1.1,3.4-3.2,4.4a20.42,20.42,0,0,1-8.6,1.5h-2a14.16,14.16,0,0,1-5.2-.8,4.74,4.74,0,0,1-2.6-2.6,13.79,13.79,0,0,1-.8-5.2V18.69a2.35,2.35,0,0,0-.7-1.9,2.49,2.49,0,0,0-1.9-.7,2.35,2.35,0,0,0-1.9.7,2.49,2.49,0,0,0-.7,1.9v19.6c0,4.7,1.1,8.2,3.4,10.5s5.8,3.4,10.5,3.4h2c5.4,0,9.3-1.6,11.8-4.7v2a2.35,2.35,0,0,0,.7,1.9,2.49,2.49,0,0,0,1.9.7,2.35,2.35,0,0,0,1.9-.7,2.49,2.49,0,0,0,.7-1.9V18.69a2.35,2.35,0,0,0-.7-1.9A2.72,2.72,0,0,0,322.35,16.09Z"/><path class="cls-1" d="M380.25,16.09a18.44,18.44,0,0,0-8,1.6,13.88,13.88,0,0,0-5.6,4.9v-3.9a2.35,2.35,0,0,0-.7-1.9,2.49,2.49,0,0,0-1.9-.7,2.35,2.35,0,0,0-1.9.7,2.49,2.49,0,0,0-.7,1.9v30.8a2.35,2.35,0,0,0,.7,1.9,2.49,2.49,0,0,0,1.9.7,2.35,2.35,0,0,0,1.9-.7,2.49,2.49,0,0,0,.7-1.9v-18a9,9,0,0,1,3.5-7.5c2.3-1.8,5.7-2.7,10-2.7a2.35,2.35,0,0,0,1.9-.7,2.49,2.49,0,0,0,.7-1.9,2.35,2.35,0,0,0-.7-1.9C381.75,16.29,381.15,16.09,380.25,16.09Z"/><path class="cls-1" d="M430.25,16.09h-6q-7,0-10.5,3.3c-2.3,2.2-3.4,5.8-3.4,10.6v8.4c0,4.7,1.1,8.2,3.4,10.5s5.8,3.4,10.5,3.4h6c4.1,0,7.3-.7,9.6-2.2a9.62,9.62,0,0,0,4.1-6.8,2.2,2.2,0,0,0-.5-2,2.58,2.58,0,0,0-2-.7,2.71,2.71,0,0,0-1.9.6,3.74,3.74,0,0,0-.9,1.9,4.07,4.07,0,0,1-2.4,3.1,15.08,15.08,0,0,1-6,.9h-6a14.16,14.16,0,0,1-5.2-.8,4.74,4.74,0,0,1-2.6-2.6,13.58,13.58,0,0,1-.8-5.1v-2.1h25.9a2.35,2.35,0,0,0,1.9-.7,2.49,2.49,0,0,0,.7-1.9v-3.7c0-4.8-1.1-8.3-3.4-10.5C438.45,17.19,435,16.09,430.25,16.09Zm8.6,14.9h-23.2V30a14.16,14.16,0,0,1,.8-5.2,5.26,5.26,0,0,1,2.6-2.7,12.26,12.26,0,0,1,5.2-.7h6a14.16,14.16,0,0,1,5.2.8,4.74,4.74,0,0,1,2.6,2.6,13.79,13.79,0,0,1,.8,5.2Z"/><path class="cls-1" d="M508.85,16.09a2.35,2.35,0,0,0-1.9.7,2.49,2.49,0,0,0-.7,1.9V41c0,1.9-1.1,3.4-3.2,4.4a20.42,20.42,0,0,1-8.6,1.5h-2a14.16,14.16,0,0,1-5.2-.8,4.74,4.74,0,0,1-2.6-2.6,13.79,13.79,0,0,1-.8-5.2V18.69a2.35,2.35,0,0,0-.7-1.9,2.49,2.49,0,0,0-1.9-.7,2.35,2.35,0,0,0-1.9.7,2.49,2.49,0,0,0-.7,1.9v19.6c0,4.7,1.1,8.2,3.4,10.5s5.8,3.4,10.5,3.4h2c5.4,0,9.3-1.6,11.8-4.7v2a2.35,2.35,0,0,0,.7,1.9,2.49,2.49,0,0,0,1.9.7,2.35,2.35,0,0,0,1.9-.7,2.49,2.49,0,0,0,.7-1.9V18.69a2.35,2.35,0,0,0-.7-1.9A2.72,2.72,0,0,0,508.85,16.09Z"/><path class="cls-1" d="M597.15,19.19c-1.9-2.1-5-3.1-9.4-3.1h-3a10.7,10.7,0,0,0-5.7,1.3,12.48,12.48,0,0,0-4,4.2,8.88,8.88,0,0,0-3.9-4.2,14.44,14.44,0,0,0-6.8-1.3h-1.5a13.63,13.63,0,0,0-5.6,1.1,12.55,12.55,0,0,0-4.1,3.6v-2.1a2.28,2.28,0,0,0-2.6-2.6,2.33,2.33,0,0,0-2.6,2.6v30.8a2.28,2.28,0,0,0,2.6,2.6,2.33,2.33,0,0,0,2.6-2.6V29.69c0-3,.6-5.1,1.9-6.4s3.4-1.9,6.3-1.9h3c2.5,0,4.3.6,5.3,1.9s1.6,3.4,1.6,6.4v19.9a2.28,2.28,0,0,0,2.6,2.6,2.33,2.33,0,0,0,2.6-2.6V29.69c0-3,.6-5.1,1.9-6.4s3.4-1.9,6.3-1.9h3c2.5,0,4.3.6,5.3,1.9s1.6,3.4,1.6,6.4v19.9a2.6,2.6,0,0,0,5.2,0V29.69C600.05,24.79,599.15,21.29,597.15,19.19Z"/><path class="cls-2" d="M61.05,48.49a5.66,5.66,0,0,0-2.9.2l-14.1-21L60.45,18a2.52,2.52,0,0,0-.3-4.5L27.05.19a2.5,2.5,0,0,0-3.2,1.2L8.15,31.79a2.68,2.68,0,0,0,.1,2.6l4.6,6.9-11.6,6.8a2.53,2.53,0,0,0,1.2,4.7l18.7.7,5.3,7.9a2.42,2.42,0,0,0,2.7,1l27.3-6.6a4.42,4.42,0,0,0,3.4,1.6,4.61,4.61,0,0,0,4.5-5.5A4.41,4.41,0,0,0,61.05,48.49Zm-5.6-32.3-13.7,8.1L29.35,5.69Zm-43.1,16.7,14.4-28,13.5,20.2-23.7,14Zm-4,15.9,6.9-4.1,3,4.5ZM19,42.59l23.7-14,14.1,21.1a3.92,3.92,0,0,0-.8,1l-32.5-1.2Zm10.4,15.5-2.9-4.4,18.2.7Z"/></g></g></svg>